<svg xmlns="http://www.w3.org/2000/svg" viewBox="0 0 816.87 1469.71"><defs><style>.cls-1{font-size:20px;}.cls-1,.cls-2,.cls-5{font-family:TwCenMT-Regular, Tw Cen MT;}.cls-2,.cls-5{font-size:22px;}.cls-2{stroke:#000;stroke-width:0.5px;}.cls-2,.cls-29,.cls-30,.cls-31,.cls-32,.cls-33{stroke-miterlimit:10;}.cls-3{letter-spacing:-0.02em;}.cls-4{letter-spacing:-0.03em;}.cls-6{letter-spacing:0.02em;}.cls-7{letter-spacing:-0.01em;}.cls-8{letter-spacing:-0.02em;}.cls-9{letter-spacing:-0.02em;}.cls-10{letter-spacing:0.03em;}.cls-11{letter-spacing:0.04em;}.cls-12{letter-spacing:-0.08em;}.cls-13{letter-spacing:0.04em;}.cls-14{letter-spacing:0.04em;}.cls-15{letter-spacing:-0.05em;}.cls-16{letter-spacing:-0.05em;}.cls-17{letter-spacing:-0.07em;}.cls-18{letter-spacing:0.44em;}.cls-19{letter-spacing:0.44em;}.cls-20{letter-spacing:0.01em;}.cls-21{letter-spacing:-0.06em;}.cls-22{letter-spacing:0.09em;}.cls-23{letter-spacing:0.09em;}.cls-24{letter-spacing:0.04em;}.cls-25{letter-spacing:0.04em;}.cls-26{letter-spacing:-0.04em;}.cls-27{letter-spacing:0.14em;}.cls-28{letter-spacing:0.14em;}.cls-29{fill:#286c99;}.cls-29,.cls-30,.cls-31,.cls-32,.cls-33{stroke:#fff;}.cls-30{fill:#4fbae9;}.cls-31{fill:#fcd313;}.cls-32{fill:#f37920;}.cls-33{fill:#951920;}.cls-34{fill:#edc951;}.cls-35{fill:#4caf50;}.cls-36{fill:#388e3c;}.cls-37{fill:#ffce00;}.cls-38{fill:#ffb100;}.cls-39{fill:#ffe454;}.cls-40{fill:#a7eedc;}.cls-41{fill:#86e8d0;}.cls-42{letter-spacing:-0.06em;}.cls-43{letter-spacing:-0.05em;}.cls-44{fill:#9e9e9e;}.cls-45{fill:#7f8e94;}.cls-46{fill:#545c60;}.cls-47{fill:#fec108;}.cls-48{fill:#ffdc00;}.cls-49{fill:#02a9f4;}.cls-50{fill:#37474f;}.cls-51{fill:#f5f5f5;}.cls-52{fill:#fce3a0;}.cls-53{fill:#ffce71;}.cls-54{fill:#ffb357;}.cls-55{fill:#ff8e9e;}.cls-56{fill:#4c5659;}.cls-57{fill:#83e26f;}.cls-58{fill:#5ece4a;}.cls-59{fill:#1566c0;}.cls-60{fill:#2296f3;}.cls-61{fill:#00838f;}.cls-62{fill:#00bcd4;}.cls-63{font-size:26px;font-family:TwCenMT-Bold, Tw Cen MT;font-weight:700;}</style></defs><title>Asset 109</title><g id="Layer_2" data-name="Layer 2"><g id="_750_x_5766_px_Artboard_2" data-name="750 x 5766 px Artboard 2"><g id="Graphic_Elements" data-name="Graphic Elements"><text class="cls-1" transform="translate(215.13 1453.43) rotate(-90)"><tspan xml:space="preserve">                 &gt;200                     200                                            150                                            100                                           50                                             0                 </tspan></text></g></g><g id="_1366_x_3620_x_Artboard_1" data-name="1366 x 3620 x Artboard 1"><text class="cls-2" transform="translate(381.8 59.74)">E<tspan class="cls-3" x="9.64" y="0">v</tspan><tspan x="18.83" y="0">er</tspan><tspan class="cls-4" x="37.16" y="0">y</tspan><tspan x="47.5" y="0">one else</tspan></text><text class="cls-5" transform="translate(253.78 135.65)">-NO CHANGE needed to <tspan class="cls-4" x="228.25" y="0">y</tspan><tspan x="238.59" y="0">our no</tspan><tspan class="cls-6" x="293.26" y="0">r</tspan><tspan x="301.03" y="0">mal outdoor activitie</tspan><tspan class="cls-7" x="480.5" y="0">s</tspan><tspan x="487.61" y="0">.</tspan></text><text class="cls-5" transform="translate(253.56 400.55)">-NO CHANGE needed to <tspan class="cls-4" x="228.25" y="0">y</tspan><tspan x="238.59" y="0">our no</tspan><tspan class="cls-6" x="293.26" y="0">r</tspan><tspan x="301.03" y="0">mal outdoor activitie</tspan><tspan class="cls-7" x="480.5" y="0">s</tspan><tspan x="487.61" y="0">.</tspan></text><text class="cls-5" transform="translate(253.13 659.86)">-REDUCE<tspan class="cls-8" x="77.46" y="0"> </tspan><tspan x="83" y="0">outdoor</tspan><tspan class="cls-8" x="151.06" y="0"> </tspan><tspan x="156.6" y="0">p</tspan><tspan class="cls-3" x="168.74" y="0">h</tspan><tspan x="177.93" y="0">ysical</tspan><tspan class="cls-9" x="226.51" y="0"> </tspan><tspan x="232.04" y="0">activity</tspan><tspan class="cls-8" x="294.85" y="0"> </tspan><tspan x="300.39" y="0">i</tspan><tspan class="cls-10" x="305.21" y="0">f</tspan><tspan class="cls-8" x="313.19" y="0"> </tspan><tspan class="cls-4" x="318.73" y="0">y</tspan><tspan x="329.08" y="0">ou</tspan><tspan class="cls-9" x="349.71" y="0"> </tspan><tspan x="355.25" y="0">de</tspan><tspan class="cls-3" x="378.39" y="0">v</tspan><tspan x="387.58" y="0">elop</tspan><tspan class="cls-8" x="426.54" y="0"> </tspan><tspan x="432.08" y="0">symptoms</tspan><tspan class="cls-8" x="516.18" y="0"> </tspan><tspan x="521.72" y="0">su</tspan><tspan class="cls-11" x="538.68" y="0">c</tspan><tspan x="548.03" y="0">h </tspan><tspan x="0" y="26.4">as cough or sho</tspan><tspan class="cls-6" x="134.84" y="26.4">r</tspan><tspan x="142.6" y="26.4">tness o</tspan><tspan class="cls-10" x="200.92" y="26.4">f</tspan><tspan x="208.9" y="26.4" xml:space="preserve"> breath</tspan></text><text class="cls-5" transform="translate(252.82 937.43)">-<tspan class="cls-12" x="7.33" y="0">A</tspan><tspan class="cls-4" x="18.85" y="0">V</tspan><tspan x="31.49" y="0">OID</tspan><tspan class="cls-13" x="66.56" y="0"> </tspan><tspan x="73.5" y="0">outdoor</tspan><tspan class="cls-14" x="141.56" y="0"> </tspan><tspan x="148.5" y="0">p</tspan><tspan class="cls-3" x="160.64" y="0">h</tspan><tspan x="169.83" y="0">ysical</tspan><tspan class="cls-13" x="218.41" y="0"> </tspan><tspan x="225.35" y="0">activity</tspan><tspan class="cls-14" x="288.16" y="0"> </tspan><tspan x="295.09" y="0">i</tspan><tspan class="cls-10" x="299.92" y="0">f</tspan><tspan class="cls-13" x="307.9" y="0"> </tspan><tspan class="cls-4" x="314.84" y="0">y</tspan><tspan x="325.18" y="0">ou</tspan><tspan class="cls-14" x="345.82" y="0"> </tspan><tspan x="352.76" y="0">de</tspan><tspan class="cls-3" x="375.89" y="0">v</tspan><tspan x="385.09" y="0">elop</tspan><tspan class="cls-13" x="424.05" y="0"> </tspan><tspan x="430.99" y="0">symptoms</tspan><tspan class="cls-14" x="515.09" y="0"> </tspan><tspan x="522.03" y="0">su</tspan><tspan class="cls-11" x="538.99" y="0">c</tspan><tspan x="548.34" y="0">h </tspan><tspan x="0" y="26.4">as cough or sho</tspan><tspan class="cls-6" x="134.84" y="26.4">r</tspan><tspan x="142.6" y="26.4">tness o</tspan><tspan class="cls-10" x="200.92" y="26.4">f</tspan><tspan x="208.9" y="26.4" xml:space="preserve"> breath.</tspan><tspan x="0" y="52.8">-When</tspan><tspan class="cls-15" x="59.6" y="52.8"> </tspan><tspan x="64.49" y="52.8">indoor</tspan><tspan class="cls-3" x="120.42" y="52.8">s</tspan><tspan x="127.3" y="52.8">,</tspan><tspan class="cls-15" x="132.13" y="52.8"> </tspan><tspan x="137.02" y="52.8">close</tspan><tspan class="cls-15" x="179.63" y="52.8"> </tspan><tspan x="184.53" y="52.8">wind</tspan><tspan class="cls-4" x="225.8" y="52.8">o</tspan><tspan x="236.15" y="52.8">ws</tspan><tspan class="cls-15" x="258.15" y="52.8"> </tspan><tspan x="263.04" y="52.8">and</tspan><tspan class="cls-16" x="296.95" y="52.8"> </tspan><tspan x="301.85" y="52.8">doors</tspan><tspan class="cls-15" x="350.64" y="52.8"> </tspan><tspan x="355.53" y="52.8">until</tspan><tspan class="cls-15" x="390.41" y="52.8"> </tspan><tspan x="395.31" y="52.8">outdoor</tspan><tspan class="cls-15" x="463.37" y="52.8"> </tspan><tspan x="468.27" y="52.8">air</tspan><tspan class="cls-15" x="492.56" y="52.8"> </tspan><tspan x="497.45" y="52.8">quality </tspan><tspan x="0" y="79.2">is bette</tspan><tspan class="cls-17" x="64.28" y="79.2">r</tspan><tspan x="70.07" y="79.2">.</tspan><tspan x="0" y="105.6">-I</tspan><tspan class="cls-10" x="12.15" y="105.6">f</tspan><tspan class="cls-18" x="20.13" y="105.6"> </tspan><tspan class="cls-4" x="35.91" y="105.6">y</tspan><tspan x="46.26" y="105.6">ou</tspan><tspan class="cls-18" x="66.89" y="105.6"> </tspan><tspan x="82.68" y="105.6">are</tspan><tspan class="cls-19" x="113.14" y="105.6"> </tspan><tspan x="128.93" y="105.6">conce</tspan><tspan class="cls-6" x="177.49" y="105.6">r</tspan><tspan x="185.26" y="105.6">ned</tspan><tspan class="cls-18" x="218.03" y="105.6"> </tspan><tspan x="233.81" y="105.6">about</tspan><tspan class="cls-18" x="284.69" y="105.6"> </tspan><tspan x="300.47" y="105.6">symptoms</tspan><tspan class="cls-18" x="384.57" y="105.6"> </tspan><tspan x="400.36" y="105.6">call</tspan><tspan class="cls-19" x="430.61" y="105.6"> </tspan><tspan x="446.39" y="105.6">the</tspan><tspan class="cls-18" x="472.99" y="105.6"> </tspan><tspan x="488.77" y="105.6">24-hour </tspan><tspan x="0" y="132">-HealthDirect helpline on 1800 022 222 or see </tspan><tspan class="cls-4" x="421.15" y="132">y</tspan><tspan x="431.49" y="132">our docto</tspan><tspan class="cls-17" x="514.09" y="132">r</tspan><tspan x="519.88" y="132">.</tspan><tspan x="0" y="158.4">-In a health emer</tspan><tspan class="cls-3" x="149.33" y="158.4">g</tspan><tspan x="161.03" y="158.4">en</tspan><tspan class="cls-20" x="181.66" y="158.4">c</tspan><tspan class="cls-17" x="190.34" y="158.4">y</tspan><tspan x="199.8" y="158.4">, call triple ze</tspan><tspan class="cls-3" x="319.79" y="158.4">r</tspan><tspan x="326.68" y="158.4">o (000) </tspan><tspan class="cls-3" x="398.16" y="158.4">f</tspan><tspan x="405.04" y="158.4">or an ambulanc</tspan><tspan class="cls-7" x="540.93" y="158.4">e</tspan><tspan x="551.72" y="158.4">.</tspan></text><text class="cls-5" transform="translate(252.82 1201.28)">-S<tspan class="cls-3" x="18.33" y="0">T</tspan><tspan class="cls-21" x="27.52" y="0">A</tspan><tspan x="39.47" y="0">Y</tspan><tspan class="cls-22" x="51.61" y="0"> </tspan><tspan x="59.72" y="0">INDOORS</tspan><tspan class="cls-23" x="148.43" y="0"> </tspan><tspan x="156.54" y="0">as</tspan><tspan class="cls-22" x="176" y="0"> </tspan><tspan class="cls-6" x="184.11" y="0">m</tspan><tspan x="199.23" y="0">u</tspan><tspan class="cls-11" x="208.86" y="0">c</tspan><tspan x="218.21" y="0">h</tspan><tspan class="cls-23" x="227.85" y="0"> </tspan><tspan x="235.96" y="0">as</tspan><tspan class="cls-22" x="255.42" y="0"> </tspan><tspan x="263.53" y="0">possible</tspan><tspan class="cls-23" x="334.11" y="0"> </tspan><tspan x="342.22" y="0">with</tspan><tspan class="cls-22" x="377.32" y="0"> </tspan><tspan x="385.43" y="0">wind</tspan><tspan class="cls-4" x="426.7" y="0">o</tspan><tspan x="437.04" y="0">ws</tspan><tspan class="cls-23" x="459.04" y="0"> </tspan><tspan x="467.16" y="0">and</tspan><tspan class="cls-22" x="501.07" y="0"> </tspan><tspan x="509.18" y="0">doors </tspan><tspan x="0" y="26.4">closed until outdoor air quality is bette</tspan><tspan class="cls-17" x="337.13" y="26.4">r</tspan><tspan x="342.92" y="26.4">.</tspan><tspan x="0" y="52.8">-I</tspan><tspan class="cls-10" x="12.15" y="52.8">f</tspan><tspan class="cls-24" x="20.13" y="52.8"> </tspan><tspan class="cls-4" x="27.05" y="52.8">y</tspan><tspan x="37.4" y="52.8">ou</tspan><tspan class="cls-24" x="58.03" y="52.8"> </tspan><tspan x="64.95" y="52.8">feel</tspan><tspan class="cls-24" x="99.1" y="52.8"> </tspan><tspan x="106.02" y="52.8">that</tspan><tspan class="cls-24" x="139.72" y="52.8"> </tspan><tspan x="146.64" y="52.8">the</tspan><tspan class="cls-24" x="173.24" y="52.8"> </tspan><tspan x="180.16" y="52.8">air</tspan><tspan class="cls-25" x="204.44" y="52.8"> </tspan><tspan x="211.36" y="52.8">in</tspan><tspan class="cls-24" x="225.82" y="52.8"> </tspan><tspan class="cls-4" x="232.74" y="52.8">y</tspan><tspan x="243.09" y="52.8">our</tspan><tspan class="cls-24" x="271.05" y="52.8"> </tspan><tspan x="277.97" y="52.8">home</tspan><tspan class="cls-24" x="324.28" y="52.8"> </tspan><tspan x="331.2" y="52.8">is</tspan><tspan class="cls-24" x="343.35" y="52.8"> </tspan><tspan x="350.27" y="52.8">uncom</tspan><tspan class="cls-3" x="403.68" y="52.8">f</tspan><tspan x="410.56" y="52.8">o</tspan><tspan class="cls-6" x="421.56" y="52.8">r</tspan><tspan x="429.33" y="52.8">tabl</tspan><tspan class="cls-26" x="464.39" y="52.8">e</tspan><tspan x="474.51" y="52.8">,</tspan><tspan class="cls-24" x="479.34" y="52.8"> </tspan><tspan x="486.26" y="52.8">consider </tspan><tspan x="0" y="79.2">going</tspan><tspan class="cls-27" x="49.74" y="79.2"> </tspan><tspan x="58.94" y="79.2">to</tspan><tspan class="cls-28" x="75.91" y="79.2"> </tspan><tspan x="85.11" y="79.2">a</tspan><tspan class="cls-27" x="97.25" y="79.2"> </tspan><tspan x="106.46" y="79.2">place</tspan><tspan class="cls-27" x="155.02" y="79.2"> </tspan><tspan x="164.23" y="79.2">with</tspan><tspan class="cls-28" x="199.33" y="79.2"> </tspan><tspan x="208.53" y="79.2">cleaner</tspan><tspan class="cls-27" x="272.92" y="79.2"> </tspan><tspan x="282.13" y="79.2">air</tspan><tspan class="cls-27" x="306.42" y="79.2"> </tspan><tspan x="315.62" y="79.2">(su</tspan><tspan class="cls-11" x="338.55" y="79.2">c</tspan><tspan x="347.89" y="79.2">h</tspan><tspan class="cls-27" x="357.53" y="79.2"> </tspan><tspan x="366.74" y="79.2">as</tspan><tspan class="cls-28" x="386.2" y="79.2"> </tspan><tspan x="395.41" y="79.2">an</tspan><tspan class="cls-27" x="417.18" y="79.2"> </tspan><tspan x="426.39" y="79.2">ai</tspan><tspan class="cls-4" x="443.35" y="79.2">r</tspan><tspan x="450.02" y="79.2">-conditioned </tspan><tspan x="0" y="105.6">building li</tspan><tspan class="cls-3" x="85.87" y="105.6">k</tspan><tspan x="95.07" y="105.6">e a lib</tspan><tspan class="cls-7" x="152.13" y="105.6">r</tspan><tspan x="159.24" y="105.6">ary or shopping centre) i</tspan><tspan class="cls-10" x="375.32" y="105.6">f</tspan><tspan x="383.3" y="105.6" xml:space="preserve"> it is safe to do s</tspan><tspan class="cls-3" x="527.87" y="105.6">o</tspan><tspan x="538.43" y="105.6">.</tspan><tspan x="0" y="132">-I</tspan><tspan class="cls-10" x="12.15" y="132">f</tspan><tspan class="cls-18" x="20.13" y="132"> </tspan><tspan class="cls-4" x="35.91" y="132">y</tspan><tspan x="46.26" y="132">ou</tspan><tspan class="cls-19" x="66.89" y="132"> </tspan><tspan x="82.68" y="132">are</tspan><tspan class="cls-18" x="113.14" y="132"> </tspan><tspan x="128.93" y="132">conce</tspan><tspan class="cls-6" x="177.49" y="132">r</tspan><tspan x="185.26" y="132">ned</tspan><tspan class="cls-19" x="218.03" y="132"> </tspan><tspan x="233.81" y="132">about</tspan><tspan class="cls-18" x="284.69" y="132"> </tspan><tspan x="300.47" y="132">symptoms</tspan><tspan class="cls-18" x="384.57" y="132"> </tspan><tspan x="400.36" y="132">call</tspan><tspan class="cls-19" x="430.61" y="132"> </tspan><tspan x="446.39" y="132">the</tspan><tspan class="cls-18" x="472.99" y="132"> </tspan><tspan x="488.77" y="132">24-hour </tspan><tspan x="0" y="158.4">-HealthDirect helpline on 1800 022 222 or see </tspan><tspan class="cls-4" x="421.15" y="158.4">y</tspan><tspan x="431.49" y="158.4">our docto</tspan><tspan class="cls-17" x="514.09" y="158.4">r</tspan><tspan x="519.88" y="158.4">.</tspan><tspan x="0" y="184.8">In a health emer</tspan><tspan class="cls-3" x="142" y="184.8">g</tspan><tspan x="153.7" y="184.8">en</tspan><tspan class="cls-20" x="174.33" y="184.8">c</tspan><tspan class="cls-17" x="183.01" y="184.8">y</tspan><tspan x="192.48" y="184.8">, call triple ze</tspan><tspan class="cls-3" x="312.47" y="184.8">r</tspan><tspan x="319.35" y="184.8">o (000) </tspan><tspan class="cls-3" x="390.83" y="184.8">f</tspan><tspan x="397.72" y="184.8">or an ambulanc</tspan><tspan class="cls-7" x="533.61" y="184.8">e</tspan><tspan x="544.39" y="184.8">.</tspan></text><rect class="cls-29" x="38" y="230.34" width="268.26" height="23" transform="translate(413.98 69.71) rotate(90)"/><rect class="cls-30" x="38" y="498.6" width="268.26" height="23" transform="translate(682.24 337.97) rotate(90)"/><rect class="cls-31" x="38" y="766.38" width="268.26" height="23" transform="translate(950.01 605.74) rotate(90)"/><rect class="cls-32" x="38" y="1034.63" width="268.26" height="23" transform="translate(1218.27 874) rotate(90)"/><rect class="cls-33" x="38" y="1300.76" width="268.26" height="23" transform="translate(1484.4 1140.13) rotate(90)"/><g id="group-51svg"><path id="path-1" class="cls-34" d="M125.59,475.23a33.66,33.66,0,1,1-33.65-33.65A33.64,33.64,0,0,1,125.59,475.23Z"/><path id="path-2" d="M104.31,486H68.51a1.68,1.68,0,0,1,0-3.36h35.8a1.68,1.68,0,0,1,0,3.36Z"/><path id="path-3" d="M104.31,464.73H94.24a1.68,1.68,0,1,1,0-3.36h10.07a1.68,1.68,0,0,1,0,3.36Z"/><path id="path-4" d="M79.7,464.73H68.51a1.68,1.68,0,0,1,0-3.36H79.7a1.68,1.68,0,0,1,0,3.36Z"/><path id="path-5" d="M85.63,507.41A35.33,35.33,0,1,1,121,472.08,35.38,35.38,0,0,1,85.63,507.41Zm0-67.3a32,32,0,1,0,32,32A32,32,0,0,0,85.63,440.11Z"/></g><path class="cls-35" d="M139.58,478.4a.85.85,0,0,0-.78-.52c-32.43,0-35.94,13.45-35.94,19.23,0,7.5,5.71,12.54,14.21,12.54,10.74,0,13-10.22,14.19-15.7a28.33,28.33,0,0,1,8.13-14.64A.85.85,0,0,0,139.58,478.4Z"/><path class="cls-36" d="M103.7,514.66a.84.84,0,0,1-.84-.83c0-5,8.62-20.92,22.21-27.5a.83.83,0,1,1,.72,1.5h0c-13.72,6.65-21.26,22.09-21.26,26A.83.83,0,0,1,103.7,514.66Z"/><path d="M117.07,509.65c-8.5,0-14.21-5-14.21-12.54,0-5.78,3.5-19.23,35.94-19.23a.85.85,0,0,1,.78.53.83.83,0,0,1-.2.92,28,28,0,0,0-8.12,14.61C130.06,499.43,127.81,509.65,117.07,509.65Zm19.73-30.07c-11.11.23-32.27,2.64-32.27,17.53,0,6.5,5,10.87,12.54,10.87,8.67,0,11-7.43,12.56-14.39A29.65,29.65,0,0,1,136.8,479.58Z"/><path d="M103.7,514.66a.84.84,0,0,1-.84-.83c0-5,8.62-20.92,22.21-27.5a.83.83,0,1,1,.72,1.5c-13.72,6.65-21.26,22.09-21.26,26A.83.83,0,0,1,103.7,514.66Z"/><text class="cls-5" transform="translate(68.78 555.71)"><tspan class="cls-7">F</tspan><tspan x="9.42" y="0">air</tspan></text><path class="cls-37" d="M113,1033a35,35,0,0,0-1-8.19,33,33,0,0,0-7.36-10,34.86,34.86,0,0,0-42.86,5.67l11.38-4.93,1.58,3.66-12.61,5.46-1.35-3.11A34.74,34.74,0,0,0,52,1046a35.1,35.1,0,0,0,1.26,8.13,33.15,33.15,0,0,0,6,8.07A34.85,34.85,0,0,0,113,1033Zm-21.43-17.41,12.61,5.47-1.58,3.65-12.62-5.46ZM98.65,1031a4,4,0,1,1-4-4A4,4,0,0,1,98.65,1031ZM70,1027a4,4,0,1,1-4,4A4,4,0,0,1,70,1027Z"/><path class="cls-38" d="M112,1024.79a34.87,34.87,0,0,1-33.88,43,34.63,34.63,0,0,1-18.93-5.59A32.85,32.85,0,0,0,112,1024.79Z"/><path class="cls-39" d="M60.77,1021.58l-.23-.54,1.23-.54a34.86,34.86,0,0,1,42.86-5.67,32.85,32.85,0,0,0-51.41,39.34A35.1,35.1,0,0,1,52,1046,34.74,34.74,0,0,1,60.77,1021.58Z"/><path d="M82.34,1002.11A36.85,36.85,0,1,0,119.18,1039,36.88,36.88,0,0,0,82.34,1002.11Zm0,69.7a32.77,32.77,0,0,1-23.16-9.57,33.15,33.15,0,0,1-6-8.07,32.86,32.86,0,1,1,29.12,17.64Zm-13.91-.89.18.07Z"/><circle cx="70.02" cy="1030.99" r="3.98"/><circle cx="94.66" cy="1030.99" r="3.98"/><rect x="95.05" y="1013.26" width="3.98" height="13.75" transform="translate(-877.64 703.77) rotate(-66.58)"/><polygon points="60.77 1021.58 62.12 1024.69 74.73 1019.23 73.15 1015.57 61.77 1020.5 60.54 1021.04 60.77 1021.58"/><path class="cls-40" d="M108.39,1039.76c3.45,11,3.49,20.92,0,29.87a1.27,1.27,0,0,1-.72.72,66.61,66.61,0,0,1-50.45,0,1.28,1.28,0,0,1-.73-.75,42.19,42.19,0,0,1,0-29.86,1.26,1.26,0,0,1,.77-.76q26.61-9.52,50.37,0A1.32,1.32,0,0,1,108.39,1039.76Z"/><path class="cls-41" d="M91.6,1074.66a66.73,66.73,0,0,1-34.36-4.3,1.28,1.28,0,0,1-.73-.75,42.19,42.19,0,0,1,0-29.86,1.26,1.26,0,0,1,.77-.76c2.59-.93,5.17-1.72,7.72-2.38-2.29,7.09-1.39,19-.52,26.26a9.33,9.33,0,0,0,6.76,7.87c5.94,1.69,15,4,20.37,3.92Z"/><path d="M118.32,1041.61l-.24-.41a6.59,6.59,0,0,0-9-2.34A2.34,2.34,0,0,0,108,1038c-1.82-.72-3.69-1.38-5.56-2a1.06,1.06,0,0,0-1.33.7,1,1,0,0,0,.7,1.32c1.81.55,3.63,1.19,5.39,1.9a.21.21,0,0,1,.13.13c.26.82.49,1.63.71,2.44a148,148,0,0,0-51.42.13c.26-.85.54-1.7.84-2.54a.21.21,0,0,1,.13-.13A78.57,78.57,0,0,1,78,1035.49a64.51,64.51,0,0,1,19.4,1.38,1.07,1.07,0,0,0,1.28-.8,1.05,1.05,0,0,0-.8-1.26c-13-3-26.78-1.88-40.95,3.18a2.37,2.37,0,0,0-1.18.93,6.57,6.57,0,0,0-9,2.28l-.24.41a6.44,6.44,0,0,0-.37,5.81l8.53,19.89c.27.89.57,1.78.89,2.67a2.33,2.33,0,0,0,1.34,1.36,69.87,69.87,0,0,0,25.61,5h0a69.88,69.88,0,0,0,25.62-5,2.33,2.33,0,0,0,1.32-1.33,38,38,0,0,0,1.28-3.91l8-18.68a6.47,6.47,0,0,0-.37-5.81Zm-9.45,22.94a137.29,137.29,0,0,1-42.25,1.64,1.07,1.07,0,0,0-1.18.93,1.05,1.05,0,0,0,.94,1.17,139.08,139.08,0,0,0,16.12.94,141.26,141.26,0,0,0,25.76-2.41c-.26.82-.54,1.63-.85,2.43a.2.2,0,0,1-.12.12,67.77,67.77,0,0,1-24.83,4.89h0a67.91,67.91,0,0,1-24.82-4.88.22.22,0,0,1-.12-.13q-.45-1.2-.81-2.4c1.7.31,3.4.6,5.1.85H62a1.06,1.06,0,0,0,1-.9,1,1,0,0,0-.9-1.2c-2-.3-4-.65-6-1a41.24,41.24,0,0,1-1.18-8H86.82a1.06,1.06,0,1,0,0-2.11h-32c0-1,0-2,.12-3a1.06,1.06,0,0,0-2.12-.16,41.3,41.3,0,0,0,0,6.39L48,1046.59a4.35,4.35,0,0,1,.25-3.91l.24-.42a4.44,4.44,0,0,1,6.43-1.32,49.76,49.76,0,0,0-1.49,5.79,1,1,0,0,0,.85,1.23.68.68,0,0,0,.2,0,1.07,1.07,0,0,0,1-.86q.21-1.11.48-2.22a145.75,145.75,0,0,1,52.6-.12,48.5,48.5,0,0,1,1.25,9.71H91.75a1.06,1.06,0,1,0,0,2.11H109.9a38.45,38.45,0,0,1-1,8Zm7.86-18-4.73,11a51.38,51.38,0,0,0-2.15-16.72,4.43,4.43,0,0,1,6.38,1.35l.25.42a4.35,4.35,0,0,1,.25,3.91Z"/><text class="cls-5" transform="translate(39.3 1119.08)"><tspan class="cls-42">V</tspan><tspan x="11.97" y="0">ery </tspan><tspan class="cls-43" x="47.36" y="0">P</tspan><tspan x="57.27" y="0">oor</tspan></text><g id="Page-1"><path id="Shape" class="cls-44" d="M54.64,1291.54c-1.91.71-5.31-3.7-7.71-9.94-2.61-6.81-3-13-1-13.78h0l0,0c2-.62,5.47,4.09,7.85,10.57s2.77,12.45.81,13.17Z"/><path class="cls-45" d="M65.36,1287.5a1.08,1.08,0,0,1-.41.25h0l-10.3,3.79c2-.72,1.6-6.62-.81-13.17S48,1267.18,46,1267.8l9-3.33,1.59-.59c1.95-.72,5.53,4.08,7.93,10.62,2.24,6.06,2.39,11.63.84,13Z"/><path class="cls-46" d="M64.52,1274.5c-2.4-6.54-6-11.34-7.93-10.62l-1.59.59-.2.07c1.9,1.52,4.21,5.28,5.93,10,2.24,6.06,2.39,11.63.84,13a1.16,1.16,0,0,1-.41.25h0l-5.4,2c-.18,1-.55,1.6-1.11,1.8l10.3-3.79h0a1.08,1.08,0,0,0,.41-.25c1.55-1.37,1.4-6.94-.84-13Z"/><path class="cls-47" d="M90.15,1272c0,1.29-2.62,13.63-2.62,13.76-1,4.16-4,5.9-6.9,5.9l-.59,0-.6,0c-2.87,0-5.86-1.74-6.9-5.9,0-.13-2.62-12.47-2.62-13.76,0-6.56,5.17-9.69,10.12-9.39,4.94-.3,10.11,2.83,10.11,9.39Z"/><circle id="Oval" class="cls-45" cx="80.04" cy="1272.66" r="5.06"/><path class="cls-48" d="M109.07,1236c0,2-.15,5-.39,8.34-.15,2-.33,4-.57,6.1a60.5,60.5,0,0,1-2.79,13.36l-.25.66-1.58-.59c-2-.72-5.54,4.08-7.94,10.62-2.24,6.06-2.39,11.63-.84,13-.39,1-2.07,4.12-8.35,4.12H80.63c2.87,0,5.87-1.74,6.9-5.9,0-.13,2.62-12.47,2.62-13.76,0-6.56-5.17-9.69-10.11-9.39-5-.3-10.12,2.83-10.12,9.39,0,1.29,2.62,13.63,2.62,13.76,1,4.16,4,5.9,6.9,5.9H73.71c-6.28,0-8-3.07-8.35-4.12,1.55-1.37,1.4-6.94-.84-13-2.4-6.54-6-11.34-7.93-10.62l-1.59.59c-.08-.23-.17-.45-.25-.66A60.5,60.5,0,0,1,52,1250.45c-.24-2.09-.42-4.15-.57-6.1C51.15,1241,51,1238,51,1236a11.7,11.7,0,0,1,2-6.92,1,1,0,0,0,.13-.16,11.65,11.65,0,0,1,8.51-4.72l3.2-.24v.65a2.54,2.54,0,0,0,2.52,2.53h1.27a2.55,2.55,0,0,0,2.53-2.53v-1c5.39-.26,8.85-.26,8.85-.26s3.45,0,8.85.26v1a2.54,2.54,0,0,0,2.52,2.53h1.27a2.55,2.55,0,0,0,2.53-2.53V1224l3.19.24a11.65,11.65,0,0,1,8.51,4.72,1,1,0,0,0,.13.16,11.63,11.63,0,0,1,2,6.92Z"/><path class="cls-47" d="M107,1229.09a1,1,0,0,1-.13-.16,11.65,11.65,0,0,0-8.51-4.72l-3.19-.24v.33a11.54,11.54,0,0,1,7.91,4.63,1,1,0,0,0,.13.16,11.7,11.7,0,0,1,2,6.92c0,2-.15,5-.39,8.34-.15,2-.33,4-.57,6.1a60.5,60.5,0,0,1-2.79,13.36l-.26.66-1.58-.59c-2-.72-5.53,4.08-7.94,10.62-2.23,6.06-2.38,11.63-.83,13-.39,1-2.07,4.12-8.36,4.12h3.8c6.28,0,8-3.07,8.35-4.12-1.55-1.37-1.4-6.94.84-13,2.4-6.54,6-11.34,7.94-10.62l1.58.59.25-.66a60.5,60.5,0,0,0,2.79-13.36c.24-2.09.42-4.15.57-6.1.24-3.37.36-6.36.39-8.34a11.63,11.63,0,0,0-2-6.92Z"/><path class="cls-44" d="M113.14,1281.6c-2.4,6.24-5.8,10.65-7.71,9.94s-1.6-6.62.81-13.17,5.94-11.26,7.9-10.55h0C116.19,1268.57,115.75,1274.79,113.14,1281.6Z"/><path class="cls-45" d="M114.14,1267.82c-2-.71-5.5,4-7.9,10.55s-2.77,12.45-.81,13.17l-10.3-3.79h0a1.16,1.16,0,0,1-.41-.25c-1.55-1.37-1.4-6.94.84-13,2.4-6.54,6-11.34,7.94-10.62l1.58.59Z"/><rect id="Rectangle-path" class="cls-49" x="64.87" y="1218.3" width="6.32" height="8.85" rx="2.53"/><rect class="cls-49" x="88.89" y="1218.3" width="6.32" height="8.85" rx="2.53"/><path class="cls-49" d="M52,1250.45a3.61,3.61,0,0,1-.65.15l-3.78.38a2.52,2.52,0,0,1-2.75-2.28l-.13-1.25a2.48,2.48,0,0,1,.56-1.85,2.54,2.54,0,0,1,1.7-.92l3.78-.37a2.34,2.34,0,0,1,.7,0c.15,2,.33,4,.57,6.1Z"/><path class="cls-49" d="M115.42,1247.45l-.13,1.25a2.52,2.52,0,0,1-2.75,2.28l-3.78-.38a3.61,3.61,0,0,1-.65-.15c.24-2.09.42-4.15.57-6.1a2.36,2.36,0,0,1,.7,0l3.78.37a2.54,2.54,0,0,1,1.7.92,2.48,2.48,0,0,1,.56,1.85Z"/><circle class="cls-45" cx="80.04" cy="1284.04" r="2.53"/><path class="cls-50" d="M103.82,1240.86c-.17,3.32-.43,6.46-.77,9.31a10.43,10.43,0,0,1-8.48,9h0a7.5,7.5,0,0,1-7.2-2.71h0a7.44,7.44,0,0,0-5.85-2.81H78.58a7.44,7.44,0,0,0-5.85,2.81h0a7.51,7.51,0,0,1-7.21,2.71,10.43,10.43,0,0,1-8.48-9c-.34-2.85-.6-6-.78-9.31a2.54,2.54,0,0,1,.87-2,2.57,2.57,0,0,1,2.16-.57c3.86.82,10.25,1.55,20.76,1.55s16.89-.73,20.76-1.55a2.54,2.54,0,0,1,2.15.57,2.51,2.51,0,0,1,.87,2Z"/><path class="cls-51" d="M57.43,1253.27a1.26,1.26,0,0,1-.92-2.13L68.2,1238.6a1.26,1.26,0,0,1,1.85,1.72l-11.69,12.54a1.31,1.31,0,0,1-.93.41Z"/><path class="cls-51" d="M60.51,1258a1.26,1.26,0,0,1-.92-2.12l15.84-17a1.24,1.24,0,0,1,1.21-.36,1.28,1.28,0,0,1,.93.86,1.26,1.26,0,0,1-.29,1.23l-15.84,17a1.26,1.26,0,0,1-.93.4Z"/><path d="M80,1266.34a6.32,6.32,0,1,0,6.32,6.32A6.32,6.32,0,0,0,80,1266.34Zm0,10.11a3.79,3.79,0,1,1,3.79-3.79A3.8,3.8,0,0,1,80,1276.45Z"/><path d="M65.92,1233.67A85.58,85.58,0,0,0,80,1234.73a85.46,85.46,0,0,0,14.11-1.06,1.29,1.29,0,0,0,1-.81,1.31,1.31,0,0,0-.21-1.25,1.29,1.29,0,0,0-1.19-.44,82.63,82.63,0,0,1-13.69,1,82.67,82.67,0,0,1-13.7-1,1.27,1.27,0,1,0-.42,2.5Z"/><path d="M44.89,1251.39a3.73,3.73,0,0,0,2.39.86h.38l3.22-.33a60.28,60.28,0,0,0,2.51,11.81l-7.91,2.91a2.77,2.77,0,0,0-1.57,1.56c-1.14,2.51-.42,8,1.84,13.86,2.16,5.62,5.51,10.83,8.48,10.83a2.45,2.45,0,0,0,.85-.15l9.74-3.58c1,1.56,3.48,3.73,8.89,3.73H86.36c5.42,0,7.85-2.17,8.9-3.73l9.73,3.58a2.45,2.45,0,0,0,.85.15c3,0,6.32-5.22,8.48-10.83,2.26-5.91,3-11.35,1.84-13.86a2.81,2.81,0,0,0-1.56-1.56h0l-7.9-2.91a60.19,60.19,0,0,0,2.51-11.8l3.22.32.38,0a3.74,3.74,0,0,0,2.39-.87,3.8,3.8,0,0,0,1.37-2.56l.12-1.25a3.74,3.74,0,0,0-.83-2.78,3.85,3.85,0,0,0-2.56-1.38l-3.25-.31c.18-2.85.27-5.34.31-7.07a13,13,0,0,0-2.26-7.67l-.14-.18a12.79,12.79,0,0,0-9.43-5.23l-2-.16v-2a3.8,3.8,0,0,0-3.79-3.8H91.41a3.8,3.8,0,0,0-3.79,3.8v1.46c-4.61-.2-7.55-.2-7.58-.2s-3,0-7.59.2v-1.46a3.8,3.8,0,0,0-3.79-3.8H67.39a3.8,3.8,0,0,0-3.79,3.8v2l-2,.16a12.77,12.77,0,0,0-9.42,5.24l-.15.17a13,13,0,0,0-2.26,7.67c.05,1.72.13,4.22.32,7.07l-3.26.31a3.81,3.81,0,0,0-3.4,4.16l.13,1.25a3.8,3.8,0,0,0,1.37,2.56Zm19.61,35.17-7.42,2.74c.34-3-.6-7.38-2.06-11.37s-3.6-7.93-5.8-10l7.78-2.87h0c.93,0,3.95,3.42,6.32,9.86s1.89,11.19,1.15,11.62Zm-16.39-5.41c-2.79-7.31-2.38-11.71-1.77-12.14.68-.08,3.76,2.87,6.31,9.8s2.13,11.12,1.57,11.55h0c-.69.05-3.56-2.59-6.11-9.21Zm38.19,4.29c-1,3.9-3.82,5.09-6.16,4.9h-.21c-2.32.19-5.17-1-6.16-4.9,0-.24-.14-.72-.38-1.85-.54-2.64-2.19-10.68-2.21-11.62a7.93,7.93,0,0,1,2.37-6,8.53,8.53,0,0,1,6.4-2.16h.16a8.54,8.54,0,0,1,6.4,2.16,8,8,0,0,1,2.38,6c0,1-1.67,9-2.22,11.63-.23,1.13-.33,1.61-.37,1.85ZM110.84,1268c-2.19,2-4.32,6-5.78,10s-2.41,8.38-2.07,11.37l-7.43-2.74c-.74-.43-1.25-5,1.17-11.63s5.48-9.91,6.32-9.86Zm1.13,13.2c-2.56,6.63-5.44,9.28-6.09,9.22-.58-.43-1-4.63,1.55-11.56s5.54-9.81,6.26-9.81h0C114.34,1269.46,114.75,1273.86,112,1281.15Zm1.06-35.21a1.25,1.25,0,0,1,1.14,1.38l-.13,1.26a1.29,1.29,0,0,1-.46.86,1.24,1.24,0,0,1-.91.28l-3.18-.32c.14-1.28.25-2.55.35-3.77Zm-22.88-25.11a1.27,1.27,0,0,1,1.26-1.27h1.27a1.26,1.26,0,0,1,1.26,1.27v3.79a1.25,1.25,0,0,1-1.26,1.26H91.41a1.26,1.26,0,0,1-1.26-1.26Zm-24,0a1.27,1.27,0,0,1,1.26-1.27h1.27a1.26,1.26,0,0,1,1.26,1.27v3.79a1.25,1.25,0,0,1-1.26,1.26H67.39a1.26,1.26,0,0,1-1.26-1.26Zm-12.1,9,.16-.2a10.31,10.31,0,0,1,7.58-4.2l1.91-.14a3.78,3.78,0,0,0,3.71,3.08h1.27a3.79,3.79,0,0,0,3.77-3.59c4.62-.2,7.57-.2,7.61-.2s3,0,7.6.2a3.79,3.79,0,0,0,3.77,3.59h1.27a3.78,3.78,0,0,0,3.72-3.08l1.9.14a10.33,10.33,0,0,1,7.61,4.23,1.09,1.09,0,0,0,.13.17,10.44,10.44,0,0,1,1.77,6.11c-.14,5.53-.75,19-3.5,26.87l-.39-.15c-1.56-.57-3.33.44-5.25,3a34.12,34.12,0,0,0-4.32,8.35c-1.88,5.12-2.68,10.94-1.12,13.59-.65,1-2.37,2.66-6.72,2.7a9.59,9.59,0,0,0,2.25-4.33.5.5,0,0,0,0-.12c0-.17.17-.84.37-1.8,1.65-8,2.26-11.33,2.26-12.13a10.38,10.38,0,0,0-3.16-7.82A11.06,11.06,0,0,0,80,1261.3a11.07,11.07,0,0,0-8.22,2.85,10.38,10.38,0,0,0-3.16,7.82c0,.8.61,4.09,2.26,12.13.2,1,.34,1.63.37,1.79a.59.59,0,0,0,0,.13,9.75,9.75,0,0,0,2.26,4.34c-4.36,0-6.08-1.67-6.73-2.7,1.56-2.65.76-8.47-1.13-13.59a33.87,33.87,0,0,0-4.31-8.37c-1.92-2.57-3.69-3.58-5.25-3l-.39.14C53,1255,52.4,1241.51,52.26,1236a10.41,10.41,0,0,1,1.77-6.1Zm-7,16.07,3.19-.31c.1,1.22.22,2.49.35,3.77l-3.17.32a1.24,1.24,0,0,1-.91-.28,1.29,1.29,0,0,1-.46-.87l-.13-1.25a1.27,1.27,0,0,1,1.13-1.38Z"/><path d="M80,1280.24a3.8,3.8,0,1,0,3.79,3.8A3.8,3.8,0,0,0,80,1280.24Zm0,5.06A1.27,1.27,0,1,1,81.3,1284,1.27,1.27,0,0,1,80,1285.3Z"/><path d="M65.29,1260.46a8.19,8.19,0,0,0,1.57.15,8.74,8.74,0,0,0,6.74-3.18,1.42,1.42,0,0,0,.12-.13,6.16,6.16,0,0,1,4.86-2.34h2.91a6.16,6.16,0,0,1,4.87,2.34.69.69,0,0,0,.11.13,8.76,8.76,0,0,0,8.33,3,11.66,11.66,0,0,0,9.51-10.15c.34-2.9.61-6.06.78-9.4a3.8,3.8,0,0,0-1.33-3.09,3.73,3.73,0,0,0-3.22-.82,105.12,105.12,0,0,1-20.5,1.51,105.07,105.07,0,0,1-20.5-1.51,3.79,3.79,0,0,0-4.55,3.92c.17,3.34.44,6.5.78,9.39a11.65,11.65,0,0,0,9.52,10.14ZM58,1239.75a1.23,1.23,0,0,1,1.06-.27,107.18,107.18,0,0,0,21,1.57,107.3,107.3,0,0,0,21-1.57,1.21,1.21,0,0,1,1,.27,1.26,1.26,0,0,1,.45,1c-.17,3.29-.42,6.39-.76,9.23a9.14,9.14,0,0,1-7.46,8,6.19,6.19,0,0,1-6-2.24l-.11-.12a8.68,8.68,0,0,0-6.75-3.19H78.58a8.7,8.7,0,0,0-6.74,3.17l-.11.13a6.23,6.23,0,0,1-6,2.25,9.16,9.16,0,0,1-7.46-8c-.34-2.84-.59-5.94-.77-9.23A1.3,1.3,0,0,1,58,1239.75Z"/></g><text class="cls-5" transform="translate(37.68 1333.83)">Extremely<tspan x="20.56" y="18"> </tspan><tspan class="cls-43" x="26.63" y="18">P</tspan><tspan x="36.53" y="18">oor</tspan></text><text class="cls-5" transform="translate(64.88 299.83)">Good</text><path class="cls-52" d="M118.2,189.68a6.84,6.84,0,0,0-1.84-.78,6.8,6.8,0,0,0-.78-1.84,1.07,1.07,0,0,0-1.82,0,7.13,7.13,0,0,0-.78,1.84,7.13,7.13,0,0,0-1.84.78,1.07,1.07,0,0,0,0,1.82,6.8,6.8,0,0,0,1.84.78,6.84,6.84,0,0,0,.78,1.84,1.06,1.06,0,0,0,1.82,0,6.54,6.54,0,0,0,.78-1.84,6.54,6.54,0,0,0,1.84-.78,1.06,1.06,0,0,0,0-1.82Z"/><path class="cls-53" d="M124.17,216.06a33.48,33.48,0,1,1-22-31.45A33.5,33.5,0,0,1,124.17,216.06Z"/><path class="cls-54" d="M80.25,216.06a33.47,33.47,0,0,1,22-31.45,33.48,33.48,0,1,0,0,62.9A33.5,33.5,0,0,1,80.25,216.06Z"/><path class="cls-55" d="M80.13,217.5c0,2.71-2.78,4.9-6.19,4.89s-6.17-2.22-6.16-4.93,2.78-4.91,6.19-4.9S80.14,214.78,80.13,217.5Z"/><path class="cls-55" d="M101.25,217.56c0,2.72,2.75,4.93,6.16,4.94s6.18-2.18,6.18-4.9-2.74-4.92-6.15-4.94S101.26,214.85,101.25,217.56Z"/><path class="cls-56" d="M95.68,213.77c0-3.08-2.22-3.38-5-3.38s-5,.27-5,3.35,2.21,5.57,5,5.58,5-2.48,5-5.55Z"/><path class="cls-52" d="M73,238.18a11,11,0,0,0-3-1.28,11.4,11.4,0,0,0-1.28-3,1.75,1.75,0,0,0-3,0,11.08,11.08,0,0,0-1.28,3,11.08,11.08,0,0,0-3,1.28,1.74,1.74,0,0,0,0,3,11.08,11.08,0,0,0,3,1.28,11.08,11.08,0,0,0,1.28,3,1.75,1.75,0,0,0,3,0,11.4,11.4,0,0,0,1.28-3,11,11,0,0,0,3-1.28A1.74,1.74,0,0,0,73,238.18Z"/><path d="M90.7,220.33a6.3,6.3,0,0,0,6-6.56,3.83,3.83,0,0,0-2-3.74,8.65,8.65,0,0,0-4-.65c-2.09,0-6,0-6,4.35,0,3.63,2.67,6.59,6,6.6Zm-4-6.59c0-1.86.82-2.36,4-2.34s4,.47,4,2.36c0,2.49-1.78,4.56-4,4.55A4.3,4.3,0,0,1,86.73,213.74Z"/><path d="M74.63,213.14a1,1,0,0,0,1-1,1.93,1.93,0,0,1,3.86,0,1,1,0,0,0,1,1h0a1,1,0,0,0,1-1,4,4,0,0,0-3.94-4h0a4,4,0,0,0-3.95,3.93,1,1,0,0,0,1,1Z"/><path d="M100.9,213.22a1,1,0,0,0,1-1,1.93,1.93,0,0,1,1.93-1.92h0a1.93,1.93,0,0,1,1.92,1.94,1,1,0,0,0,1,1h0a1,1,0,0,0,1-1,4,4,0,0,0-3.94-4h0a4,4,0,0,0-4,3.94,1,1,0,0,0,1,1Z"/><path d="M111.72,240.8a32.49,32.49,0,0,1-39.52,2,13.8,13.8,0,0,0,1.37-.73,2.75,2.75,0,0,0,0-4.71,12,12,0,0,0-2.73-1.24,11.89,11.89,0,0,0-1.23-2.72,2.76,2.76,0,0,0-4.72,0,11.93,11.93,0,0,0-.74,1.42A32.48,32.48,0,0,1,64,197.52a1,1,0,0,0-1.66-1.15h0a34.5,34.5,0,0,0,.45,40,12.22,12.22,0,0,0-1.88.94,2.76,2.76,0,0,0,0,4.71,12,12,0,0,0,2.73,1.24A12.34,12.34,0,0,0,64.89,246a2.76,2.76,0,0,0,4.72,0,11.43,11.43,0,0,0,1-1.92,34.29,34.29,0,0,0,20.13,6.48h0A34.36,34.36,0,0,0,113,242.34a1,1,0,0,0-1.31-1.54Zm-41.91.66a1,1,0,0,0-.76.74,10.18,10.18,0,0,1-1.16,2.74.74.74,0,0,1-1.27,0,10.18,10.18,0,0,1-1.16-2.74,1,1,0,0,0-.73-.73A10,10,0,0,1,62,240.31.74.74,0,0,1,62,239a10,10,0,0,1,2.74-1.16,1,1,0,0,0,.72-.72h0a10,10,0,0,1,1.16-2.74.74.74,0,0,1,1.27,0,10.18,10.18,0,0,1,1.16,2.74,1,1,0,0,0,.73.73A10.31,10.31,0,0,1,72.52,239a.74.74,0,0,1,0,1.27,10.43,10.43,0,0,1-2.71,1.15Z"/><path d="M116.94,193.69a4.36,4.36,0,0,0,.23-.6,7.36,7.36,0,0,0,1.56-.72,2.08,2.08,0,0,0,0-3.55,7.4,7.4,0,0,0-1.56-.73c-.45-1.33-1.09-2.55-2.5-2.55a2,2,0,0,0-1.77,1,7.56,7.56,0,0,0-.73,1.55,8.51,8.51,0,0,0-.83.34,34.3,34.3,0,0,0-20.65-6.87,35.22,35.22,0,0,0-7.46.81A34.53,34.53,0,0,0,64.94,193.1a1,1,0,1,0,1.51,1.35,32.47,32.47,0,1,1,48.09,43.64,1,1,0,1,0,1.49,1.37,34.4,34.4,0,0,0,9.15-23.4h0a34.35,34.35,0,0,0-8.24-22.37ZM115.4,192c-.68-.69-1.36-1.34-2.23-2.09,1-.27.57-.86,1.45-2.31a.06.06,0,0,1,.1,0c.85,1.39.49,2.06,1.39,2.29a5.51,5.51,0,0,1,1.56.66s0,.07,0,.1C116.3,191.48,115.65,191.14,115.4,192Z"/><path class="cls-57" d="M111.42,234.44a16.23,16.23,0,0,0-6.53,9.53,13.58,13.58,0,0,0-.41,2.64,12.39,12.39,0,0,1-1.07-.8,12,12,0,0,1-1.2-1.15c-3.75-4.11-3.41-9.49-3.23-11.49a18.41,18.41,0,0,0-.78-5.5c5.16,1.48,8.82,3.1,11.37,5.06A13.88,13.88,0,0,1,111.42,234.44Z"/><path class="cls-58" d="M111.42,234.44a16.23,16.23,0,0,0-6.53,9.53,13.58,13.58,0,0,0-.41,2.64,12.39,12.39,0,0,1-1.07-.8,12,12,0,0,1-1.2-1.15c.07-.43.17-.87.28-1.3a18.81,18.81,0,0,1,2.59-5.93,19.15,19.15,0,0,1,4.49-4.7A13.88,13.88,0,0,1,111.42,234.44Z"/><path class="cls-57" d="M125.43,235.39c.17,2.2.42,7.46-2.33,12.26h0a16.25,16.25,0,0,1-3.9,4.55c-7.89,6.33-15.45,2-14.68-6.13a12.71,12.71,0,0,1,.37-2.1c1.94-7.59,7.81-12.2,21.73-15.92C126.62,228.05,125.21,232.46,125.43,235.39Z"/><path class="cls-58" d="M123.1,247.65a16.25,16.25,0,0,1-3.9,4.55c-7.89,6.33-15.45,2-14.68-6.13C109.6,256.42,123,247.74,123.1,247.65Z"/><path d="M127,227.64a.57.57,0,0,0-.58-.16c-6.71,1.79-11.5,3.77-15,6.18-2.6-2.67-6.69-4.71-13.14-6.56a.59.59,0,0,0-.58.15.61.61,0,0,0-.15.59,17.78,17.78,0,0,1,.76,5.28,19.31,19.31,0,0,0,.15,5.1.57.57,0,0,0,.57.49h.11a.59.59,0,0,0,.48-.69,18.54,18.54,0,0,1-.13-4.79,14.8,14.8,0,0,0-.43-4.25,36.06,36.06,0,0,1,5.32,4.31.59.59,0,0,0,.41.16.61.61,0,0,0,.43-.18.59.59,0,0,0,0-.83,38,38,0,0,0-3.44-3c4,1.43,6.8,3,8.69,4.9a20.75,20.75,0,0,0-2,1.74c-.51-.64-1-1.28-1.6-1.9a.59.59,0,0,0-.83,0,.6.6,0,0,0,0,.84c.58.64,1.14,1.31,1.66,2a16.55,16.55,0,0,0-3.45,6.83,13.59,13.59,0,0,0-.33,1.69l-.2-.16a11.38,11.38,0,0,1-3.36-4.67.59.59,0,1,0-1.1.43,12.55,12.55,0,0,0,3.7,5.15c.29.24.57.45.85.65a9.69,9.69,0,0,0,1.29,5.29,42.17,42.17,0,0,0-1.9,6.94.59.59,0,0,0,.47.69h.1a.57.57,0,0,0,.59-.48,40.32,40.32,0,0,1,1.59-6,7.54,7.54,0,0,0,5.64,2.47,8,8,0,0,0,1.37-.09,13.81,13.81,0,0,0,6.54-3.06A16.61,16.61,0,0,0,124.1,247a.59.59,0,1,0-1.06-.52,15.48,15.48,0,0,1-4.21,5.23c-3.79,3-7.78,3.74-10.67,1.88a6.13,6.13,0,0,1-1.67-1.58c.51-1.31,1.07-2.56,1.67-3.75a15.24,15.24,0,0,1,2.79.26h.1a.59.59,0,0,0,.58-.49.58.58,0,0,0-.48-.68,17.89,17.89,0,0,0-2.38-.27,43.28,43.28,0,0,1,3-4.81h0a8.59,8.59,0,0,1,2.42.07l.86.1h0a.58.58,0,0,0,.59-.53.6.6,0,0,0-.53-.65l-.82-.09a14.69,14.69,0,0,0-1.64-.15c.91-1.19,1.85-2.29,2.78-3.3h0a6.88,6.88,0,0,1,3.14-.06.59.59,0,0,0,.69-.47.58.58,0,0,0-.46-.69,8.7,8.7,0,0,0-2.07-.16c.61-.62,1.21-1.19,1.79-1.72a.6.6,0,0,0,0-.84.59.59,0,0,0-.83,0,50.46,50.46,0,0,0-4.07,4.15,2.67,2.67,0,0,0-1.28-1.31.59.59,0,0,0-.8.27.6.6,0,0,0,.27.79,1.58,1.58,0,0,1,.88,1.34,51.9,51.9,0,0,0-3.12,4.22,2.65,2.65,0,0,0-1.22-1.19.58.58,0,0,0-.79.26.59.59,0,0,0,.26.8,1.57,1.57,0,0,1,.88,1.35.51.51,0,0,0,0,.13,44.18,44.18,0,0,0-3.11,6.15,10.25,10.25,0,0,1-.29-6.61,15.79,15.79,0,0,1,6.23-9.16.57.57,0,0,0,.13-.08l0,0a38.36,38.36,0,0,1,11-5.08c-.87.61-1.89,1.37-3,2.29a.59.59,0,0,0-.08.83.57.57,0,0,0,.45.21.6.6,0,0,0,.38-.13,41.59,41.59,0,0,1,5.08-3.63,20.91,20.91,0,0,0-.79,6.1,23.61,23.61,0,0,1-.79,8.48.59.59,0,1,0,1.13.34,24.19,24.19,0,0,0,.83-8.91c-.21-2.79,1.15-7.08,1.16-7.12A.58.58,0,0,0,127,227.64Z"/><path class="cls-37" d="M117.94,762.17a35.09,35.09,0,0,0-1-8.25,33.26,33.26,0,0,0-7.42-10,35.1,35.1,0,0,0-43.18,5.72l11.47-5,1.59,3.68-12.71,5.51-1.35-3.14a35,35,0,0,0-8.89,24.64,35.63,35.63,0,0,0,1.28,8.2,33.37,33.37,0,0,0,6,8.13,35.12,35.12,0,0,0,54.19-29.49Zm-21.6-17.53,12.71,5.5-1.59,3.69-12.71-5.51Zm7.18,15.53a4,4,0,1,1-4-4A4,4,0,0,1,103.52,760.17Zm-28.85-4a4,4,0,1,1-4,4A4,4,0,0,1,74.67,756.15Zm-5,27.47L66,782a23.09,23.09,0,0,1,41.25-2,21.73,21.73,0,0,1,1,2l-3.67,1.61c-.25-.57-.54-1.14-.85-1.69a19.07,19.07,0,0,0-34.07,1.69Z"/><path class="cls-38" d="M117,753.92a35.12,35.12,0,0,1-53.21,37.74A33.1,33.1,0,0,0,117,753.92Z"/><path class="cls-39" d="M65.36,750.69l-.24-.55,1.24-.53a35.1,35.1,0,0,1,43.18-5.72,33.09,33.09,0,0,0-51.79,39.64,35.63,35.63,0,0,1-1.28-8.2A35,35,0,0,1,65.36,750.69Z"/><path d="M87.09,731.07a37.13,37.13,0,1,0,37.12,37.12A37.17,37.17,0,0,0,87.09,731.07Zm0,70.23a33,33,0,0,1-23.34-9.64,33.37,33.37,0,0,1-6-8.13,33.09,33.09,0,0,1,51.79-39.64A33.08,33.08,0,0,1,87.09,801.3Zm-14-.9.18.08Z"/><circle cx="74.67" cy="760.17" r="4.01"/><circle cx="99.5" cy="760.17" r="4.01"/><rect x="99.89" y="742.31" width="4.01" height="13.85" transform="translate(-626.12 544.98) rotate(-66.58)"/><polygon points="65.36 750.69 66.71 753.83 79.42 748.32 77.83 744.64 66.36 749.61 65.12 750.14 65.36 750.69"/><path d="M103.7,781.93c.31.55.59,1.12.85,1.69l3.67-1.61a21.73,21.73,0,0,0-1-2A23.09,23.09,0,0,0,66,782l3.67,1.61a19.08,19.08,0,0,1,34.08-1.69Z"/><text class="cls-5" transform="translate(70.54 846.51)"><tspan class="cls-43">P</tspan><tspan x="9.9" y="0">oor</tspan></text><path class="cls-44" d="M52.16,766.53v6.85h-13v-6.85a2.05,2.05,0,0,1,2.05-2h8.9A2,2,0,0,1,52.16,766.53Z"/><path class="cls-44" d="M52.16,767.22v6.16H46v-4.79a1.38,1.38,0,0,1,1.37-1.37Z"/><path class="cls-51" d="M50.11,767.22v6.16H46v-4.79a1.38,1.38,0,0,1,1.37-1.37Z"/><path class="cls-59" d="M53.53,774.75v28.07a1.37,1.37,0,0,1-1.37,1.37h-8.9a5.47,5.47,0,0,1-5.47-5.48v-24a1.37,1.37,0,0,1,1.37-1.37h13A1.37,1.37,0,0,1,53.53,774.75Z"/><path class="cls-60" d="M51.48,774.75v28.07a1.37,1.37,0,0,1-1.37,1.37H43.26a5.47,5.47,0,0,1-5.47-5.48v-24a1.37,1.37,0,0,1,1.37-1.37h11A1.37,1.37,0,0,1,51.48,774.75Z"/><path class="cls-59" d="M56.27,789.13v13H53.53l-7.92-2.64a3.43,3.43,0,0,1-2.35-3.24v-1.08a3.45,3.45,0,0,1,1.67-2.94l4.37-2.62a3.5,3.5,0,0,1,1.76-.48Z"/><path class="cls-60" d="M54.22,789.13v13h-.69l-7.92-2.64a3.43,3.43,0,0,1-2.35-3.24v-1.08a3.45,3.45,0,0,1,1.67-2.94l4.37-2.62a3.5,3.5,0,0,1,1.76-.48Z"/><path class="cls-61" d="M64.49,791.07v9.12a1.37,1.37,0,0,1-1.26,1.36l-3.53.3-1.37.11-2.06.17v-13l2.06.17,1.37.11,3.53.3A1.37,1.37,0,0,1,64.49,791.07Z"/><path class="cls-62" d="M62.43,791.07v9.12a1.36,1.36,0,0,1-1.25,1.36l-3.54.3-1.36.11h0V789.3h0l1.36.11,3.54.3A1.36,1.36,0,0,1,62.43,791.07Z"/><path d="M43.29,804.87h8.9a2.05,2.05,0,0,0,2.06-2h2.11l7-.58a2.06,2.06,0,0,0,1.88-2v-9.12A2.06,2.06,0,0,0,63.32,789l-7-.58H54.25V774.75a2.06,2.06,0,0,0-1.37-1.93v-6.29a2.74,2.74,0,0,0-2.74-2.73h-8.9a2.74,2.74,0,0,0-2.74,2.73v6.29a2.06,2.06,0,0,0-1.37,1.93v24A6.17,6.17,0,0,0,43.29,804.87Zm20.54-13.8v9.12a.68.68,0,0,1-.63.68l-3.48.29v-5.87a.68.68,0,0,0-.68-.69.69.69,0,0,0-.69.69v6l-1.36.11V789.87l1.36.11v2.57a.68.68,0,0,0,.69.68.67.67,0,0,0,.68-.68V790.1l3.48.29A.68.68,0,0,1,63.83,791.07Zm-8.21,10.38H53.67l-7.82-2.61a2.73,2.73,0,0,1-1.87-2.6v-1.07a2.76,2.76,0,0,1,1.33-2.35l4.37-2.62a2.77,2.77,0,0,1,1.41-.39h4.53Zm-4.11-32.18H49.45a.69.69,0,0,0-.68.69.68.68,0,0,0,.68.68h2.06v2.06H46.72v-4.11a.68.68,0,0,1,.68-.69h4.11Zm-11.64-2.74a1.36,1.36,0,0,1,1.37-1.36h8.9a1.36,1.36,0,0,1,1.37,1.36H47.4a2.05,2.05,0,0,0-2,2.06v4.11H39.87ZM38.5,789.81h1.37a.69.69,0,1,0,0-1.37H38.5v-1.37h1.37a.68.68,0,0,0,.69-.68.69.69,0,0,0-.69-.69H38.5v-1.37h1.37a.68.68,0,0,0,.69-.68.69.69,0,0,0-.69-.69H38.5V781.6h1.37a.69.69,0,0,0,.69-.69.68.68,0,0,0-.69-.68H38.5v-2.74h3.42a.69.69,0,1,0,0-1.37H38.5v-1.37a.68.68,0,0,1,.69-.68h13a.68.68,0,0,1,.69.68v1.37H44.66a.69.69,0,0,0,0,1.37h8.22v11H51.09A4.06,4.06,0,0,0,49,789l-4.37,2.62a4.13,4.13,0,0,0-2,3.52v1.08a4.11,4.11,0,0,0,2.81,3.89l7.46,2.49v.19a.68.68,0,0,1-.69.68h-8.9a4.79,4.79,0,0,1-4.79-4.79Z"/><text class="cls-63" transform="translate(147.98 96.1)"><tspan class="cls-4">A</tspan><tspan x="17.11" y="0">QI</tspan></text></g></g></svg>