<svg xmlns="http://www.w3.org/2000/svg" viewBox="0 0 827.07 1523.7"><defs><style>.cls-1{font-size:20px;}.cls-1,.cls-10{font-family:TwCenMT-Regular, Tw Cen MT;}.cls-2{fill:#286c99;}.cls-2,.cls-3,.cls-4,.cls-5,.cls-6{stroke:#fff;}.cls-2,.cls-3,.cls-4,.cls-40,.cls-5,.cls-6{stroke-miterlimit:10;}.cls-3{fill:#4fbae9;}.cls-4{fill:#fcd313;}.cls-5{fill:#f37920;}.cls-6{fill:#951920;}.cls-7{fill:#edc951;}.cls-8{fill:#4caf50;}.cls-9{fill:#388e3c;}.cls-10{font-size:22px;}.cls-11{letter-spacing:-0.01em;}.cls-12{fill:#ffce00;}.cls-13{fill:#ffb100;}.cls-14{fill:#ffe454;}.cls-15{fill:#a7eedc;}.cls-16{fill:#86e8d0;}.cls-17{letter-spacing:-0.06em;}.cls-18{letter-spacing:-0.05em;}.cls-19{fill:#9e9e9e;}.cls-20{fill:#7f8e94;}.cls-21{fill:#545c60;}.cls-22{fill:#fec108;}.cls-23{fill:#ffdc00;}.cls-24{fill:#02a9f4;}.cls-25{fill:#37474f;}.cls-26{fill:#f5f5f5;}.cls-27{fill:#fce3a0;}.cls-28{fill:#ffce71;}.cls-29{fill:#ffb357;}.cls-30{fill:#ff8e9e;}.cls-31{fill:#4c5659;}.cls-32{fill:#83e26f;}.cls-33{fill:#5ece4a;}.cls-34{fill:#1566c0;}.cls-35{fill:#2296f3;}.cls-36{fill:#00838f;}.cls-37{fill:#00bcd4;}.cls-38{font-size:26px;font-family:TwCenMT-Bold, Tw Cen MT;font-weight:700;}.cls-39{letter-spacing:-0.03em;}.cls-40{stroke:#000;stroke-width:0.5px;}.cls-41{letter-spacing:-0.02em;}.cls-42{letter-spacing:0.02em;}.cls-43{letter-spacing:0.04em;}.cls-44{letter-spacing:0.01em;}.cls-45{letter-spacing:0.01em;}.cls-46{letter-spacing:0.03em;}.cls-47{letter-spacing:0.05em;}.cls-48{letter-spacing:0.05em;}.cls-49{letter-spacing:-0.07em;}.cls-50{letter-spacing:0.47em;}.cls-51{letter-spacing:0.47em;}.cls-52{letter-spacing:0.01em;}.cls-53{letter-spacing:-0.08em;}.cls-54{letter-spacing:0.07em;}.cls-55{letter-spacing:0.07em;}.cls-56{letter-spacing:-0.03em;}.cls-57{letter-spacing:-0.03em;}.cls-58{letter-spacing:-0.06em;}.cls-59{letter-spacing:0.12em;}.cls-60{letter-spacing:0.12em;}.cls-61{letter-spacing:0.06em;}.cls-62{letter-spacing:0.06em;}.cls-63{letter-spacing:-0.04em;}.cls-64{letter-spacing:0.17em;}.cls-65{letter-spacing:0.17em;}.cls-66{letter-spacing:0.39em;}.cls-67{letter-spacing:0.39em;}.cls-68{letter-spacing:-0.03em;}.cls-69{letter-spacing:-0.03em;}</style></defs><title>Asset 110</title><g id="Layer_2" data-name="Layer 2"><g id="_750_x_5766_px_Artboard_2" data-name="750 x 5766 px Artboard 2"><g id="Graphic_Elements" data-name="Graphic Elements"><text class="cls-1" transform="translate(212.11 1523.7) rotate(-90)"><tspan xml:space="preserve">                 &gt;200                     200                                            150                                            100                                           50                                             0                 </tspan></text></g></g><g id="_1366_x_3620_x_Artboard_1" data-name="1366 x 3620 x Artboard 1"><rect class="cls-2" x="38" y="296.51" width="268.26" height="23" transform="translate(480.14 135.87) rotate(90)"/><rect class="cls-3" x="38" y="564.76" width="268.26" height="23" transform="translate(748.4 404.13) rotate(90)"/><rect class="cls-4" x="38" y="832.54" width="268.26" height="23" transform="translate(1016.17 671.9) rotate(90)"/><rect class="cls-5" x="38" y="1100.79" width="268.26" height="23" transform="translate(1284.43 940.16) rotate(90)"/><rect class="cls-6" x="38" y="1366.92" width="268.26" height="23" transform="translate(1550.56 1206.29) rotate(90)"/><g id="group-51svg"><path id="path-1" class="cls-7" d="M125.59,541.39a33.66,33.66,0,1,1-33.65-33.65A33.65,33.65,0,0,1,125.59,541.39Z"/><path id="path-2" d="M104.31,552.14H68.51a1.68,1.68,0,0,1,0-3.36h35.8a1.68,1.68,0,0,1,0,3.36Z"/><path id="path-3" d="M104.31,530.89H94.24a1.68,1.68,0,0,1,0-3.36h10.07a1.68,1.68,0,0,1,0,3.36Z"/><path id="path-4" d="M79.7,530.89H68.51a1.68,1.68,0,0,1,0-3.36H79.7a1.68,1.68,0,0,1,0,3.36Z"/><path id="path-5" d="M85.63,573.57A35.33,35.33,0,1,1,121,538.24,35.38,35.38,0,0,1,85.63,573.57Zm0-67.3a32,32,0,1,0,32,32A32,32,0,0,0,85.63,506.27Z"/></g><path class="cls-8" d="M139.58,544.56a.84.84,0,0,0-.78-.51c-32.43,0-35.94,13.44-35.94,19.22,0,7.5,5.71,12.54,14.21,12.54,10.74,0,13-10.22,14.19-15.7a28.33,28.33,0,0,1,8.13-14.64A.85.85,0,0,0,139.58,544.56Z"/><path class="cls-9" d="M103.7,580.82a.84.84,0,0,1-.84-.83c0-5,8.62-20.92,22.21-27.5a.83.83,0,1,1,.72,1.5h0c-13.72,6.65-21.26,22.09-21.26,26A.83.83,0,0,1,103.7,580.82Z"/><path d="M117.07,575.81c-8.5,0-14.21-5-14.21-12.54,0-5.78,3.5-19.22,35.94-19.22a.83.83,0,0,1,.58,1.44,28,28,0,0,0-8.12,14.61C130.06,565.59,127.81,575.81,117.07,575.81Zm19.73-30.07c-11.11.24-32.27,2.65-32.27,17.53,0,6.5,5,10.87,12.54,10.87,8.67,0,11-7.43,12.56-14.39A29.65,29.65,0,0,1,136.8,545.74Z"/><path d="M103.7,580.82a.84.84,0,0,1-.84-.83c0-5,8.62-20.92,22.21-27.5a.83.83,0,1,1,.72,1.5c-13.72,6.65-21.26,22.09-21.26,26A.83.83,0,0,1,103.7,580.82Z"/><text class="cls-10" transform="translate(68.78 621.87)"><tspan class="cls-11">F</tspan><tspan x="9.42" y="0">air</tspan></text><path class="cls-12" d="M113,1099.14a35,35,0,0,0-1-8.19,33.07,33.07,0,0,0-7.36-10,34.86,34.86,0,0,0-42.86,5.67l11.38-4.93,1.58,3.66-12.61,5.46-1.35-3.11a34.92,34.92,0,0,0-7.55,32.59,33.15,33.15,0,0,0,6,8.07A34.85,34.85,0,0,0,113,1099.14Zm-21.43-17.41,12.61,5.47-1.58,3.65-12.62-5.46Zm7.12,15.42a4,4,0,1,1-4-4A4,4,0,0,1,98.65,1097.15Zm-28.63-4a4,4,0,1,1-4,4A4,4,0,0,1,70,1093.16Z"/><path class="cls-13" d="M112,1091a34.87,34.87,0,0,1-33.88,43,34.63,34.63,0,0,1-18.93-5.59A32.85,32.85,0,0,0,112,1091Z"/><path class="cls-14" d="M60.77,1087.74l-.23-.54,1.23-.54a34.86,34.86,0,0,1,42.86-5.67,32.85,32.85,0,0,0-51.41,39.34,34.92,34.92,0,0,1,7.55-32.59Z"/><path d="M82.34,1068.27a36.85,36.85,0,1,0,36.84,36.84A36.88,36.88,0,0,0,82.34,1068.27Zm0,69.7a32.77,32.77,0,0,1-23.16-9.57,33.15,33.15,0,0,1-6-8.07A32.85,32.85,0,0,1,104.63,1081a33.07,33.07,0,0,1,7.36,10,32.86,32.86,0,0,1-29.65,47Zm-13.91-.89.18.08Z"/><circle cx="70.02" cy="1097.15" r="3.98"/><circle cx="94.66" cy="1097.15" r="3.98"/><rect x="95.05" y="1079.42" width="3.98" height="13.75" transform="translate(-938.35 743.63) rotate(-66.58)"/><polygon points="60.77 1087.74 62.12 1090.85 74.73 1085.39 73.15 1081.73 61.77 1086.66 60.54 1087.2 60.77 1087.74"/><path class="cls-15" d="M108.39,1105.92c3.45,11,3.49,20.92,0,29.87a1.27,1.27,0,0,1-.72.72,66.61,66.61,0,0,1-50.45,0,1.26,1.26,0,0,1-.73-.75,42.19,42.19,0,0,1,0-29.86,1.29,1.29,0,0,1,.77-.76q26.61-9.51,50.37,0A1.32,1.32,0,0,1,108.39,1105.92Z"/><path class="cls-16" d="M91.6,1140.82a66.73,66.73,0,0,1-34.36-4.3,1.26,1.26,0,0,1-.73-.75,42.19,42.19,0,0,1,0-29.86,1.29,1.29,0,0,1,.77-.76c2.59-.93,5.17-1.72,7.72-2.38-2.29,7.09-1.39,19-.52,26.26a9.35,9.35,0,0,0,6.76,7.88c5.94,1.68,15,4,20.37,3.91Z"/><path d="M118.32,1107.77l-.24-.41a6.59,6.59,0,0,0-9-2.34,2.26,2.26,0,0,0-1.08-.87c-1.82-.73-3.69-1.39-5.56-2a1.07,1.07,0,0,0-1.33.7,1,1,0,0,0,.7,1.32c1.81.55,3.63,1.19,5.39,1.9a.21.21,0,0,1,.13.13c.26.82.49,1.63.71,2.44a148.28,148.28,0,0,0-51.42.13c.26-.85.54-1.7.84-2.54a.21.21,0,0,1,.13-.13A79,79,0,0,1,78,1101.65a64.84,64.84,0,0,1,19.4,1.38,1.07,1.07,0,0,0,1.28-.8,1.06,1.06,0,0,0-.8-1.26c-13-3-26.78-1.88-40.95,3.18a2.37,2.37,0,0,0-1.18.93,6.57,6.57,0,0,0-9,2.28l-.24.41a6.44,6.44,0,0,0-.37,5.81l8.53,19.89c.27.89.57,1.78.89,2.67a2.33,2.33,0,0,0,1.34,1.36,69.87,69.87,0,0,0,25.61,5h0a69.88,69.88,0,0,0,25.62-5,2.33,2.33,0,0,0,1.32-1.33,38.63,38.63,0,0,0,1.28-3.9l8-18.69a6.47,6.47,0,0,0-.37-5.81Zm-9.45,22.94a137.29,137.29,0,0,1-42.25,1.65,1.06,1.06,0,1,0-.24,2.1,139.37,139.37,0,0,0,41.88-1.48c-.26.82-.54,1.63-.85,2.43a.18.18,0,0,1-.12.12,67.77,67.77,0,0,1-24.83,4.89h0a67.7,67.7,0,0,1-24.82-4.88.22.22,0,0,1-.12-.13q-.45-1.2-.81-2.4c1.7.31,3.4.6,5.1.85H62a1.06,1.06,0,0,0,1-.9,1,1,0,0,0-.9-1.2c-2-.3-4-.64-6-1a41.24,41.24,0,0,1-1.18-8H86.82a1.06,1.06,0,1,0,0-2.11h-32c0-1,0-2,.12-3a1.06,1.06,0,0,0-2.12-.16,41.3,41.3,0,0,0,0,6.39L48,1112.75a4.35,4.35,0,0,1,.25-3.91l.24-.42A4.44,4.44,0,0,1,55,1107.1a49.76,49.76,0,0,0-1.49,5.79,1,1,0,0,0,.85,1.23.68.68,0,0,0,.2,0,1.07,1.07,0,0,0,1-.86q.21-1.11.48-2.22a145.75,145.75,0,0,1,52.6-.12,48.5,48.5,0,0,1,1.25,9.71H91.75a1.06,1.06,0,1,0,0,2.11H109.9a38.45,38.45,0,0,1-1,8Zm7.86-18-4.73,11a51.38,51.38,0,0,0-2.15-16.72,4.45,4.45,0,0,1,3.18-.78,4.4,4.4,0,0,1,3.2,2.13l.25.42a4.35,4.35,0,0,1,.25,3.91Z"/><text class="cls-10" transform="translate(39.3 1185.24)"><tspan class="cls-17">V</tspan><tspan x="11.97" y="0">ery </tspan><tspan class="cls-18" x="47.36" y="0">P</tspan><tspan x="57.27" y="0">oor</tspan></text><g id="Page-1"><path id="Shape" class="cls-19" d="M54.64,1357.71c-1.91.7-5.31-3.71-7.71-10-2.61-6.8-3-13-1-13.78h0l0,0c2-.62,5.47,4.09,7.85,10.57s2.77,12.46.81,13.18Z"/><path class="cls-20" d="M65.36,1353.66a1.08,1.08,0,0,1-.41.25h0l-10.3,3.8c2-.72,1.6-6.63-.81-13.18S48,1333.34,46,1334l9-3.33,1.59-.58c1.95-.73,5.53,4.07,7.93,10.61,2.24,6.06,2.39,11.64.84,13Z"/><path class="cls-21" d="M64.52,1340.66c-2.4-6.54-6-11.34-7.93-10.61l-1.59.58-.2.07c1.9,1.52,4.21,5.29,5.93,10,2.24,6.06,2.39,11.64.84,13a1.16,1.16,0,0,1-.41.25h0l-5.4,2c-.18.95-.55,1.6-1.11,1.81l10.3-3.8h0a1.08,1.08,0,0,0,.41-.25c1.55-1.36,1.4-6.94-.84-13Z"/><path class="cls-22" d="M90.15,1338.12c0,1.29-2.62,13.63-2.62,13.76-1,4.16-4,5.9-6.9,5.9l-.59,0-.6,0c-2.87,0-5.86-1.74-6.9-5.9,0-.13-2.62-12.47-2.62-13.76,0-6.56,5.17-9.69,10.12-9.39,4.94-.3,10.11,2.83,10.11,9.39Z"/><circle id="Oval" class="cls-20" cx="80.04" cy="1338.82" r="5.06"/><path class="cls-23" d="M109.07,1302.17c0,2-.15,5-.39,8.34-.15,2-.33,4-.57,6.1a60.38,60.38,0,0,1-2.79,13.36l-.25.66-1.58-.58c-2-.73-5.54,4.07-7.94,10.61-2.24,6.06-2.39,11.64-.84,13-.39,1-2.07,4.12-8.35,4.12H80.63c2.87,0,5.87-1.74,6.9-5.9,0-.13,2.62-12.47,2.62-13.76,0-6.56-5.17-9.69-10.11-9.39-5-.3-10.12,2.83-10.12,9.39,0,1.29,2.62,13.63,2.62,13.76,1,4.16,4,5.9,6.9,5.9H73.71c-6.28,0-8-3.07-8.35-4.12,1.55-1.36,1.4-6.94-.84-13-2.4-6.54-6-11.34-7.93-10.61l-1.59.58c-.08-.23-.17-.45-.25-.66A60.38,60.38,0,0,1,52,1316.61c-.24-2.09-.42-4.15-.57-6.1-.24-3.37-.35-6.36-.39-8.34a11.65,11.65,0,0,1,2-6.91l.13-.17a11.61,11.61,0,0,1,8.51-4.71l3.2-.24v.64a2.54,2.54,0,0,0,2.52,2.53h1.27a2.55,2.55,0,0,0,2.53-2.53v-1c5.39-.25,8.85-.25,8.85-.25s3.45,0,8.85.25v1a2.54,2.54,0,0,0,2.52,2.53h1.27a2.55,2.55,0,0,0,2.53-2.53v-.64l3.19.24a11.61,11.61,0,0,1,8.51,4.71l.13.17a11.58,11.58,0,0,1,2,6.91Z"/><path class="cls-22" d="M107,1295.26l-.13-.17a11.61,11.61,0,0,0-8.51-4.71l-3.19-.24v.32a11.54,11.54,0,0,1,7.91,4.63l.13.17a11.65,11.65,0,0,1,2,6.91c0,2-.15,5-.39,8.34-.15,2-.33,4-.57,6.1a60.38,60.38,0,0,1-2.79,13.36l-.26.66-1.58-.58c-2-.73-5.53,4.07-7.94,10.61-2.23,6.06-2.38,11.64-.83,13-.39,1-2.07,4.12-8.36,4.12h3.8c6.28,0,8-3.07,8.35-4.12-1.55-1.36-1.4-6.94.84-13,2.4-6.54,6-11.34,7.94-10.61l1.58.58.25-.66a60.38,60.38,0,0,0,2.79-13.36c.24-2.09.42-4.15.57-6.1.24-3.37.36-6.36.39-8.34a11.58,11.58,0,0,0-2-6.91Z"/><path class="cls-19" d="M113.14,1347.76c-2.4,6.24-5.8,10.65-7.71,10s-1.6-6.63.81-13.18,5.94-11.26,7.9-10.55h0C116.19,1334.74,115.75,1341,113.14,1347.76Z"/><path class="cls-20" d="M114.14,1334c-2-.71-5.5,4-7.9,10.55s-2.77,12.46-.81,13.18l-10.3-3.8h0a1.16,1.16,0,0,1-.41-.25c-1.55-1.36-1.4-6.94.84-13,2.4-6.54,6-11.34,7.94-10.61l1.58.58Z"/><rect id="Rectangle-path" class="cls-24" x="64.87" y="1284.46" width="6.32" height="8.85" rx="2.53"/><rect class="cls-24" x="88.89" y="1284.46" width="6.32" height="8.85" rx="2.53"/><path class="cls-24" d="M52,1316.61a2.92,2.92,0,0,1-.65.15l-3.78.38a2.52,2.52,0,0,1-2.75-2.28l-.13-1.25a2.48,2.48,0,0,1,.56-1.85,2.54,2.54,0,0,1,1.7-.92l3.78-.36a2.05,2.05,0,0,1,.7,0c.15,2,.33,4,.57,6.1Z"/><path class="cls-24" d="M115.42,1313.61l-.13,1.25a2.52,2.52,0,0,1-2.75,2.28l-3.78-.38a2.92,2.92,0,0,1-.65-.15c.24-2.09.42-4.15.57-6.1a2.06,2.06,0,0,1,.7,0l3.78.36a2.54,2.54,0,0,1,1.7.92,2.48,2.48,0,0,1,.56,1.85Z"/><circle class="cls-20" cx="80.04" cy="1350.2" r="2.53"/><path class="cls-25" d="M103.82,1307c-.17,3.32-.43,6.46-.77,9.31a10.43,10.43,0,0,1-8.48,9.05h0a7.5,7.5,0,0,1-7.2-2.71h0a7.44,7.44,0,0,0-5.85-2.81H78.58a7.45,7.45,0,0,0-5.85,2.82h0a7.49,7.49,0,0,1-7.21,2.7,10.43,10.43,0,0,1-8.48-9.05c-.34-2.85-.6-6-.78-9.31a2.52,2.52,0,0,1,3-2.61c3.86.81,10.25,1.54,20.76,1.54s16.89-.73,20.76-1.55a2.54,2.54,0,0,1,2.15.57,2.51,2.51,0,0,1,.87,2Z"/><path class="cls-26" d="M57.43,1319.43a1.26,1.26,0,0,1-.92-2.13l11.69-12.54a1.27,1.27,0,0,1,1.76,0,1.25,1.25,0,0,1,.09,1.75L58.36,1319a1.27,1.27,0,0,1-.93.41Z"/><path class="cls-26" d="M60.51,1324.17a1.26,1.26,0,0,1-.92-2.12l15.84-17a1.23,1.23,0,0,1,1.21-.37,1.28,1.28,0,0,1,.93.86,1.26,1.26,0,0,1-.29,1.23l-15.84,17a1.25,1.25,0,0,1-.93.39Z"/><path d="M80,1332.5a6.32,6.32,0,1,0,6.32,6.32A6.32,6.32,0,0,0,80,1332.5Zm0,10.11a3.79,3.79,0,1,1,3.79-3.79A3.8,3.8,0,0,1,80,1342.61Z"/><path d="M65.92,1299.83A85.58,85.58,0,0,0,80,1300.89a85.46,85.46,0,0,0,14.11-1.06,1.29,1.29,0,0,0,1-.81,1.31,1.31,0,0,0-.21-1.25,1.29,1.29,0,0,0-1.19-.44,82.63,82.63,0,0,1-13.69,1,82.67,82.67,0,0,1-13.7-1,1.27,1.27,0,1,0-.42,2.5Z"/><path d="M44.89,1317.55a3.73,3.73,0,0,0,2.39.86h.38l3.22-.33a60.28,60.28,0,0,0,2.51,11.81l-7.91,2.91a2.76,2.76,0,0,0-1.57,1.57c-1.14,2.5-.42,7.94,1.84,13.85,2.16,5.62,5.51,10.84,8.48,10.84a2.46,2.46,0,0,0,.85-.16l9.74-3.58c1,1.56,3.48,3.74,8.89,3.74H86.36c5.42,0,7.85-2.18,8.9-3.74l9.73,3.58a2.45,2.45,0,0,0,.85.15c3,0,6.32-5.22,8.48-10.83,2.26-5.91,3-11.35,1.84-13.86a2.81,2.81,0,0,0-1.56-1.56h0l-7.9-2.91a60.19,60.19,0,0,0,2.51-11.8l3.22.32.38,0a3.81,3.81,0,0,0,3.76-3.43l.12-1.25a3.74,3.74,0,0,0-.83-2.78,3.85,3.85,0,0,0-2.56-1.38l-3.25-.31c.18-2.85.27-5.34.31-7.07a13,13,0,0,0-2.26-7.67l-.14-.18a12.79,12.79,0,0,0-9.43-5.23l-2-.16v-2a3.8,3.8,0,0,0-3.79-3.8H91.41a3.8,3.8,0,0,0-3.79,3.8v1.46c-4.61-.2-7.55-.2-7.58-.2s-3,0-7.59.2V1287a3.8,3.8,0,0,0-3.79-3.8H67.39a3.8,3.8,0,0,0-3.79,3.8v2l-2,.16a12.77,12.77,0,0,0-9.42,5.24l-.15.17a13,13,0,0,0-2.26,7.67c.05,1.72.13,4.22.32,7.07l-3.26.31a3.85,3.85,0,0,0-2.56,1.38,3.79,3.79,0,0,0-.84,2.78l.13,1.25a3.8,3.8,0,0,0,1.37,2.56Zm19.61,35.17-7.42,2.74c.34-3-.6-7.38-2.06-11.37s-3.6-7.93-5.8-10l7.78-2.87h0c.93,0,3.95,3.42,6.32,9.86s1.89,11.19,1.15,11.62Zm-16.39-5.41c-2.79-7.31-2.38-11.71-1.77-12.14.68-.08,3.76,2.87,6.31,9.8s2.13,11.12,1.57,11.55h0c-.69,0-3.56-2.59-6.11-9.21Zm38.19,4.29c-1,3.9-3.82,5.09-6.16,4.9h-.21c-2.32.19-5.17-1-6.16-4.9,0-.24-.14-.72-.38-1.85-.54-2.64-2.19-10.68-2.21-11.62a7.89,7.89,0,0,1,2.37-6A8.5,8.5,0,0,1,80,1330h.16a8.51,8.51,0,0,1,6.4,2.17,7.93,7.93,0,0,1,2.38,6c0,1-1.67,9-2.22,11.63-.23,1.13-.33,1.61-.37,1.85Zm24.54-17.49c-2.19,2.06-4.32,6-5.78,10s-2.41,8.38-2.07,11.37l-7.43-2.74c-.74-.43-1.25-5,1.17-11.63s5.48-9.91,6.32-9.86Zm1.13,13.2c-2.56,6.63-5.44,9.29-6.09,9.23-.58-.44-1-4.64,1.55-11.57s5.54-9.8,6.26-9.8h0C114.34,1335.62,114.75,1340,112,1347.31ZM113,1312.1a1.27,1.27,0,0,1,1.14,1.38l-.13,1.26a1.29,1.29,0,0,1-.46.86,1.24,1.24,0,0,1-.91.28l-3.18-.32c.14-1.28.25-2.55.35-3.77ZM90.15,1287a1.27,1.27,0,0,1,1.26-1.27h1.27a1.26,1.26,0,0,1,1.26,1.27v3.79a1.25,1.25,0,0,1-1.26,1.26H91.41a1.26,1.26,0,0,1-1.26-1.26Zm-24,0a1.27,1.27,0,0,1,1.26-1.27h1.27a1.26,1.26,0,0,1,1.26,1.27v3.79a1.25,1.25,0,0,1-1.26,1.26H67.39a1.26,1.26,0,0,1-1.26-1.26ZM54,1296l.16-.2a10.26,10.26,0,0,1,7.58-4.19l1.91-.15a3.78,3.78,0,0,0,3.71,3.08h1.27a3.79,3.79,0,0,0,3.77-3.59c4.62-.2,7.57-.2,7.61-.2s3,0,7.6.2a3.79,3.79,0,0,0,3.77,3.59h1.27a3.78,3.78,0,0,0,3.72-3.08l1.9.15a10.29,10.29,0,0,1,7.61,4.22,1.09,1.09,0,0,0,.13.17,10.44,10.44,0,0,1,1.77,6.11c-.14,5.53-.75,19-3.5,26.87l-.39-.15c-1.56-.57-3.33.44-5.25,3a34.12,34.12,0,0,0-4.32,8.35c-1.88,5.12-2.68,10.94-1.12,13.59-.65,1-2.37,2.66-6.72,2.7a9.59,9.59,0,0,0,2.25-4.33.5.5,0,0,0,0-.12c0-.17.17-.84.37-1.8,1.65-8,2.26-11.33,2.26-12.13a10.4,10.4,0,0,0-3.16-7.82,11.06,11.06,0,0,0-8.21-2.85,11.07,11.07,0,0,0-8.22,2.85,10.4,10.4,0,0,0-3.16,7.82c0,.8.61,4.09,2.26,12.13.2,1,.34,1.63.37,1.79a.51.51,0,0,0,0,.13,9.7,9.7,0,0,0,2.26,4.34c-4.36,0-6.08-1.67-6.73-2.7,1.56-2.65.76-8.47-1.13-13.59a33.63,33.63,0,0,0-4.31-8.36c-1.92-2.58-3.69-3.59-5.25-3l-.39.14c-2.75-7.83-3.36-21.33-3.5-26.87A10.41,10.41,0,0,1,54,1296Zm-7,16.07,3.19-.31c.1,1.23.22,2.49.35,3.77l-3.17.32a1.24,1.24,0,0,1-.91-.28,1.29,1.29,0,0,1-.46-.87l-.13-1.25A1.27,1.27,0,0,1,47,1312.1Z"/><path d="M80,1346.4a3.8,3.8,0,1,0,3.79,3.8A3.8,3.8,0,0,0,80,1346.4Zm0,5.06a1.27,1.27,0,1,1,1.26-1.26A1.27,1.27,0,0,1,80,1351.46Z"/><path d="M65.29,1326.62a8.19,8.19,0,0,0,1.57.15,8.74,8.74,0,0,0,6.74-3.18,1.42,1.42,0,0,0,.12-.13,6.19,6.19,0,0,1,4.86-2.34h2.91a6.19,6.19,0,0,1,4.87,2.34.69.69,0,0,0,.11.13,8.76,8.76,0,0,0,8.33,3,11.66,11.66,0,0,0,9.51-10.15c.34-2.9.61-6.06.78-9.4a3.81,3.81,0,0,0-1.33-3.09,3.73,3.73,0,0,0-3.22-.82,105.92,105.92,0,0,1-20.5,1.52,105.86,105.86,0,0,1-20.5-1.52,3.79,3.79,0,0,0-4.55,3.92c.17,3.34.44,6.5.78,9.39a11.65,11.65,0,0,0,9.52,10.14ZM58,1305.91a1.23,1.23,0,0,1,1.06-.27,107.18,107.18,0,0,0,21,1.57,107.3,107.3,0,0,0,21-1.57,1.21,1.21,0,0,1,1,.27,1.26,1.26,0,0,1,.45,1c-.17,3.29-.42,6.39-.76,9.23a9.16,9.16,0,0,1-7.46,8,6.22,6.22,0,0,1-6-2.25l-.11-.12a8.71,8.71,0,0,0-6.75-3.19H78.58a8.7,8.7,0,0,0-6.74,3.17l-.11.13a6.23,6.23,0,0,1-6,2.25,9.15,9.15,0,0,1-7.46-8c-.34-2.83-.59-5.94-.77-9.22A1.31,1.31,0,0,1,58,1305.91Z"/></g><text class="cls-10" transform="translate(37.68 1399.99)">Extremely<tspan x="20.56" y="18"> </tspan><tspan class="cls-18" x="26.63" y="18">P</tspan><tspan x="36.53" y="18">oor</tspan></text><text class="cls-10" transform="translate(64.88 365.99)">Good</text><path class="cls-27" d="M118.2,255.84a6.84,6.84,0,0,0-1.84-.78,6.6,6.6,0,0,0-.78-1.83,1.06,1.06,0,0,0-1.82,0,6.92,6.92,0,0,0-.78,1.83,7.13,7.13,0,0,0-1.84.78,1.07,1.07,0,0,0,0,1.82,6.8,6.8,0,0,0,1.84.78,6.84,6.84,0,0,0,.78,1.84,1.06,1.06,0,0,0,1.82,0,6.54,6.54,0,0,0,.78-1.84,6.54,6.54,0,0,0,1.84-.78,1.06,1.06,0,0,0,0-1.82Z"/><path class="cls-28" d="M124.17,282.22a33.44,33.44,0,1,1-22-31.45A33.5,33.5,0,0,1,124.17,282.22Z"/><path class="cls-29" d="M80.25,282.22a33.47,33.47,0,0,1,22-31.45,33.48,33.48,0,1,0,0,62.9A33.5,33.5,0,0,1,80.25,282.22Z"/><path class="cls-30" d="M80.13,283.66c0,2.71-2.78,4.9-6.19,4.89s-6.17-2.22-6.16-4.93,2.78-4.91,6.19-4.9S80.14,280.94,80.13,283.66Z"/><path class="cls-30" d="M101.25,283.72c0,2.72,2.75,4.93,6.16,4.94s6.18-2.18,6.18-4.9-2.74-4.92-6.15-4.93S101.26,281,101.25,283.72Z"/><path class="cls-31" d="M95.68,279.93c0-3.08-2.22-3.37-5-3.38s-5,.27-5,3.35,2.21,5.57,5,5.58,5-2.48,5-5.55Z"/><path class="cls-27" d="M73,304.34a11,11,0,0,0-3-1.28,11.4,11.4,0,0,0-1.28-3,1.75,1.75,0,0,0-3,0,11.08,11.08,0,0,0-1.28,3,11.08,11.08,0,0,0-3,1.28,1.74,1.74,0,0,0,0,3,11.08,11.08,0,0,0,3,1.28,11.08,11.08,0,0,0,1.28,3,1.75,1.75,0,0,0,3,0,11.4,11.4,0,0,0,1.28-3,11,11,0,0,0,3-1.28A1.74,1.74,0,0,0,73,304.34Z"/><path d="M90.7,286.49a6.3,6.3,0,0,0,6-6.56,3.83,3.83,0,0,0-2-3.74,8.65,8.65,0,0,0-4-.65c-2.09,0-6,0-6,4.35,0,3.63,2.67,6.59,6,6.6Zm-4-6.59c0-1.86.82-2.36,4-2.34s4,.47,4,2.36c0,2.49-1.78,4.56-4,4.55A4.3,4.3,0,0,1,86.73,279.9Z"/><path d="M74.63,279.3a1,1,0,0,0,1-1,1.93,1.93,0,0,1,3.86,0,1,1,0,0,0,1,1h0a1,1,0,0,0,1-1,4,4,0,0,0-3.94-4h0a4,4,0,0,0-3.95,3.94,1,1,0,0,0,1,1Z"/><path d="M100.9,279.38a1,1,0,0,0,1-1,1.93,1.93,0,0,1,1.93-1.92h0a1.94,1.94,0,0,1,1.92,1.94,1,1,0,0,0,1,1h0a1,1,0,0,0,1-1,4,4,0,0,0-3.94-4h0a4,4,0,0,0-4,3.94,1,1,0,0,0,1,1Z"/><path d="M111.72,307a32.49,32.49,0,0,1-39.52,2,12,12,0,0,0,1.37-.73,2.75,2.75,0,0,0,0-4.71,12,12,0,0,0-2.73-1.24,11.89,11.89,0,0,0-1.23-2.72,2.76,2.76,0,0,0-4.72,0,11.93,11.93,0,0,0-.74,1.42A32.46,32.46,0,0,1,64,263.69a1,1,0,1,0-1.66-1.16h0a34.5,34.5,0,0,0,.45,40,12.22,12.22,0,0,0-1.88.94,2.76,2.76,0,0,0,0,4.71,12,12,0,0,0,2.73,1.24,12.34,12.34,0,0,0,1.23,2.72,2.76,2.76,0,0,0,4.72,0,11.72,11.72,0,0,0,1-1.91,34.35,34.35,0,0,0,20.13,6.47h0A34.36,34.36,0,0,0,113,308.5a1,1,0,0,0-1.31-1.54Zm-41.91.66a1,1,0,0,0-.76.74,10.18,10.18,0,0,1-1.16,2.74.74.74,0,0,1-1.27,0,10.18,10.18,0,0,1-1.16-2.74,1,1,0,0,0-.73-.73A10,10,0,0,1,62,306.47a.74.74,0,0,1,0-1.27A10,10,0,0,1,64.73,304a1,1,0,0,0,.72-.72h0a10,10,0,0,1,1.16-2.74.74.74,0,0,1,1.27,0,10.18,10.18,0,0,1,1.16,2.74,1,1,0,0,0,.73.73,10.31,10.31,0,0,1,2.74,1.16.74.74,0,0,1,0,1.27,10.43,10.43,0,0,1-2.71,1.15Z"/><path d="M116.94,259.85a4.36,4.36,0,0,0,.23-.6,7.36,7.36,0,0,0,1.56-.72,2.08,2.08,0,0,0,0-3.55,7.4,7.4,0,0,0-1.56-.73c-.45-1.33-1.09-2.55-2.5-2.55a2,2,0,0,0-1.77,1,7.56,7.56,0,0,0-.73,1.55,8.51,8.51,0,0,0-.83.34,34.51,34.51,0,0,0-20.65-6.87,35.22,35.22,0,0,0-7.46.81,34.48,34.48,0,0,0-18.29,10.74,1,1,0,0,0,.08,1.42,1,1,0,0,0,1.43-.08,32.47,32.47,0,1,1,48.09,43.64,1,1,0,1,0,1.49,1.37,34.4,34.4,0,0,0,9.15-23.4h0a34.35,34.35,0,0,0-8.24-22.37Zm-1.54-1.7c-.68-.69-1.36-1.34-2.23-2.09,1-.27.57-.86,1.45-2.31a.06.06,0,0,1,.1,0c.85,1.39.49,2.06,1.39,2.29a5.81,5.81,0,0,1,1.56.66s0,.08,0,.1C116.3,257.64,115.65,257.3,115.4,258.15Z"/><path class="cls-32" d="M111.42,300.6a16.23,16.23,0,0,0-6.53,9.53,13.58,13.58,0,0,0-.41,2.64,12.39,12.39,0,0,1-1.07-.8,12,12,0,0,1-1.2-1.15c-3.75-4.1-3.41-9.49-3.23-11.48a18.43,18.43,0,0,0-.78-5.51c5.16,1.48,8.82,3.1,11.37,5.06A13.88,13.88,0,0,1,111.42,300.6Z"/><path class="cls-33" d="M111.42,300.6a16.23,16.23,0,0,0-6.53,9.53,13.58,13.58,0,0,0-.41,2.64,12.39,12.39,0,0,1-1.07-.8,12,12,0,0,1-1.2-1.15c.07-.43.17-.87.28-1.3a18.81,18.81,0,0,1,2.59-5.93,19.15,19.15,0,0,1,4.49-4.7A13.88,13.88,0,0,1,111.42,300.6Z"/><path class="cls-32" d="M125.43,301.56c.17,2.2.42,7.45-2.33,12.25h0a16.25,16.25,0,0,1-3.9,4.55c-7.89,6.33-15.45,2-14.68-6.13a12.9,12.9,0,0,1,.37-2.1c1.94-7.59,7.81-12.2,21.73-15.92C126.62,294.21,125.21,298.62,125.43,301.56Z"/><path class="cls-33" d="M123.1,313.81a16.11,16.11,0,0,1-3.9,4.55c-7.89,6.33-15.45,2-14.68-6.13C109.6,322.58,123,313.9,123.1,313.81Z"/><path d="M127,293.8a.57.57,0,0,0-.58-.16c-6.71,1.79-11.5,3.77-15,6.18-2.6-2.67-6.69-4.71-13.14-6.56a.58.58,0,0,0-.58.16.59.59,0,0,0-.15.58,17.78,17.78,0,0,1,.76,5.28,19.31,19.31,0,0,0,.15,5.1.59.59,0,0,0,.57.5h.11a.59.59,0,0,0,.48-.68,18.62,18.62,0,0,1-.13-4.8,14.8,14.8,0,0,0-.43-4.25,36.75,36.75,0,0,1,5.32,4.31.59.59,0,0,0,.41.16.54.54,0,0,0,.43-.18.59.59,0,0,0,0-.83,38,38,0,0,0-3.44-3c4,1.43,6.8,3,8.69,4.91a20.67,20.67,0,0,0-2,1.73c-.51-.64-1-1.28-1.6-1.9a.59.59,0,0,0-.83,0,.6.6,0,0,0,0,.84c.58.64,1.14,1.31,1.66,2a16.55,16.55,0,0,0-3.45,6.83,13.39,13.39,0,0,0-.33,1.7l-.2-.16a11.47,11.47,0,0,1-3.36-4.68.59.59,0,1,0-1.1.43,12.55,12.55,0,0,0,3.7,5.15c.29.24.57.46.85.65a9.69,9.69,0,0,0,1.29,5.29,42.17,42.17,0,0,0-1.9,6.94.59.59,0,0,0,.47.69h.1a.59.59,0,0,0,.59-.49,40.32,40.32,0,0,1,1.59-6,7.65,7.65,0,0,0,1.5,1.27,7.75,7.75,0,0,0,4.14,1.21,9.12,9.12,0,0,0,1.37-.1,13.71,13.71,0,0,0,6.54-3.06,16.61,16.61,0,0,0,4.53-5.63.59.59,0,1,0-1.06-.52,15.48,15.48,0,0,1-4.21,5.23c-3.79,3-7.78,3.74-10.67,1.88a6.25,6.25,0,0,1-1.67-1.57c.51-1.32,1.07-2.57,1.67-3.76a15.24,15.24,0,0,1,2.79.26h.1a.59.59,0,0,0,.58-.49.58.58,0,0,0-.48-.68,17.89,17.89,0,0,0-2.38-.27,43.28,43.28,0,0,1,3-4.81h0a8.59,8.59,0,0,1,2.42.07l.86.1h0a.58.58,0,0,0,.59-.53.6.6,0,0,0-.53-.65l-.82-.09a12.65,12.65,0,0,0-1.64-.14c.91-1.2,1.85-2.3,2.78-3.31h0a6.88,6.88,0,0,1,3.14-.06.59.59,0,0,0,.69-.47.58.58,0,0,0-.46-.69,8.7,8.7,0,0,0-2.07-.16c.61-.62,1.21-1.19,1.79-1.72a.6.6,0,0,0,0-.84.59.59,0,0,0-.83,0,52.09,52.09,0,0,0-4.07,4.15,2.67,2.67,0,0,0-1.28-1.31.59.59,0,0,0-.8.27.6.6,0,0,0,.27.79,1.58,1.58,0,0,1,.88,1.34,51.9,51.9,0,0,0-3.12,4.22,2.65,2.65,0,0,0-1.22-1.19.58.58,0,0,0-.79.27.59.59,0,0,0,.26.79,1.57,1.57,0,0,1,.88,1.35.51.51,0,0,0,0,.13,44.18,44.18,0,0,0-3.11,6.15,10.25,10.25,0,0,1-.29-6.61,15.79,15.79,0,0,1,6.23-9.16.57.57,0,0,0,.13-.08l0,0a38.36,38.36,0,0,1,11-5.08c-.87.61-1.89,1.37-3,2.29a.59.59,0,0,0-.08.83.57.57,0,0,0,.45.21.55.55,0,0,0,.38-.13,41.59,41.59,0,0,1,5.08-3.63,20.91,20.91,0,0,0-.79,6.1,23.61,23.61,0,0,1-.79,8.48.59.59,0,1,0,1.13.34,24.18,24.18,0,0,0,.83-8.91c-.21-2.79,1.15-7.08,1.16-7.12A.59.59,0,0,0,127,293.8Z"/><path class="cls-12" d="M117.94,828.33a35.09,35.09,0,0,0-1-8.25,33.26,33.26,0,0,0-7.42-10,35.1,35.1,0,0,0-43.18,5.72l11.47-5,1.59,3.68L66.71,820l-1.35-3.14a35,35,0,0,0-8.89,24.64,35.63,35.63,0,0,0,1.28,8.2,33.37,33.37,0,0,0,6,8.13,35.12,35.12,0,0,0,54.19-29.49ZM96.34,810.8l12.71,5.5L107.46,820l-12.71-5.51Zm7.18,15.53a4,4,0,1,1-4-4A4,4,0,0,1,103.52,826.33Zm-28.85-4a4,4,0,1,1-4,4A4,4,0,0,1,74.67,822.31Zm-5,27.47L66,848.17a23.09,23.09,0,0,1,41.25-2c.37.67.72,1.35,1,2l-3.67,1.61a17.63,17.63,0,0,0-.85-1.68,19.06,19.06,0,0,0-34.07,1.68Z"/><path class="cls-13" d="M117,820.08a35.12,35.12,0,0,1-53.21,37.74A33.1,33.1,0,0,0,117,820.08Z"/><path class="cls-14" d="M65.36,816.85l-.24-.55,1.24-.53a35.1,35.1,0,0,1,43.18-5.72,33.09,33.09,0,0,0-51.79,39.64,35.63,35.63,0,0,1-1.28-8.2A35,35,0,0,1,65.36,816.85Z"/><path d="M87.09,797.23a37.13,37.13,0,1,0,37.12,37.12A37.17,37.17,0,0,0,87.09,797.23Zm0,70.23a33,33,0,0,1-23.34-9.64,33.37,33.37,0,0,1-6-8.13,33.09,33.09,0,0,1,51.79-39.64,33.08,33.08,0,0,1-22.45,57.41Zm-14-.9.18.08Z"/><circle cx="74.67" cy="826.33" r="4.01"/><circle cx="99.5" cy="826.33" r="4.01"/><rect x="99.89" y="808.47" width="4.01" height="13.85" transform="translate(-686.83 584.85) rotate(-66.58)"/><polygon points="65.36 816.85 66.71 819.99 79.42 814.48 77.83 810.8 66.36 815.77 65.12 816.3 65.36 816.85"/><path d="M103.7,848.1c.31.54.59,1.11.85,1.68l3.67-1.61c-.3-.7-.65-1.38-1-2a23.09,23.09,0,0,0-41.25,2l3.67,1.61a19.07,19.07,0,0,1,34.08-1.68Z"/><text class="cls-10" transform="translate(70.54 912.67)"><tspan class="cls-18">P</tspan><tspan x="9.9" y="0">oor</tspan></text><path class="cls-19" d="M52.16,832.7v6.84h-13V832.7a2.05,2.05,0,0,1,2.05-2.06h8.9A2,2,0,0,1,52.16,832.7Z"/><path class="cls-19" d="M52.16,833.38v6.16H46v-4.79a1.38,1.38,0,0,1,1.37-1.37Z"/><path class="cls-26" d="M50.11,833.38v6.16H46v-4.79a1.38,1.38,0,0,1,1.37-1.37Z"/><path class="cls-34" d="M53.53,840.91V869a1.37,1.37,0,0,1-1.37,1.37h-8.9a5.47,5.47,0,0,1-5.47-5.48v-24a1.37,1.37,0,0,1,1.37-1.37h13A1.37,1.37,0,0,1,53.53,840.91Z"/><path class="cls-35" d="M51.48,840.91V869a1.37,1.37,0,0,1-1.37,1.37H43.26a5.47,5.47,0,0,1-5.47-5.48v-24a1.37,1.37,0,0,1,1.37-1.37h11A1.37,1.37,0,0,1,51.48,840.91Z"/><path class="cls-34" d="M56.27,855.29v13H53.53l-7.92-2.64a3.43,3.43,0,0,1-2.35-3.24v-1.08a3.42,3.42,0,0,1,1.67-2.93l4.37-2.63a3.5,3.5,0,0,1,1.76-.48Z"/><path class="cls-35" d="M54.22,855.29v13h-.69l-7.92-2.64a3.43,3.43,0,0,1-2.35-3.24v-1.08a3.42,3.42,0,0,1,1.67-2.93l4.37-2.63a3.5,3.5,0,0,1,1.76-.48Z"/><path class="cls-36" d="M64.49,857.23v9.12a1.37,1.37,0,0,1-1.26,1.36l-3.53.3-1.37.11-2.06.17v-13l2.06.17,1.37.11,3.53.3A1.37,1.37,0,0,1,64.49,857.23Z"/><path class="cls-37" d="M62.43,857.23v9.12a1.36,1.36,0,0,1-1.25,1.36l-3.54.3-1.36.11h0V855.46h0l1.36.11,3.54.3A1.36,1.36,0,0,1,62.43,857.23Z"/><path d="M43.29,871h8.9a2.05,2.05,0,0,0,2.06-2h2.11l7-.58a2.06,2.06,0,0,0,1.88-2v-9.12a2.05,2.05,0,0,0-1.88-2l-7-.59H54.25V840.91A2.06,2.06,0,0,0,52.88,839V832.7A2.74,2.74,0,0,0,50.14,830h-8.9a2.74,2.74,0,0,0-2.74,2.74V839a2.06,2.06,0,0,0-1.37,1.93v24A6.17,6.17,0,0,0,43.29,871Zm20.54-13.8v9.12a.69.69,0,0,1-.63.69l-3.48.29v-5.88a.68.68,0,0,0-.68-.69.69.69,0,0,0-.69.69v6l-1.36.11V856l1.36.12v2.56a.68.68,0,0,0,.69.68.67.67,0,0,0,.68-.68v-2.45l3.48.29A.69.69,0,0,1,63.83,857.23Zm-8.21,10.38H53.67L45.85,865A2.73,2.73,0,0,1,44,862.4v-1.07A2.76,2.76,0,0,1,45.31,859l4.37-2.62a2.77,2.77,0,0,1,1.41-.39h4.53Zm-4.11-32.18H49.45a.69.69,0,0,0-.68.69.68.68,0,0,0,.68.68h2.06v2.06H46.72v-4.11a.68.68,0,0,1,.68-.69h4.11ZM39.87,832.7a1.37,1.37,0,0,1,1.37-1.37h8.9a1.37,1.37,0,0,1,1.37,1.37H47.4a2,2,0,0,0-2,2v4.11H39.87ZM38.5,856h1.37a.68.68,0,0,0,.69-.68.69.69,0,0,0-.69-.69H38.5v-1.37h1.37a.68.68,0,0,0,.69-.68.69.69,0,0,0-.69-.69H38.5V850.5h1.37a.69.69,0,0,0,.69-.69.68.68,0,0,0-.69-.68H38.5v-1.37h1.37a.69.69,0,0,0,.69-.69.68.68,0,0,0-.69-.68H38.5v-2.74h3.42a.69.69,0,1,0,0-1.37H38.5v-1.37a.68.68,0,0,1,.69-.68h13a.68.68,0,0,1,.69.68v1.37H44.66a.69.69,0,0,0,0,1.37h8.22v11H51.09a4.15,4.15,0,0,0-2.12.59l-4.37,2.62a4.13,4.13,0,0,0-2,3.52v1.08a4.09,4.09,0,0,0,2.81,3.89l7.46,2.49V869a.68.68,0,0,1-.69.68h-8.9a4.79,4.79,0,0,1-4.79-4.79Z"/><text class="cls-38" transform="translate(147.98 162.26)"><tspan class="cls-39">A</tspan><tspan x="17.11" y="0">QI</tspan></text><text class="cls-10" transform="translate(442.68 18.09)"><tspan class="cls-40">Sensit<tspan class="cls-41" x="49.75" y="0">v</tspan><tspan x="58.94" y="0">e g</tspan><tspan class="cls-41" x="88.15" y="0">r</tspan><tspan x="95.04" y="0">oups</tspan></tspan><tspan x="-214.18" y="26.4">-people with a hea</tspan><tspan class="cls-42" x="-46.54" y="26.4">r</tspan><tspan x="-38.77" y="26.4">t or lung condition, including asthma.</tspan><tspan x="-214.18" y="52.8">-people o</tspan><tspan class="cls-41" x="-127.69" y="52.8">v</tspan><tspan x="-118.49" y="52.8">er 65</tspan><tspan x="-214.18" y="79.2">-infants and </tspan><tspan class="cls-43" x="-103.96" y="79.2">c</tspan><tspan x="-94.61" y="79.2">hildren</tspan><tspan x="-214.18" y="105.6">-pregnant </tspan><tspan class="cls-41" x="-120.81" y="105.6">w</tspan><tspan x="-106.58" y="105.6">omen</tspan></text><text class="cls-10" transform="translate(257.93 197.34)">-NO CHANGE needed to <tspan class="cls-39" x="228.25" y="0">y</tspan><tspan x="238.59" y="0">our no</tspan><tspan class="cls-42" x="293.26" y="0">r</tspan><tspan x="301.03" y="0">mal outdoor activitie</tspan><tspan class="cls-11" x="480.5" y="0">s</tspan><tspan x="487.61" y="0">.</tspan></text><text class="cls-10" transform="translate(258.03 460.43)">-REDUCE<tspan class="cls-44" x="77.46" y="0"> </tspan><tspan x="83.66" y="0">outdoor</tspan><tspan class="cls-44" x="151.72" y="0"> </tspan><tspan x="157.92" y="0">p</tspan><tspan class="cls-41" x="170.06" y="0">h</tspan><tspan x="179.26" y="0">ysical</tspan><tspan class="cls-45" x="227.83" y="0"> </tspan><tspan x="234.03" y="0">activity</tspan><tspan class="cls-44" x="296.84" y="0"> </tspan><tspan x="303.04" y="0">i</tspan><tspan class="cls-46" x="307.87" y="0">f</tspan><tspan class="cls-44" x="315.85" y="0"> </tspan><tspan class="cls-39" x="322.05" y="0">y</tspan><tspan x="332.39" y="0">ou</tspan><tspan class="cls-45" x="353.03" y="0"> </tspan><tspan x="359.23" y="0">de</tspan><tspan class="cls-41" x="382.37" y="0">v</tspan><tspan x="391.56" y="0">elop</tspan><tspan class="cls-44" x="430.53" y="0"> </tspan><tspan x="436.73" y="0">symptoms</tspan><tspan class="cls-44" x="520.83" y="0"> </tspan><tspan x="527.03" y="0">su</tspan><tspan class="cls-43" x="543.99" y="0">c</tspan><tspan x="553.33" y="0">h </tspan><tspan x="0" y="26.4">as cough or sho</tspan><tspan class="cls-42" x="134.84" y="26.4">r</tspan><tspan x="142.6" y="26.4">tness o</tspan><tspan class="cls-46" x="200.92" y="26.4">f</tspan><tspan x="208.9" y="26.4" xml:space="preserve"> breath.</tspan><tspan x="0" y="52.8">-Consider</tspan><tspan class="cls-47" x="83.86" y="52.8"> </tspan><tspan x="91.05" y="52.8">closing</tspan><tspan class="cls-48" x="149.26" y="52.8"> </tspan><tspan x="156.45" y="52.8">wind</tspan><tspan class="cls-39" x="197.72" y="52.8">o</tspan><tspan x="208.06" y="52.8">ws</tspan><tspan class="cls-47" x="230.06" y="52.8"> </tspan><tspan x="237.25" y="52.8">and</tspan><tspan class="cls-48" x="271.16" y="52.8"> </tspan><tspan x="278.35" y="52.8">doors</tspan><tspan class="cls-47" x="327.14" y="52.8"> </tspan><tspan x="334.33" y="52.8">until</tspan><tspan class="cls-48" x="369.21" y="52.8"> </tspan><tspan x="376.39" y="52.8">outdoor</tspan><tspan class="cls-47" x="444.45" y="52.8"> </tspan><tspan x="451.64" y="52.8">air</tspan><tspan class="cls-48" x="475.93" y="52.8"> </tspan><tspan x="483.11" y="52.8">quality</tspan><tspan class="cls-47" x="543.63" y="52.8"> </tspan><tspan x="550.82" y="52.8">is </tspan><tspan x="0" y="79.2">bette</tspan><tspan class="cls-49" x="46.06" y="79.2">r</tspan><tspan x="51.85" y="79.2">.</tspan><tspan x="0" y="105.6">-</tspan><tspan class="cls-11" x="7.33" y="105.6">F</tspan><tspan x="16.75" y="105.6">oll</tspan><tspan class="cls-39" x="37.39" y="105.6">o</tspan><tspan x="47.74" y="105.6">w the treatment plan recommended </tspan><tspan class="cls-18" x="364.8" y="105.6">b</tspan><tspan x="375.85" y="105.6">y </tspan><tspan class="cls-39" x="392.92" y="105.6">y</tspan><tspan x="403.26" y="105.6">our docto</tspan><tspan class="cls-49" x="485.86" y="105.6">r</tspan><tspan x="491.65" y="105.6">.</tspan><tspan x="0" y="132">-I</tspan><tspan class="cls-46" x="12.15" y="132">f</tspan><tspan class="cls-50" x="20.13" y="132"> </tspan><tspan class="cls-39" x="36.54" y="132">y</tspan><tspan x="46.88" y="132">ou</tspan><tspan class="cls-50" x="67.52" y="132"> </tspan><tspan x="83.93" y="132">are</tspan><tspan class="cls-51" x="114.39" y="132"> </tspan><tspan x="130.8" y="132">conce</tspan><tspan class="cls-42" x="179.37" y="132">r</tspan><tspan x="187.13" y="132">ned</tspan><tspan class="cls-50" x="219.91" y="132"> </tspan><tspan x="236.31" y="132">about</tspan><tspan class="cls-50" x="287.19" y="132"> </tspan><tspan x="303.6" y="132">symptoms</tspan><tspan class="cls-51" x="387.7" y="132"> </tspan><tspan x="404.11" y="132">call</tspan><tspan class="cls-50" x="434.36" y="132"> </tspan><tspan x="450.76" y="132">the</tspan><tspan class="cls-50" x="477.36" y="132"> </tspan><tspan x="493.77" y="132">24-hour </tspan><tspan x="0" y="158.4">HealthDirect helpline on 1800 022 222 or see </tspan><tspan class="cls-39" x="413.82" y="158.4">y</tspan><tspan x="424.17" y="158.4">our docto</tspan><tspan class="cls-49" x="506.76" y="158.4">r</tspan><tspan x="512.55" y="158.4">.</tspan><tspan x="0" y="184.8">-In a health emer</tspan><tspan class="cls-41" x="149.33" y="184.8">g</tspan><tspan x="161.03" y="184.8">en</tspan><tspan class="cls-52" x="181.66" y="184.8">c</tspan><tspan class="cls-49" x="190.34" y="184.8">y</tspan><tspan x="199.8" y="184.8">, call triple ze</tspan><tspan class="cls-41" x="319.79" y="184.8">r</tspan><tspan x="326.68" y="184.8">o (000) </tspan><tspan class="cls-41" x="398.16" y="184.8">f</tspan><tspan x="405.04" y="184.8">or an ambulanc</tspan><tspan class="cls-11" x="540.93" y="184.8">e</tspan><tspan x="551.72" y="184.8">.</tspan></text><text class="cls-10" transform="translate(257.76 724.21)">-<tspan class="cls-53" x="7.33" y="0">A</tspan><tspan class="cls-39" x="18.85" y="0">V</tspan><tspan x="31.49" y="0">OID</tspan><tspan class="cls-54" x="66.56" y="0"> </tspan><tspan x="74.12" y="0">outdoor</tspan><tspan class="cls-54" x="142.18" y="0"> </tspan><tspan x="149.75" y="0">p</tspan><tspan class="cls-41" x="161.89" y="0">h</tspan><tspan x="171.08" y="0">ysical</tspan><tspan class="cls-54" x="219.66" y="0"> </tspan><tspan x="227.22" y="0">activity</tspan><tspan class="cls-54" x="290.03" y="0"> </tspan><tspan x="297.59" y="0">i</tspan><tspan class="cls-46" x="302.42" y="0">f</tspan><tspan class="cls-55" x="310.4" y="0"> </tspan><tspan class="cls-39" x="317.96" y="0">y</tspan><tspan x="328.31" y="0">ou</tspan><tspan class="cls-54" x="348.94" y="0"> </tspan><tspan x="356.5" y="0">de</tspan><tspan class="cls-41" x="379.64" y="0">v</tspan><tspan x="388.84" y="0">elop</tspan><tspan class="cls-54" x="427.8" y="0"> </tspan><tspan x="435.36" y="0">symptoms</tspan><tspan class="cls-54" x="519.46" y="0"> </tspan><tspan x="527.03" y="0">su</tspan><tspan class="cls-43" x="543.99" y="0">c</tspan><tspan x="553.33" y="0">h </tspan><tspan x="0" y="26.4">as cough or sho</tspan><tspan class="cls-42" x="134.84" y="26.4">r</tspan><tspan x="142.6" y="26.4">tness o</tspan><tspan class="cls-46" x="200.92" y="26.4">f</tspan><tspan x="208.9" y="26.4" xml:space="preserve"> breath.</tspan><tspan x="0" y="52.8">-When</tspan><tspan class="cls-56" x="59.6" y="52.8"> </tspan><tspan x="65.05" y="52.8">indoor</tspan><tspan class="cls-41" x="120.97" y="52.8">s</tspan><tspan x="127.86" y="52.8">,</tspan><tspan class="cls-57" x="132.68" y="52.8"> </tspan><tspan x="138.13" y="52.8">close</tspan><tspan class="cls-56" x="180.75" y="52.8"> </tspan><tspan x="186.2" y="52.8">wind</tspan><tspan class="cls-39" x="227.47" y="52.8">o</tspan><tspan x="237.81" y="52.8">ws</tspan><tspan class="cls-56" x="259.81" y="52.8"> </tspan><tspan x="265.26" y="52.8">and</tspan><tspan class="cls-57" x="299.18" y="52.8"> </tspan><tspan x="304.63" y="52.8">doors</tspan><tspan class="cls-56" x="353.42" y="52.8"> </tspan><tspan x="358.87" y="52.8">until</tspan><tspan class="cls-56" x="393.75" y="52.8"> </tspan><tspan x="399.2" y="52.8">outdoor</tspan><tspan class="cls-57" x="467.26" y="52.8"> </tspan><tspan x="472.71" y="52.8">air</tspan><tspan class="cls-56" x="497" y="52.8"> </tspan><tspan x="502.45" y="52.8">quality </tspan><tspan x="0" y="79.2">is bette</tspan><tspan class="cls-49" x="64.28" y="79.2">r</tspan><tspan x="70.07" y="79.2">.</tspan><tspan x="0" y="105.6">-</tspan><tspan class="cls-11" x="7.33" y="105.6">F</tspan><tspan x="16.75" y="105.6">oll</tspan><tspan class="cls-39" x="37.39" y="105.6">o</tspan><tspan x="47.74" y="105.6">w the treatment plan recommended </tspan><tspan class="cls-18" x="364.8" y="105.6">b</tspan><tspan x="375.85" y="105.6">y </tspan><tspan class="cls-39" x="392.92" y="105.6">y</tspan><tspan x="403.26" y="105.6">our docto</tspan><tspan class="cls-49" x="485.86" y="105.6">r</tspan><tspan x="491.65" y="105.6">.</tspan><tspan x="0" y="132">-I</tspan><tspan class="cls-46" x="12.15" y="132">f</tspan><tspan class="cls-50" x="20.13" y="132"> </tspan><tspan class="cls-39" x="36.54" y="132">y</tspan><tspan x="46.88" y="132">ou</tspan><tspan class="cls-51" x="67.52" y="132"> </tspan><tspan x="83.93" y="132">are</tspan><tspan class="cls-50" x="114.39" y="132"> </tspan><tspan x="130.8" y="132">conce</tspan><tspan class="cls-42" x="179.37" y="132">r</tspan><tspan x="187.13" y="132">ned</tspan><tspan class="cls-51" x="219.91" y="132"> </tspan><tspan x="236.31" y="132">about</tspan><tspan class="cls-50" x="287.19" y="132"> </tspan><tspan x="303.6" y="132">symptoms</tspan><tspan class="cls-50" x="387.7" y="132"> </tspan><tspan x="404.11" y="132">call</tspan><tspan class="cls-51" x="434.36" y="132"> </tspan><tspan x="450.76" y="132">the</tspan><tspan class="cls-50" x="477.36" y="132"> </tspan><tspan x="493.77" y="132">24-hour </tspan><tspan x="0" y="158.4">HealthDirect helpline on 1800 022 222 or see </tspan><tspan class="cls-39" x="413.82" y="158.4">y</tspan><tspan x="424.17" y="158.4">our docto</tspan><tspan class="cls-49" x="506.76" y="158.4">r</tspan><tspan x="512.55" y="158.4">.</tspan><tspan x="0" y="184.8">-In a health emer</tspan><tspan class="cls-41" x="149.33" y="184.8">g</tspan><tspan x="161.03" y="184.8">en</tspan><tspan class="cls-52" x="181.66" y="184.8">c</tspan><tspan class="cls-49" x="190.34" y="184.8">y</tspan><tspan x="199.8" y="184.8">, call triple ze</tspan><tspan class="cls-41" x="319.79" y="184.8">r</tspan><tspan x="326.68" y="184.8">o (000) </tspan><tspan class="cls-41" x="398.16" y="184.8">f</tspan><tspan x="405.04" y="184.8">or an ambulanc</tspan><tspan class="cls-11" x="540.93" y="184.8">e</tspan><tspan x="551.72" y="184.8">.</tspan></text><text class="cls-10" transform="translate(257.76 989.22)">-S<tspan class="cls-41" x="18.33" y="0">T</tspan><tspan class="cls-58" x="27.52" y="0">A</tspan><tspan x="39.47" y="0">Y</tspan><tspan class="cls-59" x="51.61" y="0"> </tspan><tspan x="60.27" y="0">INDOORS</tspan><tspan class="cls-59" x="148.98" y="0"> </tspan><tspan x="157.65" y="0">as</tspan><tspan class="cls-59" x="177.11" y="0"> </tspan><tspan class="cls-42" x="185.78" y="0">m</tspan><tspan x="200.89" y="0">u</tspan><tspan class="cls-43" x="210.53" y="0">c</tspan><tspan x="219.88" y="0">h</tspan><tspan class="cls-59" x="229.51" y="0"> </tspan><tspan x="238.18" y="0">as</tspan><tspan class="cls-60" x="257.64" y="0"> </tspan><tspan x="266.31" y="0">possible</tspan><tspan class="cls-59" x="336.89" y="0"> </tspan><tspan x="345.55" y="0">with</tspan><tspan class="cls-59" x="380.65" y="0"> </tspan><tspan x="389.32" y="0">wind</tspan><tspan class="cls-39" x="430.59" y="0">o</tspan><tspan x="440.93" y="0">ws</tspan><tspan class="cls-59" x="462.93" y="0"> </tspan><tspan x="471.6" y="0">and</tspan><tspan class="cls-59" x="505.51" y="0"> </tspan><tspan x="514.18" y="0">doors </tspan><tspan x="0" y="26.4">closed until outdoor air quality is bette</tspan><tspan class="cls-49" x="337.13" y="26.4">r</tspan><tspan x="342.92" y="26.4">.</tspan><tspan x="0" y="52.8">-I</tspan><tspan class="cls-46" x="12.15" y="52.8">f</tspan><tspan class="cls-61" x="20.13" y="52.8"> </tspan><tspan class="cls-39" x="27.51" y="52.8">y</tspan><tspan x="37.85" y="52.8">ou</tspan><tspan class="cls-61" x="58.49" y="52.8"> </tspan><tspan x="65.86" y="52.8">feel</tspan><tspan class="cls-62" x="100.01" y="52.8"> </tspan><tspan x="107.38" y="52.8">that</tspan><tspan class="cls-61" x="141.08" y="52.8"> </tspan><tspan x="148.46" y="52.8">the</tspan><tspan class="cls-61" x="175.05" y="52.8"> </tspan><tspan x="182.43" y="52.8">air</tspan><tspan class="cls-61" x="206.72" y="52.8"> </tspan><tspan x="214.09" y="52.8">in</tspan><tspan class="cls-61" x="228.55" y="52.8"> </tspan><tspan class="cls-39" x="235.92" y="52.8">y</tspan><tspan x="246.27" y="52.8">our</tspan><tspan class="cls-61" x="274.23" y="52.8"> </tspan><tspan x="281.61" y="52.8">home</tspan><tspan class="cls-62" x="327.92" y="52.8"> </tspan><tspan x="335.29" y="52.8">is</tspan><tspan class="cls-61" x="347.44" y="52.8"> </tspan><tspan x="354.81" y="52.8">uncom</tspan><tspan class="cls-41" x="408.22" y="52.8">f</tspan><tspan x="415.11" y="52.8">o</tspan><tspan class="cls-42" x="426.11" y="52.8">r</tspan><tspan x="433.88" y="52.8">tabl</tspan><tspan class="cls-63" x="468.94" y="52.8">e</tspan><tspan x="479.06" y="52.8">,</tspan><tspan class="cls-61" x="483.88" y="52.8"> </tspan><tspan x="491.26" y="52.8">consider </tspan><tspan x="0" y="79.2">going</tspan><tspan class="cls-64" x="49.74" y="79.2"> </tspan><tspan x="59.44" y="79.2">to</tspan><tspan class="cls-64" x="76.41" y="79.2"> </tspan><tspan x="86.11" y="79.2">a</tspan><tspan class="cls-64" x="98.25" y="79.2"> </tspan><tspan x="107.96" y="79.2">place</tspan><tspan class="cls-64" x="156.52" y="79.2"> </tspan><tspan x="166.23" y="79.2">with</tspan><tspan class="cls-64" x="201.33" y="79.2"> </tspan><tspan x="211.03" y="79.2">cleaner</tspan><tspan class="cls-65" x="275.42" y="79.2"> </tspan><tspan x="285.13" y="79.2">air</tspan><tspan class="cls-64" x="309.42" y="79.2"> </tspan><tspan x="319.12" y="79.2">(su</tspan><tspan class="cls-43" x="342.05" y="79.2">c</tspan><tspan x="351.39" y="79.2">h</tspan><tspan class="cls-64" x="361.03" y="79.2"> </tspan><tspan x="370.74" y="79.2">as</tspan><tspan class="cls-64" x="390.2" y="79.2"> </tspan><tspan x="399.91" y="79.2">an</tspan><tspan class="cls-64" x="421.68" y="79.2"> </tspan><tspan x="431.39" y="79.2">ai</tspan><tspan class="cls-39" x="448.35" y="79.2">r</tspan><tspan x="455.02" y="79.2">-conditioned </tspan><tspan x="0" y="105.6">building li</tspan><tspan class="cls-41" x="85.87" y="105.6">k</tspan><tspan x="95.07" y="105.6">e a lib</tspan><tspan class="cls-11" x="152.13" y="105.6">r</tspan><tspan x="159.24" y="105.6">ary or shopping centre) i</tspan><tspan class="cls-46" x="375.32" y="105.6">f</tspan><tspan x="383.3" y="105.6" xml:space="preserve"> it is safe to do s</tspan><tspan class="cls-41" x="527.87" y="105.6">o</tspan><tspan x="538.43" y="105.6">.</tspan><tspan x="0" y="132">-Acti</tspan><tspan class="cls-41" x="39.86" y="132">v</tspan><tspan x="49.06" y="132">ely</tspan><tspan class="cls-66" x="75.88" y="132"> </tspan><tspan x="90.61" y="132">monitor</tspan><tspan class="cls-67" x="155.03" y="132"> </tspan><tspan x="169.76" y="132">symptoms</tspan><tspan class="cls-66" x="253.86" y="132"> </tspan><tspan x="268.59" y="132">and</tspan><tspan class="cls-67" x="302.51" y="132"> </tspan><tspan class="cls-41" x="317.24" y="132">f</tspan><tspan x="324.12" y="132">oll</tspan><tspan class="cls-39" x="344.77" y="132">o</tspan><tspan x="355.11" y="132">w</tspan><tspan class="cls-66" x="369.79" y="132"> </tspan><tspan x="384.52" y="132">the</tspan><tspan class="cls-67" x="411.11" y="132"> </tspan><tspan x="425.84" y="132">treatment</tspan><tspan class="cls-66" x="509.5" y="132"> </tspan><tspan x="524.23" y="132">plan </tspan><tspan x="0" y="158.4">recommended </tspan><tspan class="cls-18" x="129.12" y="158.4">b</tspan><tspan x="140.16" y="158.4">y </tspan><tspan class="cls-39" x="157.23" y="158.4">y</tspan><tspan x="167.58" y="158.4">our docto</tspan><tspan class="cls-49" x="250.17" y="158.4">r</tspan><tspan x="255.96" y="158.4">.</tspan><tspan x="0" y="184.8">-I</tspan><tspan class="cls-46" x="12.15" y="184.8">f</tspan><tspan class="cls-50" x="20.13" y="184.8"> </tspan><tspan class="cls-39" x="36.54" y="184.8">y</tspan><tspan x="46.88" y="184.8">ou</tspan><tspan class="cls-51" x="67.52" y="184.8"> </tspan><tspan x="83.93" y="184.8">are</tspan><tspan class="cls-50" x="114.39" y="184.8"> </tspan><tspan x="130.8" y="184.8">conce</tspan><tspan class="cls-42" x="179.37" y="184.8">r</tspan><tspan x="187.13" y="184.8">ned</tspan><tspan class="cls-51" x="219.91" y="184.8"> </tspan><tspan x="236.31" y="184.8">about</tspan><tspan class="cls-50" x="287.19" y="184.8"> </tspan><tspan x="303.6" y="184.8">symptoms</tspan><tspan class="cls-50" x="387.7" y="184.8"> </tspan><tspan x="404.11" y="184.8">call</tspan><tspan class="cls-51" x="434.36" y="184.8"> </tspan><tspan x="450.76" y="184.8">the</tspan><tspan class="cls-50" x="477.36" y="184.8"> </tspan><tspan x="493.77" y="184.8">24-hour </tspan><tspan x="0" y="211.2">HealthDirect helpline on 1800 022 222 or see </tspan><tspan class="cls-39" x="413.82" y="211.2">y</tspan><tspan x="424.17" y="211.2">our docto</tspan><tspan class="cls-49" x="506.76" y="211.2">r</tspan><tspan x="512.55" y="211.2">.</tspan><tspan x="0" y="237.6">-In a health emer</tspan><tspan class="cls-41" x="149.33" y="237.6">g</tspan><tspan x="161.03" y="237.6">en</tspan><tspan class="cls-52" x="181.66" y="237.6">c</tspan><tspan class="cls-49" x="190.34" y="237.6">y</tspan><tspan x="199.8" y="237.6">, call triple ze</tspan><tspan class="cls-41" x="319.79" y="237.6">r</tspan><tspan x="326.68" y="237.6">o (000) </tspan><tspan class="cls-41" x="398.16" y="237.6">f</tspan><tspan x="405.04" y="237.6">or an ambulance</tspan></text><text class="cls-10" transform="translate(257.76 1269.41)">-S<tspan class="cls-41" x="18.33" y="0">T</tspan><tspan class="cls-58" x="27.52" y="0">A</tspan><tspan x="39.47" y="0">Y</tspan><tspan class="cls-68" x="51.61" y="0"> </tspan><tspan x="57.08" y="0">INDOORS</tspan><tspan class="cls-68" x="145.79" y="0"> </tspan><tspan x="151.26" y="0">with</tspan><tspan class="cls-69" x="186.36" y="0"> </tspan><tspan x="191.83" y="0">wind</tspan><tspan class="cls-39" x="233.1" y="0">o</tspan><tspan x="243.44" y="0">ws</tspan><tspan class="cls-68" x="265.44" y="0"> </tspan><tspan x="270.92" y="0">and</tspan><tspan class="cls-68" x="304.83" y="0"> </tspan><tspan x="310.3" y="0">doors</tspan><tspan class="cls-68" x="359.09" y="0"> </tspan><tspan x="364.57" y="0">closed</tspan><tspan class="cls-69" x="419.32" y="0"> </tspan><tspan x="424.79" y="0">until</tspan><tspan class="cls-68" x="459.67" y="0"> </tspan><tspan x="465.15" y="0">outdoor</tspan><tspan class="cls-68" x="533.21" y="0"> </tspan><tspan x="538.68" y="0">air </tspan><tspan x="0" y="26.4">quality is better and reduce indoor activit</tspan><tspan class="cls-17" x="363.69" y="26.4">y</tspan><tspan x="373.37" y="26.4">.</tspan><tspan x="0" y="52.8">-I</tspan><tspan class="cls-46" x="12.15" y="52.8">f</tspan><tspan class="cls-61" x="20.13" y="52.8"> </tspan><tspan class="cls-39" x="27.51" y="52.8">y</tspan><tspan x="37.85" y="52.8">ou</tspan><tspan class="cls-61" x="58.49" y="52.8"> </tspan><tspan x="65.86" y="52.8">feel</tspan><tspan class="cls-62" x="100.01" y="52.8"> </tspan><tspan x="107.38" y="52.8">that</tspan><tspan class="cls-61" x="141.08" y="52.8"> </tspan><tspan x="148.46" y="52.8">the</tspan><tspan class="cls-61" x="175.05" y="52.8"> </tspan><tspan x="182.43" y="52.8">air</tspan><tspan class="cls-61" x="206.72" y="52.8"> </tspan><tspan x="214.09" y="52.8">in</tspan><tspan class="cls-61" x="228.55" y="52.8"> </tspan><tspan class="cls-39" x="235.92" y="52.8">y</tspan><tspan x="246.27" y="52.8">our</tspan><tspan class="cls-61" x="274.23" y="52.8"> </tspan><tspan x="281.61" y="52.8">home</tspan><tspan class="cls-62" x="327.92" y="52.8"> </tspan><tspan x="335.29" y="52.8">is</tspan><tspan class="cls-61" x="347.44" y="52.8"> </tspan><tspan x="354.81" y="52.8">uncom</tspan><tspan class="cls-41" x="408.22" y="52.8">f</tspan><tspan x="415.11" y="52.8">o</tspan><tspan class="cls-42" x="426.11" y="52.8">r</tspan><tspan x="433.88" y="52.8">tabl</tspan><tspan class="cls-63" x="468.94" y="52.8">e</tspan><tspan x="479.06" y="52.8">,</tspan><tspan class="cls-61" x="483.88" y="52.8"> </tspan><tspan x="491.26" y="52.8">consider </tspan><tspan x="0" y="79.2">going</tspan><tspan class="cls-64" x="49.74" y="79.2"> </tspan><tspan x="59.44" y="79.2">to</tspan><tspan class="cls-64" x="76.41" y="79.2"> </tspan><tspan x="86.11" y="79.2">a</tspan><tspan class="cls-64" x="98.25" y="79.2"> </tspan><tspan x="107.96" y="79.2">place</tspan><tspan class="cls-64" x="156.52" y="79.2"> </tspan><tspan x="166.23" y="79.2">with</tspan><tspan class="cls-64" x="201.33" y="79.2"> </tspan><tspan x="211.03" y="79.2">cleaner</tspan><tspan class="cls-65" x="275.42" y="79.2"> </tspan><tspan x="285.13" y="79.2">air</tspan><tspan class="cls-64" x="309.42" y="79.2"> </tspan><tspan x="319.12" y="79.2">(su</tspan><tspan class="cls-43" x="342.05" y="79.2">c</tspan><tspan x="351.39" y="79.2">h</tspan><tspan class="cls-64" x="361.03" y="79.2"> </tspan><tspan x="370.74" y="79.2">as</tspan><tspan class="cls-64" x="390.2" y="79.2"> </tspan><tspan x="399.91" y="79.2">an</tspan><tspan class="cls-64" x="421.68" y="79.2"> </tspan><tspan x="431.39" y="79.2">ai</tspan><tspan class="cls-39" x="448.35" y="79.2">r</tspan><tspan x="455.02" y="79.2">-conditioned </tspan><tspan x="0" y="105.6">building li</tspan><tspan class="cls-41" x="85.87" y="105.6">k</tspan><tspan x="95.07" y="105.6">e a lib</tspan><tspan class="cls-11" x="152.13" y="105.6">r</tspan><tspan x="159.24" y="105.6">ary or shopping centre) i</tspan><tspan class="cls-46" x="375.32" y="105.6">f</tspan><tspan x="383.3" y="105.6" xml:space="preserve"> it is safe to do s</tspan><tspan class="cls-41" x="527.87" y="105.6">o</tspan><tspan x="538.43" y="105.6">.</tspan><tspan x="0" y="132">-Acti</tspan><tspan class="cls-41" x="39.86" y="132">v</tspan><tspan x="49.06" y="132">ely</tspan><tspan class="cls-66" x="75.88" y="132"> </tspan><tspan x="90.61" y="132">monitor</tspan><tspan class="cls-67" x="155.03" y="132"> </tspan><tspan x="169.76" y="132">symptoms</tspan><tspan class="cls-66" x="253.86" y="132"> </tspan><tspan x="268.59" y="132">and</tspan><tspan class="cls-67" x="302.51" y="132"> </tspan><tspan class="cls-41" x="317.24" y="132">f</tspan><tspan x="324.12" y="132">oll</tspan><tspan class="cls-39" x="344.77" y="132">o</tspan><tspan x="355.11" y="132">w</tspan><tspan class="cls-66" x="369.79" y="132"> </tspan><tspan x="384.52" y="132">the</tspan><tspan class="cls-67" x="411.11" y="132"> </tspan><tspan x="425.84" y="132">treatment</tspan><tspan class="cls-66" x="509.5" y="132"> </tspan><tspan x="524.23" y="132">plan </tspan><tspan x="0" y="158.4">recommended </tspan><tspan class="cls-18" x="129.12" y="158.4">b</tspan><tspan x="140.16" y="158.4">y </tspan><tspan class="cls-39" x="157.23" y="158.4">y</tspan><tspan x="167.58" y="158.4">our docto</tspan><tspan class="cls-49" x="250.17" y="158.4">r</tspan><tspan x="255.96" y="158.4">.</tspan><tspan x="0" y="184.8">-I</tspan><tspan class="cls-46" x="12.15" y="184.8">f</tspan><tspan class="cls-50" x="20.13" y="184.8"> </tspan><tspan class="cls-39" x="36.54" y="184.8">y</tspan><tspan x="46.88" y="184.8">ou</tspan><tspan class="cls-51" x="67.52" y="184.8"> </tspan><tspan x="83.93" y="184.8">are</tspan><tspan class="cls-50" x="114.39" y="184.8"> </tspan><tspan x="130.8" y="184.8">conce</tspan><tspan class="cls-42" x="179.37" y="184.8">r</tspan><tspan x="187.13" y="184.8">ned</tspan><tspan class="cls-51" x="219.91" y="184.8"> </tspan><tspan x="236.31" y="184.8">about</tspan><tspan class="cls-50" x="287.19" y="184.8"> </tspan><tspan x="303.6" y="184.8">symptoms</tspan><tspan class="cls-50" x="387.7" y="184.8"> </tspan><tspan x="404.11" y="184.8">call</tspan><tspan class="cls-51" x="434.36" y="184.8"> </tspan><tspan x="450.76" y="184.8">the</tspan><tspan class="cls-50" x="477.36" y="184.8"> </tspan><tspan x="493.77" y="184.8">24-hour </tspan><tspan x="0" y="211.2">-HealthDirect helpline on 1800 022 222 or see </tspan><tspan class="cls-39" x="421.15" y="211.2">y</tspan><tspan x="431.49" y="211.2">our docto</tspan><tspan class="cls-49" x="514.09" y="211.2">r</tspan><tspan x="519.88" y="211.2">.</tspan><tspan x="0" y="237.6">-In a health emer</tspan><tspan class="cls-41" x="149.33" y="237.6">g</tspan><tspan x="161.03" y="237.6">en</tspan><tspan class="cls-52" x="181.66" y="237.6">c</tspan><tspan class="cls-49" x="190.34" y="237.6">y</tspan><tspan x="199.8" y="237.6">, call triple ze</tspan><tspan class="cls-41" x="319.79" y="237.6">r</tspan><tspan x="326.68" y="237.6">o (000) </tspan><tspan class="cls-41" x="398.16" y="237.6">f</tspan><tspan x="405.04" y="237.6">or an ambulanc</tspan><tspan class="cls-11" x="540.93" y="237.6">e</tspan><tspan x="551.72" y="237.6">.</tspan></text></g></g></svg>