<svg xmlns="http://www.w3.org/2000/svg" viewBox="0 0 637.07 1492.49"><defs><style>.cls-1,.cls-82{font-size:20px;}.cls-1,.cls-12,.cls-46{font-family:TwCenMT-Regular, Tw Cen MT;}.cls-2{fill:#184872;}.cls-10,.cls-11,.cls-2,.cls-3,.cls-4,.cls-5,.cls-6,.cls-7,.cls-8,.cls-9{stroke:#fff;}.cls-10,.cls-11,.cls-2,.cls-3,.cls-4,.cls-46,.cls-5,.cls-6,.cls-7,.cls-8,.cls-9{stroke-miterlimit:10;}.cls-3{fill:#286c99;}.cls-4{fill:#419fcc;}.cls-5{fill:#4fbae9;}.cls-6{fill:#88cde5;}.cls-7{fill:#f7e69a;}.cls-8{fill:#fcd313;}.cls-9{fill:#f37920;}.cls-10{fill:#ef5423;}.cls-11{fill:#951920;}.cls-12,.cls-46,.cls-81{font-size:22px;}.cls-13{letter-spacing:-0.02em;}.cls-14{letter-spacing:0.02em;}.cls-15{letter-spacing:-0.01em;}.cls-16{letter-spacing:-0.08em;}.cls-17{letter-spacing:-0.03em;}.cls-18{fill:#4d83ef;}.cls-19{fill:#344de2;}.cls-20{fill:#656566;}.cls-21{fill:#4f4f51;}.cls-22{fill:#eae9e8;}.cls-23{fill:#dbdbdb;}.cls-24{fill:#ed694a;}.cls-25{fill:#d8553a;}.cls-26{fill:#a2ddfd;}.cls-27{fill:#7acefa;}.cls-28{fill:#cde9fa;}.cls-29{fill:#ccc9ba;}.cls-30{fill:#bab6a4;}.cls-31{fill:#fff;}.cls-32{fill:#fdd8a8;}.cls-33{fill:#a59eaf;}.cls-34{fill:#ffc477;}.cls-35{fill:#827a8c;}.cls-36{fill:#92cdde;}.cls-37{fill:#418abd;}.cls-38{letter-spacing:-0.06em;}.cls-39{fill:#aa3684;}.cls-40{fill:#ffbd4a;}.cls-41{fill:#f7ac28;}.cls-42{fill:#fbede3;}.cls-43{fill:#f1954a;}.cls-44{fill:#fbe2d0;}.cls-45{fill:#60a6b8;}.cls-46{stroke:#231f20;stroke-width:0.5px;}.cls-47{fill:#fce3a0;}.cls-48{fill:#ffce71;}.cls-49{fill:#ffb357;}.cls-50{fill:#ff8e9e;}.cls-51{fill:#4c5659;}.cls-52{fill:#bec7ec;}.cls-53{fill:#a3afe4;}.cls-54{fill:#eaf6ff;}.cls-55{fill:#c5e2ff;}.cls-56{fill:#fb6672;}.cls-57{fill:#fb4a59;}.cls-58{fill:#ffc107;}.cls-59{fill:#795548;}.cls-60{fill:#f44336;}.cls-61{fill:#2196f3;}.cls-62{fill:#f4d44e;}.cls-63{fill:#e8c842;}.cls-64{fill:#dbbc3b;}.cls-65{fill:#f44335;}.cls-66{fill:#c81e1e;}.cls-67{fill:#60a917;}.cls-68{fill:#ff9801;}.cls-69{fill:#ff5722;}.cls-70{fill:#f5f5f5;}.cls-71{fill:#fab03c;}.cls-72{fill:#fd8f3e;}.cls-73{fill:#efa66f;}.cls-74{fill:#f0f5f7;}.cls-75{fill:#f4bc8e;}.cls-76{fill:#fbdbb7;}.cls-77{fill:#82807f;}.cls-78{fill:#6d6d6d;}.cls-79{fill:#a0ecff;}.cls-80{fill:#60daff;}.cls-83{fill:#e82f3e;}.cls-84{fill:#ea9d2d;}.cls-85{fill:#ff6268;}.cls-86{fill:#961b20;}.cls-87{letter-spacing:1.85em;}.cls-88{letter-spacing:-0.07em;}.cls-89{letter-spacing:1.28em;}.cls-90{letter-spacing:-0.04em;}.cls-91{letter-spacing:0.14em;}.cls-92{letter-spacing:0.14em;}.cls-93{letter-spacing:1.86em;}.cls-94{letter-spacing:1.29em;}.cls-95{letter-spacing:0.33em;}.cls-96{letter-spacing:0.33em;}.cls-97{font-size:26px;font-family:TwCenMT-Bold, Tw Cen MT;font-weight:700;}</style></defs><title>Asset 101</title><g id="Layer_2" data-name="Layer 2"><g id="_750_x_5766_px_Artboard_2" data-name="750 x 5766 px Artboard 2"><g id="Graphic_Elements" data-name="Graphic Elements"><text class="cls-1" transform="translate(312.97 1461.6) rotate(-90)"><tspan xml:space="preserve">&lt;-40          -40                      -27                     -13                       0                       +9                     +26                    +32                    +38                    +46         &gt;46</tspan></text></g></g><g id="_1366_x_3620_x_Artboard_1" data-name="1366 x 3620 x Artboard 1"><rect class="cls-2" x="203.78" y="1407.26" width="146.45" height="23" transform="translate(-1141.76 1695.76) rotate(-90)"/><rect class="cls-3" x="203.78" y="1260.81" width="146.45" height="23" transform="translate(-995.31 1549.31) rotate(-90)"/><rect class="cls-4" x="203.78" y="1115.53" width="146.45" height="23" transform="translate(-850.03 1404.03) rotate(-90)"/><rect class="cls-5" x="203.78" y="969.08" width="146.45" height="23" transform="translate(-703.58 1257.58) rotate(-90)"/><rect class="cls-6" x="203.78" y="822.63" width="146.45" height="23" transform="translate(-557.13 1111.13) rotate(-90)"/><rect class="cls-7" x="203.78" y="676.18" width="146.45" height="23" transform="translate(-410.68 964.68) rotate(-90)"/><rect class="cls-8" x="203.78" y="530.89" width="146.45" height="23" transform="translate(-265.39 819.39) rotate(-90)"/><rect class="cls-9" x="203.78" y="384.45" width="146.45" height="23" transform="translate(-118.95 672.95) rotate(-90)"/><rect class="cls-10" x="203.78" y="239.16" width="146.45" height="23" transform="translate(26.34 527.66) rotate(-90)"/><rect class="cls-11" x="203.78" y="92.71" width="146.45" height="23" transform="translate(172.79 381.21) rotate(-90)"/><text class="cls-12" transform="translate(337.99 635.6)">P<tspan class="cls-13" x="11" y="0">h</tspan><tspan x="20.2" y="0">ysiological the</tspan><tspan class="cls-14" x="145.22" y="0">r</tspan><tspan x="152.99" y="0">moregulation </tspan><tspan x="0" y="26.4">sufficient to </tspan><tspan class="cls-13" x="105.42" y="26.4">k</tspan><tspan x="114.62" y="26.4">eep the</tspan><tspan class="cls-14" x="181.42" y="26.4">r</tspan><tspan x="189.19" y="26.4">mal com</tspan><tspan class="cls-13" x="261.04" y="26.4">f</tspan><tspan x="267.92" y="26.4">o</tspan><tspan class="cls-14" x="278.92" y="26.4">r</tspan><tspan x="286.69" y="26.4">t</tspan></text><text class="cls-12" transform="translate(337.6 493.6)">Drinking</text><text class="cls-12" transform="translate(337.43 348.6)">Shaded place<tspan class="cls-13" x="122.69" y="0">s</tspan><tspan x="129.57" y="0">,drinkin</tspan><tspan class="cls-13" x="192.41" y="0">g</tspan><tspan x="204.11" y="0">, </tspan><tspan x="0" y="26.4">tempo</tspan><tspan class="cls-15" x="54.77" y="26.4">r</tspan><tspan x="61.89" y="26.4">ary reduce p</tspan><tspan class="cls-13" x="176.19" y="26.4">h</tspan><tspan x="185.39" y="26.4">ysical </tspan><tspan x="0" y="52.8">activity</tspan></text><text class="cls-12" transform="translate(338.43 202.41)">Shaded place<tspan class="cls-13" x="122.69" y="0">s</tspan><tspan x="129.57" y="0">, drinkin</tspan><tspan class="cls-13" x="198.48" y="0">g</tspan><tspan x="210.18" y="0">, </tspan><tspan x="0" y="26.4">reduce p</tspan><tspan class="cls-13" x="77.77" y="26.4">h</tspan><tspan x="86.97" y="26.4">ysical activity</tspan></text><text class="cls-12" transform="translate(338.08 56.41)"><tspan class="cls-16">T</tspan><tspan x="7.87" y="0">empo</tspan><tspan class="cls-15" x="56.69" y="0">r</tspan><tspan x="63.8" y="0">ary bo</tspan><tspan class="cls-17" x="123.47" y="0">d</tspan><tspan x="134.95" y="0">y coolin</tspan><tspan class="cls-13" x="201.77" y="0">g</tspan><tspan x="213.47" y="0">, </tspan><tspan x="0" y="26.4">drinkin</tspan><tspan class="cls-13" x="58.02" y="26.4">g</tspan><tspan x="69.72" y="26.4">, no p</tspan><tspan class="cls-13" x="119.45" y="26.4">h</tspan><tspan x="128.65" y="26.4">ysical activity</tspan></text><path class="cls-18" d="M163,1389.52h0a34.37,34.37,0,0,0-4.23,29.23h0A34.63,34.63,0,0,0,166.4,1432h0a34.33,34.33,0,0,0,27.42,11h0a34.48,34.48,0,0,0,27.91-51.17C209.24,1369.45,177.29,1368,163,1389.52Z"/><path class="cls-19" d="M199.84,1439.51h0a34.4,34.4,0,0,1-27.43-11h0a34.63,34.63,0,0,1-7.67-13.28h0a34.34,34.34,0,0,1,4.22-29.23h0a34.32,34.32,0,0,1,8.49-8.88A34.1,34.1,0,0,0,163,1389.52h0a34.37,34.37,0,0,0-4.23,29.23h0A34.63,34.63,0,0,0,166.4,1432h0a34.33,34.33,0,0,0,27.42,11h0a34.1,34.1,0,0,0,18-6.4A34.69,34.69,0,0,1,199.84,1439.51Z"/><path class="cls-20" d="M190,1420.23a4.52,4.52,0,0,0,3.39,0,13.93,13.93,0,0,1,3.66-.91V1419a5.35,5.35,0,0,0-10.7,0v.33A13.86,13.86,0,0,1,190,1420.23Z"/><path class="cls-21" d="M189.78,1419h0a5.35,5.35,0,0,1,3.61-5.06,5.23,5.23,0,0,0-1.73-.29,5.34,5.34,0,0,0-5.35,5.35v.33a13.86,13.86,0,0,1,3.47.84V1419Z"/><path class="cls-18" d="M210.66,1443.05h5.5a4.87,4.87,0,0,0,4.89-5.09c-.16-4.08-.07-9.75,4.52-17.49a3.68,3.68,0,0,0-5.38-4.81,33.1,33.1,0,0,0-13.2,23.26A3.7,3.7,0,0,0,210.66,1443.05Z"/><path class="cls-19" d="M214.32,1443a33.09,33.09,0,0,1,8.12-25.48,3.57,3.57,0,0,1,2.78-1.29,3.61,3.61,0,0,0-5-.56,33.1,33.1,0,0,0-13.2,23.26,3.7,3.7,0,0,0,3.67,4.13h3.67S214.32,1443,214.32,1443Z"/><path class="cls-18" d="M172.65,1443.05h-5.5a4.87,4.87,0,0,1-4.89-5.09c.16-4.08.07-9.75-4.52-17.49a3.68,3.68,0,0,1,5.39-4.81,33.09,33.09,0,0,1,13.19,23.26A3.7,3.7,0,0,1,172.65,1443.05Z"/><path class="cls-19" d="M168.5,1438.12c-.41-4.43-1.32-10.52-7.38-18.21a3.89,3.89,0,0,1,0-5,3.7,3.7,0,0,0-3.43,5.57c4.59,7.74,4.68,13.41,4.52,17.49a4.87,4.87,0,0,0,4.89,5.09h5.5a3.57,3.57,0,0,0,.87-.1A5.3,5.3,0,0,1,168.5,1438.12Z"/><path class="cls-22" d="M208.82,1407.7a5.67,5.67,0,0,1-8-.92l-1.83-2.3a5.67,5.67,0,0,1,8.87-7l1.83,2.31A5.66,5.66,0,0,1,208.82,1407.7Z"/><path class="cls-23" d="M205.3,1403.26l-1.84-2.31a5.8,5.8,0,0,1-1-5.57,5.73,5.73,0,0,0-2.5,1.14,5.67,5.67,0,0,0-.91,8l1.83,2.3a5.66,5.66,0,0,0,9.63-1.26A5.77,5.77,0,0,1,205.3,1403.26Z"/><path class="cls-22" d="M174.49,1407.7a5.67,5.67,0,0,0,8-.92l1.83-2.3a5.66,5.66,0,1,0-8.86-7l-1.84,2.31A5.67,5.67,0,0,0,174.49,1407.7Z"/><path class="cls-23" d="M183.37,1396.52a5.56,5.56,0,0,0-2.58-1.15,5.71,5.71,0,0,1-.92,5.6l-1.83,2.31a5.73,5.73,0,0,1-5.25,2.17,5.78,5.78,0,0,0,1.7,2.25,5.67,5.67,0,0,0,8-.92l1.83-2.3A5.66,5.66,0,0,0,183.37,1396.52Z"/><path class="cls-24" d="M197,1427.73V1419a11.89,11.89,0,0,0-3.83.87,4.12,4.12,0,0,1-3.05,0,11.89,11.89,0,0,0-3.82-.87v8.74a5.35,5.35,0,0,0,10.7,0Z"/><path class="cls-25" d="M189.78,1427.73v-8a12.47,12.47,0,0,0-3.47-.73v8.74a5.35,5.35,0,0,0,5.35,5.35,5.23,5.23,0,0,0,1.73-.29A5.35,5.35,0,0,1,189.78,1427.73Z"/><path d="M200.05,1407.43a6.72,6.72,0,0,0,9.42,1.08h0a6.71,6.71,0,0,0,1.08-9.42l-1.83-2.31a6.7,6.7,0,0,0-10.5,8.34Zm.55-10.09a4.61,4.61,0,0,1,6.49.74l1.83,2.31a4.62,4.62,0,0,1-.74,6.49h0a4.62,4.62,0,0,1-6.49-.74l-1.84-2.31A4.61,4.61,0,0,1,200.6,1397.34Z"/><path d="M174.6,1396.78l-1.83,2.31a6.72,6.72,0,0,0,1.08,9.42h0a6.71,6.71,0,0,0,9.42-1.08l1.83-2.31a6.6,6.6,0,0,0,1.41-4.93A6.72,6.72,0,0,0,174.6,1396.78Zm8.87,7-1.83,2.31a4.62,4.62,0,0,1-6.49.74h0a4.62,4.62,0,0,1-.75-6.49l1.84-2.31a4.62,4.62,0,0,1,7.23,5.75Z"/><path d="M191.66,1412.6a6.4,6.4,0,0,0-6.39,6.39v4.61a1,1,0,1,0,2.09,0v-3.44a11.16,11.16,0,0,1,2.39.66,5.08,5.08,0,0,0,3.83,0,11.62,11.62,0,0,1,2.39-.67v7.58a4.3,4.3,0,0,1-8.57.59,1,1,0,0,0-2.07.29,6.39,6.39,0,0,0,12.72-.88V1419A6.39,6.39,0,0,0,191.66,1412.6Zm-1.13,6.29a13.17,13.17,0,0,0-3.07-.83,4.31,4.31,0,0,1,8.41,0C192.77,1418.51,192.31,1419.61,190.53,1418.89Z"/><path d="M222.4,1390.85a35.47,35.47,0,0,0-47.26-13.66,1,1,0,0,0-.44,1.4,1,1,0,0,0,1.41.44,33.4,33.4,0,0,1,48.45,35.36,4.57,4.57,0,0,0-5,.44,34.12,34.12,0,0,0-13.59,24,33.39,33.39,0,0,1-28.61,0,34.11,34.11,0,0,0-13.6-24,4.58,4.58,0,0,0-5-.44,33.45,33.45,0,0,1,13.35-32.88,1,1,0,0,0-1.22-1.69A35.5,35.5,0,0,0,157,1416a4.55,4.55,0,0,0-.1,5c4.73,8,4.5,13.79,4.38,16.92a5.9,5.9,0,0,0,5.93,6.17h5.5a4.72,4.72,0,0,0,4.45-3.13,35.43,35.43,0,0,0,29.11,0,4.7,4.7,0,0,0,4.44,3.13h5.5a5.91,5.91,0,0,0,5.94-6.17c0-.74-.06-1.72,0-2.8a1,1,0,0,0-2.08-.06c0,1.14,0,2.17,0,2.94a3.82,3.82,0,0,1-3.85,4h-5.5a2.65,2.65,0,0,1-2.63-3,32.09,32.09,0,0,1,12.79-22.55,2.64,2.64,0,0,1,3.86,3.45,33.12,33.12,0,0,0-4.1,10.11,1,1,0,0,0,2,.43,31.1,31.1,0,0,1,3.85-9.48,4.57,4.57,0,0,0-.1-5A35.38,35.38,0,0,0,222.4,1390.85ZM172.66,1442h-5.5a3.82,3.82,0,0,1-3.85-4,30.2,30.2,0,0,0-4.66-18.06,2.63,2.63,0,0,1,3.85-3.45A32,32,0,0,1,175.29,1439,2.65,2.65,0,0,1,172.66,1442Z"/><path class="cls-26" d="M150.17,1402.94a3.55,3.55,0,0,1,1.42-4.81c2.51-1.36,6.63-2.34,11-2.61,2.85-.17,8.32-.18,12.92,1.72a3.54,3.54,0,1,1-2.7,6.54c-5.28-2.18-14.6-1.21-17.88.57A3.54,3.54,0,0,1,150.17,1402.94Z"/><path class="cls-26" d="M152.78,1421.92c-12.77,0-19.88-9.14-31-5.09a3.54,3.54,0,1,1-2.42-6.65c8.74-3.19,15.55-.57,21.57,1.74,5.1,2,9.92,3.81,16,2.46a3.54,3.54,0,0,1,1.53,6.91,26,26,0,0,1-5.71.63Z"/><path class="cls-27" d="M119.5,1410.13a15.83,15.83,0,0,0,19.83,1.17c-5.59-2.1-11.92-4-19.83-1.17Z"/><path class="cls-26" d="M145.8,1382.5c-10.24,0-15.84-7.1-25.89-4.59a3.54,3.54,0,1,1-1.71-6.87c7.69-1.92,13.4.22,18.44,2.11,5.74,2.15,10.27,3.86,17.54-.21a3.54,3.54,0,0,1,3.45,6.18,23.84,23.84,0,0,1-11.83,3.38Z"/><circle class="cls-28" cx="130.15" cy="1398.35" r="12.51"/><path class="cls-26" d="M139.56,1406.59c-16.88,1.41-18.23-13.65-14.82-19.52a12.51,12.51,0,1,0,14.82,19.52Z"/><path class="cls-27" d="M159.4,1399.88a15.82,15.82,0,0,0,10.63-4.09,37.08,37.08,0,0,0-7.4-.27,29.24,29.24,0,0,0-10.75,2.46,15.77,15.77,0,0,0,7.52,1.9Z"/><path class="cls-27" d="M159,1374.3a3.52,3.52,0,0,0-4.81-1.36,17.12,17.12,0,0,1-8.14,2.47,15.73,15.73,0,0,0-2.44,7c.71.07,1.44.11,2.2.11a23.84,23.84,0,0,0,11.83-3.38,3.53,3.53,0,0,0,1.36-4.82Z"/><circle class="cls-28" cx="159.4" cy="1383.99" r="12.51"/><path class="cls-26" d="M168.81,1392.23c-16.88,1.41-18.22-13.65-14.81-19.52a12.51,12.51,0,1,0,14.81,19.52Z"/><path d="M158.74,1413.47a.94.94,0,1,0-.43,1.83,2.6,2.6,0,0,1,0,5.07c-15.87,3.51-23.7-9.21-36.82-4.42a2.6,2.6,0,1,1-1.78-4.89,23.94,23.94,0,0,1,3.78-1,13.39,13.39,0,0,0,11.63.84c6.56,2,12,5.39,19.11,4.88a.94.94,0,0,0-.13-1.88c-6,.43-10.88-2.26-16.63-4.22a13.45,13.45,0,1,0-16-1.07c-.79.2-1.58.45-2.37.73a4.48,4.48,0,0,0,3.07,8.42c10.68-3.89,17.69,5.15,30.67,5.15a27.65,27.65,0,0,0,5.91-.65,4.48,4.48,0,0,0,.05-8.74Zm-40.16-15.12a11.57,11.57,0,1,1,11.57,11.57,11.58,11.58,0,0,1-11.57-11.57Zm5.44,2.52a.94.94,0,1,0,0,1.88h1.73v1.72a.94.94,0,1,0,1.87,0v-2.27l2.53-2.52,2.52,2.52v2.27a.94.94,0,1,0,1.88,0v-1.72h1.72a.94.94,0,0,0,0-1.88H134l-2.52-2.52,2.52-2.53h2.27a.94.94,0,1,0,0-1.87h-1.72v-1.73a.94.94,0,1,0-1.88,0v2.28l-2.52,2.52-2.53-2.52v-2.28a.94.94,0,1,0-1.87,0V1394H124a.94.94,0,1,0,0,1.87h2.28l2.52,2.53-2.52,2.52Zm51.89-4.5a26.86,26.86,0,0,0-8.25-1.77,13.44,13.44,0,0,0-16.44-21.27c-5.48,2.23-9.35.78-14.25-1.06-5.17-1.94-11-4.13-19-2.15a4.48,4.48,0,0,0-.47,8.55.94.94,0,1,0,.65-1.76,2.6,2.6,0,0,1,.27-5c7.41-1.85,13,.24,17.88,2.08,4.09,1.54,7.74,2.9,12.23,2.06a13.24,13.24,0,0,0-2.36,5.47c-4.31.08-7.76-1.16-11.64-2.63s-7.66-2.92-12.39-2.38a.94.94,0,1,0,.21,1.86c4.28-.48,7.79.86,11.52,2.27,4.07,1.55,7.55,2.8,12.09,2.76a13.46,13.46,0,0,0,7.79,12.75,16.62,16.62,0,0,0-2.62,1.12,4.48,4.48,0,0,0,4.28,7.87c3.05-1.67,12.1-2.58,17.07-.53a4.48,4.48,0,0,0,3.42-8.28ZM147.84,1384a11.57,11.57,0,1,1,11.56,11.57A11.58,11.58,0,0,1,147.84,1384Zm28.76,17.52a2.6,2.6,0,0,1-3.39,1.41c-5.7-2.36-15.26-1.26-18.69.61A2.6,2.6,0,1,1,152,1399a19.37,19.37,0,0,1,5-1.73,13.45,13.45,0,0,0,7.56-.84,28,28,0,0,1,10.58,1.72A2.6,2.6,0,0,1,176.6,1401.51Zm-14.67-13.67v2.28a.94.94,0,0,0,1.88,0v-1.73h1.72a.94.94,0,1,0,0-1.87h-2.27l-2.53-2.53,2.53-2.52h2.27a.94.94,0,0,0,0-1.88h-1.72v-1.72a.94.94,0,0,0-1.88,0v2.27l-2.53,2.52-2.52-2.52v-2.27a.94.94,0,0,0-1.88,0v1.72h-1.72a.94.94,0,1,0,0,1.88h2.27l2.53,2.52-2.53,2.53h-2.27a.94.94,0,1,0,0,1.87H155v1.73a.94.94,0,0,0,1.88,0v-2.28l2.52-2.52Z"/><text class="cls-12" transform="translate(38.64 1413.89)">Extreme<tspan x="-9.08" y="18">cold stress</tspan></text><path class="cls-29" d="M178.82,1264.29l-1.87-2.17c-1.22-.83-3.3-.62-4.34-1.67a5.89,5.89,0,0,1-1-2.81,18.75,18.75,0,0,0-4.39,11.95v27h14.88v-30.84A4.32,4.32,0,0,1,178.82,1264.29Z"/><path class="cls-29" d="M206.37,1257.62a5.84,5.84,0,0,1-1.05,2.83c-1,1-3.11.84-4.33,1.67l-1.88,2.17a4.3,4.3,0,0,1-3.23,1.48v30.84h14.87v-27a18.8,18.8,0,0,0-4.38-12Z"/><path class="cls-30" d="M178.82,1264.29l-1.87-2.17c-1.22-.83-3.3-.62-4.34-1.67a5.89,5.89,0,0,1-1-2.81,19.56,19.56,0,0,0-2.19,3.26,5.63,5.63,0,0,0,1.12,1.7,7.06,7.06,0,0,0,3.81,1.8c.24.06.57.13.8.2l1.48,1.71a7.43,7.43,0,0,0,2.49,1.87v28.43h3v-30.84A4.32,4.32,0,0,1,178.82,1264.29Z"/><path class="cls-30" d="M206.37,1257.62a5.84,5.84,0,0,1-1.05,2.83c-1,1-3.11.84-4.33,1.67l-1.88,2.17a4.3,4.3,0,0,1-3.23,1.48v30.84h3v-28.43a7.43,7.43,0,0,0,2.49-1.87l1.48-1.71c.23-.07.56-.14.8-.2a7,7,0,0,0,3.8-1.8,5.52,5.52,0,0,0,1.13-1.71,20.06,20.06,0,0,0-2.19-3.27Z"/><path class="cls-31" d="M210.19,1248c.28-1.45,1.91-2.8,1.91-4.33s-1.63-2.87-1.91-4.32.71-3.36.15-4.73-2.57-2-3.38-3.24-.6-3.38-1.64-4.44-3.11-.84-4.33-1.67-1.81-2.88-3.17-3.46-3.17.45-4.63.15-2.73-2-4.22-2-2.81,1.67-4.22,2-3.29-.72-4.63-.15-2,2.63-3.17,3.46-3.3.61-4.34,1.67-.82,3.19-1.63,4.44-2.82,1.84-3.38,3.24.43,3.25.14,4.73-1.9,2.8-1.9,4.32,1.63,2.88,1.9,4.33-.7,3.36-.14,4.73,2.57,2,3.38,3.24.6,3.38,1.63,4.44,3.12.84,4.34,1.67l1.87,2.17a4.32,4.32,0,0,0,3.24,1.48v30.84h13.82v-30.84a4.3,4.3,0,0,0,3.23-1.48l1.88-2.17c1.22-.83,3.3-.62,4.33-1.67s.82-3.19,1.64-4.44,2.82-1.84,3.38-3.24S209.91,1249.52,210.19,1248Z"/><path class="cls-29" d="M189,1262a18.09,18.09,0,0,1-17.91-18.22v-.19A18.09,18.09,0,0,1,189,1225.4a17.64,17.64,0,0,1,12.65,5.32,18.25,18.25,0,0,1,5.25,12.9v.19A18.08,18.08,0,0,1,189,1262Z"/><path class="cls-32" d="M175.54,1243.62v.19A13.53,13.53,0,0,0,189,1257.45h0a13.53,13.53,0,0,0,13.43-13.64v-.19A13.53,13.53,0,0,0,189,1230h0A13.53,13.53,0,0,0,175.54,1243.62Z"/><path class="cls-33" d="M189,1230h0a13.47,13.47,0,0,0-13,10.15h9.11a4.83,4.83,0,0,0,4.77-4.89h9.71A13.34,13.34,0,0,0,189,1230Z"/><path class="cls-34" d="M189,1254.4h0a13.52,13.52,0,0,1-13.36-12.21,13.43,13.43,0,0,0-.07,1.43v.19A13.53,13.53,0,0,0,189,1257.45h0a13.53,13.53,0,0,0,13.43-13.64v-.19a13.41,13.41,0,0,0-.08-1.43A13.5,13.5,0,0,1,189,1254.4Z"/><path class="cls-30" d="M201.62,1230.72A17.64,17.64,0,0,0,189,1225.4a18.09,18.09,0,0,0-17.91,18.22v.19c0,.48,0,1,.06,1.43A18.06,18.06,0,0,1,189,1228.45a17.64,17.64,0,0,1,12.65,5.32,18.29,18.29,0,0,1,5.2,11.47c0-.47.05-1,.05-1.43v-.19A18.25,18.25,0,0,0,201.62,1230.72Z"/><path class="cls-35" d="M199.57,1235.24h0A13.34,13.34,0,0,0,189,1230h0a13.47,13.47,0,0,0-13,10.15h1.21A13.39,13.39,0,0,1,189,1233h0a13.21,13.21,0,0,1,7.33,2.21Z"/><path d="M208,1243.81v-.19a19.42,19.42,0,0,0-5.58-13.71,18.74,18.74,0,0,0-13.44-5.66,19.23,19.23,0,0,0-19,19.37v.19a19,19,0,1,0,38.05,0Zm-35.81,0v-.19A17,17,0,0,1,189,1226.54a16.53,16.53,0,0,1,11.86,5,17.12,17.12,0,0,1,4.93,12.09v.19a16.79,16.79,0,1,1-33.58,0Z"/><path d="M203.52,1243.81v-.19a14.82,14.82,0,0,0-4.27-10.46,14.33,14.33,0,0,0-10.28-4.33,14.69,14.69,0,0,0-14.55,14.79v.19a14.55,14.55,0,1,0,29.1,0ZM189,1231.12a12.08,12.08,0,0,1,8,3h-8.19v1.14a3.7,3.7,0,0,1-3.66,3.74h-7.55A12.33,12.33,0,0,1,189,1231.12Zm-12.31,12.69v-.19a13,13,0,0,1,.22-2.35h8.21a5.94,5.94,0,0,0,5.79-4.88H199a12.55,12.55,0,0,1,2.27,7.23v.19a12.31,12.31,0,1,1-24.62,0Z"/><rect x="175.17" y="1274.32" width="2.24" height="22.29"/><rect x="201.43" y="1274.32" width="2.24" height="22.29"/><path d="M183.18,1292v-27.4h-1.12a3.18,3.18,0,0,1-2.4-1.1l-1.67,1.52a5.4,5.4,0,0,0,2.95,1.75V1292Z"/><path d="M211.29,1239.17a5.38,5.38,0,0,1,.14-1.76,4.42,4.42,0,0,0-2.25-5.52,5.09,5.09,0,0,1-1.29-1.11,5.33,5.33,0,0,1-.52-1.66,5.79,5.79,0,0,0-1.26-2.95,5.49,5.49,0,0,0-2.88-1.28,5.21,5.21,0,0,1-1.62-.53,5.27,5.27,0,0,1-1.09-1.32,5.65,5.65,0,0,0-2.27-2.25,5.36,5.36,0,0,0-3.12,0,5.13,5.13,0,0,1-1.72.14,5,5,0,0,1-1.47-.78,4.3,4.3,0,0,0-5.94,0,5,5,0,0,1-1.47.78,5.13,5.13,0,0,1-1.72-.14,5.36,5.36,0,0,0-3.12,0,5.68,5.68,0,0,0-2.28,2.25,5.49,5.49,0,0,1-1.08,1.32,5.28,5.28,0,0,1-1.63.53,5.56,5.56,0,0,0-2.88,1.28,5.69,5.69,0,0,0-1.25,2.95,3.13,3.13,0,0,1-1.81,2.77,4.42,4.42,0,0,0-2.25,5.52,5.38,5.38,0,0,1,.14,1.76,5.6,5.6,0,0,1-.76,1.51,4.52,4.52,0,0,0,0,6.07,5.46,5.46,0,0,1,.76,1.51,5.38,5.38,0,0,1-.14,1.76,4.42,4.42,0,0,0,2.25,5.52,5.27,5.27,0,0,1,1.29,1.11,2.76,2.76,0,0,1,.29.71,20,20,0,0,0-4.28,12.23v27h2.24v-27a17.54,17.54,0,0,1,2.81-9.41,3.61,3.61,0,0,0,.71,1.08,5.56,5.56,0,0,0,2.88,1.28,5.28,5.28,0,0,1,1.63.53l1.24-1.9a6.57,6.57,0,0,0-2.39-.87,4,4,0,0,1-1.77-.66,4.11,4.11,0,0,1-.65-1.82,7.1,7.1,0,0,0-.85-2.44,6.87,6.87,0,0,0-1.88-1.73,3.91,3.91,0,0,1-1.4-1.32,4.09,4.09,0,0,1,.08-1.91,7.32,7.32,0,0,0,.13-2.61,6.64,6.64,0,0,0-1.07-2.3,2.39,2.39,0,0,1,0-3.59,6.64,6.64,0,0,0,1.07-2.3,7.3,7.3,0,0,0-.13-2.61,4.09,4.09,0,0,1-.08-1.91,3.91,3.91,0,0,1,1.4-1.32,6.87,6.87,0,0,0,1.88-1.73,7.17,7.17,0,0,0,.85-2.44,4.06,4.06,0,0,1,.65-1.82,4,4,0,0,1,1.77-.66,6.57,6.57,0,0,0,2.39-.87,6.84,6.84,0,0,0,1.68-1.92,4.09,4.09,0,0,1,1.29-1.43,3.8,3.8,0,0,1,1.87.08,5.09,5.09,0,0,0,4.8-1,3.89,3.89,0,0,1,1.76-.83,3.81,3.81,0,0,1,1.75.83,6.67,6.67,0,0,0,2.26,1.09,6.78,6.78,0,0,0,2.55-.13,3.76,3.76,0,0,1,1.86-.08,3.91,3.91,0,0,1,1.29,1.43,7,7,0,0,0,1.69,1.92,6.57,6.57,0,0,0,2.39.87,4,4,0,0,1,1.77.66,4.06,4.06,0,0,1,.65,1.82,7,7,0,0,0,.85,2.44,6.83,6.83,0,0,0,1.87,1.73,4,4,0,0,1,1.41,1.32,4.23,4.23,0,0,1-.08,1.91,6.87,6.87,0,0,0-.13,2.61,6.64,6.64,0,0,0,1.07,2.3,4.18,4.18,0,0,1,.81,1.79,4,4,0,0,1-.81,1.8,6.64,6.64,0,0,0-1.07,2.3,6.88,6.88,0,0,0,.13,2.61,4.23,4.23,0,0,1,.08,1.91,4,4,0,0,1-1.41,1.32,5.3,5.3,0,0,0-2.72,4.17,4.11,4.11,0,0,1-.65,1.82,4,4,0,0,1-1.77.66,6.57,6.57,0,0,0-2.39.87l1.24,1.9a5.21,5.21,0,0,1,1.62-.53,5.49,5.49,0,0,0,2.88-1.28,3.62,3.62,0,0,0,.72-1.09,17.55,17.55,0,0,1,2.81,9.42v27h2.23v-27a20,20,0,0,0-4.27-12.24,2.54,2.54,0,0,1,.29-.7,4.9,4.9,0,0,1,1.29-1.11,4.42,4.42,0,0,0,2.25-5.52,5.38,5.38,0,0,1-.14-1.76,5.2,5.2,0,0,1,.76-1.51,4.52,4.52,0,0,0,0-6.07A5.07,5.07,0,0,1,211.29,1239.17Z"/><path d="M195.88,1264.63h-1.12V1292H197V1266.8a5.4,5.4,0,0,0,2.95-1.75l-1.67-1.52A3.19,3.19,0,0,1,195.88,1264.63Z"/><rect x="180.99" y="1294.32" width="2.24" height="2.29"/><rect x="194.71" y="1294.32" width="2.24" height="2.29"/><rect x="187.7" y="1293.1" width="2.24" height="2.29"/><rect x="187.7" y="1265.62" width="2.24" height="2.29"/><rect x="187.7" y="1288.52" width="2.24" height="2.29"/><rect x="187.7" y="1270.2" width="2.24" height="2.29"/><rect x="187.7" y="1274.78" width="2.24" height="2.29"/><rect x="187.7" y="1283.94" width="2.24" height="2.29"/><rect x="187.7" y="1279.36" width="2.24" height="2.29"/><path class="cls-31" d="M172.78,1273.71h-2.24v-3.82a14.77,14.77,0,0,1,1-5.3l2.09.84a12.38,12.38,0,0,0-.83,4.46v3.82Z"/><rect class="cls-31" x="170.54" y="1276" width="2.24" height="2.29"/><path class="cls-31" d="M208,1285h-2.23v-2.29H208Zm0-4.58h-2.23v-2.29H208Zm0-4.58h-2.23v-6.72H208Z"/><path d="M181.44,1248.65l3.71-1.48a1.92,1.92,0,0,0,0-3.51l-3.7-1.45a.84.84,0,0,0-1.1.6,1,1,0,0,0,.53,1.24l3.47,1.37-3.47,1.38a1,1,0,0,0-.53,1.25.87.87,0,0,0,.81.65A1,1,0,0,0,181.44,1248.65Z"/><path d="M197.15,1242.81a.84.84,0,0,0-1.1-.6l-3.7,1.45a1.92,1.92,0,0,0,0,3.51l3.71,1.48a.93.93,0,0,0,.29,0,.88.88,0,0,0,.81-.65,1,1,0,0,0-.53-1.25l-3.47-1.38,3.47-1.37a1,1,0,0,0,.53-1.24Z"/><g id="flat"><path class="cls-36" d="M120.81,1236.79s12.28-8.18,29.66-4.09,29.67-2,29.67-2-1.55,18.92-28.64,9.21C145.46,1237.69,140.25,1234.74,120.81,1236.79Z"/><path class="cls-36" d="M127,1241.9s11.25-4.09,24.55,3.07c9,4.85,22.5,1,22.5,1s-13.3,13.3-27.62,3.07C142.38,1246.2,136.15,1241.9,127,1241.9Z"/><path class="cls-37" d="M164.54,1230.4a27.37,27.37,0,0,1-6.11-.8,66.91,66.91,0,0,0-24.14-1l-.37-2a67.63,67.63,0,0,1,25,1c6.34,1.46,9.28.48,10.64-.6a3.56,3.56,0,0,0,1.41-2.49,1.49,1.49,0,0,1,0-.21,3.67,3.67,0,0,0-.62-2.69,4.38,4.38,0,0,0-3.49-1.2c-4.89,0-5.11,2.77-5.11,3.09l-2,0s.08-5.11,7.16-5.11c2.3,0,4,.66,5.08,2a6.18,6.18,0,0,1-1.11,8.27A9.88,9.88,0,0,1,164.54,1230.4Z"/><path class="cls-37" d="M168.88,1267.47c-7.07,0-7.15-5.06-7.15-5.11h2c0,.31.22,3.07,5.11,3.07a4.09,4.09,0,0,0,3.26-1.21,5.31,5.31,0,0,0,.85-3.74.91.91,0,0,1,0-.17,2.56,2.56,0,0,0-1.08-1.73c-1.32-1-4.28-1.88-11-.33-13.72,3.16-25.06-9-25.53-9.52l1.51-1.38c.11.12,11,11.8,23.56,8.9,6.06-1.4,10.36-1.14,12.75.76a4.49,4.49,0,0,1,1.8,3.21,7.25,7.25,0,0,1-1.32,5.33A6,6,0,0,1,168.88,1267.47Z"/><path class="cls-37" d="M151.5,1262.36c-7.46,0-15.67-7.11-16-7.41l1.35-1.54c.08.07,8,6.9,14.67,6.9Z"/><path class="cls-37" d="M127.47,1227.44l-1-1.76c.22-.13,5.5-3.21,17.92-3.21v2C132.57,1224.52,127.52,1227.41,127.47,1227.44Z"/><rect class="cls-37" x="146.38" y="1222.47" width="2.05" height="2.05"/><rect class="cls-36" x="129" y="1247.02" width="2.05" height="2.05"/><rect class="cls-36" x="129" y="1251.11" width="2.05" height="2.05"/><rect class="cls-36" x="126.95" y="1249.06" width="2.05" height="2.05"/><rect class="cls-36" x="131.04" y="1249.06" width="2.05" height="2.05"/><rect class="cls-36" x="154.57" y="1263.38" width="2.05" height="2.05"/><rect class="cls-36" x="154.57" y="1267.47" width="2.05" height="2.05"/><rect class="cls-36" x="152.52" y="1265.43" width="2.05" height="2.05"/><rect class="cls-36" x="156.61" y="1265.43" width="2.05" height="2.05"/><rect class="cls-36" x="153.54" y="1216.33" width="2.05" height="2.05"/><rect class="cls-36" x="153.54" y="1220.42" width="2.05" height="2.05"/><rect class="cls-36" x="151.5" y="1218.38" width="2.05" height="2.05"/><rect class="cls-36" x="155.59" y="1218.38" width="2.05" height="2.05"/><rect class="cls-36" x="125.93" y="1216.33" width="2.05" height="2.05"/><rect class="cls-36" x="125.93" y="1220.42" width="2.05" height="2.05"/><rect class="cls-36" x="123.88" y="1218.38" width="2.05" height="2.05"/><rect class="cls-36" x="127.97" y="1218.38" width="2.05" height="2.05"/><path class="cls-37" d="M165.21,1239.45a27.16,27.16,0,0,1-5.75-.64l.43-2c13.42,2.88,18.28-5.54,18.33-5.63l1.79,1C180,1232.26,175.82,1239.45,165.21,1239.45Z"/></g><text class="cls-12" transform="translate(23.71 1271.56)"><tspan class="cls-38">V</tspan><tspan x="11.97" y="0">ery st</tspan><tspan class="cls-13" x="60.65" y="0">r</tspan><tspan x="67.54" y="0">ong</tspan><tspan x="5.77" y="18">cold stress</tspan></text><path class="cls-29" d="M178.82,1121.63l-1.88-2.16c-1.22-.84-3.3-.62-4.33-1.68a5.82,5.82,0,0,1-1.05-2.81,18.79,18.79,0,0,0-4.38,12v27h14.87v-30.84A4.27,4.27,0,0,1,178.82,1121.63Z"/><path class="cls-29" d="M206.36,1115a5.75,5.75,0,0,1-1,2.82c-1,1.06-3.12.84-4.34,1.68l-1.87,2.16a4.29,4.29,0,0,1-3.24,1.49V1154h14.88v-27a18.8,18.8,0,0,0-4.39-12Z"/><path class="cls-30" d="M178.82,1121.63l-1.88-2.16c-1.22-.84-3.3-.62-4.33-1.68a5.82,5.82,0,0,1-1.05-2.81,20.06,20.06,0,0,0-2.19,3.27,5.48,5.48,0,0,0,1.13,1.7,7.07,7.07,0,0,0,3.8,1.8c.24,0,.57.13.8.2l1.48,1.71a7.4,7.4,0,0,0,2.49,1.86V1154h3v-30.84A4.27,4.27,0,0,1,178.82,1121.63Z"/><path class="cls-30" d="M206.36,1115a5.75,5.75,0,0,1-1,2.82c-1,1.06-3.12.84-4.34,1.68l-1.87,2.16a4.29,4.29,0,0,1-3.24,1.49V1154h3v-28.44a7.4,7.4,0,0,0,2.49-1.86l1.48-1.71c.23-.07.56-.15.8-.2a7.13,7.13,0,0,0,3.81-1.8,5.6,5.6,0,0,0,1.12-1.71,19,19,0,0,0-2.19-3.27Z"/><path class="cls-31" d="M210.19,1105.38c.28-1.44,1.9-2.79,1.9-4.32s-1.63-2.87-1.9-4.32.7-3.36.14-4.73-2.57-2-3.38-3.25-.6-3.37-1.63-4.43-3.12-.84-4.34-1.67-1.8-2.88-3.17-3.46-3.17.44-4.63.15-2.72-1.95-4.22-1.95-2.81,1.66-4.22,1.95-3.29-.72-4.63-.15-2,2.63-3.17,3.46-3.3.61-4.33,1.67-.82,3.19-1.64,4.43-2.82,1.85-3.38,3.25.43,3.24.15,4.73-1.91,2.79-1.91,4.32,1.63,2.88,1.91,4.32-.71,3.37-.15,4.74,2.57,2,3.38,3.24.6,3.38,1.64,4.43,3.11.84,4.33,1.68l1.88,2.16a4.27,4.27,0,0,0,3.23,1.49V1154h13.82v-30.84a4.29,4.29,0,0,0,3.24-1.49l1.87-2.16c1.22-.84,3.3-.62,4.34-1.68s.82-3.18,1.63-4.43,2.82-1.85,3.38-3.24S209.9,1106.87,210.19,1105.38Z"/><path class="cls-29" d="M189,1119.38a18.08,18.08,0,0,1-17.9-18.22v-.2a18.09,18.09,0,0,1,17.9-18.22,17.65,17.65,0,0,1,12.65,5.33,18.25,18.25,0,0,1,5.26,12.89v.2A18.09,18.09,0,0,1,189,1119.38Z"/><path class="cls-32" d="M175.53,1101v.2A13.54,13.54,0,0,0,189,1114.8h0a13.54,13.54,0,0,0,13.43-13.64v-.2A13.54,13.54,0,0,0,189,1087.32h0A13.54,13.54,0,0,0,175.53,1101Z"/><path class="cls-33" d="M189,1087.32h0a13.46,13.46,0,0,0-13,10.16h9.1a4.84,4.84,0,0,0,4.78-4.89h9.7A13.34,13.34,0,0,0,189,1087.32Z"/><path class="cls-34" d="M189,1111.75h0a13.52,13.52,0,0,1-13.36-12.21c0,.47-.07.94-.07,1.42v.2A13.54,13.54,0,0,0,189,1114.8h0a13.54,13.54,0,0,0,13.43-13.64v-.2a13.37,13.37,0,0,0-.07-1.42A13.52,13.52,0,0,1,189,1111.75Z"/><path class="cls-30" d="M201.61,1088.07a17.65,17.65,0,0,0-12.65-5.33,18.09,18.09,0,0,0-17.9,18.22v.2c0,.48,0,1,.05,1.43A18.06,18.06,0,0,1,189,1085.8a17.64,17.64,0,0,1,12.65,5.32,18.22,18.22,0,0,1,5.2,11.47c0-.47.06-.95.06-1.43v-.2A18.25,18.25,0,0,0,201.61,1088.07Z"/><path class="cls-35" d="M199.56,1092.59h0a13.34,13.34,0,0,0-10.6-5.27h0a13.46,13.46,0,0,0-13,10.16h1.2a13.39,13.39,0,0,1,11.78-7.1h0a13.19,13.19,0,0,1,7.33,2.21Z"/><path d="M208,1101.16v-.2a19.41,19.41,0,0,0-5.59-13.7A18.72,18.72,0,0,0,189,1081.6a19.22,19.22,0,0,0-19,19.36v.2a19,19,0,1,0,38.05,0Zm-35.82,0v-.2A17,17,0,0,1,189,1083.89a16.53,16.53,0,0,1,11.86,5,17.11,17.11,0,0,1,4.93,12.08v.2a16.79,16.79,0,1,1-33.58,0Z"/><path d="M203.51,1101.16v-.2a14.78,14.78,0,0,0-4.26-10.45,14.35,14.35,0,0,0-10.29-4.33A14.68,14.68,0,0,0,174.41,1101v.2a14.55,14.55,0,1,0,29.1,0ZM189,1088.47a12.06,12.06,0,0,1,8,3h-8.19v1.14a3.71,3.71,0,0,1-3.66,3.74h-7.55A12.34,12.34,0,0,1,189,1088.47Zm-12.31,12.69v-.2a12.89,12.89,0,0,1,.22-2.34h8.21a5.93,5.93,0,0,0,5.79-4.88H199a12.52,12.52,0,0,1,2.27,7.22v.2a12.31,12.31,0,1,1-24.62,0Z"/><rect x="175.16" y="1131.67" width="2.24" height="22.29"/><rect x="201.42" y="1131.67" width="2.24" height="22.29"/><path d="M183.17,1149.38V1122h-1.12a3.17,3.17,0,0,1-2.4-1.11l-1.67,1.52a5.47,5.47,0,0,0,3,1.76v25.23Z"/><path d="M211.28,1096.52a5.38,5.38,0,0,1,.14-1.76,4.42,4.42,0,0,0-2.25-5.52,3.13,3.13,0,0,1-1.81-2.77,5.69,5.69,0,0,0-1.25-3,5.48,5.48,0,0,0-2.88-1.28,4.94,4.94,0,0,1-1.63-.54,5.22,5.22,0,0,1-1.08-1.31,5.62,5.62,0,0,0-2.28-2.25,5.36,5.36,0,0,0-3.12-.06,5.17,5.17,0,0,1-1.72.15,5.3,5.3,0,0,1-1.47-.78,4.3,4.3,0,0,0-5.94,0,5.3,5.3,0,0,1-1.47.78,5.17,5.17,0,0,1-1.72-.15,5.36,5.36,0,0,0-3.12.06,5.59,5.59,0,0,0-2.27,2.25,5,5,0,0,1-1.09,1.31,5,5,0,0,1-1.62.54,5.41,5.41,0,0,0-2.88,1.28,5.71,5.71,0,0,0-1.26,3,5.51,5.51,0,0,1-.52,1.66,5.3,5.3,0,0,1-1.29,1.11,4.42,4.42,0,0,0-2.25,5.52,5.38,5.38,0,0,1,.14,1.76,5.19,5.19,0,0,1-.76,1.51,4.52,4.52,0,0,0,0,6.07,5,5,0,0,1,.76,1.51,5.3,5.3,0,0,1-.14,1.75,5.72,5.72,0,0,0,.05,3.2,5.61,5.61,0,0,0,2.2,2.32A5.11,5.11,0,0,1,170,1114a2.76,2.76,0,0,1,.3.71,20,20,0,0,0-4.28,12.23v27h2.23v-27a17.54,17.54,0,0,1,2.81-9.41,3.6,3.6,0,0,0,.72,1.07,5.42,5.42,0,0,0,2.88,1.29,5,5,0,0,1,1.62.53l1.24-1.9a6.57,6.57,0,0,0-2.39-.87,3.88,3.88,0,0,1-1.77-.67,4,4,0,0,1-.65-1.81,7,7,0,0,0-.85-2.45A6.8,6.8,0,0,0,170,1111a4,4,0,0,1-1.41-1.32,4.23,4.23,0,0,1,.08-1.91,6.88,6.88,0,0,0,.13-2.61,6.64,6.64,0,0,0-1.07-2.3,4.16,4.16,0,0,1-.81-1.8,4,4,0,0,1,.81-1.79,6.68,6.68,0,0,0,1.07-2.31,6.83,6.83,0,0,0-.13-2.6,4.27,4.27,0,0,1-.08-1.92,4.13,4.13,0,0,1,1.41-1.32,6.65,6.65,0,0,0,1.87-1.72,7,7,0,0,0,.85-2.44,4,4,0,0,1,.65-1.82,3.88,3.88,0,0,1,1.77-.66,6.76,6.76,0,0,0,2.39-.87,7,7,0,0,0,1.69-1.92,2.21,2.21,0,0,1,3.16-1.35,6.76,6.76,0,0,0,2.55.13,6.55,6.55,0,0,0,2.25-1.1,3.89,3.89,0,0,1,1.75-.82,4,4,0,0,1,1.76.82,6.47,6.47,0,0,0,2.25,1.1,6.77,6.77,0,0,0,2.55-.13,4,4,0,0,1,1.87-.09,4.14,4.14,0,0,1,1.29,1.44,6.84,6.84,0,0,0,1.68,1.92,6.76,6.76,0,0,0,2.39.87,3.84,3.84,0,0,1,1.77.66,4,4,0,0,1,.65,1.82,7.17,7.17,0,0,0,.85,2.44,6.68,6.68,0,0,0,1.88,1.72,4.08,4.08,0,0,1,1.4,1.32,4.14,4.14,0,0,1-.08,1.92,7.26,7.26,0,0,0-.13,2.6,6.87,6.87,0,0,0,1.07,2.31,2.39,2.39,0,0,1,0,3.59,6.82,6.82,0,0,0-1.07,2.3,7.32,7.32,0,0,0,.13,2.61,4.09,4.09,0,0,1,.08,1.91,3.91,3.91,0,0,1-1.4,1.32,7,7,0,0,0-1.88,1.72,7.22,7.22,0,0,0-.85,2.45,4,4,0,0,1-.65,1.81,3.83,3.83,0,0,1-1.77.67,6.57,6.57,0,0,0-2.39.87l1.24,1.9a5,5,0,0,1,1.63-.53,5.49,5.49,0,0,0,2.88-1.29,3.61,3.61,0,0,0,.71-1.08,17.55,17.55,0,0,1,2.81,9.42v27h2.24v-27a20.08,20.08,0,0,0-4.28-12.25,2.6,2.6,0,0,1,.29-.69,5.29,5.29,0,0,1,1.29-1.12,5.55,5.55,0,0,0,2.2-2.32,5.72,5.72,0,0,0,0-3.2,5.34,5.34,0,0,1-.14-1.76,5.56,5.56,0,0,1,.76-1.5,4.52,4.52,0,0,0,0-6.07A5.75,5.75,0,0,1,211.28,1096.52Z"/><path d="M195.87,1122h-1.12v27.4H197v-25.23a5.47,5.47,0,0,0,2.95-1.76l-1.67-1.52A3.15,3.15,0,0,1,195.87,1122Z"/><rect x="180.98" y="1151.67" width="2.24" height="2.29"/><rect x="194.71" y="1151.67" width="2.24" height="2.29"/><rect x="187.69" y="1150.45" width="2.24" height="2.29"/><rect x="187.69" y="1122.97" width="2.24" height="2.29"/><rect x="187.69" y="1145.87" width="2.24" height="2.29"/><rect x="187.69" y="1127.55" width="2.24" height="2.29"/><rect x="187.69" y="1132.13" width="2.24" height="2.29"/><rect x="187.69" y="1141.29" width="2.24" height="2.29"/><rect x="187.69" y="1136.71" width="2.24" height="2.29"/><path class="cls-31" d="M172.77,1131.06h-2.24v-3.82a14.57,14.57,0,0,1,1-5.3l2.08.84a12.38,12.38,0,0,0-.83,4.46v3.82Z"/><rect class="cls-31" x="170.53" y="1133.35" width="2.24" height="2.29"/><path class="cls-31" d="M208,1142.36h-2.24v-2.29H208Zm0-4.58h-2.24v-2.29H208Zm0-4.58h-2.24v-6.72H208Z"/><path d="M181.43,1106l3.71-1.47a1.93,1.93,0,0,0,0-3.51l-3.71-1.45a.84.84,0,0,0-1.1.6,1,1,0,0,0,.53,1.24l3.48,1.37-3.48,1.38a1,1,0,0,0-.53,1.25.88.88,0,0,0,.82.65A.71.71,0,0,0,181.43,1106Z"/><path d="M197.14,1100.16a.83.83,0,0,0-1.09-.6l-3.71,1.45a1.92,1.92,0,0,0,0,3.51L196,1106a.75.75,0,0,0,.29.06.87.87,0,0,0,.81-.65,1,1,0,0,0-.53-1.25l-3.47-1.38,3.47-1.37a1,1,0,0,0,.53-1.24Z"/><g id="flat-2" data-name="flat"><path class="cls-36" d="M120.8,1096.14s12.28-8.18,29.67-4.09,29.66-2,29.66-2-1.55,18.92-28.64,9.21C145.45,1097,140.24,1094.09,120.8,1096.14Z"/><path class="cls-36" d="M126.94,1101.25s11.25-4.09,24.55,3.07c9,4.85,22.5,1,22.5,1s-13.3,13.3-27.61,3.07C142.37,1105.55,136.15,1101.25,126.94,1101.25Z"/><path class="cls-37" d="M164.53,1089.74a27.36,27.36,0,0,1-6.11-.79,66.91,66.91,0,0,0-24.14-1l-.37-2a67.63,67.63,0,0,1,25,1c6.34,1.46,9.29.48,10.65-.6a3.58,3.58,0,0,0,1.4-2.5,1.5,1.5,0,0,1,0-.2,3.63,3.63,0,0,0-.62-2.69,4.34,4.34,0,0,0-3.49-1.2c-4.89,0-5.1,2.76-5.11,3.08h-2.05s.08-5.11,7.16-5.11c2.31,0,4,.66,5.08,2a6.18,6.18,0,0,1-1.11,8.27A9.81,9.81,0,0,1,164.53,1089.74Z"/><path class="cls-37" d="M168.88,1126.82c-7.08,0-7.16-5.06-7.16-5.11h2c0,.3.23,3.07,5.12,3.07a4.07,4.07,0,0,0,3.25-1.21,5.27,5.27,0,0,0,.85-3.74,1,1,0,0,1,0-.17,2.56,2.56,0,0,0-1.08-1.74c-1.31-1-4.28-1.87-11-.33-13.72,3.16-25-9-25.53-9.51l1.51-1.38c.11.12,11,11.8,23.56,8.9,6.07-1.4,10.36-1.15,12.76.76a4.51,4.51,0,0,1,1.79,3.21,7.17,7.17,0,0,1-1.32,5.32A5.93,5.93,0,0,1,168.88,1126.82Z"/><path class="cls-37" d="M151.49,1121.71c-7.46,0-15.67-7.11-16-7.41l1.35-1.54c.08.06,8,6.9,14.67,6.9Z"/><path class="cls-37" d="M127.46,1086.79l-1-1.76c.22-.13,5.5-3.21,17.92-3.21v2C132.57,1083.86,127.51,1086.76,127.46,1086.79Z"/><rect class="cls-37" x="146.38" y="1081.82" width="2.05" height="2.05"/><rect class="cls-36" x="128.99" y="1106.37" width="2.05" height="2.05"/><rect class="cls-36" x="128.99" y="1110.46" width="2.05" height="2.05"/><rect class="cls-36" x="126.94" y="1108.41" width="2.05" height="2.05"/><rect class="cls-36" x="131.03" y="1108.41" width="2.05" height="2.05"/><rect class="cls-36" x="154.56" y="1122.73" width="2.05" height="2.05"/><rect class="cls-36" x="154.56" y="1126.82" width="2.05" height="2.05"/><rect class="cls-36" x="152.51" y="1124.78" width="2.05" height="2.05"/><rect class="cls-36" x="156.6" y="1124.78" width="2.05" height="2.05"/><rect class="cls-36" x="153.53" y="1075.68" width="2.05" height="2.05"/><rect class="cls-36" x="153.53" y="1079.77" width="2.05" height="2.05"/><rect class="cls-36" x="151.49" y="1077.73" width="2.05" height="2.05"/><rect class="cls-36" x="155.58" y="1077.73" width="2.05" height="2.05"/><rect class="cls-36" x="125.92" y="1075.68" width="2.05" height="2.05"/><rect class="cls-36" x="125.92" y="1079.77" width="2.05" height="2.05"/><rect class="cls-36" x="123.87" y="1077.73" width="2.05" height="2.05"/><rect class="cls-36" x="127.96" y="1077.73" width="2.05" height="2.05"/><path class="cls-37" d="M165.2,1098.8a27,27,0,0,1-5.74-.64l.43-2c13.41,2.87,18.27-5.55,18.32-5.63l1.79,1C180,1091.6,175.81,1098.8,165.2,1098.8Z"/></g><text class="cls-12" transform="translate(49.55 1120.91)">St<tspan class="cls-13" x="16.96" y="0">r</tspan><tspan x="23.85" y="0">ong</tspan><tspan x="-16.07" y="18">cold stress</tspan></text><path class="cls-39" d="M186.34,960.14a13.38,13.38,0,1,0,23.36-8.89,7.88,7.88,0,0,0-5.52-13.52h0c0-.23,0-.45,0-.68a9.43,9.43,0,0,0-9.43-9.43H176.9a9.43,9.43,0,0,0-9.43,9.43c0,.23,0,.45,0,.68h0A7.88,7.88,0,0,0,162,951.25a13.37,13.37,0,1,0,23.36,8.89Z"/><path class="cls-40" d="M168.53,982.08c0,1.76-1.83,1.76-1.83,3.53s1.83,1.77,1.83,3.53-1.83,1.77-1.83,3.54v0c0,1.76,1.83,1.76,1.83,3.53s-1.83,1.76-1.83,3.53,1.83,1.77,1.83,3.53l0,3.35h34.56v-3.35c0-1.76,1.83-1.76,1.83-3.53s-1.83-1.76-1.83-3.53,1.83-1.77,1.83-3.53v0c0-1.77-1.83-1.77-1.83-3.54s1.83-1.76,1.83-3.53-1.83-1.77-1.83-3.53c0-8.17-6.62-13.15-14.8-13.15h-5c-8.17,0-14.79,5-14.79,13.15Z"/><path class="cls-41" d="M205,992.68v0Z"/><path class="cls-41" d="M203.12,989.14c0-1.76,1.83-1.76,1.83-3.53s-1.83-1.77-1.83-3.53c0-8.17-6.62-13.15-14.8-13.15h-5q-.73,0-1.47.06c7.48.56,13.33,5.41,13.33,13.09v7.06c0,1.76,1.81,1.77,1.83,3.52v0c0,1.74-1.83,1.75-1.83,3.51s1.83,1.76,1.83,3.53-1.83,1.77-1.83,3.53l0,3.35h8v-3.35c0-1.76,1.83-1.76,1.83-3.53s-1.83-1.77-1.83-3.53,1.82-1.77,1.83-3.51-1.83-1.76-1.83-3.52Z"/><path class="cls-42" d="M185.83,973.51h0a4.51,4.51,0,0,1-4.51-4.52v-7.9h9V969A4.51,4.51,0,0,1,185.83,973.51Z"/><path class="cls-43" d="M197.62,972.51a27.48,27.48,0,0,1-23.6,0c-6.53-3.06-3.27-12.22,3.29-9.22a19.89,19.89,0,0,0,17,0C200.86,960.3,204.19,969.43,197.62,972.51Z"/><path class="cls-42" d="M185.82,940.09a9.44,9.44,0,0,1-13.89,5v7.51a13.89,13.89,0,0,0,27.78,0v-7.51a9.44,9.44,0,0,1-13.89-5Z"/><path class="cls-44" d="M194.75,946.47a9.49,9.49,0,0,1-3-.48v6.58a13.89,13.89,0,0,1-9.92,13.31,14.06,14.06,0,0,0,4,.57,13.88,13.88,0,0,0,13.89-13.88v-7.51A9.41,9.41,0,0,1,194.75,946.47Z"/><path class="cls-42" d="M218.93,961.58V938.83a4.58,4.58,0,0,0-9.16,0v22.75a8.09,8.09,0,1,0,9.16,0Z"/><path class="cls-44" d="M218.93,961.58V938.83a4.56,4.56,0,0,0-4.58-4.54,4.63,4.63,0,0,0-2.34.64,4.52,4.52,0,0,1,2.23,3.9v27.11l3.29,2.25a8.18,8.18,0,0,1-5.52,7.67,7.89,7.89,0,0,0,2.34.35,8,8,0,0,0,4.58-14.63Z"/><circle class="cls-45" cx="214.35" cy="968.25" r="3.18"/><path d="M181.42,958a1.2,1.2,0,0,0,1.69,1.69,3.84,3.84,0,0,1,5.43,0,1.2,1.2,0,0,0,1.69-1.69,6.25,6.25,0,0,0-8.81,0Z"/><path d="M210.49,988.19a3.45,3.45,0,0,0,0-5.25c-.45-.43-.55-.57-.55-.91a1.2,1.2,0,0,0-2.39,0,3.46,3.46,0,0,0,1.29,2.63c.69.66.69,1.15,0,1.81a3.44,3.44,0,0,0,0,5.25c.68.66.68,1.12,0,1.78a3.42,3.42,0,0,0-1.29,2.62,1.2,1.2,0,0,0,2.39,0c0-.34.1-.47.55-.9a3.36,3.36,0,0,0,0-5.21C209.8,989.34,209.8,988.85,210.49,988.19Z"/><path d="M162.78,992.09a3.44,3.44,0,0,0,1.28-2.63,1.19,1.19,0,0,0-2.38,0c0,.35-.11.48-.56.91a3.37,3.37,0,0,0,0,5.21c.69.67.69,1.15,0,1.82a3.45,3.45,0,0,0,0,5.25c.45.43.56.56.56.91a1.19,1.19,0,0,0,2.38,0,3.44,3.44,0,0,0-1.28-2.63c-.69-.66-.69-1.15,0-1.82a3.45,3.45,0,0,0,0-5.25C162.09,993.21,162.09,992.75,162.78,992.09Z"/><path d="M220.12,961V946.07a1.19,1.19,0,0,0-2.38,0v15.51a1.19,1.19,0,0,0,.52,1,6.81,6.81,0,0,1,3,5.62,6.9,6.9,0,0,1-13.79,0,6.81,6.81,0,0,1,3-5.62,1.22,1.22,0,0,0,.52-1V938.83a3.39,3.39,0,0,1,6.77,0v.89a1.19,1.19,0,0,0,2.38,0v-.89a5.77,5.77,0,0,0-11.43-1.1,8.88,8.88,0,0,0-3.33-1.12,10.63,10.63,0,0,0-10.61-10.18H176.9a10.64,10.64,0,0,0-10.62,10.18,9.08,9.08,0,0,0-5.91,14.68,14.55,14.55,0,0,0,9.12,23.2,13.88,13.88,0,0,0-2.15,7.59c0,.34-.11.47-.56.9a3.45,3.45,0,0,0,0,5.25c.69.67.69,1.16,0,1.82a3.37,3.37,0,0,0,0,5.21c.69.66.69,1.15,0,1.82a3.45,3.45,0,0,0,0,5.25c.45.43.56.56.56.91l0,3.35a1.18,1.18,0,0,0,1.19,1.18h34.56a1.2,1.2,0,0,0,1.19-1.18v-3.36c0-.34.11-.47.55-.9a3.44,3.44,0,0,0,0-5.25c-.69-.67-.69-1.16,0-1.82a3.36,3.36,0,0,0,0-5.21c-.69-.66-.69-1.15,0-1.82a3.44,3.44,0,0,0,0-5.25c-.44-.43-.55-.56-.55-.9a14,14,0,0,0-2.15-7.59,14.34,14.34,0,0,0,4.31-1.45,9.29,9.29,0,0,0,17.16-4.85,9.18,9.18,0,0,0-3.51-7.21ZM203.21,984.7c.69.67.69,1.15,0,1.82a3.45,3.45,0,0,0,0,5.25c.68.66.68,1.11,0,1.77a3.45,3.45,0,0,0,0,5.25c.69.67.69,1.16,0,1.82a3.41,3.41,0,0,0-1.28,2.62v2.16h-4.7v-20.1a1.2,1.2,0,0,0-2.39,0v20.1h-18v-20.1a1.19,1.19,0,0,0-2.38,0v20.1h-4.7v-2.16a3.41,3.41,0,0,0-1.28-2.62c-.69-.66-.69-1.15,0-1.82a3.45,3.45,0,0,0,0-5.25c-.69-.66-.69-1.11,0-1.77a3.45,3.45,0,0,0,0-5.25c-.69-.67-.69-1.16,0-1.82a3.41,3.41,0,0,0,1.28-2.62,11.06,11.06,0,0,1,3.7-8.55,19.23,19.23,0,0,0,2.69,1.13,1.19,1.19,0,0,0,.8-2.24c-2.85-1-4.7-2.08-5.17-4.2s1.71-5.54,4.31-4.18a15.07,15.07,0,0,0,19.69-.12,3.53,3.53,0,0,1,4.25,3.75c-.24,3.24-4,4.59-8,5.56a26.31,26.31,0,0,1-8.38.66,1.19,1.19,0,0,0-.2,2.37c4.85.41,10.49-.32,14.81-2.7a11.07,11.07,0,0,1,3.67,8.52,3.41,3.41,0,0,0,1.28,2.62Zm-17.39-19.44a12.7,12.7,0,0,1-12.69-12.69V947a10.46,10.46,0,0,0,3.77.69,10.59,10.59,0,0,0,8.92-4.86,10.61,10.61,0,0,0,8.93,4.86,10.5,10.5,0,0,0,3.77-.69v5.6A12.7,12.7,0,0,1,185.82,965.26Zm14.58,7c-.07,0-.12,0-.15-.14a6.35,6.35,0,0,0,2.11-4.32,5.87,5.87,0,0,0-4.49-6.21,15,15,0,0,0,3-9.06v-7.51c-.21-1-.82-1.39-1.82-1A8.25,8.25,0,0,1,187,939.7a1.2,1.2,0,0,0-2.25,0,8.25,8.25,0,0,1-12.14,4.35c-1-.38-1.61,0-1.82,1v7.51a15,15,0,0,0,3,9c-3.22.6-5,4-4.34,7.13a6.43,6.43,0,0,0,2,3.42l-.15.15c-6.34-.69-11.51-5.52-11.51-12.16a12.18,12.18,0,0,1,3.09-8.1,1.18,1.18,0,0,0-.06-1.64,6.7,6.7,0,0,1,4.67-11.48c1.18,0,1.21-1.06,1.21-1.87a8.25,8.25,0,0,1,8.24-8.24h17.85a8.34,8.34,0,0,1,8.22,8.83,1.25,1.25,0,0,0,1.22,1.28,6.58,6.58,0,0,1,4.39,1.65V961a9.18,9.18,0,0,0-3.1,9.89,12.17,12.17,0,0,1-5.08,1.43Z"/><path d="M226.48,955.63h-3.25a1.19,1.19,0,0,0,0,2.38h3.25A1.19,1.19,0,0,0,226.48,955.63Z"/><path d="M223.23,951.11h1.57a1.2,1.2,0,0,0,0-2.39h-1.57A1.2,1.2,0,0,0,223.23,951.11Z"/><path d="M223.23,944.2h3.25a1.19,1.19,0,0,0,0-2.38h-3.25A1.19,1.19,0,0,0,223.23,944.2Z"/><path d="M214.35,955.63a1.19,1.19,0,0,0-1.19,1.19v7.23a4.37,4.37,0,1,0,2.38,0v-7.23A1.19,1.19,0,0,0,214.35,955.63Zm2,12.62a2,2,0,1,1-2-2A2,2,0,0,1,216.34,968.25Z"/><text class="cls-12" transform="translate(34.35 972.16)">Mode<tspan class="cls-15" x="51.1" y="0">r</tspan><tspan x="58.21" y="0">ate</tspan><tspan x="-0.73" y="18">cold stress</tspan></text><path class="cls-39" d="M191.34,803.8a13.38,13.38,0,1,0,23.36-8.89,7.89,7.89,0,0,0-5.52-13.53h0c0-.22,0-.45,0-.68a9.43,9.43,0,0,0-9.43-9.42H181.9a9.43,9.43,0,0,0-9.43,9.42c0,.23,0,.46,0,.68h0A7.88,7.88,0,0,0,167,794.91a13.37,13.37,0,1,0,23.36,8.89Z"/><path class="cls-40" d="M173.53,825.73c0,1.77-1.83,1.77-1.83,3.54s1.83,1.76,1.83,3.53-1.83,1.77-1.83,3.53v0c0,1.77,1.83,1.77,1.83,3.53s-1.83,1.77-1.83,3.54,1.83,1.76,1.83,3.53l0,3.35h34.56v-3.35c0-1.77,1.83-1.77,1.83-3.53s-1.83-1.77-1.83-3.54,1.83-1.76,1.83-3.53v0c0-1.76-1.83-1.76-1.83-3.53S210,831,210,829.27s-1.83-1.77-1.83-3.54c0-8.17-6.62-13.14-14.8-13.14h-5c-8.17,0-14.79,5-14.79,13.14Z"/><path class="cls-41" d="M210,836.33v0Z"/><path class="cls-41" d="M208.12,832.8c0-1.77,1.83-1.77,1.83-3.53s-1.83-1.77-1.83-3.54c0-8.17-6.62-13.14-14.8-13.14h-5c-.49,0-1,0-1.47,0,7.48.57,13.33,5.42,13.33,13.09v7.07c0,1.76,1.81,1.77,1.83,3.51v0c0,1.75-1.83,1.75-1.83,3.51s1.83,1.77,1.83,3.54-1.83,1.76-1.83,3.53l0,3.35h8v-3.35c0-1.77,1.83-1.77,1.83-3.53s-1.83-1.77-1.83-3.54,1.82-1.76,1.83-3.51-1.83-1.75-1.83-3.51Z"/><path class="cls-42" d="M190.83,817.16h0a4.51,4.51,0,0,1-4.51-4.51v-7.91h9v7.91A4.51,4.51,0,0,1,190.83,817.16Z"/><path class="cls-43" d="M202.62,816.17a27.55,27.55,0,0,1-23.6,0c-6.53-3.06-3.27-12.23,3.29-9.23a19.82,19.82,0,0,0,17,0C205.86,804,209.19,813.09,202.62,816.17Z"/><path class="cls-42" d="M190.82,783.74a9.43,9.43,0,0,1-13.89,5v7.51a13.89,13.89,0,0,0,27.78,0v-7.51a9.43,9.43,0,0,1-13.89-5Z"/><path class="cls-44" d="M199.75,790.13a9.49,9.49,0,0,1-3-.48v6.58a13.89,13.89,0,0,1-9.92,13.3,13.71,13.71,0,0,0,4,.58,13.88,13.88,0,0,0,13.89-13.88v-7.51A9.41,9.41,0,0,1,199.75,790.13Z"/><path class="cls-42" d="M223.93,805.24V782.49a4.58,4.58,0,0,0-9.16,0v22.75a8.09,8.09,0,1,0,9.16,0Z"/><path class="cls-44" d="M223.93,805.24V782.49a4.58,4.58,0,0,0-6.92-3.9,4.52,4.52,0,0,1,2.23,3.9v27.1l3.29,2.26a8.19,8.19,0,0,1-5.52,7.67,8.22,8.22,0,0,0,2.34.34,8,8,0,0,0,4.58-14.62Z"/><circle class="cls-45" cx="219.35" cy="811.91" r="3.18"/><path d="M186.42,801.67a1.2,1.2,0,0,0,1.69,1.69,3.84,3.84,0,0,1,5.43,0,1.2,1.2,0,0,0,1.69-1.69,6.23,6.23,0,0,0-8.81,0Z"/><path d="M215.49,831.85a3.45,3.45,0,0,0,0-5.25c-.45-.43-.55-.57-.55-.91a1.19,1.19,0,0,0-2.38,0,3.41,3.41,0,0,0,1.28,2.62c.69.67.69,1.16,0,1.82a3.44,3.44,0,0,0,0,5.25c.68.66.68,1.12,0,1.78a3.41,3.41,0,0,0-1.28,2.62,1.19,1.19,0,0,0,2.38,0c0-.34.1-.48.55-.91a3.36,3.36,0,0,0,0-5.21C214.8,833,214.8,832.51,215.49,831.85Z"/><path d="M167.78,835.74a3.41,3.41,0,0,0,1.28-2.62,1.19,1.19,0,0,0-2.38,0c0,.34-.11.48-.56.91a3.37,3.37,0,0,0,0,5.21c.69.66.69,1.15,0,1.81a3.45,3.45,0,0,0,0,5.25c.45.43.56.57.56.91a1.19,1.19,0,0,0,2.38,0,3.41,3.41,0,0,0-1.28-2.62c-.69-.67-.69-1.16,0-1.82a3.45,3.45,0,0,0,0-5.25C167.09,836.86,167.09,836.4,167.78,835.74Z"/><path d="M225.12,804.64V789.73a1.19,1.19,0,0,0-2.38,0v15.51a1.17,1.17,0,0,0,.52,1,6.9,6.9,0,1,1-7.81,0,1.2,1.2,0,0,0,.52-1V782.49a3.39,3.39,0,0,1,6.77,0v.89a1.19,1.19,0,0,0,2.38,0v-.89a5.77,5.77,0,0,0-11.43-1.1,8.88,8.88,0,0,0-3.33-1.12,10.63,10.63,0,0,0-10.61-10.18H181.9a10.63,10.63,0,0,0-10.62,10.18,9.09,9.09,0,0,0-7.9,9,9,9,0,0,0,2,5.67,14.56,14.56,0,0,0,9.12,23.21,13.82,13.82,0,0,0-2.15,7.58c0,.34-.11.48-.56.91a3.45,3.45,0,0,0,0,5.25c.69.66.69,1.15,0,1.82a3.37,3.37,0,0,0,0,5.21c.69.66.69,1.15,0,1.81a3.45,3.45,0,0,0,0,5.25c.45.43.56.57.56.92l0,3.35a1.19,1.19,0,0,0,1.19,1.18h34.56a1.2,1.2,0,0,0,1.19-1.18v-3.36c0-.34.11-.48.55-.91a3.44,3.44,0,0,0,0-5.25c-.69-.66-.69-1.15,0-1.81a3.36,3.36,0,0,0,0-5.21c-.69-.67-.69-1.15,0-1.82a3.44,3.44,0,0,0,0-5.25c-.44-.43-.55-.57-.55-.91a13.9,13.9,0,0,0-2.15-7.58,14.64,14.64,0,0,0,4.31-1.46,9.28,9.28,0,0,0,17.16-4.84,9.18,9.18,0,0,0-3.51-7.21Zm-16.91,23.72c.69.66.69,1.15,0,1.81a3.45,3.45,0,0,0,0,5.25c.68.66.68,1.12,0,1.78a3.45,3.45,0,0,0,0,5.25c.69.66.69,1.15,0,1.82a3.41,3.41,0,0,0-1.28,2.62v2.16h-4.7V829a1.2,1.2,0,0,0-2.39,0v20.1h-18V829a1.19,1.19,0,0,0-2.38,0v20.1h-4.7v-2.16a3.41,3.41,0,0,0-1.28-2.62c-.69-.67-.69-1.16,0-1.82a3.45,3.45,0,0,0,0-5.25c-.69-.66-.69-1.12,0-1.78a3.45,3.45,0,0,0,0-5.25c-.69-.66-.69-1.15,0-1.81a3.44,3.44,0,0,0,1.28-2.63,11.06,11.06,0,0,1,3.7-8.54,20.52,20.52,0,0,0,2.69,1.13,1.19,1.19,0,0,0,.8-2.24c-2.85-1-4.7-2.08-5.17-4.2s1.71-5.54,4.31-4.18a15.06,15.06,0,0,0,19.69-.13,3.54,3.54,0,0,1,4.25,3.75c-.24,3.25-4,4.6-8,5.57a26.31,26.31,0,0,1-8.38.66,1.19,1.19,0,0,0-.2,2.37c4.85.41,10.49-.33,14.81-2.7a11.07,11.07,0,0,1,3.67,8.51,3.44,3.44,0,0,0,1.28,2.63Zm-17.39-19.44a12.71,12.71,0,0,1-12.69-12.69v-5.6a10.62,10.62,0,0,0,12.69-4.17,10.64,10.64,0,0,0,12.7,4.17v5.6A12.71,12.71,0,0,1,190.82,808.92Zm14.58,7c-.07,0-.12,0-.15-.13a6.35,6.35,0,0,0,2.11-4.32,5.87,5.87,0,0,0-4.49-6.21,15,15,0,0,0,3-9.06v-7.51c-.21-1.05-.82-1.39-1.82-1A8.23,8.23,0,0,1,192,783.36a1.19,1.19,0,0,0-2.25,0,8.23,8.23,0,0,1-12.14,4.34c-1-.37-1.61,0-1.82,1v7.51a15,15,0,0,0,3,9c-3.22.6-5,4-4.34,7.13a6.4,6.4,0,0,0,2,3.41l-.15.16c-6.34-.7-11.51-5.52-11.51-12.16a12.16,12.16,0,0,1,3.09-8.1,1.18,1.18,0,0,0-.06-1.64,6.7,6.7,0,0,1,4.67-11.49c1.18,0,1.21-1.05,1.21-1.87a8.24,8.24,0,0,1,8.24-8.23h17.85A8.34,8.34,0,0,1,208,781.3a1.25,1.25,0,0,0,1.22,1.27,6.68,6.68,0,0,1,4.39,1.65v20.42a9.2,9.2,0,0,0-3.5,7.21,9,9,0,0,0,.4,2.67A12.17,12.17,0,0,1,205.4,816Z"/><path d="M231.48,799.29h-3.25a1.19,1.19,0,0,0,0,2.38h3.25A1.19,1.19,0,0,0,231.48,799.29Z"/><path d="M228.23,794.76h1.57a1.19,1.19,0,0,0,0-2.38h-1.57A1.19,1.19,0,0,0,228.23,794.76Z"/><path d="M228.23,787.86h3.25a1.2,1.2,0,0,0,0-2.39h-3.25A1.2,1.2,0,0,0,228.23,787.86Z"/><path d="M219.35,799.29a1.19,1.19,0,0,0-1.19,1.19v7.22a4.37,4.37,0,1,0,2.38,0v-7.22A1.19,1.19,0,0,0,219.35,799.29Zm2,12.62a2,2,0,1,1-2-2A2,2,0,0,1,221.34,811.91Z"/><text class="cls-12" transform="translate(53.82 816.81)">Slight<tspan x="-20.19" y="18">cold stress</tspan></text><text class="cls-46" transform="translate(21.6 665.41)">No the<tspan class="cls-14" x="58.34" y="0">r</tspan><tspan x="66.11" y="0">mal</tspan><tspan x="25.74" y="18">stress</tspan></text><path class="cls-47" d="M216,634.24a6.63,6.63,0,0,0-1.81-.77,6.31,6.31,0,0,0-.76-1.81,1,1,0,0,0-1.8,0,6.63,6.63,0,0,0-.77,1.81,6.76,6.76,0,0,0-1.81.77,1,1,0,0,0,0,1.79,6.46,6.46,0,0,0,1.81.77,6.63,6.63,0,0,0,.77,1.81,1,1,0,0,0,1.8,0,6.31,6.31,0,0,0,.76-1.81A6.34,6.34,0,0,0,216,636a1,1,0,0,0,0-1.79Z"/><path class="cls-48" d="M221.92,660.24a33,33,0,1,1-21.66-31A33,33,0,0,1,221.92,660.24Z"/><path class="cls-49" d="M178.62,660.24a33,33,0,0,1,21.64-31,33,33,0,1,0,0,62A33,33,0,0,1,178.62,660.24Z"/><path class="cls-50" d="M178.51,661.65c0,2.68-2.74,4.84-6.1,4.83s-6.08-2.19-6.07-4.86,2.74-4.84,6.1-4.83S178.52,659,178.51,661.65Z"/><path class="cls-50" d="M199.32,661.72c0,2.68,2.71,4.85,6.07,4.86s6.1-2.15,6.11-4.82-2.71-4.86-6.08-4.87S199.33,659,199.32,661.72Z"/><path class="cls-51" d="M193.84,658c0-3-2.19-3.33-4.9-3.33s-4.91.27-4.92,3.3,2.18,5.5,4.89,5.5a5.22,5.22,0,0,0,4.93-5.47Z"/><path class="cls-47" d="M171.53,682a10.91,10.91,0,0,0-3-1.26,10.72,10.72,0,0,0-1.26-3,1.72,1.72,0,0,0-2.95,0,11,11,0,0,0-1.26,3,10.72,10.72,0,0,0-3,1.26,1.72,1.72,0,0,0,0,3,10.72,10.72,0,0,0,3,1.26,11,11,0,0,0,1.26,3,1.72,1.72,0,0,0,2.95,0,10.72,10.72,0,0,0,1.26-3,10.91,10.91,0,0,0,3-1.26A1.72,1.72,0,0,0,171.53,682Z"/><path class="cls-47" d="M221.41,688.36a6.63,6.63,0,0,0-1.81-.77,6.46,6.46,0,0,0-.77-1.81,1,1,0,0,0-1.79,0,6.76,6.76,0,0,0-.77,1.81,6.63,6.63,0,0,0-1.81.77,1,1,0,0,0,0,1.8,6.31,6.31,0,0,0,1.81.76,6.63,6.63,0,0,0,.77,1.81,1,1,0,0,0,1.79,0,6.34,6.34,0,0,0,.77-1.81,6.31,6.31,0,0,0,1.81-.76,1,1,0,0,0,0-1.8Z"/><path d="M188.93,664.45a6.21,6.21,0,0,0,5.9-6.47,3.76,3.76,0,0,0-2-3.69,8.85,8.85,0,0,0-3.92-.64c-2.06,0-5.9,0-5.91,4.29,0,3.58,2.62,6.5,5.88,6.51ZM185,658c0-1.83.8-2.32,3.92-2.31s3.9.47,3.9,2.34c0,2.45-1.75,4.49-3.93,4.48A4.24,4.24,0,0,1,185,658Z"/><path d="M173.09,657.36a1,1,0,0,0,1-1,1.9,1.9,0,1,1,3.8,0,1,1,0,0,0,1,1h0a1,1,0,0,0,1-1,3.89,3.89,0,0,0-3.88-3.9h0a3.89,3.89,0,0,0-3.9,3.88,1,1,0,0,0,1,1Z"/><path d="M199,657.44a1,1,0,0,0,1-1,1.9,1.9,0,0,1,1.9-1.9h0a1.91,1.91,0,0,1,1.89,1.91,1,1,0,0,0,1,1h0a1,1,0,0,0,1-1,3.9,3.9,0,0,0-3.88-3.91h0a3.89,3.89,0,0,0-3.89,3.88,1,1,0,0,0,1,1Z"/><path d="M209.64,684.63a32,32,0,0,1-38.95,1.92,11.71,11.71,0,0,0,1.36-.71,2.72,2.72,0,0,0,0-4.65,12.29,12.29,0,0,0-2.69-1.22,11.57,11.57,0,0,0-1.22-2.68,2.72,2.72,0,0,0-4.65,0,12.4,12.4,0,0,0-.73,1.4,32,32,0,0,1-.13-36.72,1,1,0,0,0-.25-1.39,1,1,0,0,0-1.38.25h0a34,34,0,0,0,.44,39.44,11.81,11.81,0,0,0-1.85.92,2.72,2.72,0,0,0,0,4.65,11.88,11.88,0,0,0,2.69,1.22,12,12,0,0,0,1.21,2.68,2.72,2.72,0,0,0,4.65,0,11.89,11.89,0,0,0,.94-1.89,33.8,33.8,0,0,0,19.83,6.39h0a33.89,33.89,0,0,0,22-8.09,1,1,0,0,0,.11-1.41,1,1,0,0,0-1.41-.11Zm-41.3.65a1,1,0,0,0-.75.72,9.9,9.9,0,0,1-1.15,2.7.72.72,0,0,1-1.25,0,9.88,9.88,0,0,1-1.14-2.7,1,1,0,0,0-.72-.71,9.9,9.9,0,0,1-2.7-1.15.72.72,0,0,1,0-1.25,9.88,9.88,0,0,1,2.7-1.14A1,1,0,0,0,164,681h0a9.75,9.75,0,0,1,1.14-2.7.72.72,0,0,1,1.25,0,9.9,9.9,0,0,1,1.15,2.7,1,1,0,0,0,.71.72,9.94,9.94,0,0,1,2.71,1.14.73.73,0,0,1,0,1.25,10,10,0,0,1-2.67,1.14Z"/><path d="M214.79,638.19a4.24,4.24,0,0,0,.23-.59,7.13,7.13,0,0,0,1.53-.72,2,2,0,0,0,0-3.49,7.13,7.13,0,0,0-1.53-.72c-.44-1.31-1.08-2.51-2.46-2.51a2,2,0,0,0-1.75,1,7.36,7.36,0,0,0-.72,1.53c-.28.1-.55.21-.82.33a33.86,33.86,0,0,0-20.35-6.76,34.76,34.76,0,0,0-7.35.79,34.07,34.07,0,0,0-18,10.58,1,1,0,1,0,1.48,1.33,32,32,0,1,1,47.41,43,1,1,0,0,0,.06,1.41,1,1,0,0,0,1.41-.05,33.94,33.94,0,0,0,9-23.07h0a33.8,33.8,0,0,0-8.13-22Zm-1.52-1.67c-.66-.69-1.34-1.33-2.19-2.07,1-.26.55-.84,1.43-2.27a.06.06,0,0,1,.1,0c.83,1.37.48,2,1.37,2.25a5.33,5.33,0,0,1,1.53.66c.05,0,.05.07,0,.09C214.17,636,213.52,635.67,213.27,636.52Z"/><path d="M221.93,687.51a7.13,7.13,0,0,0-1.53-.72,7.36,7.36,0,0,0-.72-1.53,2,2,0,0,0-3.49,0,7.36,7.36,0,0,0-.72,1.53c-1.31.45-2.51,1.08-2.51,2.47a2,2,0,0,0,1,1.75,7.87,7.87,0,0,0,1.53.71c.45,1.31,1.08,2.52,2.47,2.52a2,2,0,0,0,1.74-1,7.13,7.13,0,0,0,.72-1.53,7.61,7.61,0,0,0,1.53-.71,2,2,0,0,0,0-3.5Zm-1,1.8c-1.37.83-2,.48-2.25,1.36a5.53,5.53,0,0,1-.65,1.54s-.08,0-.1,0c-.84-1.36-.49-2-1.37-2.25a5.8,5.8,0,0,1-1.54-.65.06.06,0,0,1,0-.1,5.49,5.49,0,0,1,1.54-.65c.88-.23.53-.9,1.37-2.26a.06.06,0,0,1,.1,0c.83,1.37.48,2,1.36,2.26a5.37,5.37,0,0,1,1.54.65h0c.05,0,.05.07,0,.1Z"/><path class="cls-52" d="M226,683.6V652.55c0-3.59-3.29-6.5-7.33-6.5s-7.33,2.91-7.33,6.5V683.6a10,10,0,0,0-4.44,8.17c0,5.77,5.27,10.45,11.77,10.45s11.77-4.68,11.77-10.45A10,10,0,0,0,226,683.6Z"/><path class="cls-53" d="M230.47,691.77c0,5.77-5.27,10.45-11.77,10.45a13.31,13.31,0,0,1-1.91-.14c5.59-.81,9.86-5.12,9.86-10.31a10,10,0,0,0-4.45-8.17V652.55a6.69,6.69,0,0,0-5.41-6.28,8.54,8.54,0,0,1,1.91-.22c4,0,7.33,2.91,7.33,6.5V683.6A10,10,0,0,1,230.47,691.77Z"/><path class="cls-54" d="M218.7,698.26c-4,0-7.32-2.91-7.32-6.49a6.21,6.21,0,0,1,2.77-5.08l1.68-1.19v-33a2.89,2.89,0,0,1,5.74,0v33l1.68,1.19a6.2,6.2,0,0,1,2.76,5.08c0,3.58-3.28,6.49-7.31,6.49Z"/><path class="cls-55" d="M226,691.77a6.68,6.68,0,0,1-5.33,6.25,6.16,6.16,0,0,0,2.21-4.65,6.23,6.23,0,0,0-2.76-5.08l-1.68-1.19V652.23a2.44,2.44,0,0,0-1-2,3.07,3.07,0,0,1,1.29-.27,2.73,2.73,0,0,1,2.87,2.54v33l1.68,1.19a6.2,6.2,0,0,1,2.76,5.08Z"/><path class="cls-56" d="M223.25,686.69l-1.68-1.19V672.2h-5.74v13.3l-1.68,1.19a6.21,6.21,0,0,0-2.77,5.08c0,3.58,3.28,6.49,7.32,6.49s7.31-2.91,7.31-6.49A6.2,6.2,0,0,0,223.25,686.69Z"/><path class="cls-57" d="M223.25,686.69l-1.68-1.19V672.77h-3.12V687.1l1.68,1.19a6.23,6.23,0,0,1,2.76,5.08,6.16,6.16,0,0,1-2.21,4.65,6.68,6.68,0,0,0,5.33-6.25,6.2,6.2,0,0,0-2.76-5.08Z"/><path d="M224.89,695.33a1,1,0,0,0,.41.08,1,1,0,0,0,.86-.48,6.52,6.52,0,0,0,.81-3.16,7,7,0,0,0-3.13-5.74l-1.32-.94V652.55a3.85,3.85,0,0,0-7.65,0V658a.91.91,0,0,0,1,.85.9.9,0,0,0,.95-.85v-5.42a1.93,1.93,0,0,1,3.83,0v19.37h-3.83v-10.1a.9.9,0,0,0-.95-.85.91.91,0,0,0-1,.85v23.27l-1.32.94a7,7,0,0,0-3.12,5.74c0,4.05,3.71,7.34,8.27,7.34a9.06,9.06,0,0,0,4.14-1,.8.8,0,0,0,.34-1.16,1,1,0,0,0-1.3-.31,7,7,0,0,1-3.18.76c-3.51,0-6.36-2.53-6.36-5.64a5.4,5.4,0,0,1,2.4-4.42l1.68-1.18a.83.83,0,0,0,.36-.67V673.62h3.83V685.5a.83.83,0,0,0,.36.67l1.68,1.18a5.41,5.41,0,0,1,2.41,4.42,5.08,5.08,0,0,1-.62,2.43.8.8,0,0,0,.45,1.13Z"/><path d="M227,683.2v-6.13a1,1,0,0,0-1.91,0v6.53a.81.81,0,0,0,.36.66,9.19,9.19,0,0,1,4.09,7.51c0,5.29-4.86,9.6-10.82,9.6s-10.82-4.31-10.82-9.6a9.19,9.19,0,0,1,4.09-7.51.84.84,0,0,0,.36-.66V652.55c0-3.12,2.85-5.65,6.37-5.65s6.37,2.53,6.37,5.65v20.68a1,1,0,0,0,1.91,0V652.55c0-4-3.71-7.35-8.28-7.35s-8.28,3.3-8.28,7.35V683.2a10.73,10.73,0,0,0-4.45,8.57c0,6.23,5.71,11.29,12.73,11.29s12.73-5.06,12.73-11.29A10.76,10.76,0,0,0,227,683.2Z"/><path d="M230.29,655.29H235a.86.86,0,1,0,0-1.7h-4.67a.86.86,0,1,0,0,1.7Z"/><path d="M230.28,658.49h0a.85.85,0,1,0,0-1.69h0a.85.85,0,1,0,0,1.69Z"/><path d="M235,661.15h-4.67a.85.85,0,1,0,0,1.69H235a.85.85,0,1,0,0-1.69Z"/><path d="M230.28,666.05h0a.86.86,0,1,0,0-1.7h0a.86.86,0,1,0,0,1.7Z"/><path d="M235,668.7h-4.67a.85.85,0,1,0,0,1.69H235a.85.85,0,1,0,0-1.69Z"/><path d="M230.28,673.6h0a.86.86,0,1,0,0-1.7h0a.86.86,0,1,0,0,1.7Z"/><path d="M235,676.25h-4.67a.86.86,0,1,0,0,1.7H235a.86.86,0,1,0,0-1.7Z"/><path d="M230.28,681.15h0a.9.9,0,0,0,.95-.84.91.91,0,0,0-.95-.86h0a.91.91,0,0,0-1,.85A.9.9,0,0,0,230.28,681.15Z"/><path class="cls-58" d="M222.92,520.4A32.89,32.89,0,1,1,190,487.5,32.89,32.89,0,0,1,222.92,520.4Z"/><path class="cls-59" d="M181.81,510.8a4.12,4.12,0,1,1-4.11-4.11A4.11,4.11,0,0,1,181.81,510.8Z"/><path class="cls-59" d="M206.48,510.8a4.12,4.12,0,1,1-4.12-4.11A4.11,4.11,0,0,1,206.48,510.8Z"/><path class="cls-60" d="M190,525.88a8.23,8.23,0,0,0-8.22,8.22c0,5.48,5.34,5.48,8.22,5.48s8.22,0,8.22-5.48A8.23,8.23,0,0,0,190,525.88Z"/><path class="cls-61" d="M217.29,496.47a1.43,1.43,0,0,0-2.44,0c-.94,1.83-5.63,11.13-5.63,14.33a6.85,6.85,0,1,0,13.7,0C222.92,507.6,218.23,498.3,217.29,496.47Z"/><path d="M177.7,514.91a4.11,4.11,0,1,1,4.11-4.11A4.12,4.12,0,0,1,177.7,514.91Zm0-5.48a1.37,1.37,0,1,0,1.37,1.37A1.38,1.38,0,0,0,177.7,509.43Z"/><path d="M202.36,514.91a4.11,4.11,0,1,1,4.12-4.11A4.12,4.12,0,0,1,202.36,514.91Zm0-5.48a1.37,1.37,0,1,0,1.38,1.37A1.38,1.38,0,0,0,202.36,509.43Z"/><path d="M190,539.58c-2.88,0-8.22,0-8.22-5.48a8.22,8.22,0,1,1,16.44,0C198.25,539.58,192.91,539.58,190,539.58Zm0-11a5.49,5.49,0,0,0-5.48,5.48c0,2,.83,2.74,5.48,2.74s5.48-.72,5.48-2.74A5.49,5.49,0,0,0,190,528.62Z"/><path d="M190,553.29a32.9,32.9,0,1,1,25.46-53.71,1.37,1.37,0,0,1-2.12,1.73,30.15,30.15,0,1,0,6.81,19.09,30.86,30.86,0,0,0-.73-6.55,1.37,1.37,0,1,1,2.67-.59,32.83,32.83,0,0,1-32.09,40Z"/><path d="M216.07,517.66a6.86,6.86,0,0,1-6.85-6.86c0-3.19,4.69-12.5,5.63-14.33a1.42,1.42,0,0,1,2.44,0c.94,1.83,5.63,11.14,5.63,14.33A6.86,6.86,0,0,1,216.07,517.66Zm0-17.49c-1.92,4-4.11,9-4.11,10.63a4.11,4.11,0,0,0,8.22,0C220.18,509.2,218,504.15,216.07,500.17Z"/><text class="cls-12" transform="translate(31.01 528.4)">Mode<tspan class="cls-15" x="51.1" y="0">r</tspan><tspan x="58.21" y="0">ate</tspan><tspan x="-1.88" y="18">heat stress</tspan></text><path class="cls-52" d="M163.28,545V514c0-3.59-3.28-6.5-7.32-6.5s-7.33,2.91-7.33,6.5v31a10,10,0,0,0-4.45,8.17c0,5.77,5.27,10.45,11.78,10.45s11.77-4.68,11.77-10.45a10,10,0,0,0-4.45-8.17Z"/><path class="cls-53" d="M167.73,553.19c0,5.77-5.27,10.45-11.77,10.45a13.21,13.21,0,0,1-1.91-.14c5.59-.81,9.86-5.12,9.86-10.31a10,10,0,0,0-4.45-8.17V514a6.67,6.67,0,0,0-5.41-6.27,7.87,7.87,0,0,1,1.91-.23c4,0,7.32,2.91,7.32,6.5v31A10,10,0,0,1,167.73,553.19Z"/><path class="cls-54" d="M156,559.68c-4,0-7.32-2.91-7.32-6.49a6.21,6.21,0,0,1,2.77-5.08l1.68-1.19V514a2.89,2.89,0,0,1,5.74,0v32.95l1.68,1.19a6.23,6.23,0,0,1,2.76,5.08c0,3.58-3.28,6.49-7.31,6.49Z"/><path class="cls-55" d="M163.27,553.19a6.68,6.68,0,0,1-5.33,6.25,6.16,6.16,0,0,0,2.21-4.65,6.24,6.24,0,0,0-2.76-5.08l-1.69-1.19V513.65a2.44,2.44,0,0,0-1-1.95,3,3,0,0,1,1.29-.27,2.73,2.73,0,0,1,2.87,2.54v32.95l1.68,1.19a6.23,6.23,0,0,1,2.76,5.08Z"/><path class="cls-56" d="M160.51,548.11l-1.68-1.19V527.19h-5.74v19.73l-1.68,1.19a6.21,6.21,0,0,0-2.77,5.08c0,3.58,3.28,6.49,7.32,6.49s7.31-2.91,7.31-6.49A6.23,6.23,0,0,0,160.51,548.11Z"/><path class="cls-57" d="M160.51,548.11l-1.68-1.19V527.19H155.7v21.33l1.69,1.19a6.24,6.24,0,0,1,2.76,5.08,6.16,6.16,0,0,1-2.21,4.65,6.68,6.68,0,0,0,5.33-6.25,6.23,6.23,0,0,0-2.76-5.08Z"/><path d="M162.14,556.75a1,1,0,0,0,.42.08,1,1,0,0,0,.86-.48,6.63,6.63,0,0,0,.81-3.16,7,7,0,0,0-3.13-5.74l-1.32-.94V514a3.85,3.85,0,0,0-7.65,0v5.42a1,1,0,0,0,1.91,0V514a1.93,1.93,0,0,1,3.83,0v12.37H154v-3.1a1,1,0,0,0-1.91,0v23.27l-1.32.94a7,7,0,0,0-3.12,5.74c0,4,3.71,7.34,8.27,7.34a9,9,0,0,0,4.13-1,.79.79,0,0,0,.35-1.16,1,1,0,0,0-1.3-.3,7.09,7.09,0,0,1-3.18.75c-3.51,0-6.36-2.53-6.36-5.64a5.4,5.4,0,0,1,2.4-4.42l1.68-1.18a.82.82,0,0,0,.36-.67V528h3.83v18.88a.82.82,0,0,0,.36.67l1.68,1.18a5.41,5.41,0,0,1,2.41,4.42,5.08,5.08,0,0,1-.62,2.43.81.81,0,0,0,.44,1.13Z"/><path d="M164.24,544.62v-6.13a1,1,0,0,0-1.91,0V545a.8.8,0,0,0,.36.66,9.2,9.2,0,0,1,4.08,7.51c0,5.29-4.85,9.6-10.81,9.6s-10.82-4.31-10.82-9.6a9.2,9.2,0,0,1,4.08-7.51.8.8,0,0,0,.36-.66V514c0-3.11,2.86-5.65,6.38-5.65s6.37,2.54,6.37,5.65v20.68a1,1,0,0,0,1.91,0V514c0-4.05-3.72-7.35-8.28-7.35s-8.29,3.3-8.29,7.35v30.65a10.75,10.75,0,0,0-4.44,8.57c0,6.23,5.71,11.29,12.73,11.29s12.72-5.06,12.72-11.29a10.75,10.75,0,0,0-4.44-8.57Z"/><path d="M167.55,516.71h4.67a.85.85,0,1,0,0-1.69h-4.67a.85.85,0,1,0,0,1.69Z"/><path d="M167.54,519.91h0a.85.85,0,1,0,0-1.69h0a.85.85,0,1,0,0,1.69Z"/><path d="M172.22,522.57h-4.67a.85.85,0,1,0,0,1.69h4.67a.85.85,0,1,0,0-1.69Z"/><path d="M167.54,527.47h0a.91.91,0,0,0,.95-.85.89.89,0,0,0-.95-.85h0a.91.91,0,0,0-.95.84A.91.91,0,0,0,167.54,527.47Z"/><path d="M172.22,530.12h-4.67a.86.86,0,1,0,0,1.7h4.67a.86.86,0,1,0,0-1.7Z"/><path d="M167.54,535h0a.86.86,0,1,0,0-1.7h0a.86.86,0,1,0,0,1.7Z"/><path d="M172.22,537.67h-4.67a.86.86,0,1,0,0,1.7h4.67a.86.86,0,1,0,0-1.7Z"/><path d="M167.54,542.57h0a.91.91,0,0,0,.95-.84.89.89,0,0,0-.95-.85h0a.85.85,0,1,0,0,1.69Z"/><path class="cls-62" d="M156.37,55.53h0a34.37,34.37,0,0,0-4.23,29.23h0A34.63,34.63,0,0,0,159.8,98h0a34.38,34.38,0,0,0,27.43,11h0c25.37-1.62,40.18-29.13,27.92-51.17C202.64,35.45,170.7,34,156.37,55.53Z"/><path class="cls-63" d="M193.24,105.51h0a34.3,34.3,0,0,1-27.42-11h0a34.61,34.61,0,0,1-7.66-13.28h0a34.33,34.33,0,0,1,4.22-29.23h0a34.81,34.81,0,0,1,8.49-8.88,34.1,34.1,0,0,0-14.5,12.36h0a34.37,34.37,0,0,0-4.23,29.23h0A34.63,34.63,0,0,0,159.8,98h0a34.38,34.38,0,0,0,27.43,11h0a34.14,34.14,0,0,0,18-6.39A34.62,34.62,0,0,1,193.24,105.51Z"/><path class="cls-20" d="M183.36,86.24a4.54,4.54,0,0,0,3.4,0,13,13,0,0,1,3.65-.91V85a5.35,5.35,0,0,0-10.7,0v.33A13.4,13.4,0,0,1,183.36,86.24Z"/><path class="cls-21" d="M183.18,85h0a5.35,5.35,0,0,1,3.62-5.06,5.57,5.57,0,0,0-1.74-.29A5.36,5.36,0,0,0,179.71,85v.33a13.36,13.36,0,0,1,3.47.85V85Z"/><path class="cls-63" d="M204.06,109.06h5.5a4.87,4.87,0,0,0,4.89-5.1c-.16-4.08-.07-9.74,4.52-17.49a3.67,3.67,0,0,0-5.38-4.8,33,33,0,0,0-13.19,23.26A3.69,3.69,0,0,0,204.06,109.06Z"/><path class="cls-64" d="M207.72,109a33.06,33.06,0,0,1,8.13-25.47,3.52,3.52,0,0,1,2.77-1.29,3.6,3.6,0,0,0-5-.56,33,33,0,0,0-13.19,23.26,3.69,3.69,0,0,0,3.66,4.13h3.67A.15.15,0,0,0,207.72,109Z"/><path class="cls-63" d="M166.06,109.06h-5.5a4.87,4.87,0,0,1-4.89-5.1c.16-4.08.07-9.74-4.52-17.49a3.67,3.67,0,0,1,5.38-4.8,33,33,0,0,1,13.19,23.26A3.7,3.7,0,0,1,166.06,109.06Z"/><path class="cls-64" d="M161.9,104.12c-.41-4.42-1.32-10.52-7.38-18.2a3.91,3.91,0,0,1,0-5,3.7,3.7,0,0,0-3.42,5.58c4.59,7.74,4.68,13.4,4.52,17.48a4.87,4.87,0,0,0,4.89,5.1h5.5a3.43,3.43,0,0,0,.86-.11A5.3,5.3,0,0,1,161.9,104.12Z"/><path class="cls-22" d="M202.22,73.7a5.65,5.65,0,0,1-7.95-.91l-1.84-2.31a5.66,5.66,0,1,1,8.87-7l1.83,2.31A5.65,5.65,0,0,1,202.22,73.7Z"/><path class="cls-23" d="M198.7,69.27,196.87,67a5.78,5.78,0,0,1-1-5.57,5.66,5.66,0,0,0-3.41,9.09l1.84,2.31a5.65,5.65,0,0,0,7.95.91,5.53,5.53,0,0,0,1.67-2.17A5.83,5.83,0,0,1,198.7,69.27Z"/><path class="cls-22" d="M167.9,73.7a5.65,5.65,0,0,0,7.95-.91l1.84-2.31a5.66,5.66,0,1,0-8.87-7L167,65.75A5.66,5.66,0,0,0,167.9,73.7Z"/><path class="cls-23" d="M176.77,62.52a5.73,5.73,0,0,0-2.57-1.15,5.74,5.74,0,0,1-.93,5.61l-1.83,2.31a5.72,5.72,0,0,1-5.25,2.16,5.67,5.67,0,0,0,9.66,1.34l1.84-2.31A5.67,5.67,0,0,0,176.77,62.52Z"/><path class="cls-24" d="M190.41,93.73V85a12.22,12.22,0,0,0-3.83.86,4,4,0,0,1-3,0,12.22,12.22,0,0,0-3.83-.86v8.73a5.35,5.35,0,0,0,10.7,0Z"/><path class="cls-25" d="M183.18,93.73v-8a11.72,11.72,0,0,0-3.47-.73v8.73a5.35,5.35,0,0,0,5.35,5.35,5.29,5.29,0,0,0,1.74-.29A5.34,5.34,0,0,1,183.18,93.73Z"/><path d="M193.46,73.44a6.72,6.72,0,0,0,9.42,1.08h0A6.72,6.72,0,0,0,204,65.1l-1.84-2.31a6.7,6.7,0,0,0-10.5,8.34Zm.54-10.1a4.62,4.62,0,0,1,6.49.74l1.84,2.31a4.62,4.62,0,0,1-.75,6.49h0a4.61,4.61,0,0,1-6.49-.74l-1.84-2.31A4.62,4.62,0,0,1,194,63.34Z"/><path d="M168,62.79l-1.84,2.31a6.72,6.72,0,0,0,1.08,9.42h0a6.72,6.72,0,0,0,9.42-1.08l1.84-2.31A6.7,6.7,0,0,0,168,62.79Zm8.87,7L175,72.14a4.61,4.61,0,0,1-6.49.74h0a4.62,4.62,0,0,1-.74-6.49l1.83-2.31a4.62,4.62,0,0,1,7.24,5.75Z"/><path d="M185.07,78.6a6.4,6.4,0,0,0-6.4,6.39v4.62a1,1,0,0,0,2.09,0V86.16a10.49,10.49,0,0,1,2.39.67,5.08,5.08,0,0,0,3.83,0,10.49,10.49,0,0,1,2.39-.67v7.57a4.31,4.31,0,0,1-8.57.6,1,1,0,1,0-2.06.28,6.39,6.39,0,0,0,12.72-.88V85A6.4,6.4,0,0,0,185.07,78.6Zm-1.14,6.3a12.69,12.69,0,0,0-3.07-.83,4.3,4.3,0,0,1,8.41,0C186.17,84.51,185.71,85.62,183.93,84.9Z"/><path d="M215.8,56.85a35.48,35.48,0,0,0-47.26-13.66,1,1,0,0,0-.43,1.41,1,1,0,0,0,1.4.43A33.41,33.41,0,0,1,218,80.39a4.55,4.55,0,0,0-5,.45,34.08,34.08,0,0,0-13.6,24,33.36,33.36,0,0,1-28.61,0,34.06,34.06,0,0,0-13.59-24,4.56,4.56,0,0,0-5-.44A33.46,33.46,0,0,1,165.5,47.51a1,1,0,0,0,.24-1.45,1.05,1.05,0,0,0-1.46-.24A35.54,35.54,0,0,0,150.35,82a4.55,4.55,0,0,0-.09,5c4.73,8,4.49,13.79,4.37,16.91a5.91,5.91,0,0,0,5.93,6.18h5.5a4.72,4.72,0,0,0,4.45-3.13,35.43,35.43,0,0,0,29.11,0,4.72,4.72,0,0,0,4.45,3.13h5.5a5.91,5.91,0,0,0,5.93-6.18c0-.74-.06-1.72,0-2.79a1,1,0,1,0-2.08-.07c0,1.14,0,2.17,0,2.94a3.82,3.82,0,0,1-3.85,4h-5.5a2.65,2.65,0,0,1-2.63-3A32,32,0,0,1,214.23,82.5a2.63,2.63,0,0,1,3.85,3.44A33.34,33.34,0,0,0,214,96.05a1,1,0,0,0,.8,1.24,1,1,0,0,0,1.23-.81A31.34,31.34,0,0,1,219.88,87a4.56,4.56,0,0,0-.11-5A35.39,35.39,0,0,0,215.8,56.85ZM166.06,108h-5.5a3.83,3.83,0,0,1-3.85-4,30.21,30.21,0,0,0-4.66-18.06,2.63,2.63,0,0,1,3.86-3.44A32,32,0,0,1,168.69,105,2.65,2.65,0,0,1,166.06,108Z"/><g id="Page-1"><path id="Shape" class="cls-65" d="M253.36,90c0,11.62-6.64,26.39-30.71,26.39-13.27,0-17.42-5-17.42-7.47s6.64,0,16.59-.83,15.77-5.64,17.43-17.26c.81-5.71,1.92-8.18,4.08-9.22a5,5,0,0,1,3.61,1.85.85.85,0,0,0,1.23,0,3.64,3.64,0,0,1,3.44-1.29h0c1.74,1.91,1.74,5.48,1.74,7.82Z"/><path class="cls-66" d="M251.62,82.16h0a3.29,3.29,0,0,0-2.22.36c1.46,2,1.48,5.25,1.48,7.46,0,11.44-6.45,25.92-29.62,26.37l1.4,0c24.07,0,30.71-14.77,30.71-26.39C253.36,87.64,253.36,84.07,251.62,82.16Z"/><path class="cls-67" d="M249.21,74.05v3.33a1.6,1.6,0,0,0,.88,1.46c1.66.81,1.83,2.46,2.44,3.67a2.73,2.73,0,0,0-.91-.35h0a3.64,3.64,0,0,0-3.44,1.29.85.85,0,0,1-1.23,0,5,5,0,0,0-3.61-1.85,2.78,2.78,0,0,0-.76.09A5.34,5.34,0,0,1,245,78.84a1.61,1.61,0,0,0,.89-1.47V74.05c0-3.81,1.91-5.77,5.68-5.81a1.73,1.73,0,0,1,1.77,1.4A1.64,1.64,0,0,1,253,71a1.69,1.69,0,0,1-1.26.58c-2.13,0-2.49.62-2.49,2.49Z"/><path class="cls-68" d="M228.87,102.88a18.66,18.66,0,0,1-7.32,1.88l-1,.07-.39-.08s-4.14-.83-4.14-5.81v-.25c.2-4.7,5.79-4,5-10.54C221,88.15,232.7,92.05,228.87,102.88Z"/><path class="cls-69" d="M234.08,97.27a11.46,11.46,0,0,1-5.21,5.61C232.7,92.05,221,88.15,221,88.15c.82,6.53-4.77,5.84-5,10.54h0a8.3,8.3,0,0,1-4.15-.58s-4.15-1.66-2.49-8.3c0,0,1.66,4.15,5,1.66,1.09-.82,1.28-2.28,1-3.87a23.15,23.15,0,0,0-2.71-6.91s10-.83,14.93,5.8c0,0,2.49-.83,1.66-4.14,0,0,5.07,1.68,5.46,8.75A20.69,20.69,0,0,1,234.08,97.27Z"/><path class="cls-65" d="M234.81,91.1h-.06c-.39-7.07-5.46-8.75-5.46-8.75.83,3.31-1.66,4.14-1.66,4.14-5-6.63-14.93-5.8-14.93-5.8a23.15,23.15,0,0,1,2.71,6.91h0a10.28,10.28,0,0,1-8.51-.28s-1.66-.83-1.66-4.15a14,14,0,0,1,2.49-8.29s.83,2.49,5,2.49c0,0,6.63,0,4.15-9.13,0,0,9.12,2.49,10.78,10,0,0,2.49-.83,2.49-5.81C230.12,72.39,241.27,76.1,234.81,91.1Z"/><path class="cls-66" d="M225.14,78.2a3.66,3.66,0,0,0,1.82-2c-2.67-5.9-10.11-7.93-10.11-7.93.1.37.18.73.25,1.07C219.93,70.66,224.08,73.4,225.14,78.2Z"/><path class="cls-66" d="M230.12,72.39a12.16,12.16,0,0,1-.07,1.34c2.43,1.8,5.56,5.68,3.72,13.12a11.77,11.77,0,0,1,1,4.25h.06c6.46-15-4.69-18.71-4.69-18.71Z"/><path d="M253.28,82.14c-.14-.29-.26-.59-.37-.89a5,5,0,0,0-2.45-3.15.78.78,0,0,1-.42-.72V74.05c0-1.47.06-1.66,1.66-1.66a2.49,2.49,0,0,0,2.46-2.87,2.56,2.56,0,0,0-2.6-2.11c-4.25,0-6.5,2.34-6.5,6.64v3.32a.79.79,0,0,1-.41.72,6.06,6.06,0,0,0-2.82,3.22.76.76,0,0,0-.08.33c-1.67,1.46-2.62,4.14-3.32,9.06-1.54,10.75-6.52,15.7-16.67,16.54a65.88,65.88,0,0,1-10.88-.13c-3.12-.24-5-.38-5.94.49a1.68,1.68,0,0,0-.54,1.3c0,3.34,4.86,8.3,18.25,8.3,29.27,0,31.54-20.83,31.54-27.22,0-2,0-4.8-1-6.94A.83.83,0,0,0,253.28,82.14Zm-7.92-2.55a2.43,2.43,0,0,0,1.36-2.22V74.05c0-3.36,1.54-4.94,4.86-5a.93.93,0,0,1,.94.69.81.81,0,0,1-.19.67.83.83,0,0,1-.63.3c-2.78,0-3.32,1.21-3.32,3.32v3.33a2.45,2.45,0,0,0,1.35,2.21,2.91,2.91,0,0,1,1.4,1.68,4.74,4.74,0,0,0-3.58,1.6A6.1,6.1,0,0,0,244,80.82a3.29,3.29,0,0,1,1.36-1.23Zm-22.71,36c-12.54,0-16.59-4.47-16.59-6.64v-.08c.32-.39,2.74-.2,4.69-.06a66.85,66.85,0,0,0,11.14.14c10.93-.91,16.54-6.45,18.18-18,.74-5.2,1.69-7.54,3.45-8.5A4.32,4.32,0,0,1,246.33,84a1.62,1.62,0,0,0,1.2.54h0a1.71,1.71,0,0,0,1.21-.51,3,3,0,0,1,2.4-1.1c1.36,1.73,1.37,4.91,1.37,7,0,6-2.16,25.56-29.88,25.56Z"/><path d="M228.85,103a.84.84,0,0,0,1-.56c3.3-11-8.51-15-8.63-15.07a.83.83,0,0,0-.79.14.85.85,0,0,0-.3.75c.4,3.21-.85,4.35-2.31,5.66-1.25,1.13-2.67,2.41-2.67,5a6.39,6.39,0,0,0,4.81,6.62.44.44,0,0,0,.16,0,.83.83,0,0,0,.17-1.64c-.14,0-3.48-.79-3.48-5,0-1.87.93-2.72,2.12-3.79s2.92-2.63,2.93-5.73c2.66,1.24,8.69,5,6.4,12.54A.85.85,0,0,0,228.85,103Z"/><path d="M222,97.3a.83.83,0,0,0-1,.65c-.77,3.9,1.69,5.59,3.11,6l.19,0a.84.84,0,0,0,.83-.72.83.83,0,0,0-.62-.91c-.26-.07-2.53-.78-1.88-4a.83.83,0,0,0-.65-1Z"/><path d="M234.1,97.26a.82.82,0,0,0,1-.63c2.62-12.21-5.44-15-5.52-15.07a.83.83,0,0,0-1.07,1c.41,1.66-.17,2.5-.64,2.88-5.31-6.32-14.81-5.61-15.22-5.57a.82.82,0,0,0-.67.44.86.86,0,0,0,0,.81c1.19,2,4.09,8,1.88,9.7a2.28,2.28,0,0,1-1.93.58,3.42,3.42,0,0,1-1.78-1.88.83.83,0,0,0-1.58.1c-1.81,7.26,2.94,9.25,3,9.27a.81.81,0,0,0,.31.06.83.83,0,0,0,.31-1.6c-.12,0-2.67-1.18-2.33-5.36a3.51,3.51,0,0,0,5,.16c3.08-2.31.6-8-.76-10.65,2.78,0,9.28.7,12.88,5.5a.83.83,0,0,0,.93.29,3.71,3.71,0,0,0,2.39-3.47c1.84,1.27,4.85,4.63,3.17,12.47a.83.83,0,0,0,.64,1Z"/><path d="M206.52,88.07a.73.73,0,0,0,.36.08.82.82,0,0,0,.73-.44.85.85,0,0,0-.33-1.12c-.05,0-1.22-.73-1.22-3.42a13,13,0,0,1,1.69-6.76,6.47,6.47,0,0,0,4.95,1.79A5.8,5.8,0,0,0,217,76.05c1.18-1.54,1.51-3.73,1-6.53,2.5,1,7.67,3.66,8.83,8.86a.81.81,0,0,0,.4.54.83.83,0,0,0,.67.06c.12,0,2.6-.92,3-5.33,1.89,1,5.62,3.88,5,10.28a.85.85,0,0,0,.35.76.84.84,0,0,0,1.31-.61c.88-9.67-7.12-12.45-7.2-12.48a.83.83,0,0,0-1.1.79c0,2.49-.64,3.77-1.18,4.42-2.37-6.93-10.67-9.27-11.05-9.37a.82.82,0,0,0-.8.21.86.86,0,0,0-.22.81c.82,3,.7,5.19-.34,6.57a4.2,4.2,0,0,1-3,1.51c-3.44,0-4.17-1.86-4.2-1.93a.84.84,0,0,0-.67-.56.82.82,0,0,0-.8.37,14.78,14.78,0,0,0-2.63,8.75C204.4,86.9,206.3,88,206.52,88.07Z"/><path class="cls-70" d="M242.23,94h-.16a.83.83,0,0,1-.65-1c.11-.58.21-1.19.3-1.81a.81.81,0,0,1,.51-.65.83.83,0,0,1,1.13.89c-.09.65-.2,1.28-.32,1.89A.82.82,0,0,1,242.23,94Z"/><path class="cls-70" d="M234.32,108.14a.83.83,0,0,1-.49-1.5c3.22-2.37,5.45-5.78,6.82-10.42a.85.85,0,0,1,.6-.59.84.84,0,0,1,1,1.06c-1.48,5-3.9,8.69-7.43,11.28A.79.79,0,0,1,234.32,108.14Z"/></g><text class="cls-12" transform="translate(43.17 81.89)">Extreme<tspan x="-7.2" y="18" xml:space="preserve"> hot stress</tspan></text><path class="cls-71" d="M193.2,357a14.3,14.3,0,1,1-.15-2.06A14,14,0,0,1,193.2,357Z"/><path class="cls-72" d="M193.2,357A14.28,14.28,0,0,1,168,366.24a13.84,13.84,0,0,1-.15-2.05,14.29,14.29,0,0,1,25.16-9.26A14,14,0,0,1,193.2,357Z"/><path class="cls-73" d="M206.77,371a3,3,0,1,1-3-3A3,3,0,0,1,206.77,371Z"/><path class="cls-73" d="M183,371a3,3,0,1,1-3-3A3,3,0,0,1,183,371Z"/><path class="cls-74" d="M210.58,402v11.38h-37.3V402a18.65,18.65,0,1,1,37.3,0Z"/><path class="cls-75" d="M201.57,402.89h9v10.47h-9Z"/><path class="cls-75" d="M173.28,402.89h9v10.47h-9Z"/><path class="cls-75" d="M201.53,386a11.75,11.75,0,0,1-19.28,0,18.68,18.68,0,0,1,19.28,0Z"/><path class="cls-76" d="M181,360.64v13.29a10.92,10.92,0,1,0,21.83,0V360.64Z"/><path class="cls-75" d="M202.85,360.64v13.29a10.93,10.93,0,0,1-10.92,10.92,10.79,10.79,0,0,1-1.72-.14,10.92,10.92,0,0,0,9.19-10.78V360.64Z"/><path class="cls-77" d="M191.93,352.06a12.65,12.65,0,0,0-12.66,12.65v4.5s10.59-.78,14.64-5.16c1.24,2,4.11,4.67,10.68,4.67v-4A12.65,12.65,0,0,0,191.93,352.06Z"/><path class="cls-78" d="M204.59,364.71v4a19.66,19.66,0,0,1-3.73-.33v-3.68a12.66,12.66,0,0,0-10.79-12.52,12.71,12.71,0,0,1,14.52,12.52Z"/><path class="cls-79" d="M205.85,360.44a3,3,0,0,1-6,0c0-1.09,1.3-3.22,2.19-4.56a1,1,0,0,1,1.64,0C204.55,357.22,205.85,359.35,205.85,360.44Z"/><path class="cls-80" d="M205.85,360.44a3,3,0,0,1-3,3,3.06,3.06,0,0,1-1.18-.23,3,3,0,0,0,1.83-2.77c0-.95-1-2.7-1.82-4l.34-.54a1,1,0,0,1,1.65,0C204.55,357.22,205.85,359.35,205.85,360.44Z"/><path class="cls-79" d="M211,391a3,3,0,0,1-6,0c0-1.09,1.29-3.22,2.18-4.56a1,1,0,0,1,1.64,0C209.71,387.77,211,389.9,211,391Z"/><path class="cls-80" d="M211,391a3,3,0,0,1-3,3,3.06,3.06,0,0,1-1.17-.24,3,3,0,0,0,1.83-2.76c0-.95-1-2.7-1.83-4l.35-.54a1,1,0,0,1,1.64,0C209.71,387.77,211,389.9,211,391Z"/><path class="cls-79" d="M184.12,377.36a3,3,0,0,1-6,0c0-1.09,1.29-3.22,2.18-4.56a1,1,0,0,1,1.64,0C182.83,374.14,184.12,376.27,184.12,377.36Z"/><path class="cls-80" d="M184.12,377.36a3,3,0,0,1-3,3,2.85,2.85,0,0,1-1.17-.24,3,3,0,0,0,1.83-2.76c0-.95-1-2.7-1.83-4l.35-.54a1,1,0,0,1,1.64,0C182.83,374.14,184.12,376.27,184.12,377.36Z"/><path d="M178.92,338.91a1.18,1.18,0,0,0,1.18-1.19v-3.07a1.19,1.19,0,1,0-2.37,0v3.07A1.19,1.19,0,0,0,178.92,338.91Z"/><path d="M168.25,340.9a1.19,1.19,0,0,0,1,.59,1.18,1.18,0,0,0,1-1.78l-1.54-2.66a1.18,1.18,0,1,0-2.05,1.18Z"/><path d="M162.83,346.33l-2.67-1.54a1.18,1.18,0,0,0-1.62.43,1.2,1.2,0,0,0,.43,1.63l2.67,1.53a1.16,1.16,0,0,0,.59.16,1.19,1.19,0,0,0,.6-2.21Z"/><path d="M160.84,357a1.19,1.19,0,0,0-1.19-1.19h-3.08a1.19,1.19,0,0,0,0,2.37h3.08A1.18,1.18,0,0,0,160.84,357Z"/><path d="M195.6,348.54a1.14,1.14,0,0,0,.59-.16l2.67-1.53a1.2,1.2,0,0,0,.43-1.63,1.18,1.18,0,0,0-1.62-.43L195,346.33a1.19,1.19,0,0,0,.6,2.21Z"/><path d="M161.64,365.59,159,367.13a1.19,1.19,0,0,0,.6,2.22,1.27,1.27,0,0,0,.59-.16l2.67-1.54a1.19,1.19,0,0,0-1.19-2.06Z"/><path d="M188,341.33a1.17,1.17,0,0,0,.6.16,1.19,1.19,0,0,0,1-.59l1.53-2.67a1.18,1.18,0,1,0-2.05-1.18l-1.54,2.66A1.19,1.19,0,0,0,188,341.33Z"/><path d="M169.88,372.64a1.19,1.19,0,0,0-1.63.44l-1.53,2.66a1.18,1.18,0,0,0,.43,1.62,1.16,1.16,0,0,0,.59.16,1.19,1.19,0,0,0,1-.59l1.54-2.67A1.18,1.18,0,0,0,169.88,372.64Z"/><path d="M210.58,409.93a1.2,1.2,0,0,0-1.19,1.19v2.24a1.19,1.19,0,1,0,2.38,0v-2.24A1.19,1.19,0,0,0,210.58,409.93Z"/><path d="M182.29,397.15a1.19,1.19,0,0,0-1.19,1.19v3.36h-6.63a17.41,17.41,0,0,1,1.58-7,1.19,1.19,0,0,0-2.16-1,19.76,19.76,0,0,0-1.8,8.27v11.38a1.19,1.19,0,1,0,2.38,0v-9.28h6.63v9.28a1.19,1.19,0,1,0,2.38,0v-15A1.19,1.19,0,0,0,182.29,397.15Z"/><path d="M212.19,391c0-.41,0-1.64-2.38-5.22a2.17,2.17,0,0,0-3.62,0c-.37.56-.68,1.06-.94,1.5a20.1,20.1,0,0,0-6-3.73,12,12,0,0,0,4.7-8.38,4.16,4.16,0,0,0,1.8-7.81v-2.64c0-.41,0-.82-.05-1.23a4.15,4.15,0,0,0,1.31-3c0-.4,0-1.63-2.37-5.22a2.17,2.17,0,0,0-1.81-1,2.14,2.14,0,0,0-1.34.47,13.87,13.87,0,0,0-8.36-3.8,15.48,15.48,0,1,0-27.5,14,1.2,1.2,0,0,0,1.64.4,1.18,1.18,0,0,0,.4-1.63,13.09,13.09,0,1,1,22.84-12.79,13.85,13.85,0,0,0-12.44,13.77v2.64a4.17,4.17,0,0,0-2,2.43,13,13,0,0,1-5.26-2.49,1.19,1.19,0,0,0-1.67.21,1.18,1.18,0,0,0,.2,1.66,15.46,15.46,0,0,0,6.71,3,4.13,4.13,0,0,0,1.79,2.33,5.83,5.83,0,0,0-.94,2.83,4.2,4.2,0,0,0,4.19,4.19,4.25,4.25,0,0,0,1.25-.19,12.11,12.11,0,0,0,2.22,2.19,19.63,19.63,0,0,0-7.67,5.46,1.19,1.19,0,0,0,.9,2,1.2,1.2,0,0,0,.9-.41,18.15,18.15,0,0,1,3.26-2.94,12.95,12.95,0,0,0,19.83,0,17,17,0,0,1,2.33,1.91,3.84,3.84,0,0,0-.33,1.5,4.2,4.2,0,0,0,4.19,4.19h0a17.07,17.07,0,0,1,1.37,6.52h-6.63v-3.36a1.19,1.19,0,0,0-2.38,0v15a1.19,1.19,0,1,0,2.38,0v-9.28h6.63V406a1.19,1.19,0,1,0,2.38,0v-4a19.49,19.49,0,0,0-1.47-7.49A4.19,4.19,0,0,0,212.19,391Zm-20.26-7.33a9.74,9.74,0,0,1-7.58-3.64,4.14,4.14,0,0,0,1-2.66c0-.36,0-1.39-1.71-4.17a4.18,4.18,0,0,0,.42-3.47c3.1-.63,7.07-1.79,9.71-3.89,1.43,1.69,3.85,3.35,7.93,3.9v4.2A9.75,9.75,0,0,1,191.93,383.66ZM204,372.77v-2.86h.56a1.1,1.1,0,0,0,.51-.12,1.81,1.81,0,0,1,.48,1.21A1.79,1.79,0,0,1,204,372.77Zm.63-12.33a1.82,1.82,0,0,1-3.63,0c0-.33.39-1.46,1.82-3.65C204.27,359,204.66,360.11,204.66,360.44Zm-24.2,4.27a11.47,11.47,0,0,1,19.66-8c-1.46,2.48-1.46,3.42-1.46,3.76a4.2,4.2,0,0,0,4.19,4.19,3.39,3.39,0,0,0,.55,0v2.91c-5.08-.27-7.41-2.33-8.47-4.07a1.18,1.18,0,0,0-.9-.56,1.19,1.19,0,0,0-1,.37c-1.49,1.61-4.33,2.95-8.21,3.87a41.47,41.47,0,0,1-4.37.78v-3.18ZM178.28,371a1.82,1.82,0,0,1,.24-.88,1.16,1.16,0,0,0,.75.28h.09c.12,0,1-.07,2.26-.26a1.77,1.77,0,0,1,.23.87,1.36,1.36,0,0,1,0,.29,2.06,2.06,0,0,0-.7-.12,2.16,2.16,0,0,0-1.81,1l-.23.35A1.77,1.77,0,0,1,178.28,371Zm1,6.36c0-.33.38-1.46,1.81-3.65,1.43,2.19,1.81,3.32,1.81,3.65a1.81,1.81,0,0,1-3.62,0Zm12.57,12.49a10.56,10.56,0,0,1-7.82-3.46,17.1,17.1,0,0,1,3.28-1.26,12.15,12.15,0,0,0,9.18,0,17.26,17.26,0,0,1,3.21,1.22A10.57,10.57,0,0,1,191.88,389.85ZM206.19,391c0-.33.39-1.46,1.81-3.65,1.43,2.19,1.82,3.32,1.82,3.65a1.82,1.82,0,0,1-3.63,0Z"/><path d="M185.84,375.37l2.91-1.2a1.48,1.48,0,0,0,.88-1.43,1.5,1.5,0,0,0-.89-1.42l-2.9-1.18a.66.66,0,0,0-.86.49.83.83,0,0,0,.42,1l2.72,1.11-2.73,1.12a.84.84,0,0,0-.41,1,.69.69,0,0,0,.64.53A.57.57,0,0,0,185.84,375.37Z"/><path d="M198.15,370.63a.66.66,0,0,0-.86-.49l-2.9,1.18a1.59,1.59,0,0,0,0,2.85l2.91,1.2a.62.62,0,0,0,.23,0,.68.68,0,0,0,.63-.53.83.83,0,0,0-.41-1L195,372.75l2.73-1.11a.83.83,0,0,0,.41-1Z"/><text class="cls-1" transform="translate(52.38 387.98)">St<tspan class="cls-13" x="15.42" y="0">r</tspan><tspan x="21.68" y="0">ong</tspan><tspan class="cls-81"><tspan x="-17.7" y="18">heat </tspan><tspan class="cls-82" x="27.11" y="18">stress</tspan></tspan></text><path class="cls-71" d="M195.7,211.64a14.3,14.3,0,1,1-.15-2.06A14,14,0,0,1,195.7,211.64Z"/><path class="cls-72" d="M195.7,211.64a14.28,14.28,0,0,1-25.16,9.25,13.84,13.84,0,0,1-.15-2,14.29,14.29,0,0,1,25.16-9.26A14,14,0,0,1,195.7,211.64Z"/><path class="cls-73" d="M209.26,225.65a3,3,0,1,1-3-3A3,3,0,0,1,209.26,225.65Z"/><path class="cls-73" d="M185.53,225.65a3,3,0,1,1-3-3A3,3,0,0,1,185.53,225.65Z"/><path class="cls-74" d="M213.08,256.63V268h-37.3V256.63a18.65,18.65,0,1,1,37.3,0Z"/><path class="cls-75" d="M204.07,257.54h9V268h-9Z"/><path class="cls-75" d="M175.78,257.54h9V268h-9Z"/><path class="cls-75" d="M204,240.64a11.75,11.75,0,0,1-19.28,0,18.68,18.68,0,0,1,19.28,0Z"/><path class="cls-76" d="M183.52,215.29v13.29a10.91,10.91,0,1,0,21.82,0V215.29Z"/><path class="cls-75" d="M205.34,215.29v13.29a10.91,10.91,0,0,1-10.91,10.92,10.79,10.79,0,0,1-1.72-.14,10.9,10.9,0,0,0,9.18-10.78V215.29Z"/><path class="cls-77" d="M194.43,206.71a12.65,12.65,0,0,0-12.66,12.65v4.5s10.59-.78,14.64-5.16c1.24,2,4.11,4.67,10.68,4.67v-4A12.65,12.65,0,0,0,194.43,206.71Z"/><path class="cls-78" d="M207.09,219.36v4a19.66,19.66,0,0,1-3.73-.33v-3.68a12.66,12.66,0,0,0-10.79-12.52,12.71,12.71,0,0,1,14.52,12.52Z"/><path class="cls-79" d="M208.35,215.09a3,3,0,0,1-6,0c0-1.09,1.3-3.22,2.18-4.56a1,1,0,0,1,1.64,0C207.05,211.87,208.35,214,208.35,215.09Z"/><path class="cls-80" d="M208.35,215.09a3,3,0,0,1-3,3,3.05,3.05,0,0,1-1.17-.23,3,3,0,0,0,1.83-2.77c0-1-1-2.7-1.83-4l.35-.54a1,1,0,0,1,1.64,0C207.05,211.87,208.35,214,208.35,215.09Z"/><path class="cls-79" d="M213.5,245.64a3,3,0,0,1-6,0c0-1.09,1.29-3.22,2.18-4.56a1,1,0,0,1,1.64,0C212.21,242.42,213.5,244.55,213.5,245.64Z"/><path class="cls-80" d="M213.5,245.64a3,3,0,0,1-3,3,3.06,3.06,0,0,1-1.17-.24,3,3,0,0,0,1.83-2.76c0-.95-1-2.7-1.83-4l.35-.54a1,1,0,0,1,1.64,0C212.21,242.42,213.5,244.55,213.5,245.64Z"/><path class="cls-79" d="M186.62,232a3,3,0,0,1-6,0c0-1.09,1.29-3.22,2.18-4.56a1,1,0,0,1,1.64,0C185.33,228.79,186.62,230.92,186.62,232Z"/><path class="cls-80" d="M186.62,232a3,3,0,0,1-3,3,2.85,2.85,0,0,1-1.17-.24,3,3,0,0,0,1.83-2.76c0-.95-1-2.7-1.83-4l.35-.54a1,1,0,0,1,1.64,0C185.33,228.79,186.62,230.92,186.62,232Z"/><path d="M181.41,193.56a1.19,1.19,0,0,0,1.19-1.19V189.3a1.19,1.19,0,1,0-2.37,0v3.07A1.18,1.18,0,0,0,181.41,193.56Z"/><path d="M170.75,195.55a1.19,1.19,0,0,0,1,.59,1.18,1.18,0,0,0,1-1.78l-1.54-2.66a1.18,1.18,0,1,0-2.05,1.18Z"/><path d="M165.33,201l-2.67-1.54a1.18,1.18,0,0,0-1.62.43,1.2,1.2,0,0,0,.43,1.63l2.67,1.53a1.14,1.14,0,0,0,.59.16,1.19,1.19,0,0,0,.6-2.21Z"/><path d="M163.34,211.64a1.19,1.19,0,0,0-1.19-1.19h-3.08a1.19,1.19,0,0,0,0,2.38h3.08A1.19,1.19,0,0,0,163.34,211.64Z"/><path d="M198.1,203.19a1.16,1.16,0,0,0,.59-.16l2.67-1.53a1.2,1.2,0,0,0,.43-1.63,1.18,1.18,0,0,0-1.62-.43L197.5,201a1.19,1.19,0,0,0,.6,2.21Z"/><path d="M164.14,220.24l-2.67,1.54a1.19,1.19,0,0,0,.6,2.22,1.27,1.27,0,0,0,.59-.16l2.67-1.54a1.19,1.19,0,0,0-1.19-2.06Z"/><path d="M190.45,196a1.17,1.17,0,0,0,.6.16,1.16,1.16,0,0,0,1-.59l1.54-2.67a1.18,1.18,0,1,0-2.05-1.18L190,194.36A1.18,1.18,0,0,0,190.45,196Z"/><path d="M172.38,227.29a1.19,1.19,0,0,0-1.63.44l-1.53,2.66a1.18,1.18,0,0,0,.43,1.62,1.16,1.16,0,0,0,.59.16,1.19,1.19,0,0,0,1-.59l1.54-2.67A1.19,1.19,0,0,0,172.38,227.29Z"/><path d="M213.08,264.58a1.2,1.2,0,0,0-1.19,1.19V268a1.19,1.19,0,1,0,2.38,0v-2.24A1.19,1.19,0,0,0,213.08,264.58Z"/><path d="M184.79,251.81A1.18,1.18,0,0,0,183.6,253v3.36H177a17.41,17.41,0,0,1,1.58-7,1.19,1.19,0,0,0-2.16-1,19.8,19.8,0,0,0-1.8,8.27V268a1.19,1.19,0,0,0,2.38,0v-9.28h6.63V268a1.19,1.19,0,0,0,2.38,0V253A1.18,1.18,0,0,0,184.79,251.81Z"/><path d="M214.69,245.64c0-.41,0-1.64-2.38-5.22a2.17,2.17,0,0,0-3.62,0c-.37.56-.68,1.06-.94,1.5a20.1,20.1,0,0,0-6-3.73,12,12,0,0,0,4.7-8.38,4.16,4.16,0,0,0,1.8-7.81v-2.64c0-.41,0-.82-.05-1.23a4.15,4.15,0,0,0,1.31-3c0-.4,0-1.63-2.38-5.22a2.15,2.15,0,0,0-1.8-1,2.12,2.12,0,0,0-1.34.47,13.87,13.87,0,0,0-8.36-3.8,15.48,15.48,0,1,0-27.5,14,1.2,1.2,0,0,0,1,.57,1.13,1.13,0,0,0,.61-.17,1.18,1.18,0,0,0,.41-1.63A13.09,13.09,0,1,1,193,205.59a13.85,13.85,0,0,0-12.44,13.77V222a4.17,4.17,0,0,0-2,2.43,13.15,13.15,0,0,1-5.26-2.48,1.19,1.19,0,1,0-1.47,1.86,15.46,15.46,0,0,0,6.71,3,4.19,4.19,0,0,0,1.79,2.34,5.78,5.78,0,0,0-.94,2.82,4.2,4.2,0,0,0,4.19,4.19,4.25,4.25,0,0,0,1.25-.19,12.38,12.38,0,0,0,2.21,2.19,19.67,19.67,0,0,0-7.66,5.46,1.18,1.18,0,0,0,.12,1.67,1.15,1.15,0,0,0,.78.29,1.2,1.2,0,0,0,.9-.41,18.15,18.15,0,0,1,3.26-2.94,12.95,12.95,0,0,0,19.83,0,17,17,0,0,1,2.33,1.92,3.77,3.77,0,0,0-.33,1.49,4.2,4.2,0,0,0,4.19,4.19h0a17.46,17.46,0,0,1,1.37,6.52h-6.63V253a1.19,1.19,0,0,0-2.38,0v15a1.19,1.19,0,1,0,2.38,0v-9.28h6.63v1.87a1.19,1.19,0,1,0,2.38,0v-4a19.49,19.49,0,0,0-1.47-7.49A4.19,4.19,0,0,0,214.69,245.64Zm-20.26-7.33a9.74,9.74,0,0,1-7.58-3.64,4.14,4.14,0,0,0,1-2.66c0-.36,0-1.39-1.71-4.17a4.18,4.18,0,0,0,.42-3.47c3.1-.63,7.07-1.79,9.71-3.89,1.43,1.69,3.85,3.35,7.93,3.9v4.2A9.75,9.75,0,0,1,194.43,238.31Zm12.1-10.89v-2.86h.56a1.13,1.13,0,0,0,.51-.12,1.81,1.81,0,0,1,.48,1.21A1.79,1.79,0,0,1,206.53,227.42Zm.63-12.33a1.82,1.82,0,1,1-3.63,0c0-.33.39-1.46,1.81-3.65C206.77,213.63,207.16,214.76,207.16,215.09ZM183,219.36a11.47,11.47,0,0,1,19.66-8c-1.46,2.48-1.46,3.42-1.46,3.76a4.2,4.2,0,0,0,4.19,4.19,3.39,3.39,0,0,0,.55,0v2.91c-5.08-.27-7.41-2.33-8.47-4.07a1.2,1.2,0,0,0-1.89-.19c-1.49,1.61-4.33,3-8.21,3.87a41.47,41.47,0,0,1-4.37.78v-3.18Zm-2.18,6.29a1.82,1.82,0,0,1,.24-.88,1.16,1.16,0,0,0,.75.28h.09c.12,0,1-.07,2.26-.26a1.76,1.76,0,0,1,.22.87,1.37,1.37,0,0,1,0,.29,2.06,2.06,0,0,0-.7-.12,2.16,2.16,0,0,0-1.81,1l-.23.35A1.77,1.77,0,0,1,180.78,225.65Zm1,6.36c0-.33.39-1.46,1.82-3.65,1.42,2.19,1.81,3.32,1.81,3.65a1.82,1.82,0,0,1-3.63,0Zm12.57,12.49a10.54,10.54,0,0,1-7.81-3.46,17.1,17.1,0,0,1,3.28-1.26,12.15,12.15,0,0,0,9.18,0,17.53,17.53,0,0,1,3.21,1.22A10.58,10.58,0,0,1,194.37,244.5Zm14.32,1.14c0-.33.39-1.46,1.81-3.65,1.43,2.19,1.82,3.32,1.82,3.65a1.82,1.82,0,0,1-3.63,0Z"/><path d="M188.34,230l2.91-1.2a1.59,1.59,0,0,0,0-2.85l-2.9-1.18a.66.66,0,0,0-.86.49.83.83,0,0,0,.42,1l2.72,1.11-2.73,1.12a.84.84,0,0,0-.41,1,.69.69,0,0,0,.64.53A.57.57,0,0,0,188.34,230Z"/><path d="M200.65,225.28a.66.66,0,0,0-.86-.49l-2.9,1.18a1.59,1.59,0,0,0,0,2.85l2.91,1.2a.57.57,0,0,0,.22,0,.69.69,0,0,0,.64-.53.83.83,0,0,0-.41-1l-2.73-1.12,2.73-1.11a.83.83,0,0,0,.41-1Z"/><g id="filled_outline" data-name="filled outline"><path class="cls-83" d="M163.09,239.21a8.76,8.76,0,0,1,1.62,5.07V246a2.5,2.5,0,0,0,2.42-1.89l.18-.71.48.58a5.13,5.13,0,0,1,0,6.6,1.79,1.79,0,0,0,2.63,2.44l.14-.15,1.34-1.68,1.3,3.25a11.34,11.34,0,0,1-2.85,11.28l-.16.17a11.9,11.9,0,0,1-8.41,3.48h-1.32a11.9,11.9,0,0,1-9.17-19.47l5.25-6.36a4.37,4.37,0,0,0,.63-4.56,4.36,4.36,0,0,1,1.57-5.41l2.77-1.85v2.4a8.69,8.69,0,0,0,1.63,5.06Z"/><path class="cls-84" d="M166.26,265h0a8.06,8.06,0,0,0,2-7.9L166.4,259a1.91,1.91,0,0,1-2.71,0h0a1.92,1.92,0,0,1-.12-2.58,5.08,5.08,0,0,0,.64-5.52l-3.06-6.12-.47,5.18A4.58,4.58,0,0,1,159,253.1l-2.67,2.14A6.07,6.07,0,0,0,154,260v.74a6.07,6.07,0,0,0,6.13,6.06l1.87,0a6.06,6.06,0,0,0,4.25-1.79Z"/><path class="cls-85" d="M150.43,245.38a.65.65,0,0,1-.65-.65v-1.3a.65.65,0,0,1,1.3,0v1.3A.65.65,0,0,1,150.43,245.38Z"/><path class="cls-83" d="M152.37,242.13a.65.65,0,0,1-.64-.65v-1.29a.65.65,0,1,1,1.29,0v1.29A.65.65,0,0,1,152.37,242.13Z"/><path class="cls-86" d="M149.78,239.54a.65.65,0,0,1-.65-.65v-1.3a.65.65,0,0,1,1.3,0v1.3A.65.65,0,0,1,149.78,239.54Z"/><path class="cls-83" d="M172.5,247.33a.65.65,0,0,1-.65-.65v-1.3a.65.65,0,0,1,1.3,0v1.3A.65.65,0,0,1,172.5,247.33Z"/><path class="cls-85" d="M170.55,242.78a.65.65,0,0,1-.65-.65v-1.3a.65.65,0,0,1,1.3,0v1.3A.65.65,0,0,1,170.55,242.78Z"/><path class="cls-83" d="M173.15,240.83a.65.65,0,0,1-.65-.64v-1.95a.65.65,0,0,1,1.3,0v1.95A.65.65,0,0,1,173.15,240.83Z"/><path d="M173.77,254.28s0,0,0-.05l-1.3-3.25a.65.65,0,0,0-.84-.36.6.6,0,0,0-.27.2L170,252.49a1.14,1.14,0,0,1-1.61.18.39.39,0,0,1-.1-.08,1.15,1.15,0,0,1-.06-1.56,5.74,5.74,0,0,0,.05-7.44l-.48-.57a.64.64,0,0,0-.91-.09.61.61,0,0,0-.21.34l-.18.71a1.84,1.84,0,0,1-1.14,1.28v-1a9.34,9.34,0,0,0-1.75-5.45,8,8,0,0,1-1.5-4.68v-2.4a.65.65,0,0,0-.65-.65.66.66,0,0,0-.36.11l-2.77,1.85a5,5,0,0,0-1.81,6.21,3.7,3.7,0,0,1-.53,3.89l-5.25,6.36a12.54,12.54,0,0,0,9.67,20.53h1.32a12.47,12.47,0,0,0,8.87-3.68l.16-.16a12,12,0,0,0,3-11.93Zm-3.93,11-.16.17a11.18,11.18,0,0,1-8,3.29h-1.32a11.24,11.24,0,0,1-8.67-18.4L157,244a5,5,0,0,0,.72-5.23,3.72,3.72,0,0,1,1.34-4.61l1.76-1.18v1.19a9.33,9.33,0,0,0,1.75,5.44,8.06,8.06,0,0,1,1.5,4.69V246a.65.65,0,0,0,.65.65,3.15,3.15,0,0,0,2.87-1.86,4.43,4.43,0,0,1-.33,5.36,2.45,2.45,0,1,0,3.71,3.19l0-.06.65-.81.87,2.18A10.66,10.66,0,0,1,169.84,265.29Z"/><path d="M168.46,256.44a.64.64,0,0,0-.63.17L166,258.49a1.27,1.27,0,0,1-1.88-1.71,5.7,5.7,0,0,0,.72-6.22l-3.06-6.12a.64.64,0,0,0-1.22.23l-.48,5.18a4,4,0,0,1-1.47,2.75l-2.68,2.14a6.71,6.71,0,0,0-2.52,5.24v.74a6.72,6.72,0,0,0,6.72,6.71h.06l1.88,0a6.68,6.68,0,0,0,4.7-2h0a8.73,8.73,0,0,0,2.2-8.53A.63.63,0,0,0,168.46,256.44Zm-2.66,8.06h0a5.38,5.38,0,0,1-3.79,1.6l-1.88,0a5.42,5.42,0,0,1-5.47-5.36V260a5.43,5.43,0,0,1,2-4.23l2.68-2.14a5.28,5.28,0,0,0,2-3.64l.26-2.91,2,4.08a4.41,4.41,0,0,1-.56,4.81,2.57,2.57,0,0,0,3.79,3.46l1-1a7.43,7.43,0,0,1-2.1,6.12Z"/><path d="M149.78,243.43v1.3a.65.65,0,1,0,1.3,0v-1.3a.65.65,0,0,0-1.3,0Z"/><path d="M152.37,242.13a.65.65,0,0,0,.65-.65v-1.29a.65.65,0,1,0-1.29,0v1.29A.65.65,0,0,0,152.37,242.13Z"/><path d="M149.78,239.54a.65.65,0,0,0,.65-.65v-1.3a.65.65,0,0,0-1.3,0v1.3A.65.65,0,0,0,149.78,239.54Z"/><path d="M172.5,247.33a.65.65,0,0,0,.65-.65v-1.3a.65.65,0,0,0-1.3,0v1.3A.65.65,0,0,0,172.5,247.33Z"/><path d="M170.55,242.78a.65.65,0,0,0,.65-.65v-1.3a.65.65,0,0,0-1.3,0v1.3A.65.65,0,0,0,170.55,242.78Z"/><path d="M173.15,240.83a.65.65,0,0,0,.65-.64v-1.95a.65.65,0,0,0-1.3,0v1.95A.65.65,0,0,0,173.15,240.83Z"/></g><text class="cls-12" transform="translate(24.2 236.25)"><tspan class="cls-38">V</tspan><tspan x="11.97" y="0">ery st</tspan><tspan class="cls-13" x="60.65" y="0">r</tspan><tspan x="67.54" y="0">ong</tspan><tspan x="4.62" y="18">heat stress</tspan></text><text class="cls-12" transform="translate(337.81 1363.46)">St<tspan class="cls-13" x="16.96" y="0">a</tspan><tspan x="28.66" y="0">y at home</tspan></text><text class="cls-12" transform="translate(338.38 1219)">Intensify<tspan class="cls-87" x="71.53" y="0"> </tspan><tspan x="118.32" y="0">activit</tspan><tspan class="cls-88" x="170.13" y="0">y</tspan><tspan x="179.59" y="0">,</tspan><tspan class="cls-87" x="184.42" y="0"> </tspan><tspan x="231.21" y="0">p</tspan><tspan class="cls-13" x="243.34" y="0">r</tspan><tspan x="250.23" y="0">otect </tspan><tspan class="cls-17" x="0" y="26.4">e</tspan><tspan x="10.34" y="26.4">xtremities</tspan><tspan class="cls-89" x="94.24" y="26.4"> </tspan><tspan x="128.43" y="26.4">a</tspan><tspan class="cls-13" x="140.57" y="26.4">g</tspan><tspan x="152.27" y="26.4">ainst</tspan><tspan class="cls-89" x="192.16" y="26.4"> </tspan><tspan x="226.35" y="26.4">coolin</tspan><tspan class="cls-13" x="276.1" y="26.4">g</tspan><tspan x="287.79" y="26.4">, </tspan><tspan class="cls-90" x="0" y="52.8">w</tspan><tspan x="13.79" y="52.8">a</tspan><tspan class="cls-14" x="25.93" y="52.8">r</tspan><tspan x="33.7" y="52.8">mer</tspan><tspan class="cls-91" x="66.7" y="52.8"> </tspan><tspan x="75.84" y="52.8">clothin</tspan><tspan class="cls-13" x="130.19" y="52.8">g</tspan><tspan x="141.88" y="52.8">,</tspan><tspan class="cls-92" x="146.71" y="52.8"> </tspan><tspan x="155.85" y="52.8">reduce</tspan><tspan class="cls-91" x="215.41" y="52.8"> </tspan><tspan x="224.56" y="52.8">outdoor </tspan></text><text class="cls-12" transform="translate(338 1072.92)">Intensify<tspan class="cls-93" x="71.53" y="0"> </tspan><tspan x="118.51" y="0">activit</tspan><tspan class="cls-88" x="170.32" y="0">y</tspan><tspan x="179.78" y="0">,</tspan><tspan class="cls-93" x="184.61" y="0"> </tspan><tspan x="231.58" y="0">p</tspan><tspan class="cls-13" x="243.72" y="0">r</tspan><tspan x="250.61" y="0">otect </tspan><tspan class="cls-17" x="0" y="26.4">e</tspan><tspan x="10.34" y="26.4">xtremities</tspan><tspan class="cls-94" x="94.24" y="26.4"> </tspan><tspan x="128.62" y="26.4">a</tspan><tspan class="cls-13" x="140.76" y="26.4">g</tspan><tspan x="152.46" y="26.4">ainst</tspan><tspan class="cls-94" x="192.35" y="26.4"> </tspan><tspan x="226.73" y="26.4">coolin</tspan><tspan class="cls-13" x="276.47" y="26.4">g</tspan><tspan x="288.17" y="26.4">, </tspan><tspan class="cls-90" x="0" y="52.8">w</tspan><tspan x="13.79" y="52.8">a</tspan><tspan class="cls-14" x="25.93" y="52.8">r</tspan><tspan x="33.7" y="52.8">mer clothing</tspan></text><text class="cls-1" transform="translate(338.47 933.65)">Intensify<tspan class="cls-95" x="65.03" y="0"> </tspan><tspan x="77.12" y="0">activity</tspan><tspan class="cls-96" x="134.22" y="0"> </tspan><tspan x="146.3" y="0">and</tspan><tspan class="cls-95" x="177.13" y="0"> </tspan><tspan x="189.22" y="0">p</tspan><tspan class="cls-13" x="200.25" y="0">r</tspan><tspan x="206.51" y="0">otect</tspan><tspan class="cls-95" x="245.05" y="0"> </tspan><tspan x="257.14" y="0">face </tspan><tspan x="0" y="24">and </tspan><tspan class="cls-17" x="36.35" y="24">e</tspan><tspan x="45.75" y="24">xtremities a</tspan><tspan class="cls-13" x="138.57" y="24">g</tspan><tspan x="149.21" y="24">ainst cooling</tspan></text><text class="cls-12" transform="translate(338.08 790.92)">Use glo<tspan class="cls-13" x="65.65" y="0">v</tspan><tspan x="74.84" y="0">es and hat</tspan></text><text class="cls-97" transform="translate(231.96 21.33)">U<tspan class="cls-13" x="16.5" y="0">T</tspan><tspan x="28.44" y="0">CI (C)</tspan></text></g></g></svg>