<svg xmlns="http://www.w3.org/2000/svg" viewBox="0 0 658.43 1164.82"><defs><style>.cls-1{font-size:20px;}.cls-1,.cls-7{font-family:TwCenMT-Regular, Tw Cen MT;}.cls-2{fill:#e7a561;}.cls-3{fill:#cf914b;}.cls-4{fill:#f4dd45;}.cls-5{fill:#f1d333;}.cls-6{fill:#dd542e;}.cls-7{font-size:22px;}.cls-8{letter-spacing:-0.01em;}.cls-9{letter-spacing:0.02em;}.cls-10{fill:#c68a65;}.cls-11{fill:#ffcd69;}.cls-12{fill:#d82e3d;}.cls-13{fill:#c32430;}.cls-14{fill:#e4f6ff;}.cls-15{fill:#595959;}.cls-16{fill:#454545;}.cls-17{letter-spacing:-0.06em;}.cls-18{fill:#87a0af;}.cls-19{fill:#738c96;}.cls-20{fill:#f5fcff;}.cls-21{fill:#e7f6f9;}.cls-22{fill:#dcf2f6;}.cls-23{fill:#bae6ef;}.cls-24{fill:#656566;}.cls-25{fill:#545456;}.cls-26{fill:#f96989;}.cls-27{fill:#ed5a81;}.cls-28{fill:#dd4a78;}.cls-29{fill:#4fbae9;}.cls-29,.cls-30,.cls-31,.cls-32,.cls-33{stroke:#fff;}.cls-29,.cls-30,.cls-31,.cls-32,.cls-33,.cls-42,.cls-55,.cls-56{stroke-miterlimit:10;}.cls-30{fill:#fcd313;}.cls-31{fill:#f37920;}.cls-32{fill:#ef5423;}.cls-33{fill:#951920;}.cls-34{letter-spacing:-0.03em;}.cls-35{fill:#fce3a0;}.cls-36{fill:#ffce71;}.cls-37{fill:#ffb357;}.cls-38{fill:#ff8e9e;}.cls-39{fill:#4c5659;}.cls-40{fill:#e6e9ed;}.cls-41{fill:#ffce54;}.cls-42{stroke:#000;stroke-width:0.5px;}.cls-43{letter-spacing:-0.02em;}.cls-44{letter-spacing:0.15em;}.cls-45{letter-spacing:0.15em;}.cls-46{letter-spacing:0.22em;}.cls-47{letter-spacing:0.04em;}.cls-48{letter-spacing:0.22em;}.cls-49{letter-spacing:-0.04em;}.cls-50{letter-spacing:-0.07em;}.cls-51{letter-spacing:-0.08em;}.cls-52{letter-spacing:1.19em;}.cls-53{letter-spacing:1.19em;}.cls-54{letter-spacing:0.82em;}.cls-55,.cls-56{fill:none;stroke:#231f20;}.cls-55{stroke-width:3px;}.cls-56{stroke-width:2px;}</style></defs><title>Asset 104</title><g id="Layer_2" data-name="Layer 2"><g id="_750_x_5766_px_Artboard_2" data-name="750 x 5766 px Artboard 2"><g id="Graphic_Elements" data-name="Graphic Elements"><text class="cls-1" transform="translate(249.6 990.81) rotate(-90)"><tspan xml:space="preserve">1 ~ 2                           3 ~ 4 ~ 5                         6 ~ 7                          8 ~ 9 ~ 10                          11             </tspan></text></g><g id="Text"><path class="cls-2" d="M116,752.77H88.4l-9.09-56.43h45.77Z"/><path class="cls-3" d="M120.82,696.34l-9.1,56.43H116l9.1-56.43Z"/><path class="cls-4" d="M116,752.77H88.4V767a2.05,2.05,0,0,0,2,2h23.48a2.05,2.05,0,0,0,2-2Z"/><path class="cls-5" d="M111.72,752.77V767a2,2,0,0,1-2,2h4.26a2.05,2.05,0,0,0,2-2V752.77Z"/><path class="cls-4" d="M80,700.52h44.43l.67-4.18H79.31Z"/><path class="cls-5" d="M120.15,700.52h4.26l.67-4.18h-4.26Z"/><path class="cls-2" d="M88.4,764.85H116V767a2.05,2.05,0,0,1-2,2H90.45a2.05,2.05,0,0,1-2-2Z"/><path class="cls-3" d="M116,764.85h-4.26V767a2,2,0,0,1-2,2h4.26a2,2,0,0,0,2-2Z"/><path class="cls-6" d="M107.61,764.85a5.7,5.7,0,0,0-10.83,0Z"/><circle class="cls-4" cx="102.19" cy="721.34" r="7.77"/><path d="M103.29,710.69v-1.86a1.1,1.1,0,0,0-2.2,0v1.86a1.1,1.1,0,0,0,2.2,0Z"/><path d="M110.5,714.58l1.31-1.31a1.1,1.1,0,0,0-1.55-1.55L109,713a1.09,1.09,0,0,0,0,1.55,1.1,1.1,0,0,0,1.55,0Z"/><path d="M114.7,722.44a1.1,1.1,0,0,0,0-2.2h-1.85a1.1,1.1,0,1,0,0,2.2Z"/><path d="M110.26,731a1.11,1.11,0,0,0,.78.32,1.1,1.1,0,0,0,.77-1.87l-1.31-1.32a1.1,1.1,0,1,0-1.55,1.56Z"/><path d="M101.09,732v1.85a1.1,1.1,0,0,0,2.2,0V732a1.1,1.1,0,0,0-2.2,0Z"/><path d="M93.35,731.28a1.13,1.13,0,0,0,.78-.32l1.31-1.31a1.1,1.1,0,0,0,0-1.56,1.12,1.12,0,0,0-1.56,0l-1.31,1.32a1.09,1.09,0,0,0,0,1.55A1.13,1.13,0,0,0,93.35,731.28Z"/><path d="M89.69,720.24a1.1,1.1,0,1,0,0,2.2h1.85a1.1,1.1,0,0,0,0-2.2Z"/><path d="M93.88,714.58A1.1,1.1,0,1,0,95.44,713l-1.31-1.31a1.1,1.1,0,0,0-1.56,0,1.09,1.09,0,0,0,0,1.55Z"/><path d="M125.92,695.63a1.12,1.12,0,0,0-.84-.38H79.31a1.09,1.09,0,0,0-1.09,1.27l9.08,56.34V757a1.1,1.1,0,1,0,2.2,0v-3.11h25.38v9.88h-6.53a6.79,6.79,0,0,0-12.32,0H89.5v-3.11a1.1,1.1,0,1,0-2.2,0V767a3.16,3.16,0,0,0,3.15,3.15h23.48a3.15,3.15,0,0,0,3.15-3.15V752.86l.82-5.06a1.1,1.1,0,1,0-2.17-.35l-.68,4.22H89.34l-8.07-50h41.85l-6.8,42.17a1.1,1.1,0,0,0,.91,1.26,1.11,1.11,0,0,0,1.26-.91l7.67-47.62a1.07,1.07,0,0,0-.24-.89ZM102.19,762a4.56,4.56,0,0,1,3.6,1.73h-7.2A4.59,4.59,0,0,1,102.19,762ZM90.45,768a1,1,0,0,1-1-1V766h25.38V767a.94.94,0,0,1-.95,1Zm33-68.54H80.91l-.31-2h43.19Z"/><path d="M111.06,721.34a8.87,8.87,0,0,0-17.45-2.24,1.11,1.11,0,0,0,.78,1.34,1.1,1.1,0,0,0,1.34-.79,6.68,6.68,0,1,1,0,3.15,1.1,1.1,0,1,0-2.14.48,8.87,8.87,0,0,0,17.52-1.94Z"/><path d="M105.18,752.19H104a6.3,6.3,0,0,0-3.69-4.18,11.73,11.73,0,0,0-5.3-1.19h-42a11.73,11.73,0,0,0-5.3,1.19,6.3,6.3,0,0,0-3.69,4.18h-1.2a1.08,1.08,0,0,0,0,2.15H44V763a9.21,9.21,0,0,0,6.71,8,10.53,10.53,0,0,0,2.93.41h0a11.8,11.8,0,0,0,3.73-.61c5.44-1.81,14.55-5.93,14.55-13.12a17.47,17.47,0,0,0,0-2.82,3.71,3.71,0,0,1,4.35,0,16.64,16.64,0,0,0,0,2.67c0,7.3,9.12,11.42,14.55,13.23a11.86,11.86,0,0,0,3.73.62,10.29,10.29,0,0,0,2.94-.42,9.24,9.24,0,0,0,6.71-8.06v-8.59h1a1.08,1.08,0,1,0,0-2.15Zm-55.09,5.06a1.07,1.07,0,0,1-.76.31,1.06,1.06,0,0,1-.76-.31,1.07,1.07,0,0,1,0-1.52l4.29-4.3A1.07,1.07,0,0,1,54.38,753ZM61.9,753l-7.52,7.52a1.06,1.06,0,0,1-.76.31,1.07,1.07,0,0,1-.76-1.83l7.52-7.52A1.07,1.07,0,0,1,61.9,753Zm9.65-.38A9,9,0,0,0,70,749h8.19a9,9,0,0,0-1.59,3.62A6,6,0,0,0,71.55,752.57Zm10,5a1.07,1.07,0,0,1-.76-1.83l4.3-4.3A1.07,1.07,0,0,1,86.61,753l-4.3,4.3A1.06,1.06,0,0,1,81.55,757.56ZM94.13,753l-7.52,7.52a1.07,1.07,0,0,1-.76.31,1.06,1.06,0,0,1-.76-.31,1.07,1.07,0,0,1,0-1.52l7.52-7.52A1.07,1.07,0,0,1,94.13,753Z"/><text class="cls-7" transform="translate(53.84 808.22)">Mode<tspan class="cls-8" x="51.1" y="0">r</tspan><tspan x="58.21" y="0">ate</tspan><tspan x="-23.96" y="18">45 mins to bu</tspan><tspan class="cls-9" x="93.73" y="18">r</tspan><tspan x="101.49" y="18">n</tspan></text><text class="cls-7" transform="translate(72.44 594.87)">High<tspan x="-47.67" y="18">30 mins to bu</tspan><tspan class="cls-9" x="70.01" y="18">r</tspan><tspan x="77.78" y="18">n</tspan></text><path class="cls-10" d="M113.05,502.05a48.33,48.33,0,0,0-9.26-21.27A7.26,7.26,0,0,0,93.74,480,8.84,8.84,0,0,1,81,480a7.24,7.24,0,0,0-10,.81,48.35,48.35,0,0,0-9.27,21.27C76.39,512.78,98.38,512.78,113.05,502.05Z"/><path class="cls-11" d="M111.51,495.6c-14.12,9.3-34.14,9.3-48.26,0a42.36,42.36,0,0,0-1.54,6.45c14.68,10.73,36.67,10.73,51.34,0A42.36,42.36,0,0,0,111.51,495.6Z"/><path class="cls-10" d="M87.38,518.83a57.64,57.64,0,0,1-18.62-3.05,51,51,0,0,1-16.38-9.15,3.89,3.89,0,0,1,0-6.16,5.89,5.89,0,0,1,7.32,0c15.26,12.84,40.1,12.84,55.36,0a5.89,5.89,0,0,1,7.32,0,3.88,3.88,0,0,1,0,6.16A50.79,50.79,0,0,1,106,515.78a57.6,57.6,0,0,1-18.62,3.05Z"/><path d="M123.43,499.59a7.6,7.6,0,0,0-9.34-.06A49.9,49.9,0,0,0,105,480.09a8.28,8.28,0,0,0-5.93-3,8.76,8.76,0,0,0-6.43,2,7.17,7.17,0,0,1-10.58,0,8.75,8.75,0,0,0-6.43-2,8.29,8.29,0,0,0-5.93,3,49.73,49.73,0,0,0-9.05,19.44,7.61,7.61,0,0,0-9.35.06,5,5,0,0,0,0,7.92,52.36,52.36,0,0,0,16.87,9.42,60.15,60.15,0,0,0,38.36,0,52.26,52.26,0,0,0,16.87-9.42,5,5,0,0,0,0-7.92ZM72.22,481.46a5.18,5.18,0,0,1,3.71-1.87,5.46,5.46,0,0,1,4,1.24,10.48,10.48,0,0,0,14.86,0,5.46,5.46,0,0,1,4-1.24,5.2,5.2,0,0,1,3.72,1.87,47.5,47.5,0,0,1,7.27,13.66,43.36,43.36,0,0,1-44.87,0A47,47,0,0,1,72.22,481.46Zm49.11,24.29a49.28,49.28,0,0,1-15.88,8.87,56.61,56.61,0,0,1-36.13,0,49.22,49.22,0,0,1-15.89-8.87,2.77,2.77,0,0,1,0-4.39,4.21,4.21,0,0,1,5.22,0,43.4,43.4,0,0,0,21.83,9.5,1.5,1.5,0,0,0,1.72-1A1.3,1.3,0,0,0,81,508.39a40.78,40.78,0,0,1-17.69-6.85c.22-1.26.51-2.55.86-3.83a47.21,47.21,0,0,0,46.46,0c.35,1.28.64,2.57.86,3.83a40.69,40.69,0,0,1-17.68,6.85,1.29,1.29,0,0,0-1.21,1.44,1.48,1.48,0,0,0,1.71,1,43.32,43.32,0,0,0,21.82-9.49,4.21,4.21,0,0,1,5.22,0,2.77,2.77,0,0,1,0,4.39Z"/><path d="M87.39,508.86a1.67,1.67,0,0,0-1,.36,1.13,1.13,0,0,0,0,1.77,1.71,1.71,0,0,0,2.1,0,1.13,1.13,0,0,0,0-1.77A1.67,1.67,0,0,0,87.39,508.86Z"/><path class="cls-2" d="M130.7,543.45H113.26l-5.75-35.68h29Z"/><path class="cls-3" d="M133.76,507.77,128,543.45h2.69l5.76-35.68Z"/><path class="cls-4" d="M130.7,543.45H113.26v9a1.3,1.3,0,0,0,1.3,1.3h14.85a1.3,1.3,0,0,0,1.29-1.3Z"/><path class="cls-5" d="M128,543.45v9a1.3,1.3,0,0,1-1.3,1.3h2.7a1.3,1.3,0,0,0,1.29-1.3v-9Z"/><path class="cls-4" d="M107.94,510.41H136l.43-2.64H107.51Z"/><path class="cls-5" d="M133.34,510.41H136l.43-2.64h-2.7Z"/><path class="cls-2" d="M113.26,551.08H130.7v1.37a1.3,1.3,0,0,1-1.29,1.3H114.56a1.3,1.3,0,0,1-1.3-1.3Z"/><path class="cls-3" d="M130.7,551.08H128v1.37a1.3,1.3,0,0,1-1.3,1.3h2.7a1.3,1.3,0,0,0,1.29-1.3Z"/><path class="cls-6" d="M125.41,551.08a3.61,3.61,0,0,0-6.85,0Z"/><circle class="cls-4" cx="121.98" cy="523.57" r="4.91"/><path d="M122.68,516.84v-1.18a.7.7,0,0,0-1.39,0v1.18a.7.7,0,0,0,1.39,0Z"/><path d="M127.24,519.3l.83-.83a.69.69,0,0,0,0-1,.71.71,0,0,0-1,0l-.82.83a.68.68,0,0,0,0,1,.66.66,0,0,0,.49.2A.69.69,0,0,0,127.24,519.3Z"/><path d="M129.89,524.27a.7.7,0,1,0,0-1.39h-1.17a.7.7,0,0,0,0,1.39Z"/><path d="M127.08,529.66a.71.71,0,0,0,1,0,.71.71,0,0,0,0-1l-.83-.83a.7.7,0,0,0-1,1Z"/><path d="M121.29,530.31v1.17a.7.7,0,1,0,1.39,0v-1.17a.7.7,0,1,0-1.39,0Z"/><path d="M116.39,529.86a.7.7,0,0,0,.49-.2l.83-.83a.71.71,0,0,0,0-1,.69.69,0,0,0-1,0l-.83.83a.71.71,0,0,0,0,1A.71.71,0,0,0,116.39,529.86Z"/><path d="M114.08,522.88a.7.7,0,1,0,0,1.39h1.17a.7.7,0,0,0,0-1.39Z"/><path d="M116.73,519.3a.67.67,0,0,0,.49.2.66.66,0,0,0,.49-.2.69.69,0,0,0,0-1l-.83-.83a.69.69,0,0,0-1,1Z"/><path d="M137,507.32a.67.67,0,0,0-.52-.25H107.51a.7.7,0,0,0-.53.25.67.67,0,0,0-.15.56l5.74,35.62v2.61a.7.7,0,0,0,1.39,0v-2h16v6.25h-4.13a4.29,4.29,0,0,0-7.79,0H114v-2a.7.7,0,1,0-1.39,0v4a2,2,0,0,0,2,2h14.85a2,2,0,0,0,2-2v-9l.51-3.2a.68.68,0,0,0-.57-.79.69.69,0,0,0-.8.57l-.43,2.67H113.86l-5.11-31.65h26.46l-4.29,26.67a.68.68,0,0,0,.57.79.69.69,0,0,0,.8-.57l4.85-30.11a.67.67,0,0,0-.16-.56Zm-15,42a2.91,2.91,0,0,1,2.28,1.1h-4.55A2.9,2.9,0,0,1,122,549.29Zm-7.42,3.76a.6.6,0,0,1-.6-.6v-.67h16v.67a.6.6,0,0,1-.6.6Zm20.88-43.33H108.53l-.2-1.26h27.31Z"/><path d="M127.59,523.57a5.6,5.6,0,0,0-11-1.41.68.68,0,0,0,.49.84.69.69,0,0,0,.85-.49,4.22,4.22,0,1,1,0,2,.7.7,0,0,0-1.36.3,5.61,5.61,0,0,0,11.08-1.23Z"/><path d="M110.6,527.48h-.9a4.9,4.9,0,0,0-2.83-3.29,9.25,9.25,0,0,0-4.11-1l-9.59-.08h0L79.8,523l-9.59-.08a9,9,0,0,0-4.12.88,4.89,4.89,0,0,0-2.89,3.24h-.94a.84.84,0,0,0,0,1.67h.83L63,535.46a7.16,7.16,0,0,0,5.15,6.28,8.16,8.16,0,0,0,2.27.35h0a9.4,9.4,0,0,0,2.9-.46c4.23-1.37,11.33-4.51,11.38-10.12a13.69,13.69,0,0,0,0-2.19,2.87,2.87,0,0,1,3.37,0,12.92,12.92,0,0,0,0,2.09c0,5.69,7,9,11.19,10.41a9.15,9.15,0,0,0,2.89.5,7.84,7.84,0,0,0,2.28-.3,7.16,7.16,0,0,0,5.26-6.23l.07-6.69h.79a.84.84,0,0,0,0-1.67ZM67.82,531a.86.86,0,0,1-.59.24.84.84,0,0,1-.58-1.43L70,526.52a.83.83,0,0,1,1.18,0,.84.84,0,0,1,0,1.18ZM77,527.76l-5.88,5.81a.86.86,0,0,1-.59.24.84.84,0,0,1-.58-1.43l5.89-5.81A.83.83,0,1,1,77,527.76Zm7.49-.22a6.9,6.9,0,0,0-1.21-2.82l6.36.06a7.14,7.14,0,0,0-1.26,2.81A4.68,4.68,0,0,0,84.5,527.54Zm7.73,4a.88.88,0,0,1-.59-.25.85.85,0,0,1,0-1.19L95,526.75a.83.83,0,0,1,1.18,0,.84.84,0,0,1,0,1.18l-3.36,3.32A.86.86,0,0,1,92.23,531.5ZM102,528l-5.88,5.81a.86.86,0,0,1-.59.24.83.83,0,0,1-.59-.25.85.85,0,0,1,0-1.19l5.89-5.8a.82.82,0,0,1,1.17,0A.83.83,0,0,1,102,528Z"/><path class="cls-12" d="M120,288.84a31.28,31.28,0,0,1,5.94,43.83L76.14,294.78A31.28,31.28,0,0,1,120,288.84Z"/><path class="cls-13" d="M120,288.84a31.14,31.14,0,0,0-14.45-6.07,31.29,31.29,0,0,1,16.55,47l3.84,2.92A31.28,31.28,0,0,0,120,288.84Z"/><path class="cls-14" d="M120,288.84c5.23,4,1,18.35-9.48,32.09L91.56,306.52C102,292.78,114.75,284.86,120,288.84Z"/><path class="cls-15" d="M72.84,354.12H67.29l31.85-41.83,3.76,2.87Z"/><path class="cls-16" d="M96.55,315.7l3.74,2.84,2.61-3.38-3.76-2.87Z"/><path d="M132.32,352.94H75.23l27.89-36.15,6.66,5.07h0L125.2,333.6a1.16,1.16,0,0,0,1.64-.23,32.42,32.42,0,0,0,4.89-30.15,1.17,1.17,0,0,0-2.22.75,30.1,30.1,0,0,1-3.84,27L112.12,320.7c5.16-7,11.91-18.78,11.21-27.21a29.9,29.9,0,0,1,4.73,7,1.17,1.17,0,1,0,2.11-1,32.08,32.08,0,0,0-8.57-10.81l2-2.57a1.17,1.17,0,0,0-1.87-1.42l-2,2.57a32.49,32.49,0,0,0-44.53,6.85,1.18,1.18,0,0,0-.23.87,1.2,1.2,0,0,0,.45.77l15.42,11.74h0l6.65,5.07L75,342.13a1.16,1.16,0,0,0,.22,1.64,1.18,1.18,0,0,0,1.64-.22l22.56-29.62,1.89,1.44-29,37.57H69.66l4.78-6.28a1.17,1.17,0,0,0-1.87-1.42l-5.86,7.7H54.58a1.17,1.17,0,1,0,0,2.34h77.74a1.17,1.17,0,1,0,0-2.34ZM120,300.89c-1.67,5.64-5.11,12.14-9.73,18.39l-17.05-13c4.8-6.12,10.14-11.16,15.14-14.27s8.83-3.84,10.91-2.25S121.61,295.41,120,300.89Zm-5.41-14.05c-8.29,1.57-17.86,11.17-23.23,18L77.8,294.56a30.17,30.17,0,0,1,36.78-7.72Z"/><path class="cls-2" d="M73.39,344.58H60.31L56,317.83H77.7Z"/><path class="cls-3" d="M75.68,317.83l-4.31,26.75h2l4.31-26.75Z"/><path class="cls-4" d="M73.39,344.58H60.31v6.75a1,1,0,0,0,1,1H72.42a1,1,0,0,0,1-1Z"/><path class="cls-5" d="M71.37,344.58v6.75a1,1,0,0,1-1,1h2a1,1,0,0,0,1-1v-6.75Z"/><path class="cls-4" d="M56.32,319.81H77.38l.32-2H56Z"/><path class="cls-5" d="M75.36,319.81h2l.32-2h-2Z"/><path class="cls-2" d="M60.31,350.31H73.39v1a1,1,0,0,1-1,1H61.29a1,1,0,0,1-1-1Z"/><path class="cls-3" d="M73.39,350.31h-2v1a1,1,0,0,1-1,1h2a1,1,0,0,0,1-1Z"/><path class="cls-6" d="M69.42,350.31a2.7,2.7,0,0,0-5.14,0Z"/><circle class="cls-4" cx="66.85" cy="329.68" r="3.68"/><path d="M67.37,324.63v-.88a.52.52,0,1,0-1,0v.88a.52.52,0,1,0,1,0Z"/><path d="M70.79,326.48l.62-.62a.53.53,0,0,0,0-.74.52.52,0,0,0-.73,0l-.63.62a.53.53,0,0,0,0,.74.55.55,0,0,0,.37.15A.51.51,0,0,0,70.79,326.48Z"/><path d="M72.78,330.2a.52.52,0,1,0,0-1H71.9a.52.52,0,1,0,0,1Z"/><path d="M70.67,334.24a.55.55,0,0,0,.37.15.51.51,0,0,0,.37-.15.52.52,0,0,0,0-.73l-.62-.63a.52.52,0,0,0-.74.74Z"/><path d="M66.33,334.73v.88a.52.52,0,1,0,1,0v-.88a.52.52,0,0,0-1,0Z"/><path d="M62.66,334.39a.53.53,0,0,0,.37-.15l.62-.62a.52.52,0,1,0-.74-.74l-.62.63a.52.52,0,0,0,0,.73A.53.53,0,0,0,62.66,334.39Z"/><path d="M60.92,329.16a.52.52,0,1,0,0,1h.88a.52.52,0,0,0,0-1Z"/><path d="M62.91,326.48a.52.52,0,1,0,.74-.74l-.62-.62a.52.52,0,1,0-.74.74Z"/><path d="M78.1,317.5a.53.53,0,0,0-.4-.19H56a.53.53,0,0,0-.4.19.52.52,0,0,0-.11.42l4.3,26.7v2a.52.52,0,0,0,.52.52.52.52,0,0,0,.52-.52V345.1h12v4.69h-3.1a3.21,3.21,0,0,0-5.84,0h-3.1v-1.48a.52.52,0,0,0-.52-.52.53.53,0,0,0-.52.52v3a1.5,1.5,0,0,0,1.5,1.5H72.42a1.5,1.5,0,0,0,1.49-1.5v-6.71l.39-2.4a.52.52,0,0,0-.44-.59.5.5,0,0,0-.59.43l-.33,2H60.76l-3.83-23.73H76.77l-3.22,20a.51.51,0,0,0,.43.6.53.53,0,0,0,.6-.43l3.63-22.57a.49.49,0,0,0-.11-.42ZM66.85,349a2.2,2.2,0,0,1,1.71.83H65.15A2.16,2.16,0,0,1,66.85,349Zm-5.56,2.82a.46.46,0,0,1-.46-.45v-.5h12v.5a.45.45,0,0,1-.45.45Zm15.65-32.49H56.76l-.15-.94H77.09Z"/><path d="M71.06,329.68a4.21,4.21,0,0,0-8.28-1.06.52.52,0,0,0,1,.26,3.16,3.16,0,1,1,0,1.49.52.52,0,0,0-.62-.39.51.51,0,0,0-.39.62A4.22,4.22,0,0,0,64.2,333a4.26,4.26,0,0,0,2.65.94A4.22,4.22,0,0,0,71.06,329.68Z"/><path d="M110.28,339.21h-.75a4.07,4.07,0,0,0-2.39-2.72,7.61,7.61,0,0,0-3.43-.76H76.51a7.62,7.62,0,0,0-3.44.76,4.07,4.07,0,0,0-2.39,2.72H69.9a.7.7,0,1,0,0,1.39h.7v5.61a6,6,0,0,0,4.34,5.18,6.73,6.73,0,0,0,1.91.27h0a7.62,7.62,0,0,0,2.42-.4c3.52-1.17,9.43-3.84,9.42-8.5a11.24,11.24,0,0,0,0-1.83,2.4,2.4,0,0,1,2.81,0,12.12,12.12,0,0,0,0,1.74c0,4.73,5.91,7.4,9.44,8.57a7.53,7.53,0,0,0,2.42.4,6.71,6.71,0,0,0,1.9-.27,6,6,0,0,0,4.35-5.22V340.6h.66a.7.7,0,1,0,0-1.39Zm-35.71,3.27a.7.7,0,1,1-1-1l2.79-2.79a.7.7,0,0,1,1,1Zm7.66-2.78-4.88,4.87a.68.68,0,0,1-1,0,.69.69,0,0,1,0-1l4.87-4.88a.7.7,0,0,1,1,1Zm6.25-.25a5.75,5.75,0,0,0-1-2.33h5.31a5.83,5.83,0,0,0-1,2.35A3.92,3.92,0,0,0,88.48,339.45ZM95,342.69a.7.7,0,0,1-.49-1.19l2.79-2.79a.69.69,0,0,1,1,0,.71.71,0,0,1,0,1l-2.78,2.78A.7.7,0,0,1,95,342.69Zm8.15-3-4.87,4.87a.68.68,0,0,1-.49.21.67.67,0,0,1-.49-.21.68.68,0,0,1,0-1l4.87-4.88a.7.7,0,1,1,1,1Z"/><text class="cls-7" transform="translate(52.76 398.05)"><tspan class="cls-17">V</tspan><tspan x="11.97" y="0">ery High</tspan><tspan x="-23.99" y="18">20 mins to bu</tspan><tspan class="cls-9" x="93.69" y="18">r</tspan><tspan x="101.46" y="18">n</tspan></text><path class="cls-18" d="M70.53,114.4a6.17,6.17,0,0,0-3.27,3.44L57.74,145l5.87,2.35L74.3,118.59c-.38-2.29-1.36-4.19-3.77-4.19Z"/><path class="cls-19" d="M62,146l-4.25-1-.18.52a1.45,1.45,0,0,0,1.24,1.81l3.92.91a1.91,1.91,0,0,0,2.2-.94l9.63-23.08a33.16,33.16,0,0,0-.25-5.6l-11.21,26.9A1,1,0,0,1,62,146Z"/><path class="cls-18" d="M106.21,117.84c-.48-1.38-2.06-3.18-3.46-3.18-2.92,1.23-2.62,6.48-2.62,9.53l9.42,22.59,6.71-.7Z"/><path class="cls-19" d="M117.12,145.49l-9.7-27.65a6.23,6.23,0,0,0-3.27-3.44,3.53,3.53,0,0,0-1.4.26,7,7,0,0,1,2.26,3.18l9.49,27a.73.73,0,0,1-.62.9l-4.33,1,.2.49a1.92,1.92,0,0,0,2.2.94l3.93-.91A1.46,1.46,0,0,0,117.12,145.49Z"/><path class="cls-20" d="M101,152.5V124c0-4.35.15-7.85.93-10.35-2.8-.77-5.68-1.63-6.82-2.64H79.62c-1.27,1.12-4.67,2-7.73,2.89a7.62,7.62,0,0,0-1.36.51,20.46,20.46,0,0,1,2,9.59h0v28c1.16,1.75,10.15,2.11,14.81,2.11,6.61,0,13.61-1,13.61-1.61Z"/><path class="cls-21" d="M102.78,113.89l-.9-.25A22.55,22.55,0,0,0,99.75,124v27.83c0,.57-5.8,1.32-12.41,1.32A97.09,97.09,0,0,1,72.53,152v1c0,1.13,8.19,2.07,14.81,2.07s14.81-.94,14.81-2.07V124a20.46,20.46,0,0,1,2-9.59,7.72,7.72,0,0,0-1.37-.51Z"/><path class="cls-22" d="M87.34,115.35c3-1.27,8.18-2.94,6-5.23a21.22,21.22,0,0,0-6-.65c-3.58,0-5.86.43-7.12,1.11C80.22,112.88,85.21,114.44,87.34,115.35Z"/><path class="cls-23" d="M95.06,111a4.71,4.71,0,0,0-1.76-.88c.77,1.2-3,3-6,4.26a36,36,0,0,1-7.12-3.8,2.87,2.87,0,0,0-.6.42c-1.36,1.2,4.6,4,7.72,5.33,3.12-1.34,9.07-4.13,7.72-5.33Z"/><path d="M87.34,155.82a82.09,82.09,0,0,1-10-.62c-4-.53-5.69-1.16-5.69-2.18V140.19a.93.93,0,0,1,1.81,0v12.66a17.69,17.69,0,0,0,4.86,1,79,79,0,0,0,18.1,0,17.8,17.8,0,0,0,4.86-1v-1.44a.92.92,0,0,1,1.8,0V153c0,1-1.65,1.65-5.68,2.18a82.09,82.09,0,0,1-10,.62Zm14.81-6.6a.83.83,0,0,1-.9-.74V124a24.25,24.25,0,0,1,.88-6.88.94.94,0,0,1,1.09-.54.73.73,0,0,1,.66.88,23,23,0,0,0-.83,6.54v4.93L110.6,147a1,1,0,0,0,1.11.47l3.92-.92a.88.88,0,0,0,.54-.34.6.6,0,0,0,.08-.56l-3.93-11.2a.73.73,0,0,1,.62-.91.94.94,0,0,1,1.11.51l3.93,11.2a1.82,1.82,0,0,1-.23,1.67,2.69,2.69,0,0,1-1.63,1l-3.92.92a2.86,2.86,0,0,1-3.3-1.41l-5.85-14v15A.83.83,0,0,1,102.15,149.22ZM63.22,149a3.65,3.65,0,0,1-.74-.08L58.55,148a2.67,2.67,0,0,1-1.62-1,1.83,1.83,0,0,1-.24-1.67l9.7-27.66a7.46,7.46,0,0,1,5.21-4.44l1-.27a1,1,0,0,1,1.15.46.72.72,0,0,1-.57.93l-1,.27A5.77,5.77,0,0,0,68.12,118l-9.69,27.65a.62.62,0,0,0,.07.56.88.88,0,0,0,.54.34l3.93.92a1,1,0,0,0,1.1-.47l7.55-18.12V124a23,23,0,0,0-.83-6.54.75.75,0,0,1,.67-.88.94.94,0,0,1,1.09.54,24.25,24.25,0,0,1,.88,6.88v13.58a.93.93,0,0,1-1.81,0v-4.09l-5.84,14A2.73,2.73,0,0,1,63.22,149Zm32.5-38.5c1.11,1,4.57,1.93,7.35,2.69a7.42,7.42,0,0,1,5.21,4.44L113,131.09a.72.72,0,0,1-.62.9,1,1,0,0,1-.25,0,.89.89,0,0,1-.86-.53L106.55,118a5.77,5.77,0,0,0-4-3.46,42.49,42.49,0,0,1-6.73-2.21c-.57.73-2.15,2-6.63,4a2.18,2.18,0,0,1,.9,1.72v6.55a.92.92,0,0,1-1.8,0v-6.55a.91.91,0,0,0-.61-.81c-1.38-.57-3.4-1.47-5.19-2.42a11.23,11.23,0,0,1-3.54-2.49,16.1,16.1,0,0,1-2.09.84,1,1,0,0,1-1.18-.39.69.69,0,0,1,.48-1A9,9,0,0,0,79,110.5c1.32-1.17,4.14-1.76,8.39-1.76s7.06.59,8.38,1.76Zm-15.39,1c.17.4,1.66,1.72,7,4,1.29-.56,3-1.35,4.44-2.16,2.09-1.16,2.48-1.73,2.56-1.89-.6-.49-2.28-1.25-7-1.25s-6.41.76-7,1.25Zm5.21,13.92a.8.8,0,1,1,0-1.56.8.8,0,1,1,0,1.56Zm0-2.93a.8.8,0,1,1,0-1.56.8.8,0,1,1,0,1.56Zm0-2.93a.8.8,0,1,1,0-1.57.8.8,0,1,1,0,1.57Z"/><path class="cls-10" d="M100.65,90.12a19.59,19.59,0,0,0-5-9.34,4.58,4.58,0,0,0-5.43-.35,5.59,5.59,0,0,1-6.87,0,4.57,4.57,0,0,0-5.42.35,19.5,19.5,0,0,0-5,9.34C80.85,94.84,92.72,94.84,100.65,90.12Z"/><path class="cls-11" d="M99.81,87.29a29.19,29.19,0,0,1-26,0,16.32,16.32,0,0,0-.83,2.83c7.92,4.72,19.79,4.72,27.72,0A16.39,16.39,0,0,0,99.81,87.29Z"/><path class="cls-10" d="M86.79,97.49a37.5,37.5,0,0,1-10.05-1.34,29.5,29.5,0,0,1-8.85-4,1.52,1.52,0,0,1,0-2.7,3.75,3.75,0,0,1,4,0c8.24,5.64,21.65,5.64,29.89,0a3.75,3.75,0,0,1,4,0,1.52,1.52,0,0,1,0,2.7,29.44,29.44,0,0,1-8.84,4,37.5,37.5,0,0,1-10,1.34Z"/><path d="M106.25,89a4.86,4.86,0,0,0-5,0,20.49,20.49,0,0,0-4.89-8.54,4.89,4.89,0,0,0-3.2-1.31,5.37,5.37,0,0,0-3.47.88,4.52,4.52,0,0,1-5.72,0,5.38,5.38,0,0,0-3.47-.88,4.86,4.86,0,0,0-3.2,1.31A20.27,20.27,0,0,0,72.37,89a4.86,4.86,0,0,0-5,0,2,2,0,0,0,0,3.48,30.45,30.45,0,0,0,9.1,4.14,39.54,39.54,0,0,0,20.71,0,30.51,30.51,0,0,0,9.11-4.14,2,2,0,0,0,0-3.48Zm-27.65-8a3,3,0,0,1,2-.82,3.46,3.46,0,0,1,2.17.55,6.63,6.63,0,0,0,8,0A3.43,3.43,0,0,1,93,80.26a3.08,3.08,0,0,1,2,.82,20,20,0,0,1,3.92,6,28.09,28.09,0,0,1-24.22,0A19.63,19.63,0,0,1,78.6,81.08Zm26.52,10.67a28.78,28.78,0,0,1-8.58,3.89,37.21,37.21,0,0,1-19.5,0,28.66,28.66,0,0,1-8.58-3.89,1.09,1.09,0,0,1,0-1.93,2.7,2.7,0,0,1,2.82,0A26.31,26.31,0,0,0,83.07,94c.43.05.85-.15.92-.45s-.22-.58-.65-.63a25.21,25.21,0,0,1-9.56-3,15.06,15.06,0,0,1,.47-1.68,30.68,30.68,0,0,0,25.08,0,13.12,13.12,0,0,1,.46,1.68,25.29,25.29,0,0,1-9.54,3c-.44,0-.73.33-.65.63a.81.81,0,0,0,.92.45,26.39,26.39,0,0,0,11.78-4.17,2.7,2.7,0,0,1,2.82,0,1.09,1.09,0,0,1,0,1.93Z"/><path d="M86.79,93.11a1,1,0,0,0-.56.16.51.51,0,0,0-.24.39.5.5,0,0,0,.24.39,1,1,0,0,0,.56.16,1.06,1.06,0,0,0,.57-.16.48.48,0,0,0,.23-.39.5.5,0,0,0-.23-.39A1.06,1.06,0,0,0,86.79,93.11Z"/><path d="M99.86,101.56h-.45A2.18,2.18,0,0,0,98,100.23a5.49,5.49,0,0,0-2.07-.38H79.53a5.45,5.45,0,0,0-2.07.38A2.16,2.16,0,0,0,76,101.56h-.47a.35.35,0,1,0,0,.68H76V105a3.12,3.12,0,0,0,2.62,2.54,4.74,4.74,0,0,0,1.14.13h0a5.57,5.57,0,0,0,1.46-.19c2.12-.58,5.68-1.88,5.67-4.17a3.75,3.75,0,0,0,0-.89,1.74,1.74,0,0,1,1.7,0,5,5,0,0,0,0,.85c0,2.32,3.56,3.62,5.68,4.2a5.55,5.55,0,0,0,1.45.19,4.83,4.83,0,0,0,1.15-.13A3.11,3.11,0,0,0,99.46,105v-2.73h.4a.35.35,0,1,0,0-.68Zm-21.5,1.6a.45.45,0,0,1-.29.1.45.45,0,0,1-.3-.1.3.3,0,0,1,0-.48l1.68-1.36a.47.47,0,0,1,.59,0,.3.3,0,0,1,0,.48ZM83,101.8,80,104.18a.45.45,0,0,1-.3.1.43.43,0,0,1-.29-.1.29.29,0,0,1,0-.48l2.93-2.38a.47.47,0,0,1,.59,0A.29.29,0,0,1,83,101.8Zm3.77-.12a2.72,2.72,0,0,0-.63-1.15h3.2a2.71,2.71,0,0,0-.62,1.15A2.84,2.84,0,0,0,86.74,101.68Zm3.9,1.58a.45.45,0,0,1-.3-.1.3.3,0,0,1,0-.48L92,101.32a.47.47,0,0,1,.59,0,.3.3,0,0,1,0,.48l-1.68,1.36A.45.45,0,0,1,90.64,103.26Zm4.9-1.46-2.93,2.38a.45.45,0,0,1-.3.1.45.45,0,0,1-.29-.1.29.29,0,0,1,0-.48L95,101.32a.47.47,0,0,1,.59,0A.29.29,0,0,1,95.54,101.8Z"/><path class="cls-24" d="M135.6,101.14c-4,.25-7.19,3.13-7.07,6.4l.18,7.34a6.92,6.92,0,0,0,3.51-.21l-.19-7.35c-.06-1.7,1.59-3.18,3.67-3.32s4,1.2,4.07,3a1.57,1.57,0,0,0,1.8,1.32,1.68,1.68,0,0,0,1.71-1.54C143.16,103.41,139.72,100.89,135.6,101.14Z"/><path class="cls-25" d="M130.22,107.54c-.12-3.2,2.92-6,6.8-6.37a8.35,8.35,0,0,0-1.42,0c-4,.25-7.19,3.12-7.07,6.4l.18,7.34a6.71,6.71,0,0,0,1.69.12C130.18,106.1,130.22,107.74,130.22,107.54Z"/><path class="cls-26" d="M142.62,113.28a1.39,1.39,0,0,0-1.38,0,6.12,6.12,0,0,1-6.05-.08.82.82,0,0,0-.93.06,6.57,6.57,0,0,1-7.53.48.81.81,0,0,0-.94,0,6.16,6.16,0,0,1-6.3.7.81.81,0,0,0-.87.13,8.19,8.19,0,0,1-3,1.5.71.71,0,0,0-.53.92l14.79,33.43v.06a10.14,10.14,0,0,1,1.89-.18,10.38,10.38,0,0,1,1.9-.06v-.06l12.37-35.13a.65.65,0,0,0-.59-.84A8.49,8.49,0,0,1,142.62,113.28Z"/><path class="cls-27" d="M122.8,115a6,6,0,0,1-3.31-.51.81.81,0,0,0-.87.13,8.19,8.19,0,0,1-3,1.5.71.71,0,0,0-.53.92l14.79,33.43v.06a2.59,2.59,0,0,1,.59-.1Z"/><path class="cls-27" d="M127.67,114.23c-.94-.39-.94-.64-1.39-.63l4.82,36.78,1.39-.09,2.2-37.21c-.49,0-.66.56-2,1.11A6.82,6.82,0,0,1,127.67,114.23Z"/><path class="cls-27" d="M133.74,150.1l2.9-8.26,9.42-26.75a.65.65,0,0,0-.59-.84c-2.58-.45-2.7-1.16-3.54-1.16Z"/><path class="cls-28" d="M129.9,150.46l-10.85-36c-.43,0-.38.27-1.24.77a10.11,10.11,0,0,1-2.17.92.71.71,0,0,0-.53.92l4.55,10.28Z"/><path class="cls-24" d="M130.51,153.1a1.66,1.66,0,0,1-.45,0l.17,2.61A1.56,1.56,0,0,0,132,157a1.67,1.67,0,0,0,1.7-1.54l-.17-2.61A19.26,19.26,0,0,1,130.51,153.1Z"/><path class="cls-25" d="M131.89,155.43l-.15-2.41a8,8,0,0,1-1.68.06l.17,2.61c0,1.17,1.68,1.73,2.8,1A1.45,1.45,0,0,1,131.89,155.43Z"/><path class="cls-24" d="M134.9,151.53v0a1.7,1.7,0,0,1-1.73,1.56l-2.55.16a1.59,1.59,0,0,1-1.83-1.34v0a1.7,1.7,0,0,1,1.72-1.56l2.56-.16A1.59,1.59,0,0,1,134.9,151.53Z"/><path class="cls-25" d="M131.67,151.75h0a1.69,1.69,0,0,1,1.57-1.56l-2.73.17a1.7,1.7,0,0,0-1.72,1.56v0a1.59,1.59,0,0,0,1.83,1.34l2.73-.18A1.58,1.58,0,0,1,131.67,151.75Z"/><path d="M134.62,153.54a2.14,2.14,0,0,0,1.23-1.91h0a1.91,1.91,0,0,0-1.08-1.61l9.91-28.12a.65.65,0,0,0-.57-.82.9.9,0,0,0-1,.5l-5.55,15.75,5.13-23.17a10.34,10.34,0,0,0,2.73.85l-1.23,3.5a.64.64,0,0,0,.56.81.91.91,0,0,0,1-.5l1.48-4.21c.14-.39-.17-.78-.67-.83-1.17-.1-3.09-.56-3.76-1.33a.94.94,0,0,0-1.24-.07,5.06,5.06,0,0,1-6.13.06,1,1,0,0,0-1.25.09,4.78,4.78,0,0,1-1,.79l-.21-6a2.24,2.24,0,0,1,.81-1.75c1.82-1.65,5.19-.74,5.27,1.52.07,1.86,2.89,2.63,4.46,1.21a2,2,0,0,0,.7-1.54c-.13-3.72-3.95-6.52-8.52-6.24s-8,3.48-7.88,7.13v.44a.75.75,0,0,0,.85.62.79.79,0,0,0,.81-.73l0-.44c-.1-2.9,2.71-5.45,6.28-5.67s6.71,2,6.82,5a.69.69,0,0,1-.25.55c-.57.52-1.58.23-1.61-.44-.07-2.15-2.28-3.76-4.91-3.6s-4.55,2-4.47,4l.23,6.5a6.19,6.19,0,0,1-1.86.11l-.1-2.9a.74.74,0,0,0-.85-.63.78.78,0,0,0-.8.73l.08,2.36c-1.06-.48-1-.89-1.67-.86a1,1,0,0,0-.62.27,5.11,5.11,0,0,1-6.12.7,1,1,0,0,0-1.23.23c-.52.75-2.26,1.5-3.64,1.79a.83.83,0,0,0-.55.36c-.35.52-.84-1.48,14.85,34.25a1.9,1.9,0,0,0,.4,3.48l.07,2a1.87,1.87,0,0,0,.81,1.44c1.66,1.21,4.41.11,4.35-1.76ZM116,116.85a10.85,10.85,0,0,0,2.66-1.19l6.77,22.5Zm14.12,18.86a.78.78,0,0,0-.91-.57.76.76,0,0,0-.73.77l1.54,11.8-9.66-32.12a7.26,7.26,0,0,0,5.36-.73l2.34,17.86a.77.77,0,0,0,.91.57.76.76,0,0,0,.73-.77l-2.3-17.59a7.79,7.79,0,0,0,6.51-.4l-2,34.49Zm5.45-21.47a7.2,7.2,0,0,0,5.4.06l-7.37,33.28Zm-5.12,38.46c-1.06-.17-.88-1.44.19-1.5l2.6-.17a.84.84,0,0,1,.95.7h0a.9.9,0,0,1-.9.82A26.49,26.49,0,0,1,130.46,152.7Zm1.67,3.73a.82.82,0,0,1-.95-.7l-.06-1.69,1.86-.12.06,1.7A.89.89,0,0,1,132.13,156.43Z"/><path class="cls-2" d="M126.91,100.73H114.57L110.5,80.19H131Z"/><path class="cls-3" d="M129.08,80.19,125,100.73h1.9L131,80.19Z"/><path class="cls-4" d="M126.91,100.73H114.57v5.18a.85.85,0,0,0,.92.75H126a.85.85,0,0,0,.92-.75Z"/><path class="cls-5" d="M125,100.73v5.18a.86.86,0,0,1-.92.75H126a.85.85,0,0,0,.92-.75v-5.18Z"/><path class="cls-4" d="M110.8,81.71h19.88l.3-1.52H110.5Z"/><path class="cls-5" d="M128.77,81.71h1.91l.3-1.52h-1.9Z"/><path class="cls-2" d="M114.57,105.12h12.34v.79a.85.85,0,0,1-.92.75h-10.5a.85.85,0,0,1-.92-.75Z"/><path class="cls-3" d="M126.91,105.12H125v.79a.86.86,0,0,1-.92.75H126a.85.85,0,0,0,.92-.75Z"/><path class="cls-6" d="M123.16,105.12a2.76,2.76,0,0,0-4.84,0Z"/><ellipse class="cls-4" cx="120.74" cy="89.29" rx="3.48" ry="2.83"/><path d="M121.23,85.41v-.68a.5.5,0,0,0-1,0v.68a.5.5,0,0,0,1,0Z"/><path d="M124.46,86.83l.58-.48a.35.35,0,0,0,0-.57.6.6,0,0,0-.7,0l-.59.48a.36.36,0,0,0,0,.57.63.63,0,0,0,.35.11A.61.61,0,0,0,124.46,86.83Z"/><path d="M126.34,89.69a.45.45,0,0,0,.49-.4.45.45,0,0,0-.49-.4h-.83a.45.45,0,0,0-.49.4.45.45,0,0,0,.49.4Z"/><path d="M124.35,92.79a.61.61,0,0,0,.35.11.63.63,0,0,0,.35-.11.36.36,0,0,0,0-.57l-.59-.48a.6.6,0,0,0-.7,0,.36.36,0,0,0,0,.57Z"/><path d="M120.25,93.16v.68a.5.5,0,0,0,1,0v-.68a.5.5,0,0,0-1,0Z"/><path d="M116.78,92.9a.58.58,0,0,0,.35-.11l.59-.48a.36.36,0,0,0,0-.57.6.6,0,0,0-.7,0l-.58.48a.36.36,0,0,0,0,.57A.58.58,0,0,0,116.78,92.9Z"/><path d="M115.15,88.89a.45.45,0,0,0-.5.4.46.46,0,0,0,.5.4H116a.45.45,0,0,0,.49-.4.45.45,0,0,0-.49-.4Z"/><path d="M117,86.83a.63.63,0,0,0,.35.11.61.61,0,0,0,.35-.11.36.36,0,0,0,0-.57l-.59-.48a.59.59,0,0,0-.69,0,.36.36,0,0,0,0,.57Z"/><path d="M131.35,79.93a.53.53,0,0,0-.37-.14H110.5a.53.53,0,0,0-.37.14.32.32,0,0,0-.11.32l4.06,20.51v1.5a.5.5,0,0,0,1,0v-1.13h11.36v3.59H123.5a3.38,3.38,0,0,0-5.52,0h-2.92v-1.13a.5.5,0,0,0-1,0v2.32a1.3,1.3,0,0,0,1.41,1.14H126a1.3,1.3,0,0,0,1.41-1.14v-5.15l.37-1.84a.42.42,0,0,0-.41-.46.48.48,0,0,0-.56.33l-.31,1.54H115l-3.61-18.22H130.1l-3,15.35a.42.42,0,0,0,.41.45.48.48,0,0,0,.56-.33l3.44-17.33a.35.35,0,0,0-.12-.32Zm-10.61,24.16a2.26,2.26,0,0,1,1.61.63h-3.22A2.26,2.26,0,0,1,120.74,104.09Zm-5.25,2.17a.4.4,0,0,1-.43-.35v-.39h11.36v.39a.4.4,0,0,1-.43.35Zm14.77-25h-19l-.14-.72H130.4Z"/><path d="M124.71,89.29c0-1.78-1.78-3.23-4-3.23a3.92,3.92,0,0,0-3.84,2.41.4.4,0,0,0,.35.49.51.51,0,0,0,.6-.29,2.94,2.94,0,0,1,2.89-1.81,2.48,2.48,0,1,1,0,4.85,2.92,2.92,0,0,1-2.91-1.89.5.5,0,0,0-.59-.31.41.41,0,0,0-.37.48,3.17,3.17,0,0,0,1.37,1.8,4.54,4.54,0,0,0,2.5.72C122.93,92.51,124.71,91.07,124.71,89.29Z"/><text class="cls-7" transform="translate(60.72 196.44)">Extreme<tspan x="-32.31" y="18">10 mins to bu</tspan><tspan class="cls-9" x="85.37" y="18">r</tspan><tspan x="93.14" y="18">n</tspan></text></g></g><g id="_1366_x_3620_x_Artboard_1" data-name="1366 x 3620 x Artboard 1"><rect class="cls-29" x="99.71" y="947.66" width="207.28" height="23" transform="translate(-755.81 1162.51) rotate(-90)"/><rect class="cls-30" x="99.71" y="740.75" width="207.28" height="23" transform="translate(-548.9 955.6) rotate(-90)"/><rect class="cls-31" x="99.71" y="533.47" width="207.28" height="23" transform="translate(-341.62 748.32) rotate(-90)"/><rect class="cls-32" x="99.71" y="327.83" width="207.28" height="23" transform="translate(-135.98 542.68) rotate(-90)"/><rect class="cls-33" x="99.71" y="120.55" width="207.28" height="23" transform="translate(71.3 335.4) rotate(-90)"/><text class="cls-7" transform="translate(82.22 1004.56)">L<tspan class="cls-34" x="8.46" y="0">o</tspan><tspan x="18.81" y="0">w</tspan><tspan x="-50.87" y="18">60 mins to bu</tspan><tspan class="cls-9" x="66.81" y="18">r</tspan><tspan x="74.58" y="18">n</tspan></text><path class="cls-35" d="M122.42,920.05a5.77,5.77,0,0,0-1.57-.67,5.81,5.81,0,0,0-.66-1.56.91.91,0,0,0-1.56,0,5.81,5.81,0,0,0-.66,1.56,5.77,5.77,0,0,0-1.57.67.91.91,0,0,0,0,1.55,5.77,5.77,0,0,0,1.57.67,5.68,5.68,0,0,0,.66,1.56.91.91,0,0,0,1.56,0,5.68,5.68,0,0,0,.66-1.56,5.77,5.77,0,0,0,1.57-.67.91.91,0,0,0,0-1.55Z"/><path class="cls-36" d="M127.51,942.54a28.52,28.52,0,1,1-18.74-26.82A28.56,28.56,0,0,1,127.51,942.54Z"/><path class="cls-37" d="M90.05,942.54a28.57,28.57,0,0,1,18.72-26.82,28.56,28.56,0,1,0,0,53.64A28.56,28.56,0,0,1,90.05,942.54Z"/><path class="cls-38" d="M90,943.77c0,2.31-2.37,4.18-5.28,4.17s-5.25-1.89-5.25-4.21,2.37-4.18,5.28-4.17S90,941.45,90,943.77Z"/><path class="cls-38" d="M108,943.82c0,2.32,2.34,4.2,5.25,4.21s5.27-1.86,5.28-4.17-2.34-4.2-5.25-4.21S108,941.51,108,943.82Z"/><path class="cls-39" d="M103.21,940.59c0-2.63-1.89-2.88-4.23-2.88s-4.25.23-4.26,2.85a4.27,4.27,0,1,0,8.49,0Z"/><path class="cls-35" d="M83.91,961.41a9,9,0,0,0-2.57-1.09,9.68,9.68,0,0,0-1.09-2.58,1.49,1.49,0,0,0-2.55,0,9.07,9.07,0,0,0-1.09,2.58A9.07,9.07,0,0,0,74,961.41,1.49,1.49,0,0,0,74,964a9.68,9.68,0,0,0,2.58,1.09,9,9,0,0,0,1.09,2.57,1.49,1.49,0,0,0,2.55,0,9.61,9.61,0,0,0,1.09-2.57A9.61,9.61,0,0,0,83.91,964,1.49,1.49,0,0,0,83.91,961.41Z"/><path d="M99,946.19a5.38,5.38,0,0,0,5.11-5.6,3.25,3.25,0,0,0-1.7-3.19,7.53,7.53,0,0,0-3.39-.56c-1.79,0-5.11,0-5.12,3.72A5.39,5.39,0,0,0,99,946.19Zm-3.38-5.63c0-1.58.7-2,3.39-2s3.38.4,3.38,2a3.42,3.42,0,1,1-6.77,0Z"/><path d="M85.26,940.05a.87.87,0,0,0,.87-.86,1.64,1.64,0,1,1,3.28,0,.87.87,0,0,0,.86.87h0a.87.87,0,0,0,.86-.86,3.38,3.38,0,0,0-3.36-3.38h0a3.37,3.37,0,0,0-3.37,3.36.87.87,0,0,0,.86.86Z"/><path d="M107.66,940.12a.87.87,0,0,0,.87-.86,1.65,1.65,0,0,1,1.64-1.64h0a1.65,1.65,0,0,1,1.63,1.65.87.87,0,0,0,.86.87h0a.87.87,0,0,0,.86-.86,3.38,3.38,0,0,0-3.36-3.38h0a3.38,3.38,0,0,0-3.37,3.36.87.87,0,0,0,.86.86Z"/><path d="M116.89,963.64a27.71,27.71,0,0,1-33.7,1.67,10.92,10.92,0,0,0,1.17-.62,2.35,2.35,0,0,0,0-4,10.09,10.09,0,0,0-2.32-1A10.43,10.43,0,0,0,81,957.29a2.35,2.35,0,0,0-4,0,9.94,9.94,0,0,0-.63,1.21,27.7,27.7,0,0,1-.11-31.76.87.87,0,0,0-1.42-1h0a29.41,29.41,0,0,0,.39,34.12,11,11,0,0,0-1.61.8,2.35,2.35,0,0,0,0,4,10,10,0,0,0,2.33,1,10,10,0,0,0,1,2.33,2.35,2.35,0,0,0,4,0,10,10,0,0,0,.81-1.64A29.26,29.26,0,0,0,99,972h0A29.32,29.32,0,0,0,118,965a.87.87,0,0,0,.09-1.22.86.86,0,0,0-1.21-.1Zm-35.74.56a.92.92,0,0,0-.65.63,8.33,8.33,0,0,1-1,2.34.63.63,0,0,1-1.08,0,8.63,8.63,0,0,1-1-2.34.88.88,0,0,0-.62-.62,8.45,8.45,0,0,1-2.34-1,.63.63,0,0,1,0-1.08,8.45,8.45,0,0,1,2.34-1,.87.87,0,0,0,.62-.61h0a8.63,8.63,0,0,1,1-2.34.63.63,0,0,1,1.08,0,8.45,8.45,0,0,1,1,2.34.88.88,0,0,0,.62.62,8.33,8.33,0,0,1,2.34,1,.63.63,0,0,1,0,1.08,8.42,8.42,0,0,1-2.31,1Z"/><path d="M121.34,923.47a5.38,5.38,0,0,0,.2-.51,7.31,7.31,0,0,0,1.33-.62,1.78,1.78,0,0,0,0-3,7.31,7.31,0,0,0-1.33-.62c-.38-1.13-.93-2.17-2.13-2.17a1.76,1.76,0,0,0-1.51.85,6.1,6.1,0,0,0-.62,1.32,5.56,5.56,0,0,0-.71.29,29.3,29.3,0,0,0-11.69-5.25,28.93,28.93,0,0,0-5.92-.6A29.35,29.35,0,0,0,77,923a.86.86,0,0,0,.07,1.22.88.88,0,0,0,1.22-.07,27.69,27.69,0,1,1,41,37.21.86.86,0,0,0,0,1.22.87.87,0,0,0,1.22,0,29.35,29.35,0,0,0,7.8-20h0a29.24,29.24,0,0,0-7-19.07ZM120,922c-.58-.59-1.16-1.15-1.9-1.78.85-.24.48-.74,1.24-2a0,0,0,0,1,.08,0c.73,1.18.42,1.75,1.18,2a5.08,5.08,0,0,1,1.34.56.06.06,0,0,1,0,.09C120.8,921.58,120.24,921.29,120,922Z"/><polygon class="cls-40" points="93.95 916.4 90.04 911.34 83.17 906.85 74.57 906.09 68.75 908.48 63.21 911.88 60.54 909.34 54.23 908.48 50.06 911.88 47.66 918 43.83 919.26 39.53 923.75 38.38 931.96 41.82 937.41 51.66 938.93 71.42 938.93 83.55 937.88 89.28 934.35 94.62 925.85 93.95 916.4"/><path class="cls-41" d="M58.51,901.74,51.42,897A44,44,0,0,0,45,897a20.4,20.4,0,0,0-5.58,1.9l-4.73,4.4-1,5.51L35,917.36l3.72,4.43,3.44-2.14L47.66,918l1.61-4.94,2.86-4.23,4.87-.74h4.66Z"/><path d="M47.07,893.55A1.52,1.52,0,0,0,48.6,892v-4.58a1.53,1.53,0,1,0-3.05,0V892A1.52,1.52,0,0,0,47.07,893.55Z"/><path d="M29.79,895.23,33,898.47h0a1.53,1.53,0,0,0,2.16-2.16h0L32,893.07h0a1.54,1.54,0,0,0-2.16,0,1.52,1.52,0,0,0,0,2.16Z"/><path d="M28.74,911.88a1.53,1.53,0,1,0,0-3H24.16a1.53,1.53,0,1,0,0,3h4.58Z"/><path d="M35.19,922.24a1.53,1.53,0,0,0-2.16,0h0l-3.24,3.24h0A1.53,1.53,0,0,0,32,927.64h0l3.24-3.24h0A1.52,1.52,0,0,0,35.19,922.24Z"/><path d="M61.12,898.47h0l3.24-3.24h0a1.52,1.52,0,0,0,0-2.16,1.54,1.54,0,0,0-2.16,0h0L59,896.31h0a1.53,1.53,0,0,0,2.16,2.16Z"/><path d="M77.44,903.86a18.49,18.49,0,0,0-13.53,5.88,10.13,10.13,0,0,0-1.71-1.56,15.28,15.28,0,1,0-24.06,14.57A12.35,12.35,0,0,0,49,940.91H77.44a18.53,18.53,0,0,0,0-37ZM38.43,919a12.23,12.23,0,1,1,20.28-12.4,9.47,9.47,0,0,0-2.27-.27,9.88,9.88,0,0,0-9.87,9.88v.25a12.33,12.33,0,0,0-6.67,3.79A11.57,11.57,0,0,1,38.43,919Zm49.94,14.33a15.34,15.34,0,0,1-10.93,4.53H49a9.29,9.29,0,0,1-1.85-18.4l2.51-.51-.07-2.56v-.18a6.83,6.83,0,0,1,12-4.47l2.22,2.56,2.32-2.47a15.47,15.47,0,1,1,22.23,21.5Z"/><text class="cls-7" transform="translate(285.32 939.79)"><tspan class="cls-42"><tspan xml:space="preserve">    SUN  PR</tspan><tspan class="cls-43" x="97.38" y="0">O</tspan><tspan x="113.9" y="0" xml:space="preserve">TECTION  N</tspan><tspan class="cls-43" x="219.37" y="0">O</tspan><tspan x="235.89" y="0" xml:space="preserve">T  REQUIRED</tspan></tspan><tspan x="-5.32" y="36">Unless</tspan><tspan class="cls-44" x="48.08" y="36"> </tspan><tspan x="57.41" y="36">outdoors</tspan><tspan class="cls-44" x="132.8" y="36"> </tspan><tspan class="cls-43" x="142.14" y="36">f</tspan><tspan x="149.02" y="36">or</tspan><tspan class="cls-45" x="167.35" y="36"> </tspan><tspan class="cls-34" x="176.69" y="36">e</tspan><tspan x="187.03" y="36">xtended</tspan><tspan class="cls-44" x="259.91" y="36"> </tspan><tspan x="269.25" y="36">period</tspan><tspan class="cls-43" x="327.67" y="36">s</tspan><tspan x="334.56" y="36">,</tspan><tspan class="cls-44" x="339.38" y="36"> </tspan><tspan x="348.72" y="36">or </tspan><tspan x="-5.39" y="54">near</tspan><tspan class="cls-46" x="34.71" y="54"> </tspan><tspan x="45.55" y="54">reflecti</tspan><tspan class="cls-43" x="106.28" y="54">v</tspan><tspan x="115.48" y="54">e</tspan><tspan class="cls-46" x="126.48" y="54"> </tspan><tspan x="137.32" y="54">surfaces</tspan><tspan class="cls-46" x="207.87" y="54"> </tspan><tspan x="218.71" y="54">su</tspan><tspan class="cls-47" x="235.68" y="54">c</tspan><tspan x="245.02" y="54">h</tspan><tspan class="cls-48" x="254.66" y="54"> </tspan><tspan x="265.51" y="54">as</tspan><tspan class="cls-46" x="284.97" y="54"> </tspan><tspan x="295.82" y="54">sn</tspan><tspan class="cls-34" x="312.78" y="54">o</tspan><tspan x="323.13" y="54">w</tspan><tspan class="cls-46" x="337.8" y="54"> </tspan><tspan x="348.65" y="54">or </tspan><tspan class="cls-49" x="-5.46" y="72">w</tspan><tspan x="8.33" y="72">ate</tspan><tspan class="cls-50" x="37.43" y="72">r</tspan><tspan x="43.22" y="72">.</tspan></text><text class="cls-7" transform="translate(312.43 307.52)"><tspan class="cls-42"><tspan xml:space="preserve">    SUN  PR</tspan><tspan class="cls-43" x="97.38" y="0">O</tspan><tspan x="113.9" y="0" xml:space="preserve">TECTION  REQUIRED</tspan></tspan><tspan x="147.09" y="18"> </tspan><tspan x="-31.95" y="36">-</tspan><tspan class="cls-51" x="-24.62" y="36">W</tspan><tspan x="-4.38" y="36">ear</tspan><tspan class="cls-52" x="26.08" y="36"> </tspan><tspan x="58.26" y="36">sun-p</tspan><tspan class="cls-43" x="104.33" y="36">r</tspan><tspan x="111.21" y="36">otecti</tspan><tspan class="cls-43" x="158.42" y="36">v</tspan><tspan x="167.62" y="36">e</tspan><tspan class="cls-53" x="178.62" y="36"> </tspan><tspan x="210.81" y="36">clothin</tspan><tspan class="cls-43" x="265.15" y="36">g</tspan><tspan x="276.85" y="36">,</tspan><tspan class="cls-52" x="281.67" y="36"> </tspan><tspan x="313.86" y="36">a </tspan><tspan x="-32.02" y="54">b</tspan><tspan class="cls-43" x="-19.88" y="54">r</tspan><tspan x="-13" y="54">oad-bimmed hat and sunglasses</tspan><tspan class="cls-8" x="267.59" y="54">s</tspan><tspan x="274.7" y="54">. </tspan><tspan x="-32.16" y="90">-Apply</tspan><tspan class="cls-54" x="28.56" y="90"> </tspan><tspan x="52.61" y="90">SPF30+</tspan><tspan class="cls-54" x="123.2" y="90"> </tspan><tspan x="147.25" y="90">sunscreen</tspan><tspan class="cls-54" x="228.6" y="90"> </tspan><tspan x="252.65" y="90">to</tspan><tspan class="cls-54" x="269.61" y="90"> </tspan><tspan x="293.67" y="90">a</tspan><tspan class="cls-34" x="305.8" y="90">n</tspan><tspan x="314.79" y="90">y </tspan><tspan x="-32.23" y="108">unp</tspan><tspan class="cls-43" x="-0.82" y="108">r</tspan><tspan x="6.07" y="108">otected skin.</tspan><tspan x="-32.37" y="144">-Seek shad</tspan><tspan class="cls-8" x="64.9" y="144">e</tspan><tspan x="75.69" y="144">.</tspan></text><line class="cls-55" x1="492.68" y1="1056.31" x2="495.68" y2="1056.31"/><line class="cls-56" x1="30.18" y1="856.81" x2="652.18" y2="856.81"/><text class="cls-7" transform="translate(177.19 18.09)"><tspan class="cls-42"><tspan xml:space="preserve">  UV</tspan></tspan><tspan x="16.32" y="18"> </tspan></text></g></g></svg>