<svg xmlns="http://www.w3.org/2000/svg" viewBox="0 0 43.15 67.46"><defs><style>.cls-1{fill:#fbc93e;stroke:#fcd313;stroke-miterlimit:10;fill-rule:evenodd;}</style></defs><title>Asset 157</title><g id="Layer_2" data-name="Layer 2"><g id="_750_x_5766_px_Artboard_2" data-name="750 x 5766 px Artboard 2"><g id="Text"><path class="cls-1" d="M40.2,35l0-.05L22.68,1.19A1.23,1.23,0,0,0,21.57.5a1.25,1.25,0,0,0-1.11.69l-8.64,16.7a1.3,1.3,0,0,0,.52,1.75,1.24,1.24,0,0,0,1.7-.53L21.57,4.55l16.36,31.6s0,0,0,.05a19.61,19.61,0,0,1,2.18,9c0,10.56-8.32,19.15-18.56,19.15S3,55.77,3,45.21a19.73,19.73,0,0,1,2.17-9l0-.05L9.3,28.27a1.34,1.34,0,0,0-.52-1.76,1.25,1.25,0,0,0-1.7.54L3,35S3,35,3,35A22.38,22.38,0,0,0,.5,45.21C.5,57.2,10,67,21.57,67S42.65,57.2,42.65,45.21A22.35,22.35,0,0,0,40.2,35Z"/><path class="cls-1" d="M27.34,34.63a1.24,1.24,0,0,0-1.72.47L15.35,53.46a1.32,1.32,0,0,0,.46,1.77,1.21,1.21,0,0,0,.63.18,1.28,1.28,0,0,0,1.09-.65L27.8,36.4A1.31,1.31,0,0,0,27.34,34.63Z"/><path class="cls-1" d="M14.85,33a5.3,5.3,0,0,0,0,10.6,5.3,5.3,0,0,0,0-10.6Zm0,8a2.7,2.7,0,1,1,2.62-2.7A2.66,2.66,0,0,1,14.85,41Z"/><path class="cls-1" d="M23.16,51.58a5.14,5.14,0,1,0,5.13-5.3A5.22,5.22,0,0,0,23.16,51.58Zm5.13-2.7a2.7,2.7,0,1,1-2.61,2.7A2.66,2.66,0,0,1,28.29,48.88Z"/><path class="cls-1" d="M10.56,24.38a1.3,1.3,0,1,0-1.26-1.3A1.29,1.29,0,0,0,10.56,24.38Z"/></g></g></g></svg>