<svg xmlns="http://www.w3.org/2000/svg" viewBox="0 0 44.15 68.46"><defs><style>.cls-1,.cls-2{fill:#bdc4c6;stroke:#bdccd4;stroke-miterlimit:10;fill-rule:evenodd;}.cls-1{stroke-width:2px;}</style></defs><title>Asset 59</title><g id="Layer_2" data-name="Layer 2"><g id="_750_x_5766_px_Artboard_2" data-name="750 x 5766 px Artboard 2"><g id="Text"><path class="cls-1" d="M40.7,35.53l0-.05L23.18,1.69A1.23,1.23,0,0,0,22.07,1,1.25,1.25,0,0,0,21,1.69l-8.64,16.7a1.3,1.3,0,0,0,.52,1.75,1.24,1.24,0,0,0,1.7-.53L22.07,5.05l16.36,31.6s0,0,0,.05a19.61,19.61,0,0,1,2.18,9c0,10.56-8.32,19.15-18.56,19.15S3.52,56.27,3.52,45.71a19.73,19.73,0,0,1,2.17-9l0-.05L9.8,28.77A1.34,1.34,0,0,0,9.28,27a1.25,1.25,0,0,0-1.7.54L3.47,35.48s0,0,0,.05A22.38,22.38,0,0,0,1,45.71c0,12,9.45,21.75,21.07,21.75S43.15,57.7,43.15,45.71A22.35,22.35,0,0,0,40.7,35.53Z"/><path class="cls-2" d="M27.84,35.13a1.24,1.24,0,0,0-1.72.47L15.85,54a1.32,1.32,0,0,0,.46,1.77,1.21,1.21,0,0,0,.63.18A1.28,1.28,0,0,0,18,55.26L28.3,36.9A1.31,1.31,0,0,0,27.84,35.13Z"/><path class="cls-1" d="M15.35,33.48a5.3,5.3,0,0,0,0,10.6,5.3,5.3,0,0,0,0-10.6Zm0,8A2.7,2.7,0,1,1,18,38.78,2.66,2.66,0,0,1,15.35,41.48Z"/><path class="cls-1" d="M23.66,52.08a5.14,5.14,0,1,0,5.13-5.3A5.22,5.22,0,0,0,23.66,52.08Zm5.13-2.7a2.7,2.7,0,1,1-2.61,2.7A2.66,2.66,0,0,1,28.79,49.38Z"/><path class="cls-2" d="M11.06,24.88a1.3,1.3,0,1,0-1.26-1.3A1.29,1.29,0,0,0,11.06,24.88Z"/></g></g></g></svg>