<svg xmlns="http://www.w3.org/2000/svg" viewBox="0 0 60.93 60.93"><defs><style>.cls-1{fill:#f9d069;stroke:#f9d069;stroke-miterlimit:10;}</style></defs><title>Asset 78</title><g id="Layer_2" data-name="Layer 2"><g id="_750_x_5766_px_Artboard_2" data-name="750 x 5766 px Artboard 2"><g id="Text"><path class="cls-1" d="M16.34,12.81,12.81,9.28a2.5,2.5,0,0,0-3.53,3.53l3.53,3.53a2.5,2.5,0,0,0,3.53-3.53Z"/><path class="cls-1" d="M8,28H3a2.5,2.5,0,1,0,0,5H8a2.5,2.5,0,1,0,0-5Z"/><path class="cls-1" d="M16.34,44.59a2.5,2.5,0,0,0-3.53,0L9.28,48.13A2.5,2.5,0,0,0,11,52.39a2.53,2.53,0,0,0,1.77-.73l3.53-3.53A2.5,2.5,0,0,0,16.34,44.59Z"/><path class="cls-1" d="M30.47,50.45A2.49,2.49,0,0,0,28,52.94v5a2.5,2.5,0,0,0,5,0v-5A2.48,2.48,0,0,0,30.47,50.45Z"/><path class="cls-1" d="M51.66,48.13l-3.53-3.54a2.5,2.5,0,1,0-3.54,3.54l3.54,3.53a2.49,2.49,0,0,0,1.76.73,2.53,2.53,0,0,0,1.77-.73A2.5,2.5,0,0,0,51.66,48.13Z"/><path class="cls-1" d="M57.94,28h-5a2.5,2.5,0,0,0,0,5h5a2.5,2.5,0,0,0,0-5Z"/><path class="cls-1" d="M51.66,9.28a2.49,2.49,0,0,0-3.53,0l-3.54,3.53a2.5,2.5,0,0,0,3.54,3.53l3.53-3.53A2.5,2.5,0,0,0,51.66,9.28Z"/><path class="cls-1" d="M30.47.5A2.5,2.5,0,0,0,28,3V8a2.5,2.5,0,1,0,5,0V3A2.49,2.49,0,0,0,30.47.5Z"/><path class="cls-1" d="M30.47,14.24A16.23,16.23,0,1,0,46.7,30.47,16.25,16.25,0,0,0,30.47,14.24Zm0,27.47A11.24,11.24,0,1,1,41.71,30.47,11.26,11.26,0,0,1,30.47,41.71Z"/></g></g></g></svg>