<svg xmlns="http://www.w3.org/2000/svg" viewBox="0 0 107.58 139.09"><defs><style>.cls-1{fill:#9e9e9e;}.cls-2{fill:#7f8e94;}.cls-3{fill:#545c60;}.cls-4{fill:#fec108;}.cls-5{fill:#ffdc00;}.cls-6{fill:#02a9f4;}.cls-7{fill:#37474f;}.cls-8{fill:#f5f5f5;}.cls-9{font-size:20px;font-family:TwCenMT-Regular, Tw Cen MT;}.cls-10{letter-spacing:-0.05em;}</style></defs><title>Asset 108</title><g id="Layer_2" data-name="Layer 2"><g id="_750_x_5766_px_Artboard_2" data-name="750 x 5766 px Artboard 2"><g id="Text"><g id="Page-1"><path id="Shape" class="cls-1" d="M26.43,74.51c-1.91.71-5.31-3.7-7.71-10-2.61-6.8-3-13-1-13.78h.06c2-.62,5.47,4.08,7.85,10.57s2.77,12.45.81,13.17Z"/><path class="cls-2" d="M37.15,70.47a1.28,1.28,0,0,1-.4.25h0l-10.3,3.79c2-.72,1.61-6.62-.81-13.17s-5.88-11.19-7.85-10.57l9-3.34,1.58-.58c2-.72,5.53,4.07,7.94,10.62,2.23,6.06,2.39,11.63.83,13Z"/><path class="cls-3" d="M36.32,57.47c-2.41-6.55-6-11.34-7.94-10.62l-1.58.58-.2.08c1.89,1.51,4.21,5.28,5.92,10,2.24,6.06,2.39,11.63.84,13a1.33,1.33,0,0,1-.41.25h0l-5.39,2c-.19,1-.56,1.6-1.12,1.81l10.3-3.79h0a1.28,1.28,0,0,0,.4-.25c1.56-1.37,1.4-6.94-.83-13Z"/><path class="cls-4" d="M61.94,54.93c0,1.29-2.62,13.63-2.62,13.75-1,4.16-4,5.91-6.9,5.91-.2,0-.39,0-.59,0s-.39,0-.6,0c-2.87,0-5.86-1.75-6.9-5.91,0-.12-2.62-12.46-2.62-13.75,0-6.56,5.17-9.7,10.12-9.39,4.94-.31,10.11,2.83,10.11,9.39Z"/><circle id="Oval" class="cls-2" cx="51.83" cy="55.62" r="5.06"/><path class="cls-5" d="M80.87,19c0,2-.16,5-.4,8.34-.15,1.95-.32,4-.56,6.09a60.85,60.85,0,0,1-2.8,13.36c-.07.22-.16.43-.25.66l-1.58-.58c-2-.72-5.54,4.07-7.94,10.62-2.24,6.06-2.39,11.63-.84,13-.39,1-2.07,4.12-8.35,4.12H52.42c2.87,0,5.87-1.75,6.9-5.91,0-.12,2.62-12.46,2.62-13.75,0-6.56-5.17-9.7-10.11-9.39-4.95-.31-10.12,2.83-10.12,9.39,0,1.29,2.62,13.63,2.62,13.75,1,4.16,4,5.91,6.9,5.91H45.51c-6.29,0-8-3.08-8.36-4.12,1.56-1.37,1.4-6.94-.83-13-2.41-6.55-6-11.34-7.94-10.62l-1.58.58c-.09-.23-.18-.44-.26-.66a60.26,60.26,0,0,1-2.79-13.36c-.24-2.08-.42-4.14-.57-6.09-.24-3.38-.35-6.36-.39-8.34a11.65,11.65,0,0,1,2-6.92A1.83,1.83,0,0,0,25,11.9a11.59,11.59,0,0,1,8.51-4.72l3.2-.24v.65a2.52,2.52,0,0,0,2.53,2.52h1.26A2.54,2.54,0,0,0,43,7.59v-1c5.4-.25,8.85-.25,8.85-.25s3.45,0,8.85.25v1a2.52,2.52,0,0,0,2.53,2.52h1.26A2.54,2.54,0,0,0,67,7.59V6.94l3.2.24a11.55,11.55,0,0,1,8.5,4.72,1.83,1.83,0,0,0,.13.16,11.66,11.66,0,0,1,2,6.92Z"/><path class="cls-4" d="M78.83,12.06a1.83,1.83,0,0,1-.13-.16,11.55,11.55,0,0,0-8.5-4.72L67,6.94v.32a11.56,11.56,0,0,1,7.91,4.64,1.83,1.83,0,0,0,.13.16,11.59,11.59,0,0,1,2,6.92c0,2-.15,5-.39,8.34-.15,1.95-.33,4-.57,6.09a60.26,60.26,0,0,1-2.79,13.36c-.08.22-.17.43-.25.66l-1.58-.58c-2-.72-5.54,4.07-7.94,10.62-2.24,6.06-2.39,11.63-.84,13-.39,1-2.07,4.12-8.35,4.12h3.79c6.28,0,8-3.08,8.35-4.12-1.55-1.37-1.4-6.94.84-13,2.4-6.55,6-11.34,7.94-10.62l1.58.58c.09-.23.18-.44.25-.66a60.85,60.85,0,0,0,2.8-13.36c.24-2.08.41-4.14.56-6.09.24-3.38.36-6.36.4-8.34a11.66,11.66,0,0,0-2-6.92Z"/><path class="cls-1" d="M84.94,64.56c-2.41,6.25-5.81,10.66-7.71,10s-1.61-6.62.8-13.17,6-11.27,7.91-10.56h0C88,51.54,87.54,57.76,84.94,64.56Z"/><path class="cls-2" d="M85.94,50.78c-2-.71-5.5,4-7.91,10.56s-2.76,12.45-.8,13.17L66.92,70.72h0a1.33,1.33,0,0,1-.41-.25c-1.55-1.37-1.4-6.94.84-13,2.4-6.55,6-11.34,7.94-10.62l1.58.58Z"/><rect id="Rectangle-path" class="cls-6" x="36.66" y="1.26" width="6.32" height="8.85" rx="2.53"/><rect class="cls-6" x="60.68" y="1.26" width="6.32" height="8.85" rx="2.53"/><path class="cls-6" d="M23.75,33.41a2.38,2.38,0,0,1-.64.15l-3.78.38a2.52,2.52,0,0,1-2.76-2.27l-.13-1.25A2.6,2.6,0,0,1,17,28.56a2.51,2.51,0,0,1,1.71-.91l3.78-.37a2.29,2.29,0,0,1,.69,0c.15,1.95.33,4,.57,6.09Z"/><path class="cls-6" d="M87.21,30.42l-.12,1.25a2.53,2.53,0,0,1-2.76,2.27l-3.78-.38a2.3,2.3,0,0,1-.64-.15c.24-2.08.41-4.14.56-6.09a2.36,2.36,0,0,1,.7,0l3.78.37a2.47,2.47,0,0,1,1.7.91,2.51,2.51,0,0,1,.56,1.86Z"/><circle class="cls-2" cx="51.83" cy="67" r="2.53"/><path class="cls-7" d="M75.62,23.82c-.17,3.33-.44,6.46-.78,9.31a10.43,10.43,0,0,1-8.47,9h0a7.48,7.48,0,0,1-7.2-2.7h0a7.48,7.48,0,0,0-5.85-2.82H50.37a7.5,7.5,0,0,0-5.85,2.82h0a7.51,7.51,0,0,1-7.21,2.71,10.44,10.44,0,0,1-8.48-9.06c-.34-2.84-.6-6-.78-9.3a2.53,2.53,0,0,1,3-2.62c3.87.82,10.26,1.55,20.76,1.55S68.72,22,72.59,21.21a2.5,2.5,0,0,1,2.15.56,2.53,2.53,0,0,1,.88,2.05Z"/><path class="cls-8" d="M29.22,36.23a1.28,1.28,0,0,1-1.16-.76,1.26,1.26,0,0,1,.24-1.36L40,21.56a1.27,1.27,0,0,1,1.85,1.73L30.15,35.83a1.26,1.26,0,0,1-.93.4Z"/><path class="cls-8" d="M32.3,41a1.26,1.26,0,0,1-.92-2.13l15.84-17a1.27,1.27,0,1,1,1.85,1.73l-15.84,17a1.26,1.26,0,0,1-.93.4Z"/><path d="M51.83,49.3a6.33,6.33,0,1,0,6.32,6.32A6.32,6.32,0,0,0,51.83,49.3Zm0,10.12a3.8,3.8,0,1,1,3.79-3.8A3.79,3.79,0,0,1,51.83,59.42Z"/><path d="M37.71,16.63A85.59,85.59,0,0,0,51.83,17.7,85.59,85.59,0,0,0,66,16.63a1.26,1.26,0,1,0-.43-2.49,83.73,83.73,0,0,1-13.69,1,83.76,83.76,0,0,1-13.7-1,1.26,1.26,0,0,0-.42,2.49Z"/><path d="M16.68,34.35a3.74,3.74,0,0,0,2.4.87,2.3,2.3,0,0,0,.37,0l3.22-.32a60.44,60.44,0,0,0,2.51,11.81l-7.91,2.9a2.79,2.79,0,0,0-1.57,1.57c-1.14,2.51-.42,8,1.84,13.86C19.7,70.63,23.05,75.85,26,75.85a2.45,2.45,0,0,0,.85-.15l9.74-3.59c1,1.56,3.48,3.74,8.9,3.74H58.15c5.42,0,7.85-2.18,8.9-3.73l9.73,3.58a2.45,2.45,0,0,0,.85.15c3,0,6.32-5.22,8.48-10.83,2.26-5.91,3-11.35,1.85-13.86a2.83,2.83,0,0,0-1.57-1.56h0l-7.91-2.91A60.3,60.3,0,0,0,81,34.88l3.21.33.38,0A3.74,3.74,0,0,0,87,34.36a3.8,3.8,0,0,0,1.37-2.56l.12-1.25a3.79,3.79,0,0,0-3.38-4.16l-3.26-.32c.18-2.85.27-5.34.31-7.06a12.93,12.93,0,0,0-2.26-7.67l-.14-.18A12.8,12.8,0,0,0,70.3,5.92l-2-.15v-2A3.79,3.79,0,0,0,64.47,0H63.21a3.8,3.8,0,0,0-3.8,3.79V5.25c-4.61-.19-7.55-.19-7.58-.19s-3,0-7.59.19V3.79A3.79,3.79,0,0,0,40.45,0H39.19a3.8,3.8,0,0,0-3.8,3.79v2l-2,.15a12.75,12.75,0,0,0-9.43,5.25,1.15,1.15,0,0,0-.14.17A12.86,12.86,0,0,0,21.53,19c0,1.72.12,4.21.31,7.06l-3.26.32a3.77,3.77,0,0,0-3.39,4.15l.12,1.25a3.78,3.78,0,0,0,1.37,2.56ZM36.3,69.53l-7.42,2.73c.33-3-.61-7.38-2.07-11.36s-3.6-7.93-5.8-10L28.79,48h0c.93,0,4,3.43,6.32,9.86S37,69.09,36.3,69.53ZM19.9,64.11C17.11,56.8,17.53,52.4,18.13,52c.68-.09,3.76,2.87,6.31,9.8S26.57,72.89,26,73.32h0c-.69.06-3.56-2.59-6.11-9.21ZM58.09,68.4c-1,3.91-3.82,5.09-6.16,4.9h-.21c-2.32.2-5.17-1-6.16-4.9,0-.23-.14-.71-.38-1.85C44.64,63.91,43,55.88,43,54.93a8,8,0,0,1,2.37-6,8.55,8.55,0,0,1,6.4-2.17h.16A8.54,8.54,0,0,1,58.3,49a8,8,0,0,1,2.38,6c0,1-1.67,9-2.22,11.62-.23,1.14-.33,1.62-.37,1.85ZM82.64,50.91c-2.2,2.06-4.33,6-5.79,10s-2.4,8.37-2.07,11.36l-7.42-2.73c-.75-.44-1.26-5.06,1.16-11.63S74,48,74.84,48Zm1.12,13.2c-2.56,6.64-5.44,9.29-6.08,9.23-.59-.43-1-4.64,1.54-11.56S84.76,52,85.49,52h0C86.13,52.43,86.54,56.82,83.76,64.11Zm1.06-35.2a1.24,1.24,0,0,1,.86.45,1.29,1.29,0,0,1,.28.93l-.13,1.25a1.28,1.28,0,0,1-1.37,1.15l-3.18-.33c.14-1.28.26-2.54.35-3.77ZM61.94,3.79a1.26,1.26,0,0,1,1.27-1.26h1.26a1.25,1.25,0,0,1,1.26,1.26v3.8a1.26,1.26,0,0,1-1.26,1.26H63.21a1.27,1.27,0,0,1-1.27-1.26Zm-24,0a1.26,1.26,0,0,1,1.27-1.26h1.26a1.25,1.25,0,0,1,1.26,1.26v3.8a1.26,1.26,0,0,1-1.26,1.26H39.19a1.27,1.27,0,0,1-1.27-1.26Zm-12.1,9.05.16-.21a10.3,10.3,0,0,1,7.59-4.19l1.9-.14a3.8,3.8,0,0,0,3.72,3.08h1.26a3.79,3.79,0,0,0,3.77-3.6c4.63-.19,7.58-.19,7.61-.19s3,0,7.6.19a3.8,3.8,0,0,0,3.78,3.6h1.26A3.79,3.79,0,0,0,68.19,8.3l1.9.14a10.33,10.33,0,0,1,7.61,4.23l.13.17a10.41,10.41,0,0,1,1.77,6.1c-.14,5.53-.75,19-3.5,26.87l-.39-.14c-1.56-.58-3.33.43-5.25,3A33.74,33.74,0,0,0,66.15,57C64.26,62.15,63.46,68,65,70.62c-.65,1-2.37,2.66-6.72,2.7A9.7,9.7,0,0,0,60.55,69l0-.13c0-.16.16-.83.36-1.79,1.65-8,2.27-11.33,2.27-12.14A10.42,10.42,0,0,0,60,47.12a11.06,11.06,0,0,0-8.21-2.85,11,11,0,0,0-8.22,2.85,10.38,10.38,0,0,0-3.16,7.81c0,.81.61,4.09,2.26,12.13.2,1,.34,1.63.37,1.8a.5.5,0,0,0,0,.12,9.65,9.65,0,0,0,2.26,4.34c-4.36,0-6.08-1.66-6.72-2.69,1.55-2.66.75-8.47-1.13-13.6a34.36,34.36,0,0,0-4.32-8.36c-1.92-2.57-3.69-3.58-5.25-3l-.39.15C24.8,38,24.19,24.48,24.05,18.94a10.41,10.41,0,0,1,1.77-6.1Zm-7,16.07L22,28.6c.09,1.22.21,2.49.34,3.77l-3.17.32a1.23,1.23,0,0,1-.91-.29,1.29,1.29,0,0,1-.46-.86l-.12-1.25a1.26,1.26,0,0,1,1.12-1.38Z"/><path d="M51.83,63.21A3.79,3.79,0,1,0,55.62,67,3.79,3.79,0,0,0,51.83,63.21Zm0,5.06a1.27,1.27,0,1,1,0-2.53,1.27,1.27,0,0,1,0,2.53Z"/><path d="M37.08,43.43a9.16,9.16,0,0,0,1.57.14,8.73,8.73,0,0,0,6.75-3.18l.11-.12a6.16,6.16,0,0,1,4.86-2.34h2.91a6.16,6.16,0,0,1,4.87,2.34l.11.12a8.74,8.74,0,0,0,8.33,3A11.65,11.65,0,0,0,76.1,33.28c.35-2.89.61-6.05.78-9.39a3.83,3.83,0,0,0-1.33-3.1A3.76,3.76,0,0,0,72.33,20a105.92,105.92,0,0,1-20.5,1.52A105.86,105.86,0,0,1,31.33,20a3.8,3.8,0,0,0-4.55,3.92c.17,3.35.44,6.51.78,9.39a11.66,11.66,0,0,0,9.52,10.15ZM29.75,22.72a1.23,1.23,0,0,1,1.06-.27,108.07,108.07,0,0,0,21,1.57,108.07,108.07,0,0,0,21-1.57,1.23,1.23,0,0,1,1.06.27,1.25,1.25,0,0,1,.44,1c-.17,3.28-.42,6.38-.76,9.23a9.15,9.15,0,0,1-7.46,8,6.19,6.19,0,0,1-6-2.25L60,38.58a8.7,8.7,0,0,0-6.75-3.18H50.37a8.67,8.67,0,0,0-6.74,3.17.69.69,0,0,0-.11.13,6.24,6.24,0,0,1-6,2.25,9.16,9.16,0,0,1-7.46-8c-.33-2.83-.59-5.93-.76-9.22A1.25,1.25,0,0,1,29.75,22.72Z"/></g><text class="cls-9" transform="translate(14.51 115.53)">Extremely<tspan class="cls-10" x="21.45" y="18">P</tspan><tspan x="30.45" y="18">oor</tspan></text></g></g></g></svg>