<svg xmlns="http://www.w3.org/2000/svg" viewBox="0 0 108.86 135.13"><defs><style>.cls-1{fill:#edc951;}.cls-2{fill:#4caf50;}.cls-3{fill:#388e3c;}.cls-4{font-size:20px;font-family:TwCenMT-Regular, Tw Cen MT;}.cls-5{letter-spacing:-0.01em;}</style></defs><title>Asset 105</title><g id="Layer_2" data-name="Layer 2"><g id="_750_x_5766_px_Artboard_2" data-name="750 x 5766 px Artboard 2"><g id="Text"><g id="group-51svg"><path id="path-1" class="cls-1" d="M94.39,38.48A33.66,33.66,0,1,1,60.73,4.83,33.65,33.65,0,0,1,94.39,38.48Z"/><path id="path-2" d="M73.1,49.23H37.31a1.68,1.68,0,0,1,0-3.36H73.1a1.68,1.68,0,1,1,0,3.36Z"/><path id="path-3" d="M73.1,28H63a1.68,1.68,0,0,1,0-3.36H73.1a1.68,1.68,0,1,1,0,3.36Z"/><path id="path-4" d="M48.49,28H37.31a1.68,1.68,0,0,1,0-3.36H48.49a1.68,1.68,0,0,1,0,3.36Z"/><path id="path-5" d="M54.42,70.66A35.33,35.33,0,1,1,89.75,35.33,35.37,35.37,0,0,1,54.42,70.66Zm0-67.3a32,32,0,1,0,32,32A32,32,0,0,0,54.42,3.36Z"/></g><path class="cls-2" d="M108.37,41.65a.85.85,0,0,0-.77-.52c-32.44,0-35.95,13.45-35.95,19.23,0,7.5,5.71,12.54,14.21,12.54,10.74,0,13-10.22,14.19-15.71a28.35,28.35,0,0,1,8.14-14.63A.85.85,0,0,0,108.37,41.65Z"/><path class="cls-3" d="M72.49,77.91a.84.84,0,0,1-.84-.83c0-5,8.62-20.92,22.21-27.5A.83.83,0,0,1,95,50a.84.84,0,0,1-.38,1.12h0c-13.72,6.65-21.26,22.09-21.26,26A.84.84,0,0,1,72.49,77.91Z"/><path d="M85.86,72.9c-8.5,0-14.21-5-14.21-12.54,0-5.78,3.51-19.23,35.95-19.23a.84.84,0,0,1,.57,1.45,27.92,27.92,0,0,0-8.11,14.61C98.85,62.68,96.6,72.9,85.86,72.9Zm19.73-30.07c-11.11.23-32.26,2.64-32.26,17.53,0,6.5,5,10.87,12.53,10.87,8.67,0,11-7.43,12.56-14.39A29.65,29.65,0,0,1,105.59,42.83Z"/><path d="M72.49,77.91a.84.84,0,0,1-.84-.83c0-5,8.62-20.92,22.21-27.5A.83.83,0,0,1,95,50a.84.84,0,0,1-.38,1.12c-13.72,6.65-21.26,22.09-21.26,26A.84.84,0,0,1,72.49,77.91Z"/><text class="cls-4" transform="translate(39.11 117.69)"><tspan class="cls-5">F</tspan><tspan x="8.56" y="0">air</tspan></text></g></g></g></svg>