<svg xmlns="http://www.w3.org/2000/svg" viewBox="0 0 87.55 135.32"><defs><style>.cls-1{font-size:20px;font-family:TwCenMT-Regular, Tw Cen MT;}.cls-2{fill:#fce3a0;}.cls-3{fill:#ffce71;}.cls-4{fill:#ffb357;}.cls-5{fill:#ff8e9e;}.cls-6{fill:#4c5659;}.cls-7{fill:#83e26f;}.cls-8{fill:#5ece4a;}</style></defs><title>Asset 15</title><g id="Layer_2" data-name="Layer 2"><g id="_750_x_5766_px_Artboard_2" data-name="750 x 5766 px Artboard 2"><g id="Text"><text class="cls-1" transform="translate(20.55 117)">Good</text></g></g><g id="_1366_x_3620_x_Artboard_1" data-name="1366 x 3620 x Artboard 1"><path class="cls-2" d="M71.54,8.12a6.54,6.54,0,0,0-1.84-.78,6.54,6.54,0,0,0-.78-1.84,1.06,1.06,0,0,0-1.82,0,6.84,6.84,0,0,0-.78,1.84,6.8,6.8,0,0,0-1.84.78,1.07,1.07,0,0,0,0,1.82,7.13,7.13,0,0,0,1.84.78,7.13,7.13,0,0,0,.78,1.84,1.07,1.07,0,0,0,1.82,0,6.8,6.8,0,0,0,.78-1.84,6.84,6.84,0,0,0,1.84-.78,1.06,1.06,0,0,0,0-1.82Z"/><path class="cls-3" d="M77.51,34.49A33.44,33.44,0,1,1,55.54,3,33.48,33.48,0,0,1,77.51,34.49Z"/><path class="cls-4" d="M33.59,34.49A33.49,33.49,0,0,1,55.54,3a33.49,33.49,0,1,0,0,62.9A33.48,33.48,0,0,1,33.59,34.49Z"/><path class="cls-5" d="M33.47,35.93c0,2.72-2.78,4.91-6.19,4.9s-6.17-2.22-6.16-4.94S23.9,31,27.31,31,33.48,33.22,33.47,35.93Z"/><path class="cls-5" d="M54.59,36c0,2.71,2.74,4.92,6.15,4.93s6.19-2.18,6.19-4.89-2.74-4.93-6.15-4.94S54.59,33.28,54.59,36Z"/><path class="cls-6" d="M49,32.2c0-3.07-2.22-3.37-5-3.38s-5,.28-5,3.35,2.21,5.58,5,5.59,5-2.48,5-5.56Z"/><path class="cls-2" d="M26.38,56.61a11,11,0,0,0-3-1.27,11.26,11.26,0,0,0-1.28-3,1.74,1.74,0,0,0-3,0,10.65,10.65,0,0,0-1.28,3,11.05,11.05,0,0,0-3,1.27,1.75,1.75,0,0,0,0,3,11.4,11.4,0,0,0,3,1.28,10.71,10.71,0,0,0,1.28,3,1.74,1.74,0,0,0,3,0,11.33,11.33,0,0,0,1.28-3,11.33,11.33,0,0,0,3-1.28A1.75,1.75,0,0,0,26.38,56.61Z"/><path d="M44,38.77a6.3,6.3,0,0,0,6-6.56,3.84,3.84,0,0,0-2-3.75,9,9,0,0,0-4-.65c-2.09,0-6,0-6,4.36,0,3.63,2.67,6.59,6,6.6Zm-4-6.6c0-1.86.82-2.35,4-2.34s4,.47,4,2.37c0,2.49-1.78,4.56-4,4.55A4.31,4.31,0,0,1,40.07,32.17Z"/><path d="M28,31.57a1,1,0,0,0,1-1,1.93,1.93,0,0,1,3.86,0,1,1,0,0,0,1,1h0a1,1,0,0,0,1-1,4,4,0,0,0-3.94-4h0A4,4,0,0,0,27,30.56a1,1,0,0,0,1,1Z"/><path d="M54.24,31.66a1,1,0,0,0,1-1,1.93,1.93,0,0,1,1.93-1.92h0a1.93,1.93,0,0,1,1.93,1.93,1,1,0,0,0,1,1h0a1,1,0,0,0,1-1,4,4,0,0,0-3.94-4h0a4,4,0,0,0-4,3.93,1,1,0,0,0,1,1Z"/><path d="M65.06,59.24a32.47,32.47,0,0,1-39.52,1.95,11.92,11.92,0,0,0,1.37-.72,2.76,2.76,0,0,0,0-4.72,12,12,0,0,0-2.73-1.23A12,12,0,0,0,23,51.79a2.76,2.76,0,0,0-4.72,0,12.75,12.75,0,0,0-.74,1.42A32.46,32.46,0,0,1,17.36,16,1,1,0,1,0,15.7,14.8h0a34.5,34.5,0,0,0,.45,40,12.17,12.17,0,0,0-1.88.93,2.77,2.77,0,0,0,0,4.72A12,12,0,0,0,17,61.7a12.41,12.41,0,0,0,1.23,2.73,2.76,2.76,0,0,0,4.72,0,12.24,12.24,0,0,0,.95-1.92A34.35,34.35,0,0,0,44,69h0a34.41,34.41,0,0,0,22.34-8.21,1,1,0,0,0-1.31-1.54Zm-41.91.66a1,1,0,0,0-.76.73,10,10,0,0,1-1.16,2.74.73.73,0,0,1-1.27,0,9.74,9.74,0,0,1-1.16-2.74,1,1,0,0,0-.73-.72,10,10,0,0,1-2.74-1.16.74.74,0,0,1,0-1.27,9.77,9.77,0,0,1,2.74-1.17,1,1,0,0,0,.72-.71v0A10.12,10.12,0,0,1,20,52.85a.73.73,0,0,1,1.27,0,10,10,0,0,1,1.16,2.74,1,1,0,0,0,.72.72,10,10,0,0,1,2.75,1.17.74.74,0,0,1,0,1.27,10.43,10.43,0,0,1-2.71,1.15Z"/><path d="M70.28,12.13c.09-.2.16-.4.23-.6a7.4,7.4,0,0,0,1.56-.73,2.08,2.08,0,0,0,0-3.55,7.36,7.36,0,0,0-1.56-.72C70.06,5.2,69.42,4,68,4a2.07,2.07,0,0,0-1.77,1,7.4,7.4,0,0,0-.73,1.56,6.58,6.58,0,0,0-.83.34A34.28,34.28,0,0,0,51,.7a34.49,34.49,0,0,0-32.7,10.84A1,1,0,0,0,18.36,13a1,1,0,0,0,1.43-.08A32.47,32.47,0,1,1,67.88,56.53,1,1,0,0,0,67.94,58a1,1,0,0,0,1.43-.05,34.41,34.41,0,0,0,9.15-23.41h0a34.3,34.3,0,0,0-8.24-22.36Zm-1.54-1.7c-.68-.69-1.36-1.35-2.23-2.09,1-.28.57-.86,1.45-2.31,0,0,.08,0,.1,0,.85,1.39.49,2.06,1.39,2.29A5.51,5.51,0,0,1,71,9a.05.05,0,0,1,0,.1C69.64,9.91,69,9.57,68.74,10.43Z"/><path class="cls-7" d="M64.76,52.87a16.25,16.25,0,0,0-6.53,9.54,12.76,12.76,0,0,0-.41,2.64c-.36-.24-.71-.51-1.07-.8a13.2,13.2,0,0,1-1.2-1.15C51.8,59,52.14,53.61,52.32,51.61a18.41,18.41,0,0,0-.78-5.5c5.16,1.48,8.82,3.1,11.36,5.06A14,14,0,0,1,64.76,52.87Z"/><path class="cls-8" d="M64.76,52.87a16.25,16.25,0,0,0-6.53,9.54,12.76,12.76,0,0,0-.41,2.64c-.36-.24-.71-.51-1.07-.8a13.2,13.2,0,0,1-1.2-1.15c.07-.44.17-.87.28-1.31a18.79,18.79,0,0,1,2.59-5.93,19.43,19.43,0,0,1,4.48-4.69A14,14,0,0,1,64.76,52.87Z"/><path class="cls-7" d="M78.77,53.83c.17,2.2.42,7.46-2.33,12.26h0a16.25,16.25,0,0,1-3.9,4.55c-7.89,6.32-15.45,2-14.68-6.13a12.53,12.53,0,0,1,.37-2.1C60.17,54.82,66,50.2,80,46.48,80,46.48,78.55,50.89,78.77,53.83Z"/><path class="cls-8" d="M76.44,66.09a16.25,16.25,0,0,1-3.9,4.55c-7.89,6.32-15.45,2-14.68-6.13C62.94,74.86,76.3,66.17,76.44,66.09Z"/><path d="M80.38,46.07a.61.61,0,0,0-.58-.16c-6.71,1.8-11.5,3.77-15,6.18-2.6-2.67-6.69-4.7-13.14-6.55a.59.59,0,0,0-.58.15.61.61,0,0,0-.15.59,17.71,17.71,0,0,1,.76,5.28,19.67,19.67,0,0,0,.14,5.1.59.59,0,0,0,.58.49h.11a.59.59,0,0,0,.48-.68,18.55,18.55,0,0,1-.13-4.79,14.87,14.87,0,0,0-.43-4.26,37.46,37.46,0,0,1,5.32,4.31.6.6,0,0,0,.41.17.61.61,0,0,0,.43-.18.6.6,0,0,0,0-.84,39.36,39.36,0,0,0-3.44-3c4,1.43,6.8,3,8.69,4.9a18.41,18.41,0,0,0-2,1.74c-.51-.65-1-1.28-1.6-1.9a.59.59,0,1,0-.87.79c.58.65,1.14,1.31,1.66,2a16.65,16.65,0,0,0-3.45,6.84A13.24,13.24,0,0,0,57.33,64l-.2-.16a11.41,11.41,0,0,1-3.36-4.68.59.59,0,0,0-.77-.33.59.59,0,0,0-.33.76,12.58,12.58,0,0,0,3.7,5.16c.28.23.57.45.85.65a9.66,9.66,0,0,0,1.29,5.28,42.45,42.45,0,0,0-1.9,6.94.59.59,0,0,0,.47.69h.1a.59.59,0,0,0,.59-.48,40.46,40.46,0,0,1,1.59-6,7.11,7.11,0,0,0,1.5,1.28A7.65,7.65,0,0,0,65,74.25a10.74,10.74,0,0,0,1.37-.09,13.81,13.81,0,0,0,6.54-3.06,16.71,16.71,0,0,0,4.53-5.63.6.6,0,0,0-.27-.79.58.58,0,0,0-.79.26,15.61,15.61,0,0,1-4.21,5.24c-3.79,3-7.78,3.74-10.67,1.88a6.45,6.45,0,0,1-1.67-1.58c.51-1.31,1.07-2.56,1.67-3.76a16.26,16.26,0,0,1,2.79.27h.1a.59.59,0,0,0,.1-1.18,17.89,17.89,0,0,0-2.38-.27,43.13,43.13,0,0,1,3-4.8h0a7.91,7.91,0,0,1,2.42.07l.86.1h0a.59.59,0,0,0,.06-1.18l-.82-.1c-.54-.06-1.08-.13-1.65-.14.92-1.19,1.86-2.3,2.79-3.31h0A7,7,0,0,1,72,56.12a.59.59,0,0,0,.69-.47.58.58,0,0,0-.47-.69,9.12,9.12,0,0,0-2.06-.16c.61-.61,1.21-1.19,1.79-1.72a.59.59,0,0,0-.79-.87,48.92,48.92,0,0,0-4.07,4.15A2.65,2.65,0,0,0,65.82,55a.61.61,0,0,0-.8.27.6.6,0,0,0,.27.79,1.59,1.59,0,0,1,.88,1.35,48.63,48.63,0,0,0-3.12,4.22,2.67,2.67,0,0,0-1.22-1.2.61.61,0,0,0-.8.27.6.6,0,0,0,.27.79,1.59,1.59,0,0,1,.88,1.36.59.59,0,0,0,0,.13,45.79,45.79,0,0,0-3.12,6.14,10.31,10.31,0,0,1-.28-6.61A15.74,15.74,0,0,1,65,53.4a.38.38,0,0,0,.13-.09l0,0a38.56,38.56,0,0,1,11-5.09c-.87.62-1.89,1.38-3,2.29a.59.59,0,0,0-.08.83.58.58,0,0,0,.45.22.56.56,0,0,0,.38-.14A42.38,42.38,0,0,1,79,47.78a21.25,21.25,0,0,0-.8,6.1,23.23,23.23,0,0,1-.78,8.47.59.59,0,0,0,1.13.35,24.19,24.19,0,0,0,.83-8.91c-.21-2.79,1.15-7.09,1.16-7.13A.59.59,0,0,0,80.38,46.07Z"/></g></g></svg>