<svg xmlns="http://www.w3.org/2000/svg" viewBox="0 0 140.23 134.81"><defs><style>.cls-1{fill:#ffce00;}.cls-2{fill:#ffb100;}.cls-3{fill:#ffe454;}.cls-4{font-size:20px;font-family:TwCenMT-Regular, Tw Cen MT;}.cls-5{letter-spacing:-0.05em;}.cls-6{fill:#9e9e9e;}.cls-7{fill:#f5f5f5;}.cls-8{fill:#1566c0;}.cls-9{fill:#2296f3;}.cls-10{fill:#00838f;}.cls-11{fill:#00bcd4;}</style></defs><title>Asset 106</title><g id="Layer_2" data-name="Layer 2"><g id="_1366_x_3620_x_Artboard_1" data-name="1366 x 3620 x Artboard 1"><path class="cls-1" d="M102.86,31.1a35.09,35.09,0,0,0-1-8.25,33.26,33.26,0,0,0-7.42-10,35.11,35.11,0,0,0-43.18,5.71l11.47-5,1.59,3.68-12.71,5.5-1.36-3.13a35,35,0,0,0-8.88,24.64,35.63,35.63,0,0,0,1.28,8.2,33.37,33.37,0,0,0,6,8.13A35.12,35.12,0,0,0,102.86,31.1ZM81.26,13.57,94,19.07l-1.59,3.68-12.71-5.5ZM88.43,29.1a4,4,0,1,1-4-4A4,4,0,0,1,88.43,29.1Zm-28.84-4a4,4,0,1,1-4,4A4,4,0,0,1,59.59,25.08Zm-5,27.47-3.68-1.61a23.09,23.09,0,0,1,41.25-2,21.73,21.73,0,0,1,1,2l-3.67,1.61c-.25-.57-.54-1.14-.85-1.69a19.06,19.06,0,0,0-34.07,1.69Z"/><path class="cls-2" d="M101.88,22.85A35.12,35.12,0,0,1,48.67,60.59a33.1,33.1,0,0,0,53.21-37.74Z"/><path class="cls-3" d="M50.27,19.62,50,19.07l1.24-.54a35.11,35.11,0,0,1,43.18-5.71A33.09,33.09,0,0,0,42.67,52.46a35.63,35.63,0,0,1-1.28-8.2A35,35,0,0,1,50.27,19.62Z"/><path d="M72,0a37.12,37.12,0,1,0,37.12,37.12A37.17,37.17,0,0,0,72,0Zm0,70.23a33,33,0,0,1-23.34-9.64,33.37,33.37,0,0,1-6-8.13A33.09,33.09,0,0,1,94.46,12.82,33.09,33.09,0,0,1,72,70.23Zm-14-.9.18.08Z"/><circle cx="59.59" cy="29.1" r="4.01"/><circle cx="84.42" cy="29.1" r="4.01"/><rect x="84.81" y="11.24" width="4.01" height="13.85" transform="translate(35.65 90.61) rotate(-66.58)"/><polygon points="50.27 19.62 51.63 22.75 64.34 17.25 62.75 13.57 51.28 18.53 50.04 19.07 50.27 19.62"/><path d="M88.62,50.86c.31.55.59,1.12.85,1.69l3.67-1.61a21.73,21.73,0,0,0-1-2,23.09,23.09,0,0,0-41.25,2l3.67,1.61a19.08,19.08,0,0,1,34.08-1.69Z"/><text class="cls-4" transform="translate(52.28 114.17)"><tspan class="cls-5">P</tspan><tspan x="9" y="0">oor</tspan></text><path class="cls-6" d="M37.08,35.46v6.85h-13V35.46a2.05,2.05,0,0,1,2.05-2.05H35A2.05,2.05,0,0,1,37.08,35.46Z"/><path class="cls-6" d="M37.08,36.15v6.16H30.92V37.52a1.37,1.37,0,0,1,1.37-1.37Z"/><path class="cls-7" d="M35,36.15v6.16H30.92V37.52a1.37,1.37,0,0,1,1.37-1.37Z"/><path class="cls-8" d="M38.45,43.68V71.75a1.38,1.38,0,0,1-1.37,1.37h-8.9a5.48,5.48,0,0,1-5.47-5.48v-24a1.37,1.37,0,0,1,1.37-1.37h13A1.37,1.37,0,0,1,38.45,43.68Z"/><path class="cls-9" d="M36.4,43.68V71.75A1.38,1.38,0,0,1,35,73.12H28.18a5.48,5.48,0,0,1-5.47-5.48v-24a1.37,1.37,0,0,1,1.37-1.37H35A1.37,1.37,0,0,1,36.4,43.68Z"/><path class="cls-8" d="M41.19,58.05v13H38.45l-7.92-2.64a3.44,3.44,0,0,1-2.35-3.25V64.1a3.45,3.45,0,0,1,1.67-2.94l4.37-2.62A3.61,3.61,0,0,1,36,58.05Z"/><path class="cls-9" d="M39.14,58.05v13h-.69l-7.92-2.64a3.44,3.44,0,0,1-2.35-3.25V64.1a3.45,3.45,0,0,1,1.67-2.94l4.37-2.62A3.61,3.61,0,0,1,36,58.05Z"/><path class="cls-10" d="M49.41,60v9.12a1.37,1.37,0,0,1-1.26,1.36l-3.53.29-1.37.12-2.06.17v-13l2.06.18,1.37.11,3.53.3A1.37,1.37,0,0,1,49.41,60Z"/><path class="cls-11" d="M47.35,60v9.12a1.36,1.36,0,0,1-1.25,1.36l-3.54.29-1.36.12h0V58.23h0l1.36.11,3.54.3A1.36,1.36,0,0,1,47.35,60Z"/><path d="M28.21,73.8h8.9a2.05,2.05,0,0,0,2.06-2h2.11l7-.58a2.06,2.06,0,0,0,1.88-2V60a2.06,2.06,0,0,0-1.88-2l-7-.58H39.17V43.68a2.06,2.06,0,0,0-1.37-1.93V35.46a2.74,2.74,0,0,0-2.74-2.74h-8.9a2.74,2.74,0,0,0-2.74,2.74v6.29a2.06,2.06,0,0,0-1.37,1.93v24A6.17,6.17,0,0,0,28.21,73.8ZM48.75,60v9.12a.69.69,0,0,1-.63.68l-3.48.29V64.22a.68.68,0,0,0-.68-.69.69.69,0,0,0-.69.69v6l-1.36.12V58.8l1.36.11v2.57a.68.68,0,0,0,.69.68.67.67,0,0,0,.68-.68V59l3.48.29A.68.68,0,0,1,48.75,60ZM40.54,70.38H38.59l-7.82-2.61a2.73,2.73,0,0,1-1.87-2.6V64.1a2.74,2.74,0,0,1,1.33-2.35l4.37-2.62A2.67,2.67,0,0,1,36,58.74h4.53ZM36.43,38.2H34.37a.69.69,0,0,0,0,1.37h2.06v2H31.64v-4.1a.68.68,0,0,1,.68-.69h4.11ZM24.79,35.46a1.37,1.37,0,0,1,1.37-1.37h8.9a1.37,1.37,0,0,1,1.37,1.37H32.32a2.05,2.05,0,0,0-2.05,2.06v4.1H24.79ZM23.42,58.74h1.37a.69.69,0,0,0,0-1.37H23.42V56h1.37a.69.69,0,0,0,0-1.37H23.42V53.26h1.37a.67.67,0,0,0,.68-.68.68.68,0,0,0-.68-.69H23.42V50.52h1.37a.67.67,0,0,0,.68-.68.68.68,0,0,0-.68-.69H23.42V46.42h3.42a.69.69,0,0,0,.69-.69.68.68,0,0,0-.69-.68H23.42V43.68a.69.69,0,0,1,.69-.69h13a.69.69,0,0,1,.69.69v1.37H29.58a.67.67,0,0,0-.68.68.68.68,0,0,0,.68.69H37.8V57.37H36a4.06,4.06,0,0,0-2.12.59l-4.37,2.62a4.12,4.12,0,0,0-2,3.52v1.07a4.11,4.11,0,0,0,2.81,3.9l7.46,2.49v.19a.68.68,0,0,1-.69.68h-8.9a4.8,4.8,0,0,1-4.79-4.79Z"/></g></g></svg>