<svg xmlns="http://www.w3.org/2000/svg" viewBox="0 0 102.77 134.78"><defs><style>.cls-1{fill:#ffce00;}.cls-2{fill:#ffb100;}.cls-3{fill:#ffe454;}.cls-4{fill:#a7eedc;}.cls-5{fill:#86e8d0;}.cls-6{font-size:20px;font-family:TwCenMT-Regular, Tw Cen MT;}.cls-7{letter-spacing:-0.06em;}.cls-8{letter-spacing:-0.05em;}</style></defs><title>Asset 107</title><g id="Layer_2" data-name="Layer 2"><g id="_750_x_5766_px_Artboard_2" data-name="750 x 5766 px Artboard 2"><g id="Text"><path class="cls-1" d="M81.75,30.87a35.11,35.11,0,0,0-1-8.19,33.07,33.07,0,0,0-7.36-10,34.86,34.86,0,0,0-42.86,5.67l11.38-4.92,1.59,3.65L30.91,22.58l-1.35-3.11A34.84,34.84,0,0,0,22,52.06,32.86,32.86,0,0,0,28,60.13,34.85,34.85,0,0,0,81.75,30.87ZM60.32,13.47l12.61,5.46-1.58,3.65L58.74,17.12Zm7.12,15.41a4,4,0,1,1-4-4A4,4,0,0,1,67.44,28.88Zm-28.63-4a4,4,0,1,1-4,4A4,4,0,0,1,38.81,24.89Z"/><path class="cls-2" d="M80.78,22.68a34.87,34.87,0,0,1-33.88,43A34.63,34.63,0,0,1,28,60.13,32.85,32.85,0,0,0,80.78,22.68Z"/><path class="cls-3" d="M29.56,19.47l-.23-.54,1.23-.54a34.86,34.86,0,0,1,42.86-5.67A32.84,32.84,0,0,0,22,52.06a34.84,34.84,0,0,1,7.54-32.59Z"/><path d="M51.13,0A36.85,36.85,0,1,0,88,36.84,36.89,36.89,0,0,0,51.13,0Zm0,69.7A32.86,32.86,0,1,1,84,36.84,32.74,32.74,0,0,1,51.13,69.7Zm-13.91-.89.18.08Z"/><circle cx="38.81" cy="28.88" r="3.98"/><circle cx="63.45" cy="28.88" r="3.98"/><rect x="63.84" y="11.15" width="3.98" height="13.75" transform="translate(23.13 71.27) rotate(-66.58)"/><polygon points="29.56 19.47 30.91 22.58 43.53 17.12 41.94 13.47 30.56 18.39 29.33 18.93 29.56 19.47"/><path class="cls-4" d="M77.18,37.66c3.45,11,3.49,20.92,0,29.86a1.25,1.25,0,0,1-.72.72,66.61,66.61,0,0,1-50.45,0,1.24,1.24,0,0,1-.73-.74,42.22,42.22,0,0,1,0-29.87,1.29,1.29,0,0,1,.77-.76q26.61-9.51,50.37,0A1.27,1.27,0,0,1,77.18,37.66Z"/><path class="cls-5" d="M60.39,72.55A66.73,66.73,0,0,1,26,68.25a1.24,1.24,0,0,1-.73-.74,42.22,42.22,0,0,1,0-29.87,1.29,1.29,0,0,1,.77-.76q3.9-1.4,7.72-2.38c-2.28,7.09-1.38,19-.52,26.26A9.35,9.35,0,0,0,40,68.64c5.94,1.68,15,4,20.37,3.91Z"/><path d="M87.11,39.5l-.24-.41a6.53,6.53,0,0,0-4.75-3.16,6.6,6.6,0,0,0-4.21.82,2.32,2.32,0,0,0-1.08-.87c-1.82-.73-3.69-1.39-5.56-2a1.06,1.06,0,1,0-.62,2c1.8.54,3.62,1.18,5.39,1.89a.2.2,0,0,1,.12.13c.26.82.5,1.64.72,2.45a148.08,148.08,0,0,0-51.43.12c.26-.85.54-1.7.84-2.54a.27.27,0,0,1,.13-.13,79.4,79.4,0,0,1,20.35-4.49,64.93,64.93,0,0,1,19.41,1.38A1.06,1.06,0,0,0,67.45,34a1,1,0,0,0-.8-1.27c-13-3-26.78-1.88-40.95,3.19a2.28,2.28,0,0,0-1.17.92,6.58,6.58,0,0,0-9,2.28l-.24.41a6.44,6.44,0,0,0-.37,5.81L23.4,65.2q.41,1.33.9,2.67a2.29,2.29,0,0,0,1.33,1.36,69.88,69.88,0,0,0,25.62,5h0a69.84,69.84,0,0,0,25.62-5,2.31,2.31,0,0,0,1.32-1.33A38.63,38.63,0,0,0,79.47,64l8-18.69a6.44,6.44,0,0,0-.37-5.81ZM77.67,62.44a137.31,137.31,0,0,1-42.25,1.65,1.06,1.06,0,1,0-.25,2.1,141.44,141.44,0,0,0,16.12.93,140.3,140.3,0,0,0,25.76-2.41c-.25.82-.53,1.63-.85,2.43a.18.18,0,0,1-.12.12,67.73,67.73,0,0,1-24.83,4.89h0a67.75,67.75,0,0,1-24.83-4.88.2.2,0,0,1-.12-.13c-.3-.8-.56-1.6-.81-2.4,1.7.31,3.41.6,5.1.85h.16a1.06,1.06,0,0,0,1.05-.9,1,1,0,0,0-.9-1.2c-2-.3-4-.64-6-1a41.24,41.24,0,0,1-1.18-8H55.61a1.06,1.06,0,1,0,0-2.11h-32q0-1.49.12-3a1.06,1.06,0,0,0-2.12-.17,42.59,42.59,0,0,0,0,6.39L16.83,44.48a4.35,4.35,0,0,1,.25-3.91l.24-.42a4.45,4.45,0,0,1,6.44-1.31,47.27,47.27,0,0,0-1.5,5.78,1.06,1.06,0,0,0,.85,1.24h.2A1.07,1.07,0,0,0,24.36,45c.14-.73.3-1.48.48-2.22a145.75,145.75,0,0,1,52.6-.12,48.69,48.69,0,0,1,1.25,9.71H60.54a1.06,1.06,0,1,0,0,2.11H78.69a38.44,38.44,0,0,1-1,7.95Zm7.85-18-4.73,11a51,51,0,0,0-2.15-16.71A4.44,4.44,0,0,1,85,40.15l.24.42a4.35,4.35,0,0,1,.25,3.91Z"/><text class="cls-6" transform="translate(12.03 115.71)"><tspan class="cls-7">V</tspan><tspan x="10.88" y="0">ery </tspan><tspan class="cls-8" x="43.06" y="0">P</tspan><tspan x="52.06" y="0">oor</tspan></text></g></g></g></svg>