<svg xmlns="http://www.w3.org/2000/svg" viewBox="0 0 84.9 136.24"><defs><style>.cls-1{fill:#365e7d;}.cls-2{fill:#2b4d66;}.cls-3{fill:#ff7f87;}.cls-4{fill:#ffcebe;}.cls-5{fill:#ffb1a0;}.cls-6{fill:#ffdecf;}.cls-7{fill:#ffd064;}.cls-8{fill:#b3e59f;}.cls-9{fill:#95d6a4;}.cls-10{fill:#80b4fb;}.cls-11{fill:#61a2f9;}.cls-12{font-size:20px;font-family:TwCenMT-Regular, Tw Cen MT;}</style></defs><title>Asset 84</title><g id="Layer_2" data-name="Layer 2"><g id="_750_x_5766_px_Artboard_2" data-name="750 x 5766 px Artboard 2"><g id="Text"><path class="cls-1" d="M36,17.19H33.6l-.15.16v1.44a2.83,2.83,0,0,1-1.89,2.59c-1.56.81-2,5.37.9,6.86l.84.13,5.84-2.26V22.8Z"/><path class="cls-2" d="M35.6,21.38a3.23,3.23,0,0,0,1.77-1.77L36,17.19H33.6l-.15.16v1.44a2.83,2.83,0,0,1-1.89,2.59c-1.56.81-2,5.37.9,6.86l.84.13,2.22-.86C33.71,25.62,34.24,22.08,35.6,21.38Z"/><path class="cls-1" d="M53.41,21.38a2.84,2.84,0,0,1-1.89-2.59V17.33l-.24-.22H48.73L45.8,23v3l6,2.35.56-.17c2.87-1.53,2.57-6,1-6.82Z"/><path class="cls-3" d="M55.9,29.56l-7.17-2.78-.64.29H37l-.79-.28-7.15,2.77a6.18,6.18,0,0,0-3.61,5.59V45.22H59.51V35.15a6.16,6.16,0,0,0-3.61-5.59Z"/><path class="cls-4" d="M51.51,13.16l-.2-.21H48.9v4.21l.14.28h1.81a2.19,2.19,0,0,0,.66-4.28Z"/><path class="cls-4" d="M33.45,13.14h0a2.19,2.19,0,0,0,.59,4.3h1.89l.21-.25V12.94H33.61Z"/><path class="cls-5" d="M51.05,13H48.9v4.21l.14.28h2Z"/><path class="cls-5" d="M34,15.25a2.18,2.18,0,0,1,1.6-2.11h0l.15-.2H33.61l-.16.2h0a2.19,2.19,0,0,0,.59,4.3h1.89l0,0A2.19,2.19,0,0,1,34,15.25Z"/><path class="cls-4" d="M46.59,26a.68.68,0,0,1-.42-.62V23.11l-.3-.31H39.14l-.34.32v2.21c0,.51-.46.64-.65.71l-1.93.75a6.58,6.58,0,0,0,12.51,0Z"/><path class="cls-5" d="M42.48,22.8H39.14l-.34.32v2.21c0,.51-.46.64-.65.71l-1.93.75a6.47,6.47,0,0,0,6.26,4.54Z"/><path class="cls-6" d="M48.36,12.5H45.49L43.23,9.69H41.88L39.78,12v5.79A6.63,6.63,0,0,0,44.18,24,6.55,6.55,0,0,0,49,17.7V13.06Z"/><path class="cls-4" d="M39.94,17.76v-6l-.8.86H36.22l-.29.4v4.7a6.47,6.47,0,0,0,6.62,6.46,6.27,6.27,0,0,0,2-.3,6.41,6.41,0,0,1-4.56-6.16Z"/><path class="cls-1" d="M42.37,1.25a9.12,9.12,0,0,0-8.92,9.17v2.72a2.33,2.33,0,0,1,.59-.08h3.61c.22,0,1.48-.11,1.38-.1a3.81,3.81,0,0,0,3.35-2.88.11.11,0,0,1,.1-.09.11.11,0,0,1,.11.09A3.8,3.8,0,0,0,45.9,13c1.14.1,1.15.11,1.36.11h3.59a2.13,2.13,0,0,1,.67.1V10.28A9,9,0,0,0,42.37,1.25Z"/><path class="cls-2" d="M37.49,10.42a9.17,9.17,0,0,1,7-8.94,8.94,8.94,0,0,0-2.14-.23,9.12,9.12,0,0,0-8.92,9.17v2.72a2.33,2.33,0,0,1,.59-.08h3.45V10.42Z"/><path class="cls-1" d="M53.07,34.7H50.64l-.15.16v1.43a2.85,2.85,0,0,1-1.9,2.6c-1.56.8-2,5.37.91,6.86l.83.13,5.84-2.26V40.3Z"/><path class="cls-2" d="M52.64,38.89a3.19,3.19,0,0,0,1.76-1.78L53.07,34.7H50.64l-.15.16v1.43a2.85,2.85,0,0,1-1.9,2.6c-1.56.8-2,5.37.91,6.86l.83.13L52.55,45c-1.8-1.9-1.27-5.43.09-6.13Z"/><path class="cls-1" d="M70.44,38.89a2.84,2.84,0,0,1-1.89-2.6V34.84l-.24-.23H65.76l-2.93,5.92v3l6,2.35.56-.17c2.88-1.53,2.57-6,1-6.82Z"/><path class="cls-7" d="M72.94,47.07l-7.18-2.78-.64.28H54.05l-.79-.28L46.1,47.07a6.17,6.17,0,0,0-3.6,5.59v7.78H70.37V56.16h6.17v-3.5a6.15,6.15,0,0,0-3.6-5.59Z"/><path class="cls-4" d="M68.54,30.66l-.2-.2h-2.4v4.21l.13.27h1.81a2.19,2.19,0,0,0,.66-4.28Z"/><path class="cls-4" d="M50.49,30.64h0a2.19,2.19,0,0,0,.59,4.3H53l.21-.24V30.45H50.64Z"/><path class="cls-5" d="M68.08,30.46H65.94v4.21l.13.27h2Z"/><path class="cls-5" d="M51,32.75a2.2,2.2,0,0,1,1.6-2.11h0l.16-.19H50.64l-.15.19h0a2.19,2.19,0,0,0,.59,4.3H53A2.19,2.19,0,0,1,51,32.75Z"/><path class="cls-4" d="M70.37,56v4.42h5a1.2,1.2,0,0,0,1.2-1.2V56Z"/><path class="cls-4" d="M63.63,43.46a.66.66,0,0,1-.43-.62V40.61l-.29-.31H56.17l-.34.32v2.22c0,.51-.45.63-.65.71l-1.92.74a6.57,6.57,0,0,0,12.5,0Z"/><path class="cls-5" d="M59.52,40.3H56.17l-.34.32v2.22c0,.51-.45.63-.65.71l-1.92.74a6.47,6.47,0,0,0,6.26,4.55Z"/><path class="cls-6" d="M65.4,30H62.52L60.26,27.2H58.91l-2.09,2.27v5.79a6.63,6.63,0,0,0,4.4,6.26,6.56,6.56,0,0,0,4.85-6.32V30.56Z"/><path class="cls-4" d="M57,35.27v-6l-.8.87H53.26l-.29.39v4.71a6.47,6.47,0,0,0,6.62,6.46,6.32,6.32,0,0,0,1.95-.31A6.4,6.4,0,0,1,57,35.27Z"/><path class="cls-1" d="M59.4,18.76a9.11,9.11,0,0,0-8.91,9.16v2.72a2.21,2.21,0,0,1,.59-.08h3.6c.22,0,1.48-.1,1.39-.09a3.82,3.82,0,0,0,3.34-2.89.11.11,0,0,1,.11-.08.12.12,0,0,1,.11.08,3.79,3.79,0,0,0,3.3,2.88c1.14.1,1.16.1,1.36.1h3.59a2.09,2.09,0,0,1,.67.11V27.79A9,9,0,0,0,59.4,18.76Z"/><path class="cls-2" d="M54.53,27.92a9.16,9.16,0,0,1,7-8.93,9,9,0,0,0-2.15-.23,9.11,9.11,0,0,0-8.91,9.16v2.72a2.21,2.21,0,0,1,.59-.08h3.45V27.92Z"/><path class="cls-4" d="M33.86,30.21h-.52L33.11,30H31.72v4.63l.4.21h1.74a2.31,2.31,0,0,0,0-4.61Z"/><path class="cls-4" d="M17.05,30.21a2.31,2.31,0,0,0,0,4.61h1.73l.29-.52V30H17.45Z"/><path class="cls-5" d="M34,30.22h-.67L33.11,30H31.72v4.63l.4.21H34V30.22Z"/><path class="cls-5" d="M17.15,32.52a2.27,2.27,0,0,1,1.93-2.29V30H17.45l-.4.23a2.31,2.31,0,0,0,0,4.61h1.73l0-.06A2.3,2.3,0,0,1,17.15,32.52Z"/><path class="cls-8" d="M38.88,47.07l-7.09-2.75-.54.27H19.61l-.49-.29L12,47.07a6.17,6.17,0,0,0-3.6,5.59v3.13H14.6v4.65H42.48V52.66a6.15,6.15,0,0,0-3.6-5.59Z"/><path class="cls-9" d="M13.71,50.24c0-2.09.5-3.53,1.66-4.47L12,47.07a6.17,6.17,0,0,0-3.6,5.59v3.13h5.27V50.24Z"/><path class="cls-5" d="M14.6,55.65H8.44v3.59a1.2,1.2,0,0,0,1.2,1.2h5Z"/><path class="cls-4" d="M29.57,43.46a.66.66,0,0,1-.43-.62V40.65l-.45-.46H22.18l-.41.45v2.2a.63.63,0,0,1-.28.54l-2.37.92a6.69,6.69,0,0,0,12.67,0l-2.22-.86Z"/><path class="cls-5" d="M25.46,40.19H22.18l-.41.45v2.2a.63.63,0,0,1-.28.54l-2.37.92a6.59,6.59,0,0,0,6.34,4.54Z"/><path class="cls-6" d="M31.79,29.64l-.54-.36-.42-1.78H30L26.7,29.92H23.75l-.25.4v4.82a6.68,6.68,0,0,0,4.21,6.22,6.58,6.58,0,0,0,4.41-6.21V30.39Z"/><path class="cls-4" d="M23.6,35.15V30.44l.32-.52h-4.8l-.33.52v4.71a6.57,6.57,0,0,0,6.76,6.57,6.64,6.64,0,0,0,2.33-.42,6.54,6.54,0,0,1-4.28-6.15Z"/><path class="cls-1" d="M31.7,21.79a1.22,1.22,0,0,1-1.33-1c-.2-1-.72-2.07-2.73-2.07h-7A4.64,4.64,0,0,0,16,23.4v5.09a2,2,0,0,0,1.95,2H25.9A4.63,4.63,0,0,0,30,28a.12.12,0,0,1,.23.06,2.4,2.4,0,0,0,2.4,2.39,1.25,1.25,0,0,0,1.25-1.25V23.87a2.08,2.08,0,0,0-2.17-2.08Z"/><path class="cls-2" d="M20,28.49V23.4a4.64,4.64,0,0,1,4.64-4.64H20.66A4.64,4.64,0,0,0,16,23.4v5.09a2,2,0,0,0,1.95,2h3.94A2,2,0,0,1,20,28.49Z"/><path class="cls-4" d="M50.89,47.94h-.52l-.24-.23H48.75v4.63l.4.21h1.74a2.31,2.31,0,0,0,0-4.61Z"/><path class="cls-4" d="M34.08,47.94a2.31,2.31,0,0,0,0,4.61h1.74L36.1,52V47.71H34.48Z"/><path class="cls-5" d="M51,47.94h-.66l-.24-.23H48.75v4.63l.4.21H51v-4.6Z"/><path class="cls-5" d="M34.18,50.24A2.27,2.27,0,0,1,36.1,48v-.24H34.48l-.4.23a2.31,2.31,0,0,0,0,4.61h1.74l0-.07a2.27,2.27,0,0,1-1.68-2.24Z"/><path class="cls-10" d="M55.9,64.79l-7.08-2.74-.55.26H36.64l-.5-.28-7.07,2.76a6.18,6.18,0,0,0-3.61,5.59v3.14h6.17V77.8H53.34V73.52h6.17V70.38a6.16,6.16,0,0,0-3.61-5.59Z"/><path class="cls-11" d="M30.74,68c0-2.08.5-3.53,1.66-4.47l-3.33,1.3a6.18,6.18,0,0,0-3.61,5.59v3.14h5.28V68Z"/><path class="cls-5" d="M31.63,73.38H25.46V76.6a1.2,1.2,0,0,0,1.2,1.2h5Z"/><path class="cls-4" d="M53.34,73.38V77.8h5a1.2,1.2,0,0,0,1.2-1.2V73.38Z"/><path class="cls-4" d="M46.59,61.19a.68.68,0,0,1-.42-.62V58.38l-.46-.46h-6.5l-.41.45v2.19a.59.59,0,0,1-.29.54L36.14,62a6.71,6.71,0,0,0,12.68,0l-2.23-.86Z"/><path class="cls-5" d="M42.48,57.92H39.21l-.41.45v2.19a.59.59,0,0,1-.29.54L36.14,62a6.6,6.6,0,0,0,6.34,4.53Z"/><path class="cls-6" d="M48.82,47.37,48.27,47l-.41-1.78h-.8l-3.33,2.42H40.78l-.25.4v4.82a6.67,6.67,0,0,0,4.21,6.22,6.58,6.58,0,0,0,4.41-6.2V48.11Z"/><path class="cls-4" d="M40.62,52.88V48.17l.33-.53H36.14l-.32.53v4.71a6.58,6.58,0,0,0,6.76,6.57A6.47,6.47,0,0,0,44.91,59a6.52,6.52,0,0,1-4.29-6.14Z"/><path class="cls-1" d="M48.72,39.52a1.23,1.23,0,0,1-1.32-1c-.21-1-.72-2.07-2.73-2.07h-7A4.64,4.64,0,0,0,33,41.12v5.09a2,2,0,0,0,2,2h7.92A4.64,4.64,0,0,0,47,45.71a.12.12,0,0,1,.23.06,2.4,2.4,0,0,0,2.39,2.4,1.26,1.26,0,0,0,1.26-1.26V41.6a2.09,2.09,0,0,0-2.18-2.08Z"/><path class="cls-2" d="M37,46.21V41.12a4.64,4.64,0,0,1,4.64-4.64H37.68A4.64,4.64,0,0,0,33,41.12v5.09a2,2,0,0,0,2,2h3.94a2,2,0,0,1-2-2Z"/><path d="M73.36,45.91h0l-1.75-.68c1.83-2.46,1.39-6.41-.63-7.45-1.06-.55-1.27-1-1.27-1.57v-.74a3.33,3.33,0,0,0,0-5.6V27.7a10.16,10.16,0,0,0-16.53-7.93,1.28,1.28,0,0,1-.49-1.07V18a3.35,3.35,0,0,0,0-5.61V10.19A10.19,10.19,0,0,0,42.47,0h-.14a10.29,10.29,0,0,0-10,10.32v2a3.35,3.35,0,0,0,0,5.71v.69c0,.5-.16.9-.9,1.36-.49-1.69-1.75-2.55-3.75-2.55h-7a5.8,5.8,0,0,0-5.8,5.79v5.1a3,3,0,0,0,.25,1.21,3.49,3.49,0,0,0-1.4,2.81A3.42,3.42,0,0,0,17,35.89h.62a7.63,7.63,0,0,0,2.94,5.25v1.25l-9,3.51h0a7.31,7.31,0,0,0-4.32,6.66v6.58A2.36,2.36,0,0,0,9.62,61.5H33.13l-4.5,1.76h0a7.31,7.31,0,0,0-4.32,6.66v6.58a2.35,2.35,0,0,0,2.35,2.35H39.77a1.16,1.16,0,1,0,0-2.31H32.92v-6a1.16,1.16,0,1,0-2.31,0v1.56h-4v-2.2a5,5,0,0,1,2.88-4.52l6-2.35a7.87,7.87,0,0,0,13.93,0l6,2.33a5,5,0,0,1,2.88,4.52v2.2h-4V70.57a1.16,1.16,0,1,0-2.31,0v6H45.16a1.16,1.16,0,0,0,0,2.31H58.29a2.36,2.36,0,0,0,2.36-2.35V69.93a7.31,7.31,0,0,0-4.32-6.66h0L51.76,61.5H75.32a2.35,2.35,0,0,0,2.35-2.35V52.57a7.3,7.3,0,0,0-4.31-6.66ZM26.6,76.36V74.44h4v2.11h-4a0,0,0,0,1,0,0Zm27.73.19V74.44h4v2.07a0,0,0,0,1-.05,0Zm21-24v2.2h-4V53.21a1.16,1.16,0,1,0-2.31,0v6H47.31v-.67a7.77,7.77,0,0,0,2.94-5.27h.62a3.42,3.42,0,0,0,3.35-3.47h0A3.46,3.46,0,0,0,52,46.54V45.9l.55-.21a7.57,7.57,0,0,0,3.61,3.5,1.15,1.15,0,0,0,1-2.1,5.26,5.26,0,0,1-2.4-2.24l.53-.21A2.05,2.05,0,0,0,57,42.75v-.38a7.87,7.87,0,0,0,5.06,0v.38a1.82,1.82,0,0,0,1.17,1.69l1,.4a5.44,5.44,0,0,1-2.59,2.33,1.16,1.16,0,0,0,.91,2.13,7.75,7.75,0,0,0,3.85-3.62l6.11,2.36a5,5,0,0,1,2.87,4.52ZM37,52.09V48.86h5.95a5.8,5.8,0,0,0,3.85-1.46A3.66,3.66,0,0,0,48,48.46v3.63a5.52,5.52,0,1,1-11,0Zm-2.9-1.15a1.1,1.1,0,0,1-1-1.16,1.12,1.12,0,0,1,.83-1.12,3.78,3.78,0,0,0,.79.19v2.09Zm-2-11.73a6.19,6.19,0,0,0-.18,1.45V43l-1.59-.61V41.16a7.71,7.71,0,0,0,1.77-1.95Zm1.62-18.06a3.61,3.61,0,0,0,.92-2.65h.21a7.57,7.57,0,0,0,2.82,5.12v1.29l-2.6,1V23.78A3.23,3.23,0,0,0,33.67,21.15Zm-.68-6a1,1,0,0,1,1-1h.74v2.07H34A1,1,0,0,1,33,15.16Zm9.48-2.9A4.89,4.89,0,0,0,45.79,14a13.39,13.39,0,0,0,2.08.11v3.23A5.38,5.38,0,0,1,42.54,23a5.31,5.31,0,0,1-5.47-5.63V14.12c2.24,0,4-.13,5.4-1.86Zm8.36,1.86a1,1,0,1,1,0,2.07h-.65V14.12ZM59.5,29.77A5,5,0,0,0,61,31a5.19,5.19,0,0,0,2.36.6,10.15,10.15,0,0,0,1.57.07v3.22a5.4,5.4,0,0,1-8.44,4.72,5.27,5.27,0,0,1-2.35-4.39V31.63c2.25,0,4-.15,5.4-1.86Zm8.36,1.86a1,1,0,1,1,0,2.07H67.2V31.63ZM46,44.71a3.48,3.48,0,0,1-3.07,1.84H35a.79.79,0,0,1-.8-.79h0v-5.1a3.48,3.48,0,0,1,3.49-3.48h7c1.28,0,1.46.45,1.6,1.14a2.38,2.38,0,0,0,2.55,1.89h0a.93.93,0,0,1,.93.93v5.31h0a.1.1,0,0,1-.1.1,1.25,1.25,0,0,1-1.24-1.24,1.28,1.28,0,0,0-2.41-.6ZM52,43.43V41.14a3.2,3.2,0,0,0-1.27-2.57A3.55,3.55,0,0,0,51.61,36h.22a7.55,7.55,0,0,0,1.49,3.76,7.72,7.72,0,0,0,1.33,1.35v1.3l-2.61,1ZM47.7,32.66a3.36,3.36,0,0,0,1.6,2.86v.68a1.46,1.46,0,0,1-.86,1.34c-.49-1.88-1.89-2.67-3.79-2.67h-7a5.91,5.91,0,0,0-1.73.26,3.51,3.51,0,0,0-.92-6c0-.06,0-.72,0-.78l.54-.21a7.74,7.74,0,0,0,13.74.07v1.55a3.34,3.34,0,0,0-1.6,2.85ZM32.92,37.33a7.7,7.7,0,0,0,.3-1.44h.63a3.34,3.34,0,0,0,.62-.06A6,6,0,0,0,32.92,37.33ZM45,24.88v.37A1.82,1.82,0,0,0,46.16,27l1,.39a5.44,5.44,0,0,1-9.45,0c.92-.36,2.2-.68,2.2-2.11v-.37A8.06,8.06,0,0,0,45,24.88ZM33.63,31.27h.22a1.16,1.16,0,0,1,0,2.31h-.59V31.41A1.72,1.72,0,0,0,33.63,31.27Zm16.66,17.5a3.18,3.18,0,0,0,.37-.14h.21a1.16,1.16,0,0,1,0,2.31h-.58Zm1.5-15.07h-.74a1,1,0,1,1,0-2.07h.74Zm-2.28-7.94-2.2-.85V23.59a7.65,7.65,0,0,0,2.81-5.09h.23a3.65,3.65,0,0,0,1.17,2.91,10.5,10.5,0,0,0-2,4.35ZM69.89,39.82c.62.32,1,3.21-.62,4.51l-4.94-1.91V41.1A7.72,7.72,0,0,0,67.15,36h.22A3.91,3.91,0,0,0,69.89,39.82ZM65,22.09a7.82,7.82,0,0,1,2.34,5.61v1.61h-3.1c-.16,0-.18,0-1.26-.09a2.68,2.68,0,0,1-2.29-2,1.27,1.27,0,0,0-2.46,0,2.64,2.64,0,0,1-2.31,2,31.24,31.24,0,0,1-4.34.09V27.83A7.9,7.9,0,0,1,65,22.09ZM34.59,10.32a8,8,0,0,1,7.77-8,7.88,7.88,0,0,1,8,7.88v1.62a30.4,30.4,0,0,1-4.37-.1,2.66,2.66,0,0,1-2.28-2,1.26,1.26,0,0,0-2.46,0,2.67,2.67,0,0,1-2.34,2,33.54,33.54,0,0,1-4.31.09V10.32Zm-17.43,13a3.48,3.48,0,0,1,3.48-3.48h7c1.27,0,1.46.45,1.59,1.14a2.4,2.4,0,0,0,2.55,1.89.93.93,0,0,1,.94.93v5.31a.11.11,0,0,1-.11.1A1.25,1.25,0,0,1,31.36,28a1.27,1.27,0,0,0-2.4-.6h0a3.48,3.48,0,0,1-3.08,1.84H18a.8.8,0,0,1-.8-.79V23.3ZM16,32.42a1.12,1.12,0,0,1,.83-1.12,3.78,3.78,0,0,0,.79.19v2.09H17A1.11,1.11,0,0,1,16,32.42Zm3.93,2.31V31.5h5.95A5.79,5.79,0,0,0,29.73,30,3.66,3.66,0,0,0,31,31.1v3.63c0,3.54-2.42,5.75-5.41,5.75a5.47,5.47,0,0,1-5.61-5.75Zm8,7.67v.36a1.8,1.8,0,0,0,1.17,1.69l1.09.43a5.4,5.4,0,0,1-4.69,2.72,5.52,5.52,0,0,1-4.9-2.75l1.25-.48a1.75,1.75,0,0,0,1-1.62v-.38a8.17,8.17,0,0,0,5.06,0ZM12.45,48.05l6-2.35A7.89,7.89,0,0,0,32,46.48a2,2,0,0,0,.16.49,3.48,3.48,0,0,0-1.4,2.81,3.41,3.41,0,0,0,3.34,3.47h.63a7.63,7.63,0,0,0,2.93,5.26v.68H15.89v-6a1.16,1.16,0,1,0-2.31,0v1.56h-4v-2.2a5,5,0,0,1,2.88-4.52ZM9.57,59.15V57.08h4v2.11h-4a0,0,0,0,1,0,0Zm33,5.81a5.54,5.54,0,0,1-4.9-2.75l1.26-.48a1.76,1.76,0,0,0,1-1.62v-.38a8.21,8.21,0,0,0,5.07,0,2,2,0,0,0,.9,1.92,8.51,8.51,0,0,0,1.36.56A5.41,5.41,0,0,1,42.56,65Zm32.8-5.81a0,0,0,0,1,0,0h-4V57.08h4Z"/><text class="cls-12" transform="translate(24.78 116.87)">Busy</text></g></g></g></svg>