<svg xmlns="http://www.w3.org/2000/svg" viewBox="0 0 93.09 136.52"><defs><style>.cls-1{fill:#785550;}.cls-2{fill:#694b4b;}.cls-3{fill:#e6af78;}.cls-4{fill:#d5dced;}.cls-5{fill:#5a4146;}.cls-6{fill:#f0c087;}.cls-7{fill:#c7cfe2;}.cls-8{fill:#d29b6e;}.cls-9{fill:#00c3ff;}.cls-10{fill:#00aaf0;}.cls-11{font-size:20px;font-family:TwCenMT-Regular, Tw Cen MT;}.cls-12{letter-spacing:-0.01em;}</style></defs><title>Asset 85</title><g id="Layer_2" data-name="Layer 2"><g id="_750_x_5766_px_Artboard_2" data-name="750 x 5766 px Artboard 2"><g id="Text"><ellipse class="cls-1" cx="78.61" cy="28.69" rx="5.83" ry="5.76"/><path class="cls-2" d="M77.15,28.69a5.75,5.75,0,0,1,3.64-5.33,5.65,5.65,0,0,0-2.18-.43A5.76,5.76,0,1,0,80.79,34,5.77,5.77,0,0,1,77.15,28.69Z"/><path class="cls-3" d="M89.31,63.09l-4.72-2.67A3.33,3.33,0,0,1,83,57.48V52.54H74.23v4.94a3.33,3.33,0,0,1-1.61,2.94l-4.71,2.67a5,5,0,0,0-2.42,4.41V78.87H91.72V67.5A5,5,0,0,0,89.31,63.09Z"/><path class="cls-4" d="M91.72,67.5a5,5,0,0,0-2.41-4.41l-4.72-2.67a2.7,2.7,0,0,1-.72-.59L82.2,61.94a4.35,4.35,0,0,1-7.18,0l-1.68-2.11a2.56,2.56,0,0,1-.72.59l-4.71,2.67a5,5,0,0,0-2.42,4.41V78.87H91.72Z"/><ellipse class="cls-5" cx="78.61" cy="41.03" rx="10.2" ry="11.52"/><path class="cls-2" d="M88.71,39.43c-.56-4.69-3.74-8.62-7.84-9.64a9.41,9.41,0,0,0-2.2-.28c-4.89,0-6.52,7.58-2.13,10a4.15,4.15,0,0,0,.39.19L82,50.08s1.35.1,2.71.15A12.18,12.18,0,0,0,88.71,39.43Z"/><path class="cls-6" d="M78.61,55.83h0a8.67,8.67,0,0,1-7.72-5.22,5.19,5.19,0,0,1,1.39-6.14,10.37,10.37,0,0,0,1-.91,9.23,9.23,0,0,0,2-3,1.39,1.39,0,0,1,1.64-.89,24.29,24.29,0,0,1,9.9,5.73,1.65,1.65,0,0,1,.5,1.3C87,51.82,83.21,55.83,78.61,55.83Z"/><path class="cls-3" d="M86.83,45.43a24.29,24.29,0,0,0-9.9-5.73,1.4,1.4,0,0,0-1.64.9A9.65,9.65,0,0,1,74,42.8h0a6.63,6.63,0,0,1-.67.76,9.65,9.65,0,0,1-1,.88,5.32,5.32,0,0,0-1.11,6.79,8.8,8.8,0,0,0,6.07,4.47,7.43,7.43,0,0,1-3-6.45V48a11.35,11.35,0,0,0,1-.89,12.92,12.92,0,0,0,2.09-2.77A21.37,21.37,0,0,1,84.91,49c.28.28.67.66,1.47,1.51a11.14,11.14,0,0,0,1-3.76A1.69,1.69,0,0,0,86.83,45.43Z"/><path class="cls-7" d="M90.84,64.53a5.4,5.4,0,0,1,.88,3V78.87H85.89V70.58A3.47,3.47,0,0,1,87,68Z"/><path class="cls-5" d="M5.74,36.09v1.16a14.94,14.94,0,0,0,.59,4.16l2.32,7.84H13V31.15H10.11A4.68,4.68,0,0,0,5.74,36.09Z"/><path class="cls-2" d="M25.8,39.07,23.22,49.25,11.57,37.74a3.13,3.13,0,0,1-2.92-3.29h0A4.68,4.68,0,0,1,13,29.51H26.14v6.84A10.84,10.84,0,0,1,25.8,39.07Z"/><rect class="cls-3" x="11.57" y="54.19" width="8.75" height="9.87"/><path class="cls-4" d="M27.34,60.45l-7-2.27-4.37,5.88-4.37-5.88-7,2.27a4.89,4.89,0,0,0-3.17,4.74V78.87H30.51V65.19A4.87,4.87,0,0,0,27.34,60.45Z"/><path class="cls-6" d="M15.94,55.83h0c-4.83,0-8.75-4.42-8.75-9.87h0a8.47,8.47,0,0,1,2.06-5.61l1.44-1.63a2.71,2.71,0,0,1,2.12-1c4.65.16,8.78,1.29,11,3.78a3.47,3.47,0,0,1,.84,2.33V46C24.68,51.41,20.77,55.83,15.94,55.83Z"/><path class="cls-3" d="M11.57,46a3.08,3.08,0,0,1,3.09-3.28c2.94.21,7.3.76,10,2.22-.09-.7-.35-2.87-.8-3.36-2.25-2.49-6.38-3.62-11-3.78h0a2.71,2.71,0,0,0-2.12,1L9.25,40.35A8.47,8.47,0,0,0,7.19,46h0a9.79,9.79,0,0,0,6.32,9.48,10.62,10.62,0,0,1-1.94-6.19V46Z"/><path class="cls-7" d="M7.19,70.1a5.26,5.26,0,0,0-1.28-3.49L2.16,62.37a5.37,5.37,0,0,0-.8,2.82V78.87H7.19Z"/><path class="cls-5" d="M46.54,59.12c9.54,0,18.1-4.4,20.9-6a1.71,1.71,0,0,0,.78-1.74c-.45-3.05-1.67-12.19-2.73-28.45C64.63,9.7,57,1.54,46.54,1.54S28.46,9.7,27.6,22.93c-1.07,16.26-2.28,25.4-2.74,28.45a1.71,1.71,0,0,0,.79,1.74C28.45,54.72,37,59.12,46.54,59.12Z"/><path class="cls-2" d="M67.44,53.12a1.71,1.71,0,0,0,.78-1.74c-.45-3.05-1.67-12.19-2.73-28.45C64.63,9.7,57,1.54,46.54,1.54a19,19,0,0,0-2.15.12c-8.15.91-9.37,13.9-1.54,16.6l.19.06L46,59.11h0C55.73,59.3,64.58,54.76,67.44,53.12Z"/><path class="cls-3" d="M21.77,78.87V68.35a6.66,6.66,0,0,1,3.47-6l12.28-6.12a3.33,3.33,0,0,0,1.74-3V46H53.83V53.2a3.33,3.33,0,0,0,1.74,3l12.28,6.12a6.66,6.66,0,0,1,3.47,6V78.87Z"/><path class="cls-8" d="M39.26,52.54a16.91,16.91,0,0,0,14.57,0V46H39.26v6.58Z"/><path class="cls-9" d="M67.85,62.33l-9.06-4.52c-1.88,5.58-6.65,9.54-12.25,9.54s-10.36-4-12.24-9.54l-9.06,4.52a6.66,6.66,0,0,0-3.47,6V78.87H71.32V68.35A6.66,6.66,0,0,0,67.85,62.33Z"/><path class="cls-6" d="M59.65,26.22c-2.34-2.3-7.6-6.36-16.61-7.9A2.84,2.84,0,0,0,40,20.08a21.92,21.92,0,0,1-6.79,8.55A3.36,3.36,0,0,0,32,31.3v.94c0,8.76,5.86,16.41,13.6,17,8.49.62,15.55-7,15.55-16.42V29.91A5.2,5.2,0,0,0,59.65,26.22Z"/><path class="cls-3" d="M61.12,29.51a33.83,33.83,0,0,0-1.47-3.29c-2.34-2.3-7.6-6.36-16.61-7.9A2.84,2.84,0,0,0,40,20.08a19.11,19.11,0,0,1-.88,1.75,22.13,22.13,0,0,1-5.89,6.78A3.41,3.41,0,0,0,32,31.3v.94c0,8.45,5.46,15.86,12.81,16.87a17.54,17.54,0,0,1-4.07-11.37V27.39a3.16,3.16,0,0,1,2.62-3.27C46.84,23.72,56.75,26.22,61.12,29.51Z"/><path class="cls-10" d="M24,63.23a6.9,6.9,0,0,0-2.18,5.12V78.87H32V74.33a5.28,5.28,0,0,0-1.28-3.49Z"/><path class="cls-10" d="M69.14,63.23a6.94,6.94,0,0,1,2.18,5.12V78.87H61.12V74.33a5.28,5.28,0,0,1,1.28-3.49Z"/><path d="M32,70.75a1.46,1.46,0,0,0-1.36,1.54v6.58a1.37,1.37,0,1,0,2.72,0V72.29A1.46,1.46,0,0,0,32,70.75Z"/><path d="M61.12,70.75a1.46,1.46,0,0,0-1.37,1.54v6.58a1.37,1.37,0,1,0,2.73,0V72.29A1.46,1.46,0,0,0,61.12,70.75Z"/><path d="M19.7,40.76a1.24,1.24,0,0,0,.61.16,1.35,1.35,0,0,0,1.22-.85A1.64,1.64,0,0,0,20.92,38c-3.17-1.78-9.1-1.8-9.35-1.8a1.55,1.55,0,0,0,0,3.08C13.1,39.28,17.55,39.54,19.7,40.76Z"/><path d="M7.19,67.46A1.46,1.46,0,0,0,5.83,69v9.87a1.46,1.46,0,0,0,1.36,1.54,1.46,1.46,0,0,0,1.37-1.54V69A1.46,1.46,0,0,0,7.19,67.46Z"/><path d="M89.92,61.71l-5.53-3.12a.11.11,0,0,1,0-.09V55.36a11.65,11.65,0,0,0,4.28-7.81A14.33,14.33,0,0,0,90.17,41a13.67,13.67,0,0,0-4.62-10.44,7.13,7.13,0,0,0,.25-1.9,7.2,7.2,0,1,0-14.39,0,7.5,7.5,0,0,0,.25,1.9,13.11,13.11,0,0,0-3.78,5.57c-.34-3.75-.69-8.18-1-13.34C66.41,16,64.23,10.25,60.57,6.18A18.36,18.36,0,0,0,46.54,0a18.39,18.39,0,0,0-14,6.18c-3.66,4.07-5.83,9.82-6.27,16.63q-.18,2.72-.36,5.16H13c-4.77,0-8.65,4.38-8.65,9.77v.09a9,9,0,0,0,.76,3.63L5.83,43v2.51a12.57,12.57,0,0,0,4.37,9.71v2.22a.64.64,0,0,1-.41.62L4.16,59.91A6.44,6.44,0,0,0,0,66.14V78.87a1.46,1.46,0,0,0,1.36,1.54,1.46,1.46,0,0,0,1.37-1.54V66.14a3.38,3.38,0,0,1,2.18-3.27l5.63-1.81a4.29,4.29,0,0,0,.58-.26l3.45,3.9V78.87a1.46,1.46,0,0,0,1.37,1.54,1.46,1.46,0,0,0,1.36-1.54V64.7l3.48-3.93a7,7,0,0,0,1.27.52l1.38.44a8.51,8.51,0,0,0-3,6.62V78.87a1.37,1.37,0,1,0,2.73,0V68.35a5.1,5.1,0,0,1,2.66-4.61l7.8-3.89c2.44,5.52,7.43,9,12.95,9s10.52-3.51,13-9l7.79,3.89A5.09,5.09,0,0,1,70,68.35V78.87a1.37,1.37,0,1,0,2.72,0V68.35A8.75,8.75,0,0,0,71,63.08l2.11-1.19,1.59,1.7a5.27,5.27,0,0,0,7.9,0l1.58-1.7,4.56,2.57a3.47,3.47,0,0,1,1.66,3V78.87a1.37,1.37,0,1,0,2.73,0V67.5A6.57,6.57,0,0,0,89.92,61.71Zm-15.78-33a4.47,4.47,0,0,1,8.93,0c0,.09,0,.19,0,.29a10.31,10.31,0,0,0-8.9,0C74.15,28.88,74.14,28.78,74.14,28.69Zm4.47,2.36c4.87,0,8.84,4.47,8.84,10A11.19,11.19,0,0,1,87,44.14C83.13,39.7,76.31,38,76,37.88a1.25,1.25,0,0,0-1.15.3,1.62,1.62,0,0,0-.51,1.2,3.94,3.94,0,0,1-1.06,2.2,1.69,1.69,0,0,0,0,2.18,1.26,1.26,0,0,0,1.93,0,7.42,7.42,0,0,0,1.48-2.49C79,42,83.74,44,85.87,47.4c-.6,4-3.65,6.89-7.26,6.89-3.78,0-6.93-3.19-7.34-7.42a1.76,1.76,0,0,0-.19-.64A10.85,10.85,0,0,1,69.77,41C69.77,35.52,73.73,31.05,78.61,31.05ZM34.43,8.37A15.84,15.84,0,0,1,46.54,3.08,15.84,15.84,0,0,1,58.66,8.37C61.84,11.91,63.73,17,64.13,23c1.07,16.42,2.3,25.58,2.77,28.75a.08.08,0,0,1,0,.09,28.57,28.57,0,0,1-8.5,4L56.12,54.8a1.78,1.78,0,0,1-.93-1.6V47.9a18.63,18.63,0,0,0,7.29-15.1V29.91a6.77,6.77,0,0,0-1.94-4.85c-2.74-2.69-8.94-7.39-19.69-8.6a1.41,1.41,0,0,0-1.49,1.38,1.49,1.49,0,0,0,1.22,1.68c10,1.13,15.68,5.41,18.17,7.86a3.54,3.54,0,0,1,1,2.53V32.8c0,8.22-5.92,14.91-13.21,14.91S33.33,41,33.33,32.8V31.51a1.72,1.72,0,0,1,.78-1.45,11.85,11.85,0,0,0,5-6.64,1.59,1.59,0,0,0-.86-2,1.32,1.32,0,0,0-1.72,1,8.91,8.91,0,0,1-3.76,4.95,4.93,4.93,0,0,0-2.14,4.12V32.8a18.64,18.64,0,0,0,7.28,15.1v5.3A1.77,1.77,0,0,1,37,54.8l-2.25,1.12a28.69,28.69,0,0,1-8.5-4s0,0,0-.09C26.66,48.62,27.88,39.46,29,23,29.35,17,31.25,11.91,34.43,8.37ZM8.56,45.55V42.67A1.65,1.65,0,0,0,8.41,42l-.84-1.9a5.53,5.53,0,0,1-.47-2.25v-.09c0-3.69,2.66-6.69,5.92-6.69H24.78v6.39a7.42,7.42,0,0,1-.63,3L23.46,42a1.81,1.81,0,0,0-.14.69V46a8.82,8.82,0,0,1-2.24,6,6.87,6.87,0,0,1-5.37,2.35C11.77,54.16,8.56,50.24,8.56,45.55Zm7.07,11.82h.31a9,9,0,0,0,3-.51v.62a5.05,5.05,0,0,0,.08.91l-3.09,3.49-3.11-3.5a4.43,4.43,0,0,0,.1-.9v-.65A8.48,8.48,0,0,0,15.63,57.37Zm6,.11V55.36A10.61,10.61,0,0,0,23,54.15c.27-.3.53-.62.77-.94a3,3,0,0,0,1,1.25,28.44,28.44,0,0,0,6.19,3.35l-3.82,1.91L22.8,58.33C21.67,58,21.67,57.82,21.67,57.48Zm24.87,8.33A11.66,11.66,0,0,1,36.09,58.6l2-1a4.9,4.9,0,0,0,2.55-4.42V49.5a14.25,14.25,0,0,0,11.85,0v3.7A4.9,4.9,0,0,0,55,57.62l2,1A11.62,11.62,0,0,1,46.54,65.81Zm15.62-8a28.69,28.69,0,0,0,6.19-3.35,3.33,3.33,0,0,0,1.24-3.18l0-.22a11,11,0,0,0,3.31,4.3V58.5a.11.11,0,0,1-.05.09L68.55,61l-.15-.08Zm14.37,3.55L75.27,60a3.58,3.58,0,0,0,.33-1.5V56.86a9.14,9.14,0,0,0,6,0V58.5A3.43,3.43,0,0,0,82,60l-1.27,1.36A2.77,2.77,0,0,1,76.53,61.36Z"/><path d="M85.89,69.49A1.46,1.46,0,0,0,84.53,71v7.84a1.37,1.37,0,1,0,2.73,0V71A1.46,1.46,0,0,0,85.89,69.49Z"/><text class="cls-11" transform="translate(6.83 117.15)">Mode<tspan class="cls-12" x="46.46" y="0">r</tspan><tspan x="52.92" y="0">ate</tspan></text></g></g></g></svg>