<svg xmlns="http://www.w3.org/2000/svg" viewBox="0 0 77.53 134.6"><defs><style>.cls-1{fill:#ffdfba;}.cls-2{fill:#ffaa64;}.cls-3{fill:#ffebd2;}.cls-4{fill:#42434d;}.cls-5{fill:#ffd6a6;}.cls-6{fill:#4d4e59;}.cls-7{fill:#fff3e4;}.cls-8{fill:#ffbd7b;}.cls-9{fill:#faa157;}.cls-10{font-size:20px;font-family:TwCenMT-Regular, Tw Cen MT;}</style></defs><title>Asset 86</title><g id="Layer_2" data-name="Layer 2"><g id="_750_x_5766_px_Artboard_2" data-name="750 x 5766 px Artboard 2"><g id="Text"><path class="cls-1" d="M63.92,69.94V76.4a1.32,1.32,0,0,1-1.32,1.32H14.52A1.32,1.32,0,0,1,13.2,76.4V69.94a12.29,12.29,0,0,1,7.21-11.19,19.25,19.25,0,0,1-6.3-7.22A17.41,17.41,0,0,1,15.3,34.31a16.88,16.88,0,0,0,2.84-9.39V17.78A16.47,16.47,0,0,1,34.61,1.32h7.9A16.46,16.46,0,0,1,59,17.78c0,7.56-.19,9,.72,12,1.29,4.25,3,4.78,4.3,9.1a17.42,17.42,0,0,1-5.83,18.67l-1.46,1.16a12.29,12.29,0,0,1,7.21,11.19Z"/><path class="cls-2" d="M63.92,69.94V76.4a1.32,1.32,0,0,1-1.32,1.32H14.52A1.32,1.32,0,0,1,13.2,76.4V69.94A12.28,12.28,0,0,1,25.48,57.66a6.84,6.84,0,0,0,2.83-.61l0,.09,9.4,7.28a1.35,1.35,0,0,0,1.62,0l9.4-7.28,0-.09a6.84,6.84,0,0,0,2.83.61A12.28,12.28,0,0,1,63.92,69.94Z"/><path class="cls-3" d="M53.62,25.4a1.31,1.31,0,0,1,1.24,1.31V34.6a16.3,16.3,0,1,1-32.6,0V26.83a1.31,1.31,0,0,1,1.43-1.31,34.15,34.15,0,0,0,22.22-5.68,1.31,1.31,0,0,1,2,.73,6.14,6.14,0,0,0,5.71,4.83Z"/><path class="cls-4" d="M58.17,57.59l-1.46,1.16a12.23,12.23,0,0,0-5.07-1.09,6.81,6.81,0,0,1-6.82-6.81V49.73l0-.06A16.32,16.32,0,0,0,54.86,34.6V26.71a1.31,1.31,0,0,0-1.24-1.31,6.13,6.13,0,0,1-5.71-4.83,1.31,1.31,0,0,0-2-.73,34.12,34.12,0,0,1-22.22,5.68,1.31,1.31,0,0,0-1.43,1.31V34.6A16.31,16.31,0,0,0,32.33,49.67l0,.06v1.12a6.81,6.81,0,0,1-6.82,6.81,12.27,12.27,0,0,0-5.07,1.09L19,57.59A17.42,17.42,0,0,1,15.3,34.31a16.88,16.88,0,0,0,2.84-9.39V17.78A16.47,16.47,0,0,1,34.61,1.32h7.9A16.46,16.46,0,0,1,59,17.78v7.14a17,17,0,0,0,2.84,9.39A17.41,17.41,0,0,1,58.17,57.59Z"/><path class="cls-5" d="M45,52.43a16.32,16.32,0,0,1-12.88,0,10.37,10.37,0,0,0,.18-2.7l0-.06a16.39,16.39,0,0,0,12.46,0l0,.06A10.37,10.37,0,0,0,45,52.43Z"/><path class="cls-6" d="M50,3.09A1.72,1.72,0,0,1,49,6.33c-.52,0-1.05-.07-1.58-.07h-7.9A16.47,16.47,0,0,0,23.08,22.72v2c0,1.18-.82,1.14-.82,2.1,0,8.7,0,8.15-.09,8.52-1.29,3.8-2.85,4.35-4.1,8.51a17.27,17.27,0,0,0-.65,6.86,1.72,1.72,0,0,1-3.31.81A17.43,17.43,0,0,1,15.3,34.31a16.88,16.88,0,0,0,2.84-9.39V17.78A16.47,16.47,0,0,1,34.61,1.32h7.9A16.42,16.42,0,0,1,50,3.09Z"/><path class="cls-7" d="M35.44,45.52A2.51,2.51,0,0,1,33.23,50a16.19,16.19,0,0,1-11-15.39V26.83a1.31,1.31,0,0,1,1.43-1.31c.63.05,1.32.1,2.07.12a2.51,2.51,0,0,1,2.43,2.51V32a16.24,16.24,0,0,0,7.25,13.56Z"/><path class="cls-8" d="M31.07,59.24a1,1,0,0,1-.62,1.88A12.27,12.27,0,0,0,18.14,73.39v4.33H14.52A1.32,1.32,0,0,1,13.2,76.4V69.94A12.28,12.28,0,0,1,25.48,57.66a6.84,6.84,0,0,0,2.83-.61l0,.09Z"/><path class="cls-9" d="M46.05,59.24a1.05,1.05,0,0,0,.62,1.88A12.27,12.27,0,0,1,59,73.39v4.33H62.6a1.32,1.32,0,0,0,1.32-1.32V69.94A12.28,12.28,0,0,0,51.64,57.66a6.84,6.84,0,0,1-2.83-.61l0,.09Z"/><path d="M65.24,69.94v7.78a1.32,1.32,0,0,1-2.64,0V69.94a11,11,0,0,0-11-11,8.08,8.08,0,0,1-7-3.91,1.32,1.32,0,1,1,2.25-1.37,5.49,5.49,0,0,0,4.71,2.64A13.59,13.59,0,0,1,65.24,69.94Zm-22-10.2-4.7,3.63-8-6.18a8,8,0,0,0,3-5.69,17.41,17.41,0,0,0,5,.72A17.64,17.64,0,0,0,56.18,34.6V25.27A1.32,1.32,0,0,0,54.86,24a5.46,5.46,0,0,1-3.44-.63c-2.47-1.5-2.49-4.76-2.49-4.8a1.31,1.31,0,0,0-2.07-1.08,42.42,42.42,0,0,1-18.68,7.41,1.32,1.32,0,0,0-1.12,1.49,1.3,1.3,0,0,0,1.3,1.13,43.23,43.23,0,0,0,9.33-2.28,45.34,45.34,0,0,0,8.94-4.42,7.43,7.43,0,0,0,6.92,5.85V34.6a15,15,0,0,1-30,0V25.36a1.32,1.32,0,1,0-2.64,0V34.6A17.63,17.63,0,0,0,31,50.5v.35a5.49,5.49,0,0,1-5.51,5.49,13.46,13.46,0,0,0-4.86.9l-.85-.68A16.09,16.09,0,0,1,16.4,35a18.2,18.2,0,0,0,3.06-10.12V17.78A15.17,15.17,0,0,1,34.61,2.63h7.9A15.17,15.17,0,0,1,57.66,17.78v7.14A18.17,18.17,0,0,0,60.71,35a16.08,16.08,0,0,1-.13,18.08,1.32,1.32,0,0,0,2.17,1.5,18.73,18.73,0,0,0,.15-21.05,15.47,15.47,0,0,1-2.6-8.63V17.78A17.81,17.81,0,0,0,42.51,0h-7.9A17.8,17.8,0,0,0,16.83,17.78v7.14a15.6,15.6,0,0,1-2.62,8.66,18.7,18.7,0,0,0,3.84,25,13.56,13.56,0,0,0-6.16,11.39v7.78a1.32,1.32,0,1,0,2.63,0V69.94a11,11,0,0,1,11-11,8,8,0,0,0,2.57-.42l9.7,7.52a1.32,1.32,0,0,0,1.62,0l5.5-4.26a1.32,1.32,0,1,0-1.61-2.08Z"/><text class="cls-10" transform="translate(16.81 115.26)">Quiet</text></g></g></g></svg>