<?xml version="1.0" encoding="utf-8"?>
<!-- Generator: Adobe Illustrator 23.1.0, SVG Export Plug-In . SVG Version: 6.00 Build 0)  -->
<svg version="1.1" id="Layer_1" xmlns="http://www.w3.org/2000/svg" xmlns:xlink="http://www.w3.org/1999/xlink" x="0px" y="0px"
	 viewBox="0 0 512 512" style="enable-background:new 0 0 512 512;" xml:space="preserve">
<style type="text/css">
	.st0{fill-rule:evenodd;clip-rule:evenodd;fill:#FF916C;}
	.st1{fill-rule:evenodd;clip-rule:evenodd;fill:#C22C65;}
	.st2{fill-rule:evenodd;clip-rule:evenodd;fill:#55CD8E;}
	.st3{fill-rule:evenodd;clip-rule:evenodd;fill:#876E67;}
	.st4{fill-rule:evenodd;clip-rule:evenodd;fill:#4BC1D7;}
	.st5{fill-rule:evenodd;clip-rule:evenodd;fill:#F1DBC8;}
	.st6{fill-rule:evenodd;clip-rule:evenodd;fill:#BDD377;}
	.st7{fill-rule:evenodd;clip-rule:evenodd;fill:#FFBD50;}
	.st8{fill-rule:evenodd;clip-rule:evenodd;fill:#76C8D6;}
	.st9{fill-rule:evenodd;clip-rule:evenodd;fill:#F13D7C;}
</style>
<g>
	<g>
		<path class="st0" d="M250.3,172.7c-5.9-11-16-19.5-28.2-23.3c-19.5,6-33.9,24.4-33.9,46V268c0.2,0.3,0.4,0.6,0.5,0.9
			c1.9-0.3,3.8-0.5,5.7-0.5s3.9,0.2,5.7,0.5c8.1-15.1,23.9-25.3,42-25.3H256c-19.6,0-35.4-16-35.4-35.7
			C220.6,190.2,233.4,175.4,250.3,172.7z"/>
		<path class="st1" d="M373.3,172.7c-5.9-11-15.9-19.4-27.9-23.2c-19.4,6.1-33.6,24.4-33.6,45.9v73.4c0,0,0,0,0,0
			c1.9-0.3,3.8-0.5,5.7-0.5s3.9,0.2,5.7,0.5c8.1-15.1,23.9-25.3,42-25.3H379c-19.6,0-35.4-16-35.4-35.7
			C343.6,190.2,356.4,175.4,373.3,172.7z"/>
		<path class="st2" d="M188.8,268.9c-6-11.2-16.4-19.8-28.8-23.4c-19.9,5.8-34.5,24.4-34.5,46.2v70.4c4.7,7.5,7.5,16.3,7.5,25.8
			c0-26.5,21.5-48.1,47.7-48.1h13.8c-19.6,0-35.4-16-35.4-35.7C159.1,286.4,171.9,271.7,188.8,268.9z"/>
		<path class="st3" d="M250.8,291.7v74.5c3.3,6.5,5.2,13.9,5.2,21.7c0-26.5,21.5-48.1,47.7-48.1h13.8c-19.6,0-35.4-16-35.4-35.7
			c0-17.7,12.8-32.4,29.7-35.2c-5.8-10.9-15.7-19.3-27.6-23.1C264.9,252,250.8,270.3,250.8,291.7z"/>
		<path class="st4" d="M375.8,291.7v79.1c2,5.3,3.2,11.1,3.2,17.2c0-26.5,21.5-48.1,47.7-48.1h13.8c-19.6,0-35.4-16-35.4-35.7
			c0-17.7,12.8-32.4,29.7-35.2c-5.7-10.6-15.2-18.8-26.6-22.7C389.4,252.7,375.8,270.6,375.8,291.7z"/>
		<path class="st5" d="M208.8,79c-12.4,5.5-21.1,18.1-21.1,32.7s8.7,27.1,21.1,32.7c12.4-5.5,21.1-18.1,21.1-32.7
			S221.2,84.5,208.8,79z"/>
		<path class="st5" d="M331.8,79c-12.4,5.5-21.1,18.1-21.1,32.7s8.7,27.1,21.1,32.7c12.4-5.5,21.1-18.1,21.1-32.7
			S344.2,84.5,331.8,79z"/>
		<path class="st5" d="M147.3,175.2c-12.4,5.5-21.1,18.1-21.1,32.7c0,14.6,8.7,27.1,21.1,32.7c12.4-5.5,21.1-18.1,21.1-32.7
			S159.7,180.8,147.3,175.2z"/>
		<path class="st5" d="M270.3,175.2c-12.4,5.5-21.1,18.1-21.1,32.7c0,14.6,8.7,27.1,21.1,32.7c12.4-5.5,21.1-18.1,21.1-32.7
			C291.4,193.3,282.7,180.8,270.3,175.2z"/>
		<path class="st5" d="M393.2,175.2c-12.4,5.5-21.1,18.1-21.1,32.7s8.7,27.1,21.1,32.7c12.4-5.5,21.1-18.1,21.1-32.7
			C414.4,193.3,405.7,180.8,393.2,175.2z"/>
		<path class="st5" d="M85.8,271.5c-12.4,5.5-21.1,18.1-21.1,32.7s8.7,27.1,21.1,32.7c12.4-5.5,21.1-18.1,21.1-32.7
			S98.2,277,85.8,271.5z"/>
		<path class="st5" d="M208.8,271.5c-12.4,5.5-21.1,18.1-21.1,32.7s8.7,27.1,21.1,32.7c12.4-5.5,21.1-18.1,21.1-32.7
			S221.2,277,208.8,271.5z"/>
		<path class="st5" d="M331.8,271.5c-12.4,5.5-21.1,18.1-21.1,32.7s8.7,27.1,21.1,32.7c12.4-5.5,21.1-18.1,21.1-32.7
			S344.2,277,331.8,271.5z"/>
		<path class="st5" d="M454.8,271.5c-12.4,5.5-21.1,18.1-21.1,32.7s8.7,27.1,21.1,32.7c12.4-5.5,21.1-18.1,21.1-32.7
			S467.2,277,454.8,271.5z"/>
		<path class="st6" d="M464.8,341c-21.2,4.9-37.2,24.1-37.2,46.9V436H502v-48.1C502,365.1,486,345.9,464.8,341z"/>
		<path class="st7" d="M341.8,341c-21.2,4.9-37.2,24.1-37.2,46.9V436H379v-48.1C379,365.1,363,345.9,341.8,341z"/>
		<path class="st8" d="M218.8,341c-21.2,4.9-37.2,24.1-37.2,46.9V436H256v-48.1C256,365.1,240,345.9,218.8,341z"/>
		<path class="st9" d="M95.8,341c-21.2,4.9-37.2,24.1-37.2,46.9V436H133v-48.1C133,365.1,117,345.9,95.8,341z"/>
	</g>
	<path d="M432.2,388.8H432c-5.5,0-10,4.5-10,10s4.5,10,10,10h0.2c5.5,0,10-4.5,10-10S437.8,388.8,432.2,388.8z"/>
	<path d="M502,446c5.5,0,10-4.5,10-10v-37.2c0,0,0,0,0,0c0,0,0,0,0,0v-10.9c0-24.6-15.4-45.7-37-54.1c6.8-8,10.9-18.3,10.9-29.7
		c0-25.2-20.4-45.7-45.4-45.7c-0.1,0-0.3,0-0.4,0c-6.7-9.6-15.9-16.8-26.5-21c6.8-8,10.9-18.3,10.9-29.6c0-25.2-20.4-45.7-45.4-45.7
		c-0.1,0-0.3,0-0.4,0c-6.7-9.6-15.9-16.8-26.5-21c6.8-8,10.9-18.3,10.9-29.6c0-25.2-20.4-45.7-45.4-45.7s-45.4,20.5-45.4,45.7
		c0,11.3,4.1,21.6,10.8,29.6c-10.6,4.1-19.9,11.4-26.5,21c-0.1,0-0.3,0-0.4,0s-0.3,0-0.4,0c-6.7-9.6-15.9-16.8-26.5-21
		c6.8-8,10.9-18.3,10.9-29.6c0-25.2-20.4-45.7-45.4-45.7s-45.4,20.5-45.4,45.7c0,11.3,4.1,21.6,10.9,29.6
		c-10.6,4.1-19.9,11.4-26.5,21c-0.1,0-0.3,0-0.4,0c-25,0-45.4,20.5-45.4,45.7c0,11.3,4.1,21.6,10.8,29.6
		c-10.6,4.1-19.9,11.4-26.5,21c-0.1,0-0.3,0-0.4,0c-25,0-45.4,20.5-45.4,45.7c0,11.3,4.1,21.7,10.9,29.7c-21.6,8.5-37,29.5-37,54.1
		V436c0,5.5,4.5,10,10,10H502z M465.9,304.1c0,14.2-11.4,25.7-25.4,25.7s-25.4-11.5-25.4-25.7s11.4-25.7,25.4-25.7
		S465.9,290,465.9,304.1z M395.1,304.1c0,11.3,4.1,21.7,10.9,29.7c-11,4.3-20.4,11.9-27,21.6c-6.6-9.7-16-17.3-27-21.6
		c6.8-8,10.9-18.3,10.9-29.7c0-17.2-9.5-32.3-23.6-40c6.9-6.6,16.1-10.5,25.9-10.5h27.5c9.8,0,19,3.9,25.9,10.5
		C404.6,271.8,395.1,286.9,395.1,304.1z M256,355.3c-6.6-9.7-16-17.3-27-21.6c6.8-8,10.9-18.3,10.9-29.7c0-17.2-9.5-32.3-23.6-40
		c6.9-6.6,16.1-10.5,25.9-10.5h27.5c9.8,0,19,3.9,25.9,10.5c-14,7.8-23.6,22.8-23.6,40c0,11.3,4.1,21.7,10.9,29.7
		C272,338.1,262.6,345.7,256,355.3z M169.1,304.1c0-14.2,11.4-25.7,25.4-25.7s25.4,11.5,25.4,25.7s-11.4,25.7-25.4,25.7
		S169.1,318.3,169.1,304.1z M256,182.2c14,0,25.4,11.5,25.4,25.7c0,14.2-11.4,25.7-25.4,25.7s-25.4-11.5-25.4-25.7
		C230.6,193.7,242,182.2,256,182.2z M292.1,304.1c0-14.2,11.4-25.7,25.4-25.7s25.4,11.5,25.4,25.7s-11.4,25.7-25.4,25.7
		S292.1,318.3,292.1,304.1z M404.4,207.9c0,14.2-11.4,25.7-25.4,25.7s-25.4-11.5-25.4-25.7c0-14.2,11.4-25.7,25.4-25.7
		S404.4,193.7,404.4,207.9z M317.5,86c14,0,25.4,11.5,25.4,25.7c0,14.2-11.4,25.7-25.4,25.7s-25.4-11.5-25.4-25.7
		C292.1,97.5,303.5,86,317.5,86z M303.7,157.3h27.5c9.8,0,19,3.9,25.9,10.5c-14,7.8-23.6,22.8-23.6,40c0,11.3,4.1,21.6,10.8,29.6
		c-10.6,4.1-19.9,11.4-26.5,21c-0.1,0-0.3,0-0.4,0s-0.3,0-0.4,0c-6.7-9.6-15.9-16.8-26.5-21c6.8-8,10.9-18.3,10.9-29.6
		c0-17.2-9.5-32.3-23.6-40C284.7,161.2,293.9,157.3,303.7,157.3z M194.5,86c14,0,25.4,11.5,25.4,25.7c0,14.2-11.4,25.7-25.4,25.7
		s-25.4-11.5-25.4-25.7C169.1,97.5,180.5,86,194.5,86z M180.7,157.3h27.5c9.8,0,19,3.9,25.9,10.5c-14,7.8-23.6,22.8-23.6,40
		c0,11.3,4.1,21.6,10.8,29.6c-10.6,4.1-19.9,11.4-26.5,21c-0.1,0-0.3,0-0.4,0s-0.3,0-0.4,0c-6.7-9.6-15.9-16.8-26.5-21
		c6.8-8,10.8-18.3,10.8-29.6c0-17.2-9.5-32.3-23.6-40C161.7,161.2,170.9,157.3,180.7,157.3z M133,182.2c14,0,25.4,11.5,25.4,25.7
		c0,14.2-11.4,25.7-25.4,25.7s-25.4-11.5-25.4-25.7C107.6,193.7,119,182.2,133,182.2z M119.2,253.6h27.5c9.8,0,19,3.9,25.9,10.5
		c-14,7.8-23.6,22.8-23.6,40c0,11.3,4.1,21.7,10.9,29.7c-11,4.3-20.4,11.9-27,21.6c-6.6-9.7-16-17.3-27-21.6
		c6.8-8,10.9-18.3,10.9-29.7c0-17.2-9.5-32.3-23.6-40C100.2,257.4,109.4,253.6,119.2,253.6z M71.5,278.4c14,0,25.4,11.5,25.4,25.7
		c0,14.2-11.4,25.7-25.4,25.7s-25.4-11.5-25.4-25.7S57.5,278.4,71.5,278.4z M20,408.8h31c5.5,0,10-4.5,10-10c0-5.5-4.5-10-10-10H20
		v-0.9c0-21,17.1-38.1,38.1-38.1h26.8c21,0,38.1,17.1,38.1,38.1V426H20V408.8z M143,387.9c0-21,17.1-38.1,38.1-38.1h26.8
		c21,0,38.1,17.1,38.1,38.1V426H143V387.9z M266,387.9c0-21,17.1-38.1,38.1-38.1h26.8c21,0,38.1,17.1,38.1,38.1V426H266V387.9z
		 M389,426v-38.1c0-21,17.1-38.1,38.1-38.1h26.8c21,0,38.1,17.1,38.1,38.1v0.9h-31c-5.5,0-10,4.5-10,10s4.5,10,10,10h31V426H389z"/>
	<path d="M80,388.8h-0.2c-5.5,0-10,4.5-10,10s4.5,10,10,10H80c5.5,0,10-4.5,10-10S85.5,388.8,80,388.8z"/>
</g>
</svg>
