<svg xmlns="http://www.w3.org/2000/svg" viewBox="0 0 152.99 149.93"><defs><style>.cls-1{font-size:20px;font-family:TwCenMT-Regular, Tw Cen MT;}.cls-2{letter-spacing:-0.03em;}.cls-3{letter-spacing:0.02em;}.cls-4{fill:#fce3a0;}.cls-5{fill:#ffce71;}.cls-6{fill:#ffb357;}.cls-7{fill:#ff8e9e;}.cls-8{fill:#4c5659;}.cls-9{fill:#e6e9ed;}.cls-10{fill:#ffce54;}</style></defs><title>Asset 98</title><g id="Layer_2" data-name="Layer 2"><g id="_1366_x_3620_x_Artboard_1" data-name="1366 x 3620 x Artboard 1"><text class="cls-1" transform="translate(61.31 126.37)">L<tspan class="cls-2" x="7.7" y="0">o</tspan><tspan x="17.1" y="0">w</tspan><tspan x="-46.25" y="18">60 mins to bu</tspan><tspan class="cls-3" x="60.73" y="18">r</tspan><tspan x="67.79" y="18">n</tspan></text><path class="cls-4" d="M100,34.14a5.7,5.7,0,0,0-1.56-.67,5.77,5.77,0,0,0-.67-1.57.91.91,0,0,0-1.55,0,5.77,5.77,0,0,0-.67,1.57,5.7,5.7,0,0,0-1.56.67.9.9,0,0,0,0,1.55,5.68,5.68,0,0,0,1.56.66,5.77,5.77,0,0,0,.67,1.57.9.9,0,0,0,1.55,0,5.77,5.77,0,0,0,.67-1.57,5.68,5.68,0,0,0,1.56-.66.9.9,0,0,0,0-1.55Z"/><path class="cls-5" d="M105.08,56.63A28.52,28.52,0,1,1,86.34,29.81,28.57,28.57,0,0,1,105.08,56.63Z"/><path class="cls-6" d="M67.62,56.63A28.55,28.55,0,0,1,86.34,29.81a28.55,28.55,0,1,0,0,53.64A28.57,28.57,0,0,1,67.62,56.63Z"/><path class="cls-7" d="M67.52,57.85c0,2.32-2.37,4.19-5.28,4.18S57,60.14,57,57.82s2.37-4.18,5.28-4.17S67.53,55.54,67.52,57.85Z"/><path class="cls-7" d="M85.53,57.91c0,2.32,2.34,4.2,5.25,4.21s5.27-1.86,5.28-4.18-2.35-4.2-5.26-4.21S85.53,55.6,85.53,57.91Z"/><path class="cls-8" d="M80.78,54.67c0-2.62-1.89-2.87-4.24-2.88s-4.24.23-4.25,2.86a4.27,4.27,0,1,0,8.49,0Z"/><path class="cls-4" d="M61.48,75.49A9.68,9.68,0,0,0,58.9,74.4a9,9,0,0,0-1.09-2.57,1.49,1.49,0,0,0-2.55,0,9.61,9.61,0,0,0-1.09,2.57,9.61,9.61,0,0,0-2.57,1.09,1.49,1.49,0,0,0,0,2.55,9,9,0,0,0,2.57,1.09,9.68,9.68,0,0,0,1.09,2.58,1.49,1.49,0,0,0,2.55,0,9.07,9.07,0,0,0,1.09-2.58A9.07,9.07,0,0,0,61.48,78,1.49,1.49,0,0,0,61.48,75.49Z"/><path d="M76.53,60.27a5.37,5.37,0,0,0,5.11-5.59,3.28,3.28,0,0,0-1.71-3.2,7.51,7.51,0,0,0-3.39-.55c-1.78,0-5.1,0-5.11,3.72a5.38,5.38,0,0,0,5.09,5.62Zm-3.38-5.62c0-1.59.69-2,3.39-2s3.38.41,3.38,2a3.42,3.42,0,1,1-6.77,0Z"/><path d="M62.83,54.14a.85.85,0,0,0,.86-.86,1.65,1.65,0,1,1,3.29,0,.85.85,0,0,0,.86.86h0a.85.85,0,0,0,.86-.85,3.36,3.36,0,0,0-3.35-3.38h0A3.37,3.37,0,0,0,62,53.27a.86.86,0,0,0,.86.87Z"/><path d="M85.23,54.21a.85.85,0,0,0,.86-.86,1.66,1.66,0,0,1,1.65-1.64h0a1.64,1.64,0,0,1,1.64,1.65.85.85,0,0,0,.86.86h0a.87.87,0,0,0,.87-.85A3.38,3.38,0,0,0,87.75,50h0a3.37,3.37,0,0,0-3.37,3.35.86.86,0,0,0,.86.87Z"/><path d="M94.46,77.73a27.69,27.69,0,0,1-33.7,1.66,10.84,10.84,0,0,0,1.17-.61,2.35,2.35,0,0,0,0-4A10.43,10.43,0,0,0,59.6,73.7a10.09,10.09,0,0,0-1.05-2.32,2.35,2.35,0,0,0-4,0,10.74,10.74,0,0,0-.64,1.21,27.71,27.71,0,0,1-.11-31.77.86.86,0,1,0-1.41-1h0A29.44,29.44,0,0,0,52.75,74a10,10,0,0,0-1.6.8,2.33,2.33,0,0,0-1.13,2,2.35,2.35,0,0,0,1.13,2,10.09,10.09,0,0,0,2.32,1,10.43,10.43,0,0,0,1.06,2.33,2.35,2.35,0,0,0,4,0,10.41,10.41,0,0,0,.81-1.64A29.29,29.29,0,0,0,76.52,86h0a29.27,29.27,0,0,0,19-7,.86.86,0,1,0-1.11-1.31Zm-35.74.56a.85.85,0,0,0-.65.63,8.76,8.76,0,0,1-1,2.34.63.63,0,0,1-1.08,0,8.45,8.45,0,0,1-1-2.34.87.87,0,0,0-.62-.62,8.63,8.63,0,0,1-2.34-1,.63.63,0,0,1,0-1.08,8.33,8.33,0,0,1,2.34-1,.88.88,0,0,0,.61-.62h0a8.27,8.27,0,0,1,1-2.33.63.63,0,0,1,1.08,0,8.63,8.63,0,0,1,1,2.34.88.88,0,0,0,.62.62,8.45,8.45,0,0,1,2.34,1,.63.63,0,0,1,0,1.08,8.55,8.55,0,0,1-2.31,1Z"/><path d="M98.91,37.55c.07-.16.14-.33.2-.5a6.65,6.65,0,0,0,1.32-.63,1.76,1.76,0,0,0,0-3,6.61,6.61,0,0,0-1.32-.62c-.39-1.14-.94-2.18-2.13-2.18a1.77,1.77,0,0,0-1.52.85,7.31,7.31,0,0,0-.62,1.33,7.06,7.06,0,0,0-.71.29,29.3,29.3,0,0,0-17.61-5.86,30,30,0,0,0-6.35.69,29.32,29.32,0,0,0-15.6,9.16.86.86,0,0,0,1.28,1.14,27.7,27.7,0,1,1,41,37.22.85.85,0,0,0,0,1.21.87.87,0,0,0,1.22,0,29.31,29.31,0,0,0,7.81-20h0a29.28,29.28,0,0,0-7-19.08Zm-1.32-1.44a26.05,26.05,0,0,0-1.9-1.79c.86-.23.49-.73,1.24-2a.06.06,0,0,1,.09,0c.72,1.19.42,1.76,1.18,2a4.88,4.88,0,0,1,1.33.56,0,0,0,0,1,0,.08C98.37,35.67,97.81,35.38,97.59,36.11Z"/><polygon class="cls-9" points="71.52 30.49 67.61 25.43 60.73 20.94 52.14 20.18 46.31 22.56 40.78 25.97 38.1 23.43 31.8 22.56 27.63 25.97 25.22 32.08 21.39 33.35 17.1 37.84 15.95 46.05 19.39 51.49 29.22 53.02 48.99 53.02 61.12 51.97 66.84 48.44 72.19 39.94 71.52 30.49"/><path class="cls-10" d="M36.08,15.83,29,11.1a45.48,45.48,0,0,0-6.44,0A20.62,20.62,0,0,0,17,13l-4.72,4.4-1,5.51,1.29,8.52,3.73,4.44,3.43-2.15,5.55-1.65,1.62-4.94,2.86-4.22,4.87-.74h4.65Z"/><path d="M24.64,7.64a1.54,1.54,0,0,0,1.53-1.53V1.53a1.53,1.53,0,0,0-3.06,0V6.11A1.54,1.54,0,0,0,24.64,7.64Z"/><path d="M7.36,9.32l3.24,3.24h0a1.52,1.52,0,0,0,2.16,0,1.54,1.54,0,0,0,0-2.16h0L9.52,7.16h0A1.53,1.53,0,1,0,7.36,9.32Z"/><path d="M6.31,26a1.53,1.53,0,1,0,0-3H1.72a1.53,1.53,0,0,0,0,3H6.31Z"/><path d="M12.76,36.33a1.52,1.52,0,0,0-2.16,0h0L7.36,39.57h0a1.52,1.52,0,0,0,0,2.16,1.54,1.54,0,0,0,2.16,0h0l3.24-3.24h0A1.54,1.54,0,0,0,12.76,36.33Z"/><path d="M38.68,12.56h0l3.24-3.24h0a1.52,1.52,0,0,0-2.15-2.16h0L36.52,10.4h0a1.54,1.54,0,0,0,0,2.16A1.52,1.52,0,0,0,38.68,12.56Z"/><path d="M55,18a18.49,18.49,0,0,0-13.54,5.88,9.38,9.38,0,0,0-1.71-1.56,15.28,15.28,0,1,0-24,14.56A12.35,12.35,0,0,0,26.6,55H55a18.53,18.53,0,0,0,0-37ZM16,33.09A12.22,12.22,0,1,1,36.27,20.68,9.89,9.89,0,0,0,24.13,30.3a2.18,2.18,0,0,0,0,.25,12.33,12.33,0,0,0-6.67,3.79A12.45,12.45,0,0,1,16,33.09ZM65.94,47.41A15.36,15.36,0,0,1,55,51.94H26.6a9.29,9.29,0,0,1-1.86-18.4L27.25,33l-.06-2.56V30.3a6.83,6.83,0,0,1,12-4.47l2.22,2.56,2.31-2.48a15.47,15.47,0,1,1,22.24,21.5Z"/></g></g></svg>