<svg xmlns="http://www.w3.org/2000/svg" viewBox="0 0 143.54 139.58"><defs><style>.cls-1{fill:#87a0af;}.cls-2{fill:#738c96;}.cls-3{fill:#f5fcff;}.cls-4{fill:#e7f6f9;}.cls-5{fill:#dcf2f6;}.cls-6{fill:#bae6ef;}.cls-7{fill:#c68a65;}.cls-8{fill:#ffcd69;}.cls-9{fill:#656566;}.cls-10{fill:#545456;}.cls-11{fill:#f96989;}.cls-12{fill:#ed5a81;}.cls-13{fill:#dd4a78;}.cls-14{fill:#e7a561;}.cls-15{fill:#cf914b;}.cls-16{fill:#f4dd45;}.cls-17{fill:#f1d333;}.cls-18{fill:#dd542e;}.cls-19{font-size:20px;font-family:TwCenMT-Regular, Tw Cen MT;}.cls-20{letter-spacing:0.02em;}</style></defs><title>Asset 24</title><g id="Layer_2" data-name="Layer 2"><g id="_750_x_5766_px_Artboard_2" data-name="750 x 5766 px Artboard 2"><g id="Text"><path class="cls-1" d="M46.31,35.24A6.27,6.27,0,0,0,43,38.68L33.52,65.82l5.88,2.34L50.09,39.43c-.39-2.29-1.36-4.19-3.78-4.19Z"/><path class="cls-2" d="M37.77,66.8l-4.25-1-.18.51a1.47,1.47,0,0,0,1.24,1.82l3.93.91a1.92,1.92,0,0,0,2.2-.94L50.33,45a34.33,34.33,0,0,0-.24-5.61L38.87,66.34A1,1,0,0,1,37.77,66.8Z"/><path class="cls-1" d="M82,38.68c-.48-1.37-2.07-3.17-3.47-3.17C75.62,36.74,75.91,42,75.91,45l9.42,22.58L92,66.93Z"/><path class="cls-2" d="M92.9,66.33,83.2,38.68a6.2,6.2,0,0,0-3.27-3.44,3.56,3.56,0,0,0-1.4.27,7,7,0,0,1,2.27,3.17l9.48,27a.73.73,0,0,1-.62.91l-4.33,1,.21.5a1.91,1.91,0,0,0,2.2.94l3.92-.91A1.46,1.46,0,0,0,92.9,66.33Z"/><path class="cls-3" d="M76.73,73.35V44.84c0-4.35.15-7.86.94-10.35-2.8-.78-5.69-1.63-6.83-2.65H55.4c-1.26,1.12-4.66,2.06-7.72,2.89a8.59,8.59,0,0,0-1.37.51,20.54,20.54,0,0,1,2,9.6h0v28C49.47,74.6,58.46,75,63.12,75c6.62,0,13.61-1,13.61-1.61Z"/><path class="cls-4" d="M78.57,34.73l-.9-.24a22.42,22.42,0,0,0-2.14,10.35V72.66c0,.58-5.79,1.32-12.41,1.32a95.93,95.93,0,0,1-14.81-1.14v1c0,1.13,8.2,2.08,14.81,2.08s14.81-1,14.81-2.08v-29a20.54,20.54,0,0,1,2-9.6,8.48,8.48,0,0,0-1.36-.51Z"/><path class="cls-5" d="M63.12,36.2c3-1.27,8.19-2.94,6-5.24a21.76,21.76,0,0,0-6-.64c-3.57,0-5.86.43-7.11,1.11C56,33.72,61,35.29,63.12,36.2Z"/><path class="cls-6" d="M70.84,31.84A4.66,4.66,0,0,0,69.09,31c.76,1.21-3,3-6,4.26A35.94,35.94,0,0,1,56,31.43a3.8,3.8,0,0,0-.61.41c-1.35,1.21,4.6,4,7.72,5.34,3.12-1.34,9.08-4.13,7.72-5.34Z"/><path d="M63.12,76.67a82.09,82.09,0,0,1-10-.62c-4-.53-5.68-1.16-5.68-2.19V61a.92.92,0,0,1,1.8,0V73.69a17.16,17.16,0,0,0,4.86,1,80.83,80.83,0,0,0,9,.51,80.56,80.56,0,0,0,9.05-.51,17.06,17.06,0,0,0,4.86-1V72.26a.93.93,0,0,1,1.81,0v1.6c0,1-1.65,1.66-5.69,2.19a82.09,82.09,0,0,1-10,.62Zm14.81-6.61a.84.84,0,0,1-.9-.73V44.84A24.25,24.25,0,0,1,77.91,38,.92.92,0,0,1,79,37.42a.75.75,0,0,1,.67.88,23,23,0,0,0-.83,6.54v4.93l7.55,18.11a1,1,0,0,0,1.1.47l3.93-.91a.89.89,0,0,0,.54-.35.62.62,0,0,0,.07-.56L88.11,55.34a.73.73,0,0,1,.62-.91.94.94,0,0,1,1.11.5l3.93,11.2a1.82,1.82,0,0,1-.24,1.67,2.64,2.64,0,0,1-1.62,1L88,69.76a2.87,2.87,0,0,1-3.3-1.41l-5.84-14v15A.84.84,0,0,1,77.93,70.06ZM39,69.85a3.2,3.2,0,0,1-.75-.09l-3.92-.91a2.66,2.66,0,0,1-1.63-1,1.82,1.82,0,0,1-.23-1.67l9.7-27.65A7.4,7.4,0,0,1,47.39,34l1-.27a1,1,0,0,1,1.14.46.7.7,0,0,1-.56.92l-1,.28a5.79,5.79,0,0,0-4.05,3.45l-9.7,27.65a.59.59,0,0,0,.08.56.89.89,0,0,0,.54.35l3.93.91a1,1,0,0,0,1.1-.47l7.55-18.11V44.84a23,23,0,0,0-.83-6.54.73.73,0,0,1,.66-.88.92.92,0,0,1,1.09.54,24.25,24.25,0,0,1,.88,6.88V58.41a.92.92,0,0,1-1.8,0V54.33l-5.85,14A2.7,2.7,0,0,1,39,69.85Zm32.5-38.5c1.1,1,4.57,1.93,7.35,2.69a7.4,7.4,0,0,1,5.21,4.44l4.72,13.45a.73.73,0,0,1-.62.91,1.07,1.07,0,0,1-.25,0,.91.91,0,0,1-.87-.53L82.34,38.88a5.78,5.78,0,0,0-4.06-3.45,42.69,42.69,0,0,1-6.72-2.21c-.58.73-2.15,2-6.64,4a2.18,2.18,0,0,1,.91,1.72v6.54a.92.92,0,0,1-1.81,0V38.94a.91.91,0,0,0-.6-.81c-1.38-.58-3.4-1.47-5.19-2.42a11.23,11.23,0,0,1-3.54-2.49,21.44,21.44,0,0,1-2.09.84,1,1,0,0,1-1.18-.39.69.69,0,0,1,.47-1,9.37,9.37,0,0,0,2.85-1.36c1.32-1.17,4.14-1.77,8.38-1.77s7.07.6,8.39,1.77Zm-15.39.94c.16.4,1.66,1.73,7,4.06,1.3-.57,3-1.36,4.45-2.16,2.09-1.17,2.48-1.74,2.55-1.9-.59-.48-2.28-1.24-7-1.24s-6.41.76-7,1.24Zm5.2,13.93a.8.8,0,1,1,1-.79A.89.89,0,0,1,61.32,46.22Zm0-2.94a.8.8,0,1,1,1-.78A.88.88,0,0,1,61.32,43.28Zm0-2.93a.8.8,0,1,1,1-.78A.88.88,0,0,1,61.32,40.35Z"/><path class="cls-7" d="M76.43,11a19.41,19.41,0,0,0-5-9.34A4.55,4.55,0,0,0,66,1.27a6,6,0,0,1-3.44,1.19,6,6,0,0,1-3.43-1.19,4.55,4.55,0,0,0-5.42.36,19.41,19.41,0,0,0-5,9.34C56.64,15.68,68.51,15.68,76.43,11Z"/><path class="cls-8" d="M75.6,8.14a29.25,29.25,0,0,1-26,0A15.27,15.27,0,0,0,48.72,11c7.92,4.71,19.79,4.71,27.71,0A15.27,15.27,0,0,0,75.6,8.14Z"/><path class="cls-7" d="M62.57,18.34a37.55,37.55,0,0,1-10-1.34,29.8,29.8,0,0,1-8.84-4,1.52,1.52,0,0,1,0-2.7,3.75,3.75,0,0,1,4,0c8.24,5.63,21.65,5.63,29.89,0a3.75,3.75,0,0,1,4,0,1.52,1.52,0,0,1,0,2.7,29.8,29.8,0,0,1-8.84,4,37.57,37.57,0,0,1-10.06,1.34Z"/><path d="M82,9.89a4.87,4.87,0,0,0-5.05,0A20.24,20.24,0,0,0,72.1,1.33,4.92,4.92,0,0,0,68.9,0a5.5,5.5,0,0,0-3.47.88,4.9,4.9,0,0,1-2.86,1,4.9,4.9,0,0,1-2.85-1A5.52,5.52,0,0,0,56.25,0a4.9,4.9,0,0,0-3.2,1.32,20.24,20.24,0,0,0-4.89,8.53,4.87,4.87,0,0,0-5,0,2,2,0,0,0,0,3.48,30.49,30.49,0,0,0,9.11,4.13,38.52,38.52,0,0,0,10.35,1.38A38.54,38.54,0,0,0,72.93,17.5,30.61,30.61,0,0,0,82,13.37a2,2,0,0,0,0-3.48Zm-27.65-8a3.09,3.09,0,0,1,2-.83,3.43,3.43,0,0,1,2.17.55,6.94,6.94,0,0,0,4,1.36,7,7,0,0,0,4-1.36,3.41,3.41,0,0,1,2.16-.55,3.09,3.09,0,0,1,2,.83,19.92,19.92,0,0,1,3.93,6,28,28,0,0,1-24.23,0A19.92,19.92,0,0,1,54.39,1.93ZM80.9,12.59a28.49,28.49,0,0,1-8.57,3.9,36.6,36.6,0,0,1-9.76,1.3,36.58,36.58,0,0,1-9.75-1.3,28.66,28.66,0,0,1-8.58-3.9,1.09,1.09,0,0,1,0-1.93,2.7,2.7,0,0,1,2.82,0,26.36,26.36,0,0,0,11.79,4.18.83.83,0,0,0,.93-.45c.07-.3-.22-.58-.66-.63a25.34,25.34,0,0,1-9.55-3A15.76,15.76,0,0,1,50,9.06a29.57,29.57,0,0,0,12.54,2.69A29.54,29.54,0,0,0,75.11,9.06a15.85,15.85,0,0,1,.47,1.69,25.16,25.16,0,0,1-9.54,3c-.44.06-.73.34-.66.64a.82.82,0,0,0,.93.44,26.24,26.24,0,0,0,11.78-4.17,2.68,2.68,0,0,1,2.81,0,1.09,1.09,0,0,1,0,1.93Z"/><path d="M62.58,14a1.06,1.06,0,0,0-.57.16.44.44,0,0,0,0,.77,1.1,1.1,0,0,0,1.14,0,.44.44,0,0,0,0-.77A1.06,1.06,0,0,0,62.58,14Z"/><path d="M75.64,22.4h-.45a2.18,2.18,0,0,0-1.44-1.33,5.45,5.45,0,0,0-2.07-.37H55.31a5.53,5.53,0,0,0-2.07.37,2.19,2.19,0,0,0-1.43,1.33h-.47a.35.35,0,1,0,0,.68h.42v2.75a3.1,3.1,0,0,0,2.61,2.54,4.83,4.83,0,0,0,1.15.13h0A5.7,5.7,0,0,0,57,28.3c2.11-.57,5.67-1.88,5.67-4.16a5.66,5.66,0,0,0,0-.89,1.72,1.72,0,0,1,1.7,0,3.4,3.4,0,0,0,0,.85c0,2.31,3.55,3.62,5.67,4.19a5.59,5.59,0,0,0,1.46.2,4.74,4.74,0,0,0,1.14-.13,3.11,3.11,0,0,0,2.62-2.56V23.08h.4a.39.39,0,0,0,.42-.34A.39.39,0,0,0,75.64,22.4ZM54.15,24a.51.51,0,0,1-.3.1.48.48,0,0,1-.29-.1.3.3,0,0,1,0-.49l1.67-1.36a.49.49,0,0,1,.59,0,.29.29,0,0,1,0,.48Zm4.61-1.37L55.82,25a.43.43,0,0,1-.29.1.45.45,0,0,1-.3-.1.3.3,0,0,1,0-.48l2.93-2.39a.51.51,0,0,1,.6,0A.3.3,0,0,1,58.76,22.64Zm3.76-.12a2.62,2.62,0,0,0-.62-1.14h3.2a2.62,2.62,0,0,0-.63,1.15A2.9,2.9,0,0,0,62.52,22.52Zm3.9,1.59a.51.51,0,0,1-.29-.1.3.3,0,0,1,0-.49l1.67-1.36a.49.49,0,0,1,.59,0,.29.29,0,0,1,0,.48L66.72,24A.51.51,0,0,1,66.42,24.11Zm4.91-1.47L68.39,25a.43.43,0,0,1-.29.1.45.45,0,0,1-.3-.1.3.3,0,0,1,0-.48l2.94-2.39a.49.49,0,0,1,.59,0A.3.3,0,0,1,71.33,22.64Z"/><path class="cls-9" d="M111.39,22c-4,.25-7.19,3.12-7.08,6.4l.18,7.34a7,7,0,0,0,3.51-.22l-.18-7.34c-.06-1.7,1.59-3.19,3.67-3.32s4,1.2,4.07,3a1.56,1.56,0,0,0,1.8,1.32,1.67,1.67,0,0,0,1.7-1.54C119,24.25,115.5,21.73,111.39,22Z"/><path class="cls-10" d="M106,28.39c-.11-3.2,2.92-6,6.81-6.38a9.58,9.58,0,0,0-1.42,0c-4,.25-7.19,3.12-7.08,6.4l.18,7.34a6.74,6.74,0,0,0,1.69.12C106,27,106,28.59,106,28.39Z"/><path class="cls-11" d="M118.41,34.13a1.41,1.41,0,0,0-1.39,0,6.11,6.11,0,0,1-6-.09.81.81,0,0,0-.93.07,6.59,6.59,0,0,1-7.54.47.81.81,0,0,0-.93,0,6.18,6.18,0,0,1-6.31.71.78.78,0,0,0-.86.13,8.43,8.43,0,0,1-3,1.5.7.7,0,0,0-.54.92L105.68,71.3v.06a12.12,12.12,0,0,1,1.9-.17,9.46,9.46,0,0,1,1.9-.06v-.07l12.37-35.12a.66.66,0,0,0-.6-.84A8.74,8.74,0,0,1,118.41,34.13Z"/><path class="cls-12" d="M98.59,35.84a6,6,0,0,1-3.31-.51.79.79,0,0,0-.87.13,8.43,8.43,0,0,1-3,1.5.7.7,0,0,0-.54.92L105.68,71.3v.06a3.45,3.45,0,0,1,.6-.09Z"/><path class="cls-12" d="M103.46,35.07c-.95-.39-.95-.63-1.39-.62l4.82,36.78,1.38-.09,2.21-37.22c-.5,0-.66.57-2,1.11A6.7,6.7,0,0,1,103.46,35.07Z"/><path class="cls-12" d="M109.52,70.94l2.91-8.25,9.42-26.75a.66.66,0,0,0-.6-.84c-2.57-.45-2.7-1.17-3.54-1.16Z"/><path class="cls-13" d="M105.68,71.3l-10.84-36c-.43.06-.39.27-1.24.78a10.64,10.64,0,0,1-2.17.92.7.7,0,0,0-.54.91l4.55,10.29Z"/><path class="cls-9" d="M106.3,74a2.33,2.33,0,0,1-.46,0l.17,2.61a1.57,1.57,0,0,0,1.81,1.32,1.67,1.67,0,0,0,1.7-1.54l-.17-2.61A21.33,21.33,0,0,1,106.3,74Z"/><path class="cls-10" d="M107.68,76.27l-.16-2.4a8,8,0,0,1-1.68.06l.17,2.61c0,1.17,1.69,1.73,2.81,1A1.41,1.41,0,0,1,107.68,76.27Z"/><path class="cls-9" d="M110.68,72.38v0A1.71,1.71,0,0,1,109,74l-2.56.15a1.58,1.58,0,0,1-1.82-1.33v0a1.71,1.71,0,0,1,1.73-1.56l2.55-.16A1.59,1.59,0,0,1,110.68,72.38Z"/><path class="cls-10" d="M107.46,72.6h0A1.67,1.67,0,0,1,109,71l-2.73.16a1.71,1.71,0,0,0-1.73,1.56v0a1.58,1.58,0,0,0,1.82,1.33C109.11,74,109,74,109.13,74A1.57,1.57,0,0,1,107.46,72.6Z"/><path d="M110.4,74.38a2.15,2.15,0,0,0,1.24-1.9h0a1.94,1.94,0,0,0-1.08-1.61l9.9-28.13a.63.63,0,0,0-.56-.81.88.88,0,0,0-1,.5l-5.55,15.74L118.46,35a9.77,9.77,0,0,0,2.73.85L120,39.35a.64.64,0,0,0,.56.82.92.92,0,0,0,1-.5L123,35.46c.14-.4-.18-.79-.67-.83-1.18-.1-3.09-.57-3.76-1.33a1,1,0,0,0-1.25-.07,5.09,5.09,0,0,1-6.13.06,1,1,0,0,0-1.24.09,5.2,5.2,0,0,1-1,.79l-.21-6a2.27,2.27,0,0,1,.81-1.75c1.83-1.66,5.2-.74,5.28,1.51.06,1.87,2.88,2.64,4.46,1.22a2,2,0,0,0,.7-1.54c-.13-3.73-4-6.53-8.53-6.24s-8,3.47-7.88,7.12l0,.44a.74.74,0,0,0,.85.63.78.78,0,0,0,.8-.73v-.44c-.11-2.91,2.71-5.45,6.27-5.67s6.72,2,6.83,5a.76.76,0,0,1-.26.56c-.57.51-1.58.23-1.6-.44-.08-2.15-2.28-3.76-4.92-3.6s-4.54,2-4.47,4l.23,6.5a5.83,5.83,0,0,1-1.85.12L105.39,32a.73.73,0,0,0-.85-.62.79.79,0,0,0-.8.72l.08,2.37c-1.06-.49-1-.89-1.67-.86a1,1,0,0,0-.62.27,5.12,5.12,0,0,1-6.12.69,1,1,0,0,0-1.22.24c-.52.74-2.27,1.49-3.65,1.79A.91.91,0,0,0,90,37c-.35.52-.84-1.48,14.85,34.25a1.9,1.9,0,0,0,.4,3.48l.07,2a1.87,1.87,0,0,0,.81,1.44c1.66,1.22,4.42.12,4.35-1.76ZM91.79,37.69a10.46,10.46,0,0,0,2.66-1.18L101.22,59Zm14.13,18.86A.77.77,0,0,0,105,56a.76.76,0,0,0-.74.77l1.55,11.8L96.15,36.44a7.26,7.26,0,0,0,5.36-.74l2.34,17.87a.77.77,0,0,0,.91.56.76.76,0,0,0,.74-.77l-2.3-17.58a7.74,7.74,0,0,0,6.5-.41l-2,34.5Zm5.45-21.47a7.17,7.17,0,0,0,5.39.07L109.4,68.42Zm-5.12,38.46c-1.07-.17-.89-1.43.18-1.5l2.6-.16a.84.84,0,0,1,1,.7h0a.9.9,0,0,1-.91.81A19.42,19.42,0,0,1,106.25,73.54Zm1.67,3.74a.82.82,0,0,1-1-.7l-.06-1.7,1.85-.12.06,1.7A.88.88,0,0,1,107.92,77.28Z"/><path class="cls-14" d="M102.7,21.57H90.36L86.29,1h20.48Z"/><path class="cls-15" d="M104.86,1l-4.07,20.54h1.91L106.77,1Z"/><path class="cls-16" d="M102.7,21.57H90.36v5.18a.84.84,0,0,0,.92.75h10.5a.84.84,0,0,0,.92-.75Z"/><path class="cls-17" d="M100.79,21.57v5.18a.84.84,0,0,1-.92.75h1.91a.84.84,0,0,0,.92-.75V21.57Z"/><path class="cls-16" d="M86.59,2.55h19.87L106.77,1H86.29Z"/><path class="cls-17" d="M104.56,2.55h1.9L106.77,1h-1.91Z"/><path class="cls-14" d="M90.36,26H102.7v.78a.84.84,0,0,1-.92.75H91.28a.84.84,0,0,1-.92-.75Z"/><path class="cls-15" d="M102.7,26h-1.91v.78a.84.84,0,0,1-.92.75h1.91a.85.85,0,0,0,.92-.75Z"/><path class="cls-18" d="M99,26a2.77,2.77,0,0,0-4.85,0Z"/><ellipse class="cls-16" cx="96.53" cy="10.13" rx="3.48" ry="2.83"/><path d="M97,6.25V5.58a.5.5,0,0,0-1,0v.67a.5.5,0,0,0,1,0Z"/><path d="M100.24,7.67l.59-.47a.36.36,0,0,0,0-.57.56.56,0,0,0-.69,0l-.59.48a.35.35,0,0,0,0,.56.55.55,0,0,0,.35.12A.52.52,0,0,0,100.24,7.67Z"/><path d="M102.12,10.53a.45.45,0,0,0,.49-.4.45.45,0,0,0-.49-.4h-.83a.45.45,0,0,0-.49.4.45.45,0,0,0,.49.4Z"/><path d="M100.14,13.63a.52.52,0,0,0,.34.12.55.55,0,0,0,.35-.12.35.35,0,0,0,0-.56l-.59-.48a.56.56,0,0,0-.69,0,.36.36,0,0,0,0,.57Z"/><path d="M96,14v.67a.5.5,0,0,0,1,0V14a.5.5,0,0,0-1,0Z"/><path d="M92.57,13.75a.55.55,0,0,0,.35-.12l.58-.47a.35.35,0,0,0,0-.57.56.56,0,0,0-.69,0l-.59.48a.35.35,0,0,0,0,.56A.55.55,0,0,0,92.57,13.75Z"/><path d="M90.93,9.73a.45.45,0,0,0-.49.4.45.45,0,0,0,.49.4h.83a.45.45,0,0,0,.49-.4.45.45,0,0,0-.49-.4Z"/><path d="M92.81,7.67a.55.55,0,0,0,.35.12.52.52,0,0,0,.34-.12.34.34,0,0,0,0-.56l-.58-.48a.57.57,0,0,0-.7,0,.36.36,0,0,0,0,.57Z"/><path d="M107.14.78a.54.54,0,0,0-.37-.15H86.29a.56.56,0,0,0-.38.15.35.35,0,0,0-.11.32l4.07,20.5v1.5a.5.5,0,0,0,1,0V22H102.2v3.6H99.28a3.37,3.37,0,0,0-5.51,0H90.85V24.44a.5.5,0,0,0-1,0v2.31a1.29,1.29,0,0,0,1.4,1.15h10.51a1.3,1.3,0,0,0,1.41-1.15V21.6l.36-1.84c0-.22-.14-.42-.4-.46a.51.51,0,0,0-.57.33l-.3,1.54H90.78L87.17,3h18.72l-3,15.35c0,.22.14.42.4.46a.5.5,0,0,0,.57-.33L107.25,1.1a.35.35,0,0,0-.11-.32ZM96.53,24.94a2.28,2.28,0,0,1,1.61.63H94.92A2.24,2.24,0,0,1,96.53,24.94ZM91.27,27.1a.39.39,0,0,1-.42-.35v-.38H102.2v.38a.39.39,0,0,1-.42.35ZM106.05,2.16H87l-.15-.73h19.33Z"/><path d="M100.5,10.13c0-1.78-1.79-3.23-4-3.23a3.9,3.9,0,0,0-3.84,2.42A.39.39,0,0,0,93,9.8a.51.51,0,0,0,.6-.28A3,3,0,0,1,96.53,7.7a2.75,2.75,0,0,1,3,2.43,2.75,2.75,0,0,1-3,2.43,2.94,2.94,0,0,1-2.92-1.9.5.5,0,0,0-.58-.3c-.27.05-.44.26-.38.48A3.3,3.3,0,0,0,94,12.64a4.6,4.6,0,0,0,2.5.72C98.71,13.36,100.5,11.91,100.5,10.13Z"/><text class="cls-19" transform="translate(39.71 116.02)">Extreme<tspan x="-29.38" y="18">10 mins to bu</tspan><tspan class="cls-20" x="77.6" y="18">r</tspan><tspan x="84.66" y="18">n</tspan></text></g></g></g></svg>