<svg xmlns="http://www.w3.org/2000/svg" viewBox="0 0 152.99 139.43"><defs><style>.cls-1{fill:#e7a561;}.cls-2{fill:#cf914b;}.cls-3{fill:#f4dd45;}.cls-4{fill:#f1d333;}.cls-5{fill:#dd542e;}.cls-6{font-size:20px;font-family:TwCenMT-Regular, Tw Cen MT;}.cls-7{letter-spacing:-0.01em;}.cls-8{letter-spacing:0.02em;}</style></defs><title>Asset 21</title><g id="Layer_2" data-name="Layer 2"><g id="_750_x_5766_px_Artboard_2" data-name="750 x 5766 px Artboard 2"><g id="Text"><path class="cls-1" d="M88.16,57.53H60.58L51.49,1.1H97.26Z"/><path class="cls-2" d="M93,1.1,83.91,57.53h4.25L97.26,1.1Z"/><path class="cls-3" d="M88.16,57.53H60.58V71.77a2.05,2.05,0,0,0,2.05,2H86.11a2,2,0,0,0,2-2Z"/><path class="cls-4" d="M83.91,57.53V71.77a2.05,2.05,0,0,1-2.06,2h4.26a2,2,0,0,0,2-2V57.53Z"/><path class="cls-3" d="M52.16,5.28H96.59l.67-4.18H51.49Z"/><path class="cls-4" d="M92.33,5.28h4.26l.67-4.18H93Z"/><path class="cls-1" d="M60.58,69.6H88.16v2.17a2,2,0,0,1-2,2H62.63a2.05,2.05,0,0,1-2.05-2Z"/><path class="cls-2" d="M88.16,69.6H83.91v2.17a2.05,2.05,0,0,1-2.06,2h4.26a2.05,2.05,0,0,0,2-2Z"/><path class="cls-5" d="M79.79,69.6A5.7,5.7,0,0,0,69,69.6Z"/><circle class="cls-3" cx="74.37" cy="26.09" r="7.77"/><path d="M75.47,15.44V13.59a1.1,1.1,0,1,0-2.2,0v1.85a1.1,1.1,0,0,0,2.2,0Z"/><path d="M82.68,19.34,84,18a1.1,1.1,0,0,0,0-1.56,1.09,1.09,0,0,0-1.55,0l-1.31,1.31a1.1,1.1,0,0,0,.78,1.88A1.09,1.09,0,0,0,82.68,19.34Z"/><path d="M86.88,27.19a1.1,1.1,0,1,0,0-2.2H85a1.1,1.1,0,1,0,0,2.2Z"/><path d="M82.44,35.71a1.08,1.08,0,0,0,.78.33,1.06,1.06,0,0,0,.77-.33,1.09,1.09,0,0,0,0-1.55l-1.31-1.31a1.1,1.1,0,1,0-1.55,1.55Z"/><path d="M73.27,36.75V38.6a1.1,1.1,0,1,0,2.2,0V36.75a1.1,1.1,0,1,0-2.2,0Z"/><path d="M65.53,36a1.1,1.1,0,0,0,.78-.33l1.31-1.31a1.09,1.09,0,0,0,0-1.55,1.1,1.1,0,0,0-1.56,0l-1.31,1.31A1.11,1.11,0,0,0,65.53,36Z"/><path d="M61.87,25a1.1,1.1,0,1,0,0,2.2h1.85a1.1,1.1,0,0,0,0-2.2Z"/><path d="M66.06,19.34a1.11,1.11,0,0,0,1.56,0,1.1,1.1,0,0,0,0-1.56l-1.31-1.31A1.1,1.1,0,0,0,64.75,18Z"/><path d="M98.1.39A1.1,1.1,0,0,0,97.26,0H51.49a1.08,1.08,0,0,0-.84.39,1.09,1.09,0,0,0-.25.88l9.08,56.34v4.13a1.1,1.1,0,0,0,2.2,0V58.63H87.07V68.5H80.53a6.79,6.79,0,0,0-12.32,0H61.68V65.4a1.1,1.1,0,1,0-2.2,0v6.37a3.16,3.16,0,0,0,3.15,3.15H86.11a3.16,3.16,0,0,0,3.15-3.15V57.61l.82-5.06a1.1,1.1,0,0,0-2.17-.35l-.68,4.23H61.52L53.45,6.37H95.3L88.5,48.54a1.1,1.1,0,1,0,2.17.35L98.35,1.27A1.09,1.09,0,0,0,98.1.39ZM74.37,66.77A4.59,4.59,0,0,1,78,68.5H70.78A4.58,4.58,0,0,1,74.37,66.77Zm-11.74,6a1,1,0,0,1-1-1V70.7H87.07v1.07a1,1,0,0,1-1,1Zm33-68.54H53.1l-.32-2H96Z"/><path d="M83.24,26.09a8.87,8.87,0,0,0-17.45-2.24,1.1,1.1,0,0,0,.79,1.34,1.11,1.11,0,0,0,1.34-.78,6.67,6.67,0,1,1-.06,3.14,1.1,1.1,0,1,0-2.14.48,8.87,8.87,0,0,0,17.52-1.94Z"/><path d="M77.36,57H76.21a6.31,6.31,0,0,0-3.69-4.19,11.69,11.69,0,0,0-5.3-1.18h-42A11.74,11.74,0,0,0,20,52.76,6.31,6.31,0,0,0,16.26,57h-1.2a1.07,1.07,0,0,0,0,2.14h1.08v8.65a9.19,9.19,0,0,0,6.71,8,10.18,10.18,0,0,0,2.93.42h0a11.81,11.81,0,0,0,3.73-.62c5.44-1.8,14.55-5.92,14.55-13.12a17.37,17.37,0,0,0,0-2.81,3.71,3.71,0,0,1,4.35,0,16.74,16.74,0,0,0,0,2.68c0,7.3,9.12,11.42,14.55,13.22a11.86,11.86,0,0,0,3.73.62,10.29,10.29,0,0,0,2.94-.42,9.22,9.22,0,0,0,6.71-8V59.1h1a1.08,1.08,0,1,0,0-2.15ZM22.27,62a1.09,1.09,0,0,1-.76.32,1.08,1.08,0,0,1-.76-1.84l4.3-4.29a1.06,1.06,0,0,1,1.51,0,1.07,1.07,0,0,1,0,1.52Zm11.81-4.29-7.52,7.51a1.07,1.07,0,0,1-.76.32,1,1,0,0,1-.75-.32,1.06,1.06,0,0,1,0-1.51l7.51-7.52a1.07,1.07,0,0,1,1.52,1.52Zm9.65-.38a9,9,0,0,0-1.59-3.61h8.19a9,9,0,0,0-1.59,3.63A6,6,0,0,0,43.73,57.33Zm10,5A1.09,1.09,0,0,1,53,62a1.07,1.07,0,0,1,0-1.52l4.3-4.29a1.07,1.07,0,0,1,1.52,1.52L54.49,62A1.07,1.07,0,0,1,53.73,62.32Zm12.58-4.61-7.52,7.51a1.09,1.09,0,0,1-.76.32,1.08,1.08,0,0,1-.76-1.83l7.52-7.52a1.07,1.07,0,1,1,1.52,1.52Z"/><text class="cls-6" transform="translate(36.84 115.87)">Mode<tspan class="cls-7" x="46.46" y="0">r</tspan><tspan x="52.92" y="0">ate</tspan><tspan x="-21.78" y="18">45 mins to bu</tspan><tspan class="cls-8" x="85.2" y="18">r</tspan><tspan x="92.26" y="18">n</tspan></text></g></g></g></svg>