<svg xmlns="http://www.w3.org/2000/svg" viewBox="0 0 152.99 140.09"><defs><style>.cls-1{font-size:20px;font-family:TwCenMT-Regular, Tw Cen MT;}.cls-2{letter-spacing:0.02em;}.cls-3{fill:#c68a65;}.cls-4{fill:#ffcd69;}.cls-5{fill:#e7a561;}.cls-6{fill:#cf914b;}.cls-7{fill:#f4dd45;}.cls-8{fill:#f1d333;}.cls-9{fill:#dd542e;}</style></defs><title>Asset 22</title><g id="Layer_2" data-name="Layer 2"><g id="_750_x_5766_px_Artboard_2" data-name="750 x 5766 px Artboard 2"><g id="Text"><text class="cls-1" transform="translate(58.4 116.53)">High<tspan x="-43.34" y="18">30 mins to bu</tspan><tspan class="cls-2" x="63.64" y="18">r</tspan><tspan x="70.7" y="18">n</tspan></text><path class="cls-3" d="M97.2,25A48.28,48.28,0,0,0,87.94,3.71a7.25,7.25,0,0,0-10-.82A9.74,9.74,0,0,1,71.53,5.6a9.74,9.74,0,0,1-6.36-2.71,7.25,7.25,0,0,0-10.05.82A48.4,48.4,0,0,0,45.86,25C60.54,35.71,82.53,35.71,97.2,25Z"/><path class="cls-4" d="M95.66,18.53c-14.12,9.3-34.14,9.3-48.26,0A42.36,42.36,0,0,0,45.86,25C60.54,35.71,82.53,35.71,97.2,25A42.36,42.36,0,0,0,95.66,18.53Z"/><path class="cls-3" d="M71.53,41.75a57.37,57.37,0,0,1-18.62-3,50.63,50.63,0,0,1-16.38-9.15,3.88,3.88,0,0,1,0-6.15,5.89,5.89,0,0,1,7.32,0c15.26,12.83,40.1,12.83,55.36,0a5.89,5.89,0,0,1,7.32,0,3.88,3.88,0,0,1,0,6.15A50.42,50.42,0,0,1,90.15,38.7a57.33,57.33,0,0,1-18.62,3Z"/><path d="M107.58,22.52a7.58,7.58,0,0,0-9.34-.06A49.83,49.83,0,0,0,89.18,3a8.29,8.29,0,0,0-5.93-3,8.76,8.76,0,0,0-6.43,2,8.12,8.12,0,0,1-5.29,2.32A8.16,8.16,0,0,1,66.24,2a8.75,8.75,0,0,0-6.43-2,8.29,8.29,0,0,0-5.93,3,49.83,49.83,0,0,0-9.06,19.44,7.58,7.58,0,0,0-9.34.06,5,5,0,0,0,0,7.92,52.36,52.36,0,0,0,16.87,9.42A59.37,59.37,0,0,0,71.53,43a59.37,59.37,0,0,0,19.18-3.14,52.36,52.36,0,0,0,16.87-9.42,5,5,0,0,0,0-7.92ZM56.37,4.39a5.19,5.19,0,0,1,3.71-1.88,5.51,5.51,0,0,1,4,1.25,11.39,11.39,0,0,0,7.43,3.09A11.37,11.37,0,0,0,79,3.76a5.51,5.51,0,0,1,4-1.25A5.23,5.23,0,0,1,86.7,4.39,47.57,47.57,0,0,1,94,18a43.38,43.38,0,0,1-44.88,0A47.35,47.35,0,0,1,56.37,4.39Zm49.11,24.28a49.24,49.24,0,0,1-15.89,8.88,55.86,55.86,0,0,1-18.06,3,55.86,55.86,0,0,1-18.06-3,49.24,49.24,0,0,1-15.89-8.88,2.77,2.77,0,0,1,0-4.39,4.21,4.21,0,0,1,5.22,0,43.32,43.32,0,0,0,21.83,9.5,1.48,1.48,0,0,0,1.72-1,1.29,1.29,0,0,0-1.22-1.44,40.91,40.91,0,0,1-17.69-6.85c.22-1.27.51-2.55.86-3.84a46.35,46.35,0,0,0,23.23,6.12,46.32,46.32,0,0,0,23.23-6.12c.35,1.29.64,2.57.86,3.84a40.94,40.94,0,0,1-17.68,6.85,1.28,1.28,0,0,0-1.21,1.44,1.48,1.48,0,0,0,1.71,1,43.33,43.33,0,0,0,21.82-9.5,4.21,4.21,0,0,1,5.22,0,2.77,2.77,0,0,1,0,4.39Z"/><path d="M71.54,31.78a1.68,1.68,0,0,0-1.05.37,1.12,1.12,0,0,0,0,1.76,1.67,1.67,0,0,0,2.1,0,1.12,1.12,0,0,0,0-1.76A1.68,1.68,0,0,0,71.54,31.78Z"/><path class="cls-5" d="M114.85,66.37H97.41L91.66,30.69H120.6Z"/><path class="cls-6" d="M117.91,30.69l-5.75,35.68h2.69l5.75-35.68Z"/><path class="cls-7" d="M114.85,66.37H97.41v9a1.3,1.3,0,0,0,1.3,1.3h14.85a1.3,1.3,0,0,0,1.29-1.3Z"/><path class="cls-8" d="M112.16,66.37v9a1.3,1.3,0,0,1-1.3,1.3h2.7a1.3,1.3,0,0,0,1.29-1.3v-9Z"/><path class="cls-7" d="M92.09,33.34h28.09l.42-2.65H91.66Z"/><path class="cls-8" d="M117.49,33.34h2.69l.42-2.65h-2.69Z"/><path class="cls-5" d="M97.41,74h17.44v1.37a1.3,1.3,0,0,1-1.29,1.3H98.71a1.3,1.3,0,0,1-1.3-1.3Z"/><path class="cls-6" d="M114.85,74h-2.69v1.37a1.3,1.3,0,0,1-1.3,1.3h2.7a1.3,1.3,0,0,0,1.29-1.3Z"/><path class="cls-9" d="M109.56,74a3.6,3.6,0,0,0-6.85,0Z"/><circle class="cls-7" cx="106.13" cy="46.5" r="4.91"/><path d="M106.83,39.76V38.59a.7.7,0,0,0-1.39,0v1.17a.7.7,0,1,0,1.39,0Z"/><path d="M111.39,42.23l.83-.83a.7.7,0,0,0-1-1l-.82.82a.7.7,0,0,0,0,1,.71.71,0,0,0,1,0Z"/><path d="M114,47.19a.7.7,0,0,0,.7-.69.71.71,0,0,0-.7-.7h-1.17a.71.71,0,0,0-.7.7.7.7,0,0,0,.7.69Z"/><path d="M111.23,52.58a.7.7,0,0,0,1-1l-.83-.83a.71.71,0,0,0-1,0,.69.69,0,0,0,0,1Z"/><path d="M105.44,53.23v1.18a.7.7,0,0,0,1.39,0V53.23a.7.7,0,0,0-1.39,0Z"/><path d="M100.54,52.79a.67.67,0,0,0,.49-.21l.83-.83a.69.69,0,1,0-1-1l-.83.83a.69.69,0,0,0,0,1A.68.68,0,0,0,100.54,52.79Z"/><path d="M98.23,45.8a.7.7,0,0,0-.7.7.69.69,0,0,0,.7.69H99.4a.69.69,0,0,0,.69-.69.7.7,0,0,0-.69-.7Z"/><path d="M100.88,42.23a.7.7,0,0,0,1,0,.71.71,0,0,0,0-1l-.83-.82a.68.68,0,0,0-1,0,.69.69,0,0,0,0,1Z"/><path d="M121.13,30.24a.7.7,0,0,0-.53-.24H91.66a.71.71,0,0,0-.53.24.69.69,0,0,0-.15.57l5.74,35.62V69a.7.7,0,0,0,1.39,0v-2h16v6.25H110a4.29,4.29,0,0,0-7.79,0H98.11v-2a.7.7,0,0,0-1.39,0v4a2,2,0,0,0,2,2h14.85a2,2,0,0,0,2-2V66.43l.51-3.2a.69.69,0,0,0-.57-.8.7.7,0,0,0-.8.58l-.43,2.67H98L92.9,34h26.46l-4.29,26.66a.69.69,0,0,0,.57.8.7.7,0,0,0,.8-.58l4.85-30.1a.69.69,0,0,0-.16-.57Zm-15,42a2.91,2.91,0,0,1,2.28,1.1h-4.55A2.9,2.9,0,0,1,106.13,72.22ZM98.71,76a.6.6,0,0,1-.6-.6V74.7h16v.68a.6.6,0,0,1-.6.6Zm20.88-43.34H92.68l-.2-1.25h27.31Z"/><path d="M111.74,46.5a5.61,5.61,0,0,0-11-1.42.69.69,0,1,0,1.34.35,4.23,4.23,0,1,1,0,2,.71.71,0,0,0-.83-.53.7.7,0,0,0-.53.83,5.61,5.61,0,0,0,11.08-1.22Z"/><path d="M94.75,50.4h-.9A4.88,4.88,0,0,0,91,47.11a9.12,9.12,0,0,0-4.11-1l-9.59-.09h0L64,45.94l-9.59-.09a9.15,9.15,0,0,0-4.12.89A4.9,4.9,0,0,0,47.34,50h-.93a.83.83,0,0,0-.84.82.85.85,0,0,0,.83.85h.83l-.06,6.74a7.17,7.17,0,0,0,5.15,6.28,8.15,8.15,0,0,0,2.27.34h0a9.14,9.14,0,0,0,2.9-.45C61.72,63.19,68.82,60,68.87,54.44a13.84,13.84,0,0,0,0-2.2,2.87,2.87,0,0,1,3.37.06,13,13,0,0,0,0,2.09c-.06,5.68,7,9,11.19,10.4a9.17,9.17,0,0,0,2.89.51,7.84,7.84,0,0,0,2.28-.3,7.16,7.16,0,0,0,5.26-6.23l.07-6.7h.79a.84.84,0,0,0,0-1.68ZM52,54a.86.86,0,0,1-.59.24.85.85,0,0,1-.58-1.44l3.36-3.32a.84.84,0,0,1,1.18,0,.85.85,0,0,1,0,1.19Zm9.19-3.27L55.28,56.5a.86.86,0,0,1-.59.24.88.88,0,0,1-.59-.25.85.85,0,0,1,0-1.19L60,49.5a.82.82,0,0,1,1.17,0A.83.83,0,0,1,61.16,50.69Zm7.49-.22a6.9,6.9,0,0,0-1.21-2.82l6.36.05a7,7,0,0,0-1.26,2.82A4.68,4.68,0,0,0,68.65,50.47Zm7.72,4a.79.79,0,0,1-.58-.25.83.83,0,0,1,0-1.18l3.36-3.32a.84.84,0,0,1,1.18,0,.85.85,0,0,1,0,1.19L77,54.18A.86.86,0,0,1,76.37,54.42Zm9.79-3.5-5.88,5.8a.83.83,0,0,1-1.18,0,.84.84,0,0,1,0-1.18L85,49.72a.82.82,0,0,1,1.17,0A.84.84,0,0,1,86.16,50.92Z"/></g></g></g></svg>