<svg xmlns="http://www.w3.org/2000/svg" viewBox="0 0 152.99 139.06"><defs><style>.cls-1{fill:#d82e3d;}.cls-2{fill:#c32430;}.cls-3{fill:#e4f6ff;}.cls-4{fill:#595959;}.cls-5{fill:#454545;}.cls-6{fill:#e7a561;}.cls-7{fill:#cf914b;}.cls-8{fill:#f4dd45;}.cls-9{fill:#f1d333;}.cls-10{fill:#dd542e;}.cls-11{font-size:20px;font-family:TwCenMT-Regular, Tw Cen MT;}.cls-12{letter-spacing:-0.06em;}.cls-13{letter-spacing:0.02em;}</style></defs><title>Asset 23</title><g id="Layer_2" data-name="Layer 2"><g id="_750_x_5766_px_Artboard_2" data-name="750 x 5766 px Artboard 2"><g id="Text"><path class="cls-1" d="M106.12,7.56a31.28,31.28,0,0,1,5.94,43.83L62.29,13.49A31.28,31.28,0,0,1,106.12,7.56Z"/><path class="cls-2" d="M106.12,7.56A31,31,0,0,0,91.66,1.49a31.3,31.3,0,0,1,16.56,47l3.84,2.92a31.28,31.28,0,0,0-5.94-43.83Z"/><path class="cls-3" d="M106.12,7.56c5.23,4,1,18.35-9.48,32.09L77.71,25.23C88.17,11.49,100.89,3.58,106.12,7.56Z"/><path class="cls-4" d="M59,72.84H53.44L85.29,31l3.76,2.86Z"/><path class="cls-5" d="M82.7,34.41l3.74,2.85,2.61-3.39L85.29,31Z"/><path d="M118.47,71.66H61.38L89.27,35.5l6.66,5.07h0l15.41,11.74a1.15,1.15,0,0,0,.71.24,1.18,1.18,0,0,0,.94-.46,32.44,32.44,0,0,0,4.89-30.16,1.17,1.17,0,0,0-2.22.76,30.05,30.05,0,0,1-3.85,27L98.27,39.41c5.16-7,11.91-18.77,11.21-27.2a30.05,30.05,0,0,1,4.73,7,1.16,1.16,0,0,0,1.57.54,1.18,1.18,0,0,0,.54-1.57,32,32,0,0,0-8.57-10.8l2-2.57a1.17,1.17,0,0,0-1.87-1.42l-2,2.57a32.49,32.49,0,0,0-44.53,6.84,1.18,1.18,0,0,0-.23.87,1.16,1.16,0,0,0,.45.78L77,26.16h0l6.65,5.06L61.1,60.84A1.17,1.17,0,0,0,63,62.26L85.52,32.64l1.88,1.44-29,37.58H55.81l4.78-6.28A1.18,1.18,0,1,0,58.72,64l-5.86,7.71H40.73a1.17,1.17,0,1,0,0,2.34h77.74a1.17,1.17,0,1,0,0-2.34ZM106.14,19.6C104.47,25.25,101,31.74,96.41,38l-17-13c4.8-6.12,10.14-11.16,15.14-14.27,4.85-3,8.83-3.84,10.91-2.26S107.76,14.12,106.14,19.6Zm-5.41-14c-8.29,1.56-17.86,11.17-23.24,18L64,13.28a30.15,30.15,0,0,1,36.78-7.72Z"/><path class="cls-6" d="M59.54,63.3H46.46L42.15,36.55h21.7Z"/><path class="cls-7" d="M61.83,36.55,57.52,63.3h2l4.31-26.75Z"/><path class="cls-8" d="M59.54,63.3H46.46v6.75a1,1,0,0,0,1,1H58.57a1,1,0,0,0,1-1Z"/><path class="cls-9" d="M57.52,63.3v6.75a1,1,0,0,1-1,1h2a1,1,0,0,0,1-1V63.3Z"/><path class="cls-8" d="M42.47,38.53H63.53l.32-2H42.15Z"/><path class="cls-9" d="M61.51,38.53h2l.32-2h-2Z"/><path class="cls-6" d="M46.46,69H59.54v1a1,1,0,0,1-1,1H47.44a1,1,0,0,1-1-1Z"/><path class="cls-7" d="M59.54,69h-2v1a1,1,0,0,1-1,1h2a1,1,0,0,0,1-1Z"/><path class="cls-10" d="M55.57,69a2.71,2.71,0,0,0-5.14,0Z"/><circle class="cls-8" cx="53" cy="48.4" r="3.68"/><path d="M53.52,43.35v-.88a.52.52,0,0,0-1,0v.88a.52.52,0,0,0,1,0Z"/><path d="M56.94,45.2l.62-.63a.52.52,0,0,0,0-.73.51.51,0,0,0-.74,0l-.62.62a.52.52,0,0,0,.74.74Z"/><path d="M58.93,48.92a.52.52,0,0,0,0-1h-.88a.52.52,0,0,0,0,1Z"/><path d="M56.82,53a.55.55,0,0,0,.37.15.51.51,0,0,0,.37-.15.53.53,0,0,0,0-.74l-.62-.62a.52.52,0,1,0-.74.74Z"/><path d="M52.48,53.45v.88a.52.52,0,0,0,1,0v-.88a.52.52,0,0,0-1,0Z"/><path d="M48.81,53.11a.55.55,0,0,0,.37-.15l.62-.62a.52.52,0,1,0-.74-.74l-.62.62a.53.53,0,0,0,0,.74A.51.51,0,0,0,48.81,53.11Z"/><path d="M47.07,47.88a.52.52,0,1,0,0,1H48a.52.52,0,0,0,0-1Z"/><path d="M49.06,45.2a.52.52,0,0,0,.74-.74l-.62-.62a.51.51,0,0,0-.74,0,.52.52,0,0,0,0,.73Z"/><path d="M64.25,36.21a.55.55,0,0,0-.4-.18H42.15a.55.55,0,0,0-.4.18.53.53,0,0,0-.11.42l4.3,26.71v2a.52.52,0,0,0,.52.52.52.52,0,0,0,.52-.52V63.82H59V68.5h-3.1a3.22,3.22,0,0,0-5.84,0H47V67a.52.52,0,0,0-.52-.52.52.52,0,0,0-.52.52v3a1.5,1.5,0,0,0,1.5,1.49H58.57a1.49,1.49,0,0,0,1.49-1.49V63.34l.39-2.4a.53.53,0,0,0-.44-.6.52.52,0,0,0-.59.44l-.33,2H46.91L43.08,39.05H62.92L59.7,59a.52.52,0,0,0,.43.6.53.53,0,0,0,.6-.44l3.63-22.57a.5.5,0,0,0-.11-.42ZM53,67.68a2.19,2.19,0,0,1,1.71.82H51.29A2.19,2.19,0,0,1,53,67.68ZM47.44,70.5a.46.46,0,0,1-.46-.45v-.51H59v.51a.45.45,0,0,1-.45.45ZM63.09,38H42.91l-.15-.94H63.24Z"/><path d="M57.21,48.4a4.21,4.21,0,0,0-8.28-1.06.52.52,0,0,0,1,.26,3.15,3.15,0,1,1,0,1.49.52.52,0,1,0-1,.23,4.21,4.21,0,0,0,8.31-.92Z"/><path d="M96.43,57.92h-.75a4,4,0,0,0-2.39-2.71,7.63,7.63,0,0,0-3.44-.77H62.65a7.62,7.62,0,0,0-3.43.77,4,4,0,0,0-2.39,2.71h-.78a.7.7,0,0,0,0,1.4h.69v5.6a6,6,0,0,0,4.34,5.19,6.73,6.73,0,0,0,1.91.27h0a7.91,7.91,0,0,0,2.42-.4c3.52-1.17,9.43-3.84,9.42-8.51a11.14,11.14,0,0,0,0-1.82,2.39,2.39,0,0,1,2.81,0,12,12,0,0,0,0,1.73c0,4.74,5.91,7.41,9.43,8.58a7.91,7.91,0,0,0,2.42.4,6.73,6.73,0,0,0,1.91-.27,6,6,0,0,0,4.35-5.22V59.32h.66a.7.7,0,0,0,0-1.4ZM60.72,61.2a.7.7,0,1,1-1-1l2.79-2.79a.7.7,0,1,1,1,1Zm7.66-2.78L63.5,63.29a.7.7,0,0,1-1,0,.71.71,0,0,1,0-1l4.87-4.87a.7.7,0,0,1,1,1Zm6.25-.25a5.79,5.79,0,0,0-1-2.34h5.31a5.9,5.9,0,0,0-1,2.35A3.92,3.92,0,0,0,74.63,58.17Zm6.48,3.23a.67.67,0,0,1-.49-.2.69.69,0,0,1,0-1l2.79-2.79a.69.69,0,0,1,1,0,.71.71,0,0,1,0,1L81.6,61.2A.66.66,0,0,1,81.11,61.4Zm8.15-3-4.87,4.87a.71.71,0,0,1-.49.2.7.7,0,0,1-.49-.2.69.69,0,0,1,0-1l4.87-4.87a.7.7,0,1,1,1,1Z"/><text class="cls-11" transform="translate(36.87 115.5)"><tspan class="cls-12">V</tspan><tspan x="10.88" y="0">ery High</tspan><tspan x="-21.81" y="18">20 mins to bu</tspan><tspan class="cls-13" x="85.17" y="18">r</tspan><tspan x="92.23" y="18">n</tspan></text></g></g></g></svg>