<svg xmlns="http://www.w3.org/2000/svg" viewBox="0 0 45.3 45.3"><defs><style>.cls-1{fill:#e1629c;stroke:#e1629c;stroke-miterlimit:10;}</style></defs><title>Asset 72</title><g id="Layer_2" data-name="Layer 2"><g id="_750_x_5766_px_Artboard_2" data-name="750 x 5766 px Artboard 2"><g id="Text"><path class="cls-1" d="M44.8,15.84a8.55,8.55,0,0,1-8.54,8.54H9.15a1.73,1.73,0,0,1,0-3.46H36.26a5.08,5.08,0,1,0-5.07-5.08,1.73,1.73,0,0,1-3.46,0,8.54,8.54,0,0,1,17.07,0ZM2.23,17.57H16.94A8.54,8.54,0,1,0,8.4,9a1.73,1.73,0,0,0,3.46,0,5.08,5.08,0,1,1,5.08,5.07H2.23a1.73,1.73,0,1,0,0,3.46ZM29.46,27.73H2.23a1.73,1.73,0,0,0,0,3.46H29.46a5.08,5.08,0,1,1-5.08,5.07,1.73,1.73,0,0,0-3.46,0,8.54,8.54,0,1,0,8.54-8.53Z"/></g></g></g></svg>