<svg xmlns="http://www.w3.org/2000/svg" viewBox="0 0 50.1 57.64"><defs><style>.cls-1{fill:#51aa89;stroke:#51aa89;stroke-miterlimit:10;}</style></defs><title>Asset 67</title><g id="Layer_2" data-name="Layer 2"><g id="_750_x_5766_px_Artboard_2" data-name="750 x 5766 px Artboard 2"><g id="Text"><path class="cls-1" d="M14.66,40.15c9.14,0,14.17-5.37,14.17-15.11C28.83,15.92,15.92,1.41,15.37.8A1,1,0,0,0,14,.8C13.41,1.41.5,15.92.5,25,.5,34.78,5.53,40.15,14.66,40.15Zm0-37.28C17.37,6,26.94,17.79,26.94,25c0,6-2.13,13.22-12.28,13.22S2.39,31.07,2.39,25C2.39,17.79,12,6,14.66,2.87Z"/><path class="cls-1" d="M41.11,42c5.4,0,8.49-3.6,8.49-9.89,0-5.9-7.49-14-7.8-14.36a1,1,0,0,0-1.39,0c-.31.35-7.8,8.46-7.8,14.36C32.61,38.43,35.7,42,41.11,42Zm0-22.18c1.82,2.12,6.61,8.09,6.61,12.29,0,5.31-2.23,8-6.61,8s-6.62-2.7-6.62-8C34.49,27.94,39.28,22,41.11,19.85Z"/><path class="cls-1" d="M27.18,38.58c-.24.27-5.91,6.74-5.91,11,0,4.8,2.41,7.55,6.61,7.55s6.61-2.75,6.61-7.55c0-4.27-5.66-10.74-5.9-11a1,1,0,0,0-1.41,0Zm.7,16.67c-3.13,0-4.72-1.9-4.72-5.66,0-2.57,3-6.75,4.72-8.92,1.77,2.17,4.73,6.35,4.73,8.92C32.61,53.35,31,55.25,27.88,55.25Z"/><path class="cls-1" d="M12.68,36.36h.1a.95.95,0,0,0,.09-1.89,6.9,6.9,0,0,1-5-2.57c-2.51-3.28-1.67-8.55-1.67-8.61A.94.94,0,0,0,4.29,23c0,.25-1,6.13,2,10.06A8.7,8.7,0,0,0,12.68,36.36Z"/><path class="cls-1" d="M40.16,38.26a6.61,6.61,0,0,0,4.62-2,5.65,5.65,0,0,0,1-4.78A.94.94,0,0,0,44,31.8a3.89,3.89,0,0,1-.6,3.24,4.72,4.72,0,0,1-3.19,1.33.95.95,0,0,0,0,1.89Z"/><path class="cls-1" d="M27.36,51.58A1.09,1.09,0,0,1,26.84,50a.94.94,0,1,0-1.69-.84,3,3,0,0,0,1.37,4.1.94.94,0,0,0,1.27-.42,1,1,0,0,0-.43-1.27Z"/></g></g></g></svg>