<svg xmlns="http://www.w3.org/2000/svg" viewBox="0 0 35.52 82.31"><defs><style>.cls-1{fill:#bdc4c6;}</style></defs><title>Asset 58</title><g id="Layer_2" data-name="Layer 2"><g id="_750_x_5766_px_Artboard_2" data-name="750 x 5766 px Artboard 2"><g id="Text"><path class="cls-1" d="M35.52,64.55A17.76,17.76,0,1,1,8.77,49.25V9a9,9,0,0,1,18,0V49.25a17.67,17.67,0,0,1,8.77,15.3Zm-3.51,0a14.19,14.19,0,0,0-7.81-12.7l-1-.48V9a5.48,5.48,0,1,0-11,0V51.37l-1,.48A14.25,14.25,0,1,0,32,64.55Zm-2.92,0A11.33,11.33,0,1,1,14.84,53.62l.65-.17v-39H20v39l.66.18a11.33,11.33,0,0,1,8.41,10.93ZM18.32,57a2.27,2.27,0,0,0-2.71-1.71,9.32,9.32,0,0,0-7.29,9.14,2.27,2.27,0,0,0,4.53,0,4.87,4.87,0,0,1,3.76-4.72A2.27,2.27,0,0,0,18.32,57Z"/></g></g></g></svg>