<svg xmlns="http://www.w3.org/2000/svg" viewBox="0 0 117.07 142.08"><defs><style>.cls-1{fill:#f4d44e;}.cls-2{fill:#e8c842;}.cls-3{fill:#656566;}.cls-4{fill:#4f4f51;}.cls-5{fill:#dbbc3b;}.cls-6{fill:#eae9e8;}.cls-7{fill:#dbdbdb;}.cls-8{fill:#ed694a;}.cls-9{fill:#d8553a;}.cls-10{fill:#f44335;}.cls-11{fill:#c81e1e;}.cls-12{fill:#60a917;}.cls-13{fill:#ff9801;}.cls-14{fill:#ff5722;}.cls-15{fill:#f5f5f5;}.cls-16{font-size:20px;font-family:TwCenMT-Regular, Tw Cen MT;}</style></defs><title>Asset 35</title><g id="Layer_2" data-name="Layer 2"><g id="_750_x_5766_px_Artboard_2" data-name="750 x 5766 px Artboard 2"><g id="Text"><path class="cls-1" d="M19.25,16.43h0A34.37,34.37,0,0,0,15,45.66h0a34.63,34.63,0,0,0,7.67,13.28v0a34.38,34.38,0,0,0,27.43,11h0C75.48,68.26,90.29,40.75,78,18.72,65.53-3.65,33.58-5.09,19.25,16.43Z"/><path class="cls-2" d="M56.12,66.41h0a34.34,34.34,0,0,1-27.42-11h0A34.74,34.74,0,0,1,21,42.18h0A34.37,34.37,0,0,1,25.26,13h0a34.52,34.52,0,0,1,8.5-8.88A34,34,0,0,0,19.25,16.43h0A34.37,34.37,0,0,0,15,45.66h0a34.63,34.63,0,0,0,7.67,13.28v0a34.38,34.38,0,0,0,27.43,11h0a34.14,34.14,0,0,0,18-6.39A34.4,34.4,0,0,1,56.12,66.41Z"/><path class="cls-3" d="M46.24,47.14a4.54,4.54,0,0,0,3.4,0,13,13,0,0,1,3.65-.91v-.34a5.35,5.35,0,1,0-10.7,0v.34A13,13,0,0,1,46.24,47.14Z"/><path class="cls-4" d="M46.06,45.9h0a5.37,5.37,0,0,1,3.62-5.06,5.57,5.57,0,0,0-1.74-.29,5.36,5.36,0,0,0-5.35,5.35v.34a13.34,13.34,0,0,1,3.47.84V45.9Z"/><path class="cls-2" d="M66.94,70h5.5a4.87,4.87,0,0,0,4.89-5.1c-.16-4.08-.07-9.74,4.52-17.48a3.68,3.68,0,0,0-5.38-4.81A33,33,0,0,0,63.28,65.83,3.69,3.69,0,0,0,66.94,70Z"/><path class="cls-5" d="M70.6,69.9a33.07,33.07,0,0,1,8.13-25.48,3.55,3.55,0,0,1,2.77-1.29,3.6,3.6,0,0,0-5-.56A33,33,0,0,0,63.28,65.83,3.69,3.69,0,0,0,66.94,70h3.67A.13.13,0,0,0,70.6,69.9Z"/><path class="cls-2" d="M28.94,70h-5.5a4.87,4.87,0,0,1-4.89-5.1c.16-4.08.07-9.74-4.52-17.48a3.68,3.68,0,0,1,5.38-4.81A33,33,0,0,1,32.6,65.83,3.69,3.69,0,0,1,28.94,70Z"/><path class="cls-5" d="M24.79,65c-.42-4.42-1.33-10.51-7.39-18.2a3.91,3.91,0,0,1,.05-5A3.7,3.7,0,0,0,14,47.38c4.59,7.74,4.68,13.4,4.52,17.48A4.87,4.87,0,0,0,23.44,70h5.5a4,4,0,0,0,.86-.1A5.29,5.29,0,0,1,24.79,65Z"/><path class="cls-6" d="M65.1,34.6a5.65,5.65,0,0,1-7.95-.91l-1.84-2.31a5.66,5.66,0,0,1,8.87-7L66,26.65A5.66,5.66,0,0,1,65.1,34.6Z"/><path class="cls-7" d="M61.58,30.17l-1.83-2.31a5.81,5.81,0,0,1-1-5.57,5.59,5.59,0,0,0-2.49,1.14,5.66,5.66,0,0,0-.92,8l1.84,2.31a5.65,5.65,0,0,0,7.95.91,5.46,5.46,0,0,0,1.67-2.17A5.81,5.81,0,0,1,61.58,30.17Z"/><path class="cls-6" d="M30.78,34.6a5.65,5.65,0,0,0,7.95-.91l1.84-2.31a5.66,5.66,0,0,0-8.87-7l-1.84,2.31A5.66,5.66,0,0,0,30.78,34.6Z"/><path class="cls-7" d="M39.65,23.43a5.52,5.52,0,0,0-2.57-1.15,5.74,5.74,0,0,1-.92,5.6l-1.84,2.31a5.72,5.72,0,0,1-5.25,2.16,5.57,5.57,0,0,0,1.71,2.25,5.65,5.65,0,0,0,7.95-.91l1.84-2.31A5.66,5.66,0,0,0,39.65,23.43Z"/><path class="cls-8" d="M53.29,54.64V45.9a12.09,12.09,0,0,0-3.82.86,4,4,0,0,1-3,0,12.22,12.22,0,0,0-3.83-.86v8.74a5.35,5.35,0,0,0,10.7,0Z"/><path class="cls-9" d="M46.06,54.64v-8a12,12,0,0,0-3.47-.73v8.74A5.35,5.35,0,0,0,47.94,60a5.29,5.29,0,0,0,1.74-.29A5.35,5.35,0,0,1,46.06,54.64Z"/><path d="M56.34,34.34a6.72,6.72,0,0,0,9.42,1.08h0A6.72,6.72,0,0,0,66.84,26L65,23.69A6.7,6.7,0,0,0,54.5,32Zm.54-10.1a4.63,4.63,0,0,1,6.49.75l1.84,2.31a4.63,4.63,0,0,1-.75,6.49h0A4.62,4.62,0,0,1,58,33l-1.83-2.31A4.61,4.61,0,0,1,56.88,24.24Z"/><path d="M30.89,23.69,29.05,26a6.73,6.73,0,0,0,1.08,9.42h0a6.72,6.72,0,0,0,9.42-1.08L41.39,32a6.7,6.7,0,0,0-10.5-8.34Zm8.87,7L37.92,33a4.62,4.62,0,0,1-6.49.75h0a4.62,4.62,0,0,1-.74-6.49L32.52,25a4.62,4.62,0,1,1,7.24,5.74Z"/><path d="M48,39.5a6.4,6.4,0,0,0-6.39,6.39v4.62a1,1,0,0,0,2.08,0V47.06a11.62,11.62,0,0,1,2.39.67,5.08,5.08,0,0,0,3.83,0,11,11,0,0,1,2.39-.67v7.58a4.31,4.31,0,0,1-8.57.59,1,1,0,0,0-2.06.28,6.39,6.39,0,0,0,12.72-.87V45.89A6.4,6.4,0,0,0,48,39.5Zm-1.14,6.3A13.17,13.17,0,0,0,43.74,45a4.31,4.31,0,0,1,8.41,0C49.05,45.41,48.59,46.52,46.81,45.8Z"/><path d="M78.68,17.75A35.49,35.49,0,0,0,31.42,4.09a1,1,0,0,0,1,1.85A33.41,33.41,0,0,1,80.85,41.29a4.57,4.57,0,0,0-5,.45,34.1,34.1,0,0,0-13.6,23.95,33.39,33.39,0,0,1-28.61,0,34.1,34.1,0,0,0-13.59-24,4.56,4.56,0,0,0-5-.44A33.41,33.41,0,0,1,28.38,8.42a1,1,0,1,0-1.22-1.69,35.51,35.51,0,0,0-13.93,36.2,4.55,4.55,0,0,0-.09,5c4.73,8,4.5,13.79,4.37,16.91A5.91,5.91,0,0,0,23.44,71h5.5a4.72,4.72,0,0,0,4.45-3.13,35.43,35.43,0,0,0,29.11,0A4.73,4.73,0,0,0,67,71h5.5a5.91,5.91,0,0,0,5.93-6.18c0-.73-.06-1.72,0-2.79A1,1,0,0,0,76.27,62c0,1.13,0,2.16,0,2.93a3.83,3.83,0,0,1-3.85,4H67a2.65,2.65,0,0,1-2.63-3A32,32,0,0,1,77.11,43.4,2.63,2.63,0,0,1,81,46.85,33.28,33.28,0,0,0,76.87,57a1,1,0,1,0,2,.44,31.29,31.29,0,0,1,3.86-9.48,4.55,4.55,0,0,0-.11-5A35.41,35.41,0,0,0,78.68,17.75ZM28.94,68.92h-5.5a3.84,3.84,0,0,1-3.85-4,30.17,30.17,0,0,0-4.66-18.05,2.64,2.64,0,0,1,3.86-3.45A32,32,0,0,1,31.57,66,2.65,2.65,0,0,1,28.94,68.92Z"/><g id="Page-1"><path id="Shape" class="cls-10" d="M116.24,50.88c0,11.62-6.64,26.39-30.71,26.39-13.27,0-17.42-5-17.42-7.47s6.64,0,16.59-.83,15.77-5.64,17.43-17.26c.82-5.71,1.92-8.18,4.08-9.22a5,5,0,0,1,3.61,1.85.85.85,0,0,0,1.23,0,3.7,3.7,0,0,1,3.44-1.29h0c1.74,1.91,1.74,5.48,1.74,7.82Z"/><path class="cls-11" d="M114.5,43.06h0a3.35,3.35,0,0,0-2.22.36c1.46,2,1.48,5.26,1.48,7.46,0,11.44-6.45,25.93-29.62,26.37l1.4,0c24.07,0,30.71-14.77,30.71-26.39C116.24,48.54,116.24,45,114.5,43.06Z"/><path class="cls-12" d="M112.09,35v3.33a1.62,1.62,0,0,0,.88,1.47c1.66.8,1.83,2.45,2.44,3.66a3,3,0,0,0-.91-.35h0a3.7,3.7,0,0,0-3.44,1.29.85.85,0,0,1-1.23,0,5,5,0,0,0-3.61-1.85,3.22,3.22,0,0,0-.76.09,5.32,5.32,0,0,1,2.43-2.83,1.62,1.62,0,0,0,.89-1.48V35c0-3.81,1.91-5.77,5.69-5.81a1.73,1.73,0,0,1,1.76,1.4,1.66,1.66,0,0,1-1.64,1.92c-2.13,0-2.49.62-2.49,2.49Z"/><path class="cls-13" d="M91.75,63.79a18.83,18.83,0,0,1-7.32,1.87l-1,.07-.39-.08s-4.15-.83-4.15-5.81v-.25c.2-4.7,5.79-4,5-10.53C83.88,49.06,95.58,53,91.75,63.79Z"/><path class="cls-14" d="M97,58.17a11.53,11.53,0,0,1-5.21,5.62C95.58,53,83.88,49.06,83.88,49.06c.81,6.52-4.78,5.83-5,10.53h0A8.3,8.3,0,0,1,74.75,59s-4.15-1.65-2.49-8.29c0,0,1.66,4.15,5,1.66,1.09-.83,1.28-2.29,1.05-3.88a22.89,22.89,0,0,0-2.71-6.91s10-.83,14.93,5.81c0,0,2.49-.83,1.66-4.15,0,0,5.07,1.68,5.46,8.75A20.69,20.69,0,0,1,97,58.17Z"/><path class="cls-10" d="M97.69,52h-.06c-.39-7.07-5.46-8.75-5.46-8.75.83,3.32-1.66,4.15-1.66,4.15-5-6.64-14.93-5.81-14.93-5.81a22.89,22.89,0,0,1,2.71,6.91h0a10.32,10.32,0,0,1-8.51-.27s-1.66-.83-1.66-4.15a14,14,0,0,1,2.49-8.3s.83,2.49,5,2.49c0,0,6.64,0,4.15-9.13,0,0,9.12,2.49,10.78,10,0,0,2.49-.83,2.49-5.81C93,33.29,104.15,37,97.69,52Z"/><path class="cls-11" d="M88,39.1a3.6,3.6,0,0,0,1.82-2c-2.67-5.9-10.11-7.93-10.11-7.93.1.37.18.73.25,1.07C82.81,31.56,87,34.3,88,39.1Z"/><path class="cls-11" d="M93,33.29a11.9,11.9,0,0,1-.07,1.34c2.43,1.8,5.56,5.68,3.72,13.12a11.82,11.82,0,0,1,1,4.25h.06C104.15,37,93,33.29,93,33.29Z"/><path d="M116.16,43a8.76,8.76,0,0,1-.37-.89A5,5,0,0,0,113.34,39a.77.77,0,0,1-.42-.71V35c0-1.47.06-1.66,1.66-1.66A2.49,2.49,0,0,0,117,30.42a2.56,2.56,0,0,0-2.6-2.11c-4.25.05-6.5,2.34-6.5,6.64v3.32a.78.78,0,0,1-.4.72,6.07,6.07,0,0,0-2.83,3.22.81.81,0,0,0-.08.34C103,44,102,46.68,101.31,51.6c-1.54,10.75-6.52,15.7-16.67,16.54A64.8,64.8,0,0,1,73.76,68c-3.12-.23-5-.38-5.94.49a1.69,1.69,0,0,0-.54,1.3c0,3.34,4.86,8.3,18.25,8.3,29.27,0,31.54-20.83,31.54-27.22,0-2,0-4.79-1-6.93A.84.84,0,0,0,116.16,43Zm-7.92-2.55a2.41,2.41,0,0,0,1.36-2.22V35c0-3.36,1.55-4.94,4.86-5a.93.93,0,0,1,.94.7.82.82,0,0,1-.19.67.83.83,0,0,1-.63.29c-2.78,0-3.32,1.22-3.32,3.32v3.34a2.46,2.46,0,0,0,1.35,2.21,2.86,2.86,0,0,1,1.4,1.67,4.73,4.73,0,0,0-3.58,1.61,6.06,6.06,0,0,0-3.56-2.06,3.29,3.29,0,0,1,1.36-1.23ZM85.53,76.44C73,76.44,68.94,72,68.94,69.8a.25.25,0,0,1,0-.08c.31-.39,2.73-.2,4.69,0a67.81,67.81,0,0,0,11.13.13c10.93-.91,16.54-6.45,18.18-18,.74-5.2,1.69-7.54,3.45-8.5a4.34,4.34,0,0,1,2.81,1.58,1.67,1.67,0,0,0,1.2.53h0a1.67,1.67,0,0,0,1.21-.51,3,3,0,0,1,2.4-1.1c1.36,1.73,1.37,4.91,1.37,7.05,0,6-2.16,25.56-29.88,25.56Z"/><path d="M91.73,63.9a.89.89,0,0,0,.64-.06.86.86,0,0,0,.4-.5c3.3-11-8.51-15-8.63-15.07a.83.83,0,0,0-.79.14.87.87,0,0,0-.3.75c.4,3.22-.85,4.35-2.31,5.66-1.25,1.13-2.67,2.41-2.67,5a6.41,6.41,0,0,0,4.81,6.63h.17a.82.82,0,0,0,.82-.74.83.83,0,0,0-.66-.9c-.14,0-3.48-.79-3.48-5,0-1.87.93-2.72,2.12-3.79s2.92-2.62,2.93-5.72c2.66,1.23,8.69,4.94,6.4,12.54A.83.83,0,0,0,91.73,63.9Z"/><path d="M84.87,58.2a.82.82,0,0,0-1,.65c-.78,3.9,1.68,5.6,3.1,5.95a.62.62,0,0,0,.19,0,.83.83,0,0,0,.21-1.63c-.26-.07-2.53-.78-1.88-4a.83.83,0,0,0-.65-1Z"/><path d="M97,58.17a.85.85,0,0,0,.62-.12.8.8,0,0,0,.36-.52c2.62-12.2-5.44-15-5.52-15.07a.82.82,0,0,0-.83.18.84.84,0,0,0-.24.81c.41,1.67-.17,2.5-.64,2.88-5.31-6.31-14.81-5.6-15.22-5.57a.81.81,0,0,0-.67.45.82.82,0,0,0,0,.8c1.19,2,4.09,8,1.87,9.7a2.25,2.25,0,0,1-1.93.58A3.42,3.42,0,0,1,73,50.41a.83.83,0,0,0-1.58.1c-1.81,7.26,2.94,9.26,3,9.28a1.06,1.06,0,0,0,.31.05.81.81,0,0,0,.81-.66.82.82,0,0,0-.5-.93c-.12,0-2.67-1.19-2.33-5.36a3.52,3.52,0,0,0,5,.15c3.08-2.31.6-8-.76-10.65,2.79,0,9.28.7,12.88,5.5a.82.82,0,0,0,.93.29,3.71,3.71,0,0,0,2.39-3.47C95,46,98,49.35,96.34,57.18a.84.84,0,0,0,.64,1Z"/><path d="M69.4,49a.74.74,0,0,0,.36.09.85.85,0,0,0,.73-.45.83.83,0,0,0-.33-1.11s-1.22-.73-1.22-3.42a13,13,0,0,1,1.69-6.77,6.47,6.47,0,0,0,5,1.79A5.8,5.8,0,0,0,79.89,37c1.18-1.54,1.51-3.73,1-6.53,2.5,1,7.67,3.66,8.83,8.86a.81.81,0,0,0,.4.54.83.83,0,0,0,.67.07c.12,0,2.6-.92,3-5.34,1.89,1,5.62,3.88,5,10.28a.86.86,0,0,0,.35.76.83.83,0,0,0,.83.07.81.81,0,0,0,.48-.68c.88-9.67-7.12-12.45-7.2-12.48a.87.87,0,0,0-.75.11.84.84,0,0,0-.35.68c0,2.49-.64,3.78-1.18,4.42-2.37-6.93-10.67-9.27-11-9.37a.82.82,0,0,0-.8.21.83.83,0,0,0-.21.81c.81,3,.69,5.19-.35,6.57a4.2,4.2,0,0,1-3,1.51c-3.44,0-4.17-1.86-4.2-1.92a.82.82,0,0,0-.67-.56.79.79,0,0,0-.8.36,14.93,14.93,0,0,0-2.63,8.76C67.28,47.8,69.18,48.86,69.4,49Z"/><path class="cls-15" d="M105.11,54.87l-.16,0a.82.82,0,0,1-.65-1c.11-.59.21-1.2.3-1.81a.82.82,0,0,1,.51-.66.83.83,0,0,1,.82.12.85.85,0,0,1,.31.77c-.09.65-.2,1.28-.31,1.89A.85.85,0,0,1,105.11,54.87Z"/><path class="cls-15" d="M97.2,69a.83.83,0,0,1-.49-1.5c3.22-2.37,5.45-5.78,6.82-10.42a.82.82,0,0,1,.6-.58.84.84,0,0,1,.8.23.82.82,0,0,1,.19.82c-1.48,5-3.9,8.7-7.43,11.29A.84.84,0,0,1,97.2,69Z"/></g><text class="cls-16" transform="translate(21.26 118.52)">Extreme<tspan x="-6.55" y="18" xml:space="preserve"> hot stress</tspan></text></g></g></g></svg>