<svg xmlns="http://www.w3.org/2000/svg" viewBox="0 0 127.31 139.84"><defs><style>.cls-1{fill:#4d83ef;}.cls-2{fill:#344de2;}.cls-3{fill:#656566;}.cls-4{fill:#4f4f51;}.cls-5{fill:#eae9e8;}.cls-6{fill:#dbdbdb;}.cls-7{fill:#ed694a;}.cls-8{fill:#d8553a;}.cls-9{fill:#a2ddfd;}.cls-10{fill:#7acefa;}.cls-11{fill:#cde9fa;}.cls-12{font-size:20px;font-family:TwCenMT-Regular, Tw Cen MT;}</style></defs><title>Asset 26</title><g id="Layer_2" data-name="Layer 2"><g id="_750_x_5766_px_Artboard_2" data-name="750 x 5766 px Artboard 2"><g id="Text"><path class="cls-1" d="M48.38,20.18h0a34.35,34.35,0,0,0-4.23,29.22h0a34.63,34.63,0,0,0,7.67,13.28h0A34.36,34.36,0,0,0,79.24,73.63h0a34.49,34.49,0,0,0,27.92-51.17C94.66.1,62.72-1.34,48.38,20.18Z"/><path class="cls-2" d="M85.26,70.16h0a34.34,34.34,0,0,1-27.42-11v0a34.61,34.61,0,0,1-7.66-13.28h0A34.34,34.34,0,0,1,54.4,16.71h0a34.65,34.65,0,0,1,8.49-8.88A34.1,34.1,0,0,0,48.38,20.18h0a34.35,34.35,0,0,0-4.23,29.22h0a34.63,34.63,0,0,0,7.67,13.28h0A34.36,34.36,0,0,0,79.24,73.63h0a34.07,34.07,0,0,0,18-6.4A34.4,34.4,0,0,1,85.26,70.16Z"/><path class="cls-3" d="M75.38,50.89a4.54,4.54,0,0,0,3.4,0A13.39,13.39,0,0,1,82.43,50v-.33a5.35,5.35,0,0,0-10.7,0V50A13.48,13.48,0,0,1,75.38,50.89Z"/><path class="cls-4" d="M75.2,49.65h0a5.34,5.34,0,0,1,3.62-5.06,5.35,5.35,0,0,0-7.09,5.06V50a13.76,13.76,0,0,1,3.47.84V49.65Z"/><path class="cls-1" d="M96.08,73.71h5.5a4.87,4.87,0,0,0,4.89-5.1c-.16-4.07-.07-9.74,4.52-17.48a3.68,3.68,0,0,0-5.38-4.81A33.05,33.05,0,0,0,92.42,69.58,3.69,3.69,0,0,0,96.08,73.71Z"/><path class="cls-2" d="M99.74,73.65a33.11,33.11,0,0,1,8.12-25.48,3.57,3.57,0,0,1,2.78-1.29,3.61,3.61,0,0,0-5-.56,33.1,33.1,0,0,0-13.2,23.26,3.7,3.7,0,0,0,3.67,4.13h3.67S99.74,73.67,99.74,73.65Z"/><path class="cls-1" d="M58.08,73.71h-5.5a4.86,4.86,0,0,1-4.89-5.1c.16-4.07.07-9.74-4.52-17.48a3.68,3.68,0,0,1,5.38-4.81A33.05,33.05,0,0,1,61.74,69.58,3.69,3.69,0,0,1,58.08,73.71Z"/><path class="cls-2" d="M53.92,68.78c-.41-4.43-1.32-10.52-7.38-18.21a3.91,3.91,0,0,1,.05-5,3.7,3.7,0,0,0-3.42,5.58c4.59,7.74,4.68,13.41,4.52,17.49a4.86,4.86,0,0,0,4.89,5.09h5.5a4,4,0,0,0,.86-.1A5.31,5.31,0,0,1,53.92,68.78Z"/><path class="cls-5" d="M94.24,38.36a5.66,5.66,0,0,1-7.95-.92l-1.84-2.31a5.66,5.66,0,0,1,8.87-7l1.83,2.31A5.66,5.66,0,0,1,94.24,38.36Z"/><path class="cls-6" d="M90.72,33.92l-1.83-2.31a5.78,5.78,0,0,1-1-5.57,5.79,5.79,0,0,0-2.5,1.14,5.67,5.67,0,0,0-.91,8l1.84,2.31a5.65,5.65,0,0,0,9.62-1.26A5.78,5.78,0,0,1,90.72,33.92Z"/><path class="cls-5" d="M59.92,38.36a5.66,5.66,0,0,0,8-.92l1.84-2.31a5.66,5.66,0,0,0-8.87-7L59,30.4A5.67,5.67,0,0,0,59.92,38.36Z"/><path class="cls-6" d="M68.79,27.18A5.52,5.52,0,0,0,66.22,26a5.72,5.72,0,0,1-.93,5.6l-1.83,2.31a5.76,5.76,0,0,1-5.25,2.17,5.67,5.67,0,0,0,9.66,1.33l1.83-2.31A5.65,5.65,0,0,0,68.79,27.18Z"/><path class="cls-7" d="M82.43,58.39V49.65a12,12,0,0,0-3.83.87,4.12,4.12,0,0,1-3,0,11.83,11.83,0,0,0-3.82-.87v8.74a5.35,5.35,0,0,0,10.7,0Z"/><path class="cls-8" d="M75.2,58.39v-8a12.12,12.12,0,0,0-3.47-.73v8.74a5.35,5.35,0,0,0,5.35,5.35,5.57,5.57,0,0,0,1.74-.29A5.35,5.35,0,0,1,75.2,58.39Z"/><path d="M85.48,38.09a6.72,6.72,0,0,0,9.42,1.08h0A6.72,6.72,0,0,0,96,29.75l-1.84-2.31a6.7,6.7,0,0,0-10.5,8.34ZM86,28a4.63,4.63,0,0,1,6.49.75l1.83,2.31a4.62,4.62,0,0,1-.74,6.49h0a4.62,4.62,0,0,1-6.49-.75l-1.84-2.3A4.64,4.64,0,0,1,86,28Z"/><path d="M60,27.44l-1.84,2.31a6.72,6.72,0,0,0,1.08,9.42h0a6.72,6.72,0,0,0,9.42-1.08l1.84-2.31A6.7,6.7,0,0,0,60,27.44Zm8.86,7.05-1.83,2.3a4.62,4.62,0,0,1-6.49.75h0a4.63,4.63,0,0,1-.75-6.49l1.84-2.31a4.62,4.62,0,1,1,7.23,5.75Z"/><path d="M77.08,43.25a6.4,6.4,0,0,0-6.39,6.4v4.61a1,1,0,0,0,2.09,0V50.81a11.62,11.62,0,0,1,2.39.67,5.08,5.08,0,0,0,3.83,0,11,11,0,0,1,2.39-.67v7.58a4.31,4.31,0,0,1-8.57.59,1,1,0,1,0-2.06.29,6.39,6.39,0,0,0,12.72-.88V49.64A6.4,6.4,0,0,0,77.08,43.25ZM76,49.55a13.17,13.17,0,0,0-3.07-.83,4.31,4.31,0,0,1,8.41,0C78.19,49.16,77.73,50.27,76,49.55Z"/><path d="M107.82,21.51A35.48,35.48,0,0,0,60.56,7.84a1,1,0,0,0,1,1.85A33.41,33.41,0,0,1,110,45.05a4.56,4.56,0,0,0-5,.44A34.12,34.12,0,0,0,91.39,69.44a33.39,33.39,0,0,1-28.61,0,34.08,34.08,0,0,0-13.6-24,4.56,4.56,0,0,0-5-.44A33.44,33.44,0,0,1,57.52,12.17a1,1,0,1,0-1.22-1.69,35.51,35.51,0,0,0-13.93,36.2,4.57,4.57,0,0,0-.1,5c4.73,8,4.5,13.79,4.38,16.91a5.91,5.91,0,0,0,5.93,6.18h5.5a4.72,4.72,0,0,0,4.45-3.13,35.43,35.43,0,0,0,29.11,0,4.72,4.72,0,0,0,4.45,3.13h5.5a5.91,5.91,0,0,0,5.93-6.18c0-.73-.06-1.72,0-2.79a1,1,0,0,0-2.08-.06c0,1.14,0,2.17,0,2.94a3.83,3.83,0,0,1-3.85,4h-5.5a2.65,2.65,0,0,1-2.63-3,32,32,0,0,1,12.78-22.55,2.64,2.64,0,0,1,3.86,3.45A33.63,33.63,0,0,0,106,60.71a1,1,0,0,0,2,.43,31.51,31.51,0,0,1,3.85-9.48,4.53,4.53,0,0,0-.1-5A35.37,35.37,0,0,0,107.82,21.51ZM58.08,72.67h-5.5a3.83,3.83,0,0,1-3.85-4A30.18,30.18,0,0,0,44.07,50.6a2.63,2.63,0,0,1,3.85-3.45A32,32,0,0,1,60.71,69.7,2.65,2.65,0,0,1,58.08,72.67Z"/><path class="cls-9" d="M35.59,33.59A3.54,3.54,0,0,1,37,28.79c2.51-1.37,6.64-2.34,11-2.61C50.9,26,56.37,26,61,27.9a3.54,3.54,0,1,1-2.7,6.54C53,32.26,43.68,33.22,40.4,35A3.54,3.54,0,0,1,35.59,33.59Z"/><path class="cls-9" d="M38.2,52.58c-12.77,0-19.88-9.15-31-5.09a3.54,3.54,0,1,1-2.42-6.66c8.74-3.18,15.56-.56,21.57,1.75,5.1,2,9.92,3.8,16,2.45A3.54,3.54,0,1,1,43.91,52a26.6,26.6,0,0,1-5.71.63Z"/><path class="cls-10" d="M4.92,40.79A15.88,15.88,0,0,0,24.76,42c-5.6-2.1-11.93-4-19.84-1.17Z"/><path class="cls-9" d="M31.22,13.16c-10.24,0-15.84-7.1-25.88-4.6A3.54,3.54,0,0,1,3.62,1.69c7.7-1.91,13.4.23,18.44,2.12C27.8,6,32.33,7.66,39.6,3.6a3.54,3.54,0,1,1,3.46,6.18,23.9,23.9,0,0,1-11.84,3.38Z"/><circle class="cls-11" cx="15.57" cy="29.01" r="12.51"/><path class="cls-9" d="M25,37.25C8.1,38.65,6.76,23.6,10.16,17.73A12.51,12.51,0,1,0,25,37.25Z"/><path class="cls-10" d="M44.83,30.54a15.8,15.8,0,0,0,10.62-4.09,37.06,37.06,0,0,0-7.4-.27A29.24,29.24,0,0,0,37.3,28.64a15.81,15.81,0,0,0,7.53,1.9Z"/><path class="cls-10" d="M44.42,5A3.54,3.54,0,0,0,39.6,3.6a17.12,17.12,0,0,1-8.14,2.47,15.85,15.85,0,0,0-2.44,7c.71.07,1.44.11,2.2.11A23.9,23.9,0,0,0,43.06,9.78,3.55,3.55,0,0,0,44.42,5Z"/><circle class="cls-11" cx="44.83" cy="14.65" r="12.51"/><path class="cls-9" d="M54.24,22.89C37.36,24.3,36,9.24,39.42,3.37A12.51,12.51,0,1,0,54.24,22.89Z"/><path d="M44.16,44.13A.94.94,0,1,0,43.73,46a2.6,2.6,0,0,1,0,5.07C27.84,54.54,20,41.82,6.89,46.6a2.6,2.6,0,0,1-1.78-4.88,24.55,24.55,0,0,1,3.78-1,13.39,13.39,0,0,0,11.63.84c6.56,2,12,5.39,19.11,4.87a.93.93,0,0,0,.87-1,.94.94,0,0,0-1-.87c-6,.43-10.88-2.26-16.62-4.22a13.45,13.45,0,1,0-16-1.08c-.79.21-1.58.46-2.36.74a4.48,4.48,0,1,0,3.07,8.42c10.67-3.89,17.69,5.15,30.66,5.15a27.65,27.65,0,0,0,5.91-.65,4.48,4.48,0,0,0,0-8.74ZM4,29A11.57,11.57,0,1,1,15.57,40.58,11.58,11.58,0,0,1,4,29Zm5.45,2.52a.94.94,0,0,0,0,1.88h1.72v1.72a.94.94,0,1,0,1.88,0V32.86l2.52-2.52,2.53,2.52v2.27a.94.94,0,1,0,1.87,0V33.41H21.7a.94.94,0,0,0,0-1.88H19.42L16.9,29l2.52-2.53H21.7a.94.94,0,0,0,0-1.88H20V22.88a.94.94,0,1,0-1.87,0v2.27l-2.53,2.53-2.52-2.53V22.88a.94.94,0,1,0-1.88,0V24.6H9.45a.94.94,0,1,0,0,1.88h2.27L14.24,29l-2.52,2.52ZM61.33,27a26.57,26.57,0,0,0-8.25-1.77A13.44,13.44,0,0,0,36.65,4c-5.49,2.23-9.36.78-14.26-1.06C17.23,1,11.37-1.2,3.4.78a4.48,4.48,0,0,0-.47,8.55.94.94,0,1,0,.65-1.76,2.61,2.61,0,0,1,.27-5c7.41-1.84,13,.25,17.88,2.09C25.82,6.22,29.47,7.59,34,6.75a13.24,13.24,0,0,0-2.36,5.47c-4.3.08-7.76-1.16-11.63-2.64S12.3,6.67,7.57,7.21a.94.94,0,1,0,.21,1.86c4.28-.48,7.8.85,11.52,2.27,4.07,1.55,7.56,2.79,12.09,2.76a13.48,13.48,0,0,0,7.79,12.75A17,17,0,0,0,36.56,28a4.48,4.48,0,0,0,4.28,7.87c3.06-1.67,12.11-2.58,17.07-.53A4.48,4.48,0,0,0,61.33,27ZM33.26,14.65A11.57,11.57,0,1,1,44.83,26.22,11.58,11.58,0,0,1,33.26,14.65ZM62,32.16a2.6,2.6,0,0,1-3.4,1.41c-5.7-2.35-15.26-1.25-18.68.62a2.6,2.6,0,0,1-2.49-4.57,19.51,19.51,0,0,1,5-1.73A13.45,13.45,0,0,0,50,27.05a28.06,28.06,0,0,1,10.59,1.72A2.6,2.6,0,0,1,62,32.16ZM47.35,18.5v2.27a.94.94,0,0,0,1.88,0V19.05H51a.94.94,0,0,0,0-1.88H48.68l-2.52-2.52,2.52-2.53H51a.94.94,0,1,0,0-1.87H49.23V8.52a.94.94,0,0,0-1.88,0V10.8l-2.52,2.52L42.3,10.8V8.52a.94.94,0,1,0-1.88,0v1.73H38.7a.94.94,0,1,0,0,1.87H41l2.53,2.53L41,17.17H38.7a.94.94,0,1,0,0,1.88h1.72v1.72a.94.94,0,1,0,1.88,0V18.5L44.83,16Z"/><text class="cls-12" transform="translate(41.87 116.28)">Extreme<tspan x="-8.26" y="18">cold stress</tspan></text></g></g></g></svg>