<svg xmlns="http://www.w3.org/2000/svg" viewBox="0 0 106.7 140.18"><defs><style>.cls-1{fill:#ffc107;}.cls-2{fill:#795548;}.cls-3{fill:#f44336;}.cls-4{fill:#2196f3;}.cls-5{font-size:20px;font-family:TwCenMT-Regular, Tw Cen MT;}.cls-6{letter-spacing:-0.01em;}.cls-7{fill:#bec7ec;}.cls-8{fill:#a3afe4;}.cls-9{fill:#eaf6ff;}.cls-10{fill:#c5e2ff;}.cls-11{fill:#fb6672;}.cls-12{fill:#fb4a59;}</style></defs><title>Asset 32</title><g id="Layer_2" data-name="Layer 2"><g id="_1366_x_3620_x_Artboard_1" data-name="1366 x 3620 x Artboard 1"><path class="cls-1" d="M86.61,32.89A32.89,32.89,0,1,1,53.72,0,32.88,32.88,0,0,1,86.61,32.89Z"/><path class="cls-2" d="M45.5,23.3a4.12,4.12,0,1,1-4.12-4.11A4.12,4.12,0,0,1,45.5,23.3Z"/><path class="cls-2" d="M70.17,23.3a4.12,4.12,0,1,1-4.12-4.11A4.12,4.12,0,0,1,70.17,23.3Z"/><path class="cls-3" d="M53.72,38.37A8.23,8.23,0,0,0,45.5,46.6c0,5.48,5.34,5.48,8.22,5.48s8.22,0,8.22-5.48A8.23,8.23,0,0,0,53.72,38.37Z"/><path class="cls-4" d="M81,9a1.42,1.42,0,0,0-2.44,0C77.6,10.8,72.91,20.1,72.91,23.3a6.85,6.85,0,1,0,13.7,0C86.61,20.1,81.92,10.8,81,9Z"/><path d="M41.38,27.41A4.11,4.11,0,1,1,45.5,23.3,4.12,4.12,0,0,1,41.38,27.41Zm0-5.48a1.37,1.37,0,1,0,1.38,1.37A1.37,1.37,0,0,0,41.38,21.93Z"/><path d="M66.05,27.41a4.11,4.11,0,1,1,4.12-4.11A4.12,4.12,0,0,1,66.05,27.41Zm0-5.48a1.37,1.37,0,1,0,1.37,1.37A1.37,1.37,0,0,0,66.05,21.93Z"/><path d="M53.72,52.08c-2.88,0-8.22,0-8.22-5.48a8.22,8.22,0,1,1,16.44,0C61.94,52.08,56.59,52.08,53.72,52.08Zm0-11a5.48,5.48,0,0,0-5.48,5.48c0,2,.82,2.74,5.48,2.74s5.48-.72,5.48-2.74A5.48,5.48,0,0,0,53.72,41.12Z"/><path d="M53.72,65.78A32.89,32.89,0,1,1,79.17,12.07a1.37,1.37,0,1,1-2.11,1.74,30.15,30.15,0,1,0,6.81,19.08,30.93,30.93,0,0,0-.73-6.55,1.37,1.37,0,0,1,2.67-.59,32.83,32.83,0,0,1-32.09,40Z"/><path d="M79.76,30.15a6.85,6.85,0,0,1-6.85-6.85c0-3.2,4.69-12.5,5.63-14.33A1.42,1.42,0,0,1,81,9c.94,1.83,5.63,11.13,5.63,14.33A6.85,6.85,0,0,1,79.76,30.15Zm0-17.48c-1.93,4-4.11,9-4.11,10.63a4.11,4.11,0,1,0,8.22,0C83.87,21.69,81.68,16.65,79.76,12.67Z"/><text class="cls-5" transform="translate(13.66 116.62)">Mode<tspan class="cls-6" x="46.46" y="0">r</tspan><tspan x="52.92" y="0">ate</tspan><tspan x="-1.71" y="18">heat stress</tspan></text><path class="cls-7" d="M27,57.51v-31c0-3.59-3.28-6.5-7.33-6.5s-7.32,2.91-7.32,6.5v31a10.06,10.06,0,0,0-4.45,8.18c0,5.77,5.27,10.44,11.77,10.44s11.78-4.67,11.78-10.44A10.06,10.06,0,0,0,27,57.51Z"/><path class="cls-8" d="M31.42,65.69c0,5.77-5.27,10.44-11.78,10.44A13.42,13.42,0,0,1,17.73,76c5.6-.81,9.87-5.12,9.87-10.31a10.06,10.06,0,0,0-4.45-8.18v-31a6.7,6.7,0,0,0-5.42-6.28A8.54,8.54,0,0,1,19.64,20c4.05,0,7.33,2.91,7.33,6.5v31A10.06,10.06,0,0,1,31.42,65.69Z"/><path class="cls-9" d="M19.64,72.18c-4,0-7.31-2.91-7.31-6.49a6.23,6.23,0,0,1,2.76-5.08l1.69-1.19V26.47a2.72,2.72,0,0,1,2.86-2.55,2.73,2.73,0,0,1,2.87,2.55v33l1.69,1.19A6.23,6.23,0,0,1,27,65.69c0,3.58-3.28,6.49-7.32,6.49Z"/><path class="cls-10" d="M27,65.69a6.68,6.68,0,0,1-5.34,6.25,6.14,6.14,0,0,0,2.22-4.65,6.21,6.21,0,0,0-2.77-5.08L19.39,61V26.15a2.45,2.45,0,0,0-1-2,3.19,3.19,0,0,1,1.28-.27,2.73,2.73,0,0,1,2.87,2.55v33l1.69,1.19A6.23,6.23,0,0,1,27,65.69Z"/><path class="cls-11" d="M24.2,60.61l-1.69-1.19V39.69H16.78V59.42l-1.69,1.19a6.23,6.23,0,0,0-2.76,5.08c0,3.58,3.28,6.49,7.31,6.49S27,69.27,27,65.69A6.23,6.23,0,0,0,24.2,60.61Z"/><path class="cls-12" d="M24.2,60.61l-1.69-1.19V39.69H19.39V61l1.68,1.19a6.21,6.21,0,0,1,2.77,5.08,6.14,6.14,0,0,1-2.22,4.65A6.68,6.68,0,0,0,27,65.69a6.23,6.23,0,0,0-2.76-5.08Z"/><path d="M25.83,69.25a1.25,1.25,0,0,0,.42.08,1,1,0,0,0,.86-.48,6.65,6.65,0,0,0,.8-3.16,7,7,0,0,0-3.12-5.75L23.47,59V26.47a3.64,3.64,0,0,0-3.83-3.39,3.63,3.63,0,0,0-3.82,3.39v5.42a1,1,0,0,0,1.91,0V26.47a1.82,1.82,0,0,1,1.91-1.7,1.82,1.82,0,0,1,1.92,1.7V38.84H17.73V35.73a1,1,0,0,0-1.91,0V59l-1.32.93a7,7,0,0,0-3.13,5.75c0,4,3.71,7.34,8.27,7.34a9.12,9.12,0,0,0,4.14-1,.8.8,0,0,0,.35-1.16,1,1,0,0,0-1.31-.31,6.9,6.9,0,0,1-3.18.76c-3.5,0-6.35-2.53-6.35-5.64a5.4,5.4,0,0,1,2.4-4.42l1.68-1.19a.8.8,0,0,0,.36-.66V40.54h3.83V59.42a.8.8,0,0,0,.36.66l1.68,1.19A5.4,5.4,0,0,1,26,65.69a5,5,0,0,1-.62,2.43.82.82,0,0,0,.45,1.13Z"/><path d="M27.93,57.11V51a.91.91,0,0,0-1-.85A.9.9,0,0,0,26,51v6.52a.82.82,0,0,0,.36.67,9.2,9.2,0,0,1,4.08,7.51c0,5.29-4.85,9.6-10.82,9.6S8.83,71,8.83,65.69a9.2,9.2,0,0,1,4.08-7.51.82.82,0,0,0,.36-.67v-31c0-3.12,2.86-5.65,6.37-5.65S26,23.35,26,26.47V47.15A.9.9,0,0,0,27,48a.91.91,0,0,0,1-.84V26.47c0-4-3.72-7.35-8.29-7.35s-8.28,3.3-8.28,7.35V57.11a10.78,10.78,0,0,0-4.44,8.58C6.92,71.92,12.63,77,19.64,77s12.73-5.06,12.73-11.29a10.78,10.78,0,0,0-4.44-8.58Z"/><path d="M31.24,29.21h4.67a.86.86,0,1,0,0-1.7H31.24a.86.86,0,1,0,0,1.7Z"/><path d="M31.23,32.41h0a.91.91,0,0,0,1-.84.91.91,0,0,0-1-.86h0a.86.86,0,1,0,0,1.7Z"/><path d="M35.91,35.06H31.24a.86.86,0,1,0,0,1.7h4.67a.86.86,0,1,0,0-1.7Z"/><path d="M31.23,40h0a.85.85,0,1,0,0-1.69h0a.85.85,0,1,0,0,1.69Z"/><path d="M35.91,42.62H31.24a.85.85,0,1,0,0,1.69h4.67a.85.85,0,1,0,0-1.69Z"/><path d="M31.23,47.51h0a.85.85,0,1,0,0-1.69h0a.85.85,0,1,0,0,1.69Z"/><path d="M35.91,50.17H31.24a.85.85,0,1,0,0,1.69h4.67a.85.85,0,1,0,0-1.69Z"/><path d="M31.23,55.07h0a.86.86,0,1,0,0-1.7h0a.86.86,0,1,0,0,1.7Z"/></g></g></svg>