<svg xmlns="http://www.w3.org/2000/svg" viewBox="0 0 106.7 140.46"><defs><style>.cls-1{font-size:20px;font-family:TwCenMT-Regular, Tw Cen MT;}.cls-2{letter-spacing:0.02em;}.cls-3{fill:#fce3a0;}.cls-4{fill:#ffce71;}.cls-5{fill:#ffb357;}.cls-6{fill:#ff8e9e;}.cls-7{fill:#4c5659;}.cls-8{fill:#bec7ec;}.cls-9{fill:#a3afe4;}.cls-10{fill:#eaf6ff;}.cls-11{fill:#c5e2ff;}.cls-12{fill:#fb6672;}.cls-13{fill:#fb4a59;}</style></defs><title>Asset 31</title><g id="Layer_2" data-name="Layer 2"><g id="_1366_x_3620_x_Artboard_1" data-name="1366 x 3620 x Artboard 1"><text class="cls-1" transform="translate(8.92 116.91)">No the<tspan class="cls-2" x="53.04" y="0">r</tspan><tspan x="60.1" y="0">mal</tspan><tspan x="23.4" y="18">stress</tspan></text><path class="cls-3" d="M78.1,8a6.76,6.76,0,0,0-1.81-.77,6.9,6.9,0,0,0-.77-1.81,1.06,1.06,0,0,0-1.8,0A6.56,6.56,0,0,0,73,7.23,6.63,6.63,0,0,0,71.15,8a1,1,0,0,0,0,1.8,6.31,6.31,0,0,0,1.81.76,6.5,6.5,0,0,0,.76,1.82,1.06,1.06,0,0,0,1.8,0,6.83,6.83,0,0,0,.77-1.82A6.43,6.43,0,0,0,78.1,9.8a1,1,0,0,0,0-1.8Z"/><path class="cls-4" d="M84,34A33,33,0,1,1,62.33,3,33,33,0,0,1,84,34Z"/><path class="cls-5" d="M40.69,34A33,33,0,0,1,62.33,3a33,33,0,1,0,0,62A33,33,0,0,1,40.69,34Z"/><path class="cls-6" d="M40.58,35.42c0,2.67-2.74,4.83-6.11,4.82s-6.07-2.18-6.07-4.86,2.74-4.84,6.11-4.83S40.58,32.74,40.58,35.42Z"/><path class="cls-6" d="M61.39,35.48c0,2.68,2.71,4.86,6.07,4.87s6.09-2.15,6.1-4.83-2.71-4.85-6.07-4.87S61.4,32.81,61.39,35.48Z"/><path class="cls-7" d="M55.9,31.74c0-3-2.19-3.32-4.9-3.33s-4.9.27-4.91,3.3,2.18,5.5,4.89,5.51a5.23,5.23,0,0,0,4.92-5.48Z"/><path class="cls-3" d="M33.59,55.8a11.35,11.35,0,0,0-3-1.26,11,11,0,0,0-1.26-3,1.72,1.72,0,0,0-2.95,0,10.72,10.72,0,0,0-1.26,3,11.56,11.56,0,0,0-3,1.26,1.72,1.72,0,0,0,0,3,10.91,10.91,0,0,0,3,1.26,10.78,10.78,0,0,0,1.26,3,1.72,1.72,0,0,0,2.95,0,11.09,11.09,0,0,0,1.26-3,10.72,10.72,0,0,0,3-1.26A1.72,1.72,0,0,0,33.59,55.8Z"/><path class="cls-3" d="M83.48,62.12a6.9,6.9,0,0,0-1.81-.77,6.9,6.9,0,0,0-.77-1.81,1.06,1.06,0,0,0-1.8,0,6.56,6.56,0,0,0-.76,1.81,6.83,6.83,0,0,0-1.82.77,1.06,1.06,0,0,0,0,1.8,6.83,6.83,0,0,0,1.82.77,6.56,6.56,0,0,0,.76,1.81,1.06,1.06,0,0,0,1.8,0,6.9,6.9,0,0,0,.77-1.81,6.9,6.9,0,0,0,1.81-.77,1,1,0,0,0,0-1.8Z"/><path d="M51,38.21a6.21,6.21,0,0,0,5.91-6.47,3.8,3.8,0,0,0-2-3.69A8.85,8.85,0,0,0,51,27.41c-2.06,0-5.9,0-5.92,4.3,0,3.57,2.63,6.49,5.88,6.5Zm-3.91-6.5c0-1.83.81-2.32,3.92-2.31s3.91.47,3.9,2.34c0,2.45-1.75,4.49-3.92,4.48S47.08,34.19,47.08,31.71Z"/><path d="M35.16,31.12a1,1,0,0,0,1-1,1.9,1.9,0,1,1,3.8,0,1,1,0,0,0,1,1h0a1,1,0,0,0,1-1,3.91,3.91,0,0,0-3.88-3.91h0a3.9,3.9,0,0,0-3.89,3.88,1,1,0,0,0,1,1Z"/><path d="M61.05,31.2a1,1,0,0,0,1-1,1.9,1.9,0,0,1,1.9-1.89h0a1.9,1.9,0,0,1,1.9,1.9,1,1,0,0,0,1,1h0a1,1,0,0,0,1-1A3.91,3.91,0,0,0,64,26.32h0a3.9,3.9,0,0,0-3.89,3.88,1,1,0,0,0,1,1Z"/><path d="M71.71,58.39a32,32,0,0,1-38.95,1.93,12.53,12.53,0,0,0,1.35-.72,2.72,2.72,0,0,0,0-4.65,11.85,11.85,0,0,0-2.69-1.21,12,12,0,0,0-1.21-2.69,2.72,2.72,0,0,0-4.65,0,11,11,0,0,0-.73,1.4,32,32,0,0,1-.13-36.72,1,1,0,0,0-.25-1.38,1,1,0,0,0-1.39.24h0A34,34,0,0,0,23.51,54a12.36,12.36,0,0,0-1.86.92,2.73,2.73,0,0,0,0,4.65,11.84,11.84,0,0,0,2.69,1.22,11.84,11.84,0,0,0,1.22,2.69,2.72,2.72,0,0,0,4.65,0,11.52,11.52,0,0,0,.93-1.9A33.81,33.81,0,0,0,51,68h0a33.84,33.84,0,0,0,22-8.09,1,1,0,0,0-1.29-1.52ZM30.4,59a1,1,0,0,0-.75.72,9.81,9.81,0,0,1-1.14,2.71.73.73,0,0,1-1.25,0,9.83,9.83,0,0,1-1.15-2.71,1,1,0,0,0-.71-.71,9.83,9.83,0,0,1-2.71-1.15.73.73,0,0,1,0-1.25,9.94,9.94,0,0,1,2.71-1.14,1,1,0,0,0,.71-.71h0a9.9,9.9,0,0,1,1.15-2.7.72.72,0,0,1,1.25,0,9.88,9.88,0,0,1,1.14,2.7,1,1,0,0,0,.72.72,9.88,9.88,0,0,1,2.7,1.14.72.72,0,0,1,0,1.25A10,10,0,0,1,30.4,59Z"/><path d="M76.86,12c.08-.19.16-.39.23-.59a7.87,7.87,0,0,0,1.53-.71,2,2,0,0,0,0-3.5,7.36,7.36,0,0,0-1.53-.72C76.64,5.12,76,3.92,74.62,3.92a2,2,0,0,0-1.74,1,7.36,7.36,0,0,0-.72,1.53,8.33,8.33,0,0,0-.82.34A34,34,0,0,0,25.6,11.38a1,1,0,0,0,1.49,1.32,32,32,0,1,1,47.41,43,1,1,0,0,0,0,1.4,1,1,0,0,0,1.41,0A33.89,33.89,0,0,0,85,34h0a33.88,33.88,0,0,0-8.12-22Zm-1.52-1.67C74.67,9.6,74,9,73.14,8.22c1-.27.56-.85,1.43-2.28a.06.06,0,0,1,.1,0c.84,1.37.49,2,1.37,2.26a5.8,5.8,0,0,1,1.54.65.06.06,0,0,1,0,.1C76.23,9.77,75.59,9.44,75.34,10.28Z"/><path d="M84,61.27a8.55,8.55,0,0,0-1.53-.72A7.61,7.61,0,0,0,81.75,59a2,2,0,0,0-3.5,0,8.15,8.15,0,0,0-.71,1.53C76.23,61,75,61.64,75,63a2.05,2.05,0,0,0,1,1.75,8.64,8.64,0,0,0,1.54.72C78,66.8,78.62,68,80,68a2.05,2.05,0,0,0,1.75-1,7.61,7.61,0,0,0,.72-1.53A8.55,8.55,0,0,0,84,64.77a2,2,0,0,0,0-3.5Zm-1,1.8c-1.37.84-2,.48-2.26,1.37A5.8,5.8,0,0,1,80.05,66a.06.06,0,0,1-.1,0c-.83-1.37-.48-2-1.37-2.26A5.8,5.8,0,0,1,77,63.07a.06.06,0,0,1,0-.1,5.8,5.8,0,0,1,1.54-.65c.88-.23.54-.89,1.37-2.26a.06.06,0,0,1,.1,0c.84,1.37.49,2,1.37,2.26A5.8,5.8,0,0,1,83,63h0a.06.06,0,0,1,0,.1Z"/><path class="cls-8" d="M88.09,57.36v-31c0-3.59-3.28-6.5-7.33-6.5s-7.32,2.91-7.32,6.5V57.36A10,10,0,0,0,69,65.53C69,71.3,74.26,76,80.76,76S92.54,71.3,92.54,65.53a10,10,0,0,0-4.45-8.17Z"/><path class="cls-9" d="M92.54,65.53C92.54,71.3,87.27,76,80.76,76a13.31,13.31,0,0,1-1.91-.14c5.6-.81,9.87-5.11,9.87-10.31a10,10,0,0,0-4.45-8.17v-31A6.68,6.68,0,0,0,78.85,20a8,8,0,0,1,1.91-.23c4,0,7.33,2.91,7.33,6.51v31A10,10,0,0,1,92.54,65.53Z"/><path class="cls-10" d="M80.76,72c-4,0-7.31-2.91-7.31-6.49a6.24,6.24,0,0,1,2.76-5.08l1.68-1.19V26.31a2.89,2.89,0,0,1,5.74,0v33l1.68,1.19a6.23,6.23,0,0,1,2.77,5.08c0,3.58-3.28,6.49-7.32,6.49Z"/><path class="cls-11" d="M88.08,65.53a6.68,6.68,0,0,1-5.34,6.25A6.12,6.12,0,0,0,85,67.13a6.24,6.24,0,0,0-2.77-5.08l-1.68-1.18V26a2.44,2.44,0,0,0-1-1.95,3.19,3.19,0,0,1,1.28-.27,2.72,2.72,0,0,1,2.87,2.55V59.26l1.68,1.19a6.23,6.23,0,0,1,2.77,5.08Z"/><path class="cls-12" d="M85.31,60.45l-1.68-1.19V46H77.89v13.3l-1.68,1.18a6.24,6.24,0,0,0-2.76,5.08c0,3.58,3.28,6.49,7.31,6.49s7.32-2.91,7.32-6.49A6.23,6.23,0,0,0,85.31,60.45Z"/><path class="cls-13" d="M85.31,60.45l-1.68-1.19V46.53H80.51V60.87l1.68,1.18A6.24,6.24,0,0,1,85,67.13a6.12,6.12,0,0,1-2.22,4.65,6.68,6.68,0,0,0,5.34-6.25,6.23,6.23,0,0,0-2.77-5.08Z"/><path d="M87,69.09a1,1,0,0,0,.41.08,1,1,0,0,0,.87-.48,6.62,6.62,0,0,0,.8-3.16,7,7,0,0,0-3.12-5.74l-1.32-.93V26.31a3.85,3.85,0,0,0-7.65,0v5.43a1,1,0,0,0,1.91,0V26.31a1.93,1.93,0,0,1,3.83,0V45.69H78.85V35.58a1,1,0,0,0-1.91,0V58.86l-1.32.93a7,7,0,0,0-3.13,5.74c0,4,3.71,7.34,8.27,7.34a9,9,0,0,0,4.14-1,.8.8,0,0,0,.35-1.16,1,1,0,0,0-1.31-.3,7,7,0,0,1-3.18.76c-3.5,0-6.36-2.54-6.36-5.65a5.41,5.41,0,0,1,2.41-4.41l1.68-1.19a.82.82,0,0,0,.36-.67V47.38h3.83V59.27a.81.81,0,0,0,.36.66l1.68,1.19a5.4,5.4,0,0,1,2.4,4.41A5.08,5.08,0,0,1,86.5,68,.82.82,0,0,0,87,69.09Z"/><path d="M89.05,57V50.83a.91.91,0,0,0-1-.84.9.9,0,0,0-1,.84v6.53a.8.8,0,0,0,.36.66,9.21,9.21,0,0,1,4.08,7.51c0,5.3-4.85,9.6-10.82,9.6S70,70.83,70,65.53A9.19,9.19,0,0,1,74,58a.8.8,0,0,0,.36-.66v-31c0-3.11,2.86-5.65,6.37-5.65s6.38,2.54,6.38,5.65V47a.9.9,0,0,0,1,.85.91.91,0,0,0,1-.85V26.31c0-4-3.72-7.34-8.29-7.34s-8.28,3.29-8.28,7.34V57A10.75,10.75,0,0,0,68,65.53c0,6.23,5.71,11.3,12.72,11.3s12.73-5.07,12.73-11.3A10.75,10.75,0,0,0,89.05,57Z"/><path d="M92.36,29.05H97a.85.85,0,1,0,0-1.69H92.36a.85.85,0,1,0,0,1.69Z"/><path d="M92.35,32.26h0a.86.86,0,1,0,0-1.7h0a.86.86,0,1,0,0,1.7Z"/><path d="M97,34.91H92.36a.86.86,0,1,0,0,1.7H97a.86.86,0,1,0,0-1.7Z"/><path d="M92.35,39.81h0a.86.86,0,1,0,0-1.7h0a.86.86,0,1,0,0,1.7Z"/><path d="M97,42.46H92.36a.86.86,0,1,0,0,1.7H97a.86.86,0,1,0,0-1.7Z"/><path d="M92.35,47.36h0a.91.91,0,0,0,.95-.84.91.91,0,0,0-.95-.86h0a.91.91,0,0,0-.95.85A.89.89,0,0,0,92.35,47.36Z"/><path d="M97,50H92.36a.86.86,0,1,0,0,1.7H97A.86.86,0,1,0,97,50Z"/><path d="M92.35,54.91h0a.85.85,0,1,0,0-1.69h0a.85.85,0,1,0,0,1.69Z"/></g></g></svg>