<svg xmlns="http://www.w3.org/2000/svg" viewBox="0 0 106.7 141.02"><defs><style>.cls-1{fill:#aa3684;}.cls-2{fill:#ffbd4a;}.cls-3{fill:#f7ac28;}.cls-4{fill:#fbede3;}.cls-5{fill:#f1954a;}.cls-6{fill:#fbe2d0;}.cls-7{fill:#60a6b8;}.cls-8{font-size:20px;font-family:TwCenMT-Regular, Tw Cen MT;}</style></defs><title>Asset 30</title><g id="Layer_2" data-name="Layer 2"><g id="_750_x_5766_px_Artboard_2" data-name="750 x 5766 px Artboard 2"><g id="Text"><path class="cls-1" d="M53.68,33.71A13.38,13.38,0,1,0,77,24.82,7.88,7.88,0,0,0,71.52,11.3h0c0-.23,0-.45,0-.68a9.43,9.43,0,0,0-9.43-9.43H44.24a9.43,9.43,0,0,0-9.43,9.43c0,.23,0,.45,0,.68h0a7.88,7.88,0,0,0-5.52,13.52,13.37,13.37,0,1,0,23.36,8.89Z"/><path class="cls-2" d="M35.87,55.65c0,1.76-1.83,1.76-1.83,3.53s1.83,1.77,1.83,3.53S34,64.48,34,66.25v0C34,68,35.87,68,35.87,69.74S34,71.5,34,73.27,35.87,75,35.87,76.8l0,3.35H70.45V76.8c0-1.76,1.84-1.76,1.84-3.53s-1.84-1.76-1.84-3.53S72.3,68,72.3,66.21v0c0-1.77-1.84-1.77-1.84-3.54S72.3,61,72.3,59.18s-1.84-1.77-1.84-3.53c0-8.17-6.62-13.15-14.79-13.15h-5c-8.18,0-14.8,5-14.8,13.15Z"/><path class="cls-3" d="M72.3,66.25v0Z"/><path class="cls-3" d="M70.46,62.71c0-1.76,1.84-1.76,1.84-3.53s-1.84-1.77-1.84-3.53c0-8.17-6.62-13.15-14.79-13.15h-5c-.5,0-1,0-1.48.06,7.49.56,13.33,5.41,13.33,13.09v7.06c0,1.76,1.82,1.77,1.83,3.52v0c0,1.74-1.83,1.75-1.83,3.51s1.83,1.76,1.83,3.53S62.52,75,62.52,76.8l0,3.35h8V76.8c0-1.76,1.84-1.76,1.84-3.53s-1.84-1.77-1.84-3.53S72.28,68,72.3,66.23s-1.84-1.76-1.84-3.52Z"/><path class="cls-4" d="M53.17,47.08h0a4.52,4.52,0,0,1-4.52-4.52v-7.9h9v7.9A4.51,4.51,0,0,1,53.17,47.08Z"/><path class="cls-5" d="M65,46.08a27.48,27.48,0,0,1-23.6,0c-6.53-3.06-3.27-12.22,3.29-9.22a19.89,19.89,0,0,0,17,0C68.2,33.87,71.54,43,65,46.08Z"/><path class="cls-4" d="M53.17,13.66a9.44,9.44,0,0,1-13.89,5v7.51a13.89,13.89,0,0,0,27.78,0V18.63a9.44,9.44,0,0,1-13.89-5Z"/><path class="cls-6" d="M62.09,20a9.49,9.49,0,0,1-3-.48v6.58a13.89,13.89,0,0,1-9.92,13.31,14.13,14.13,0,0,0,4,.57A13.88,13.88,0,0,0,67.06,26.14V18.63A9.44,9.44,0,0,1,62.09,20Z"/><path class="cls-4" d="M86.27,35.15V12.4a4.58,4.58,0,0,0-9.15,0V35.15a8.09,8.09,0,1,0,9.15,0Z"/><path class="cls-6" d="M86.27,35.15V12.4A4.56,4.56,0,0,0,81.7,7.86a4.67,4.67,0,0,0-2.35.64,4.52,4.52,0,0,1,2.23,3.9V39.51l3.3,2.25a8.19,8.19,0,0,1-5.53,7.67,7.91,7.91,0,0,0,2.35.35,8,8,0,0,0,4.57-14.63Z"/><circle class="cls-7" cx="81.7" cy="41.82" r="3.18"/><path d="M48.77,31.58a1.19,1.19,0,0,0,1.68,1.69,3.84,3.84,0,0,1,5.43,0,1.2,1.2,0,0,0,1.69-1.69,6.24,6.24,0,0,0-8.8,0Z"/><path d="M77.83,61.76a3.45,3.45,0,0,0,0-5.25c-.44-.43-.55-.57-.55-.91a1.19,1.19,0,0,0-2.38,0,3.45,3.45,0,0,0,1.28,2.63c.69.66.69,1.15,0,1.81a3.45,3.45,0,0,0,0,5.25c.68.66.68,1.12,0,1.78a3.41,3.41,0,0,0-1.28,2.62,1.19,1.19,0,0,0,2.38,0c0-.34.11-.47.55-.9a3.36,3.36,0,0,0,0-5.21C77.14,62.91,77.14,62.42,77.83,61.76Z"/><path d="M30.12,65.66A3.44,3.44,0,0,0,31.4,63,1.19,1.19,0,0,0,29,63c0,.35-.11.48-.55.91a3.36,3.36,0,0,0,0,5.21c.69.66.69,1.15,0,1.82a3.45,3.45,0,0,0,0,5.25c.44.43.55.56.55.91a1.19,1.19,0,0,0,2.38,0,3.44,3.44,0,0,0-1.28-2.63c-.69-.66-.69-1.15,0-1.82a3.45,3.45,0,0,0,0-5.25C29.44,66.78,29.44,66.32,30.12,65.66Z"/><path d="M87.47,34.55V19.64a1.2,1.2,0,0,0-2.39,0V35.15a1.22,1.22,0,0,0,.52,1,6.81,6.81,0,0,1-3.9,12.45,6.88,6.88,0,0,1-6.9-6.83,6.81,6.81,0,0,1,3-5.62,1.22,1.22,0,0,0,.52-1V12.4a3.39,3.39,0,0,1,6.77,0v.89a1.2,1.2,0,0,0,2.39,0V12.4A5.78,5.78,0,0,0,76,11.3a8.83,8.83,0,0,0-3.32-1.12A10.64,10.64,0,0,0,62.09,0H44.24A10.63,10.63,0,0,0,33.63,10.18a9.08,9.08,0,0,0-5.91,14.68,14.54,14.54,0,0,0,9.11,23.2,14,14,0,0,0-2.15,7.59c0,.34-.11.47-.55.9a3.45,3.45,0,0,0,0,5.25c.69.67.69,1.16,0,1.82a3.36,3.36,0,0,0,0,5.21c.69.66.69,1.15,0,1.82a3.45,3.45,0,0,0,0,5.25c.44.43.55.56.55.91l0,3.35a1.19,1.19,0,0,0,1.19,1.18H70.45a1.19,1.19,0,0,0,1.19-1.18l0-3.36c0-.34.1-.47.55-.9a3.45,3.45,0,0,0,0-5.25c-.69-.67-.69-1.16,0-1.82a3.37,3.37,0,0,0,0-5.21c-.69-.66-.69-1.15,0-1.82a3.45,3.45,0,0,0,0-5.25c-.45-.43-.55-.56-.55-.9a13.88,13.88,0,0,0-2.16-7.59,14.34,14.34,0,0,0,4.31-1.45A9.29,9.29,0,0,0,91,41.76a9.2,9.2,0,0,0-3.5-7.21ZM70.55,58.27c.69.67.69,1.15,0,1.82a3.45,3.45,0,0,0,0,5.25c.69.66.69,1.11,0,1.77a3.45,3.45,0,0,0,0,5.25c.69.67.69,1.16,0,1.82a3.41,3.41,0,0,0-1.28,2.62V79h-4.7V58.86a1.19,1.19,0,0,0-2.38,0V79h-18V58.86a1.2,1.2,0,0,0-2.39,0V79H37.08l0-2.16a3.41,3.41,0,0,0-1.28-2.62c-.69-.66-.69-1.15,0-1.82a3.45,3.45,0,0,0,0-5.25c-.68-.66-.68-1.11,0-1.77a3.45,3.45,0,0,0,0-5.25c-.69-.67-.69-1.16,0-1.82a3.41,3.41,0,0,0,1.28-2.62,11.06,11.06,0,0,1,3.7-8.55,19.23,19.23,0,0,0,2.69,1.13,1.19,1.19,0,0,0,.8-2.24c-2.84-1-4.7-2.08-5.16-4.2s1.7-5.54,4.31-4.18a15.06,15.06,0,0,0,19.68-.12,3.53,3.53,0,0,1,4.25,3.75c-.24,3.24-4,4.59-8,5.56a26.28,26.28,0,0,1-8.38.66,1.19,1.19,0,0,0-.2,2.37c4.86.41,10.49-.32,14.82-2.7a11.06,11.06,0,0,1,3.66,8.52,3.41,3.41,0,0,0,1.28,2.62ZM53.17,38.83a12.7,12.7,0,0,1-12.7-12.69v-5.6a10.5,10.5,0,0,0,3.77.69,10.61,10.61,0,0,0,8.93-4.86,10.64,10.64,0,0,0,12.7,4.17v5.6A12.71,12.71,0,0,1,53.17,38.83Zm14.57,7c-.07,0-.12,0-.15-.14a6.4,6.4,0,0,0,2.12-4.32,5.88,5.88,0,0,0-4.5-6.21,15,15,0,0,0,3-9.06V18.63c-.21-1.05-.82-1.39-1.82-1a8.25,8.25,0,0,1-12.14-4.35,1.2,1.2,0,0,0-2.25,0A8.25,8.25,0,0,1,39.9,17.62c-1-.38-1.61,0-1.81,1v7.51a15,15,0,0,0,3,9c-3.22.6-5,4-4.34,7.13a6.38,6.38,0,0,0,2,3.42l-.16.15c-6.34-.69-11.51-5.52-11.51-12.16a12.18,12.18,0,0,1,3.09-8.1A1.18,1.18,0,0,0,30.12,24a6.64,6.64,0,0,1-2-4.79,6.71,6.71,0,0,1,6.68-6.69C36,12.52,36,11.43,36,10.62a8.25,8.25,0,0,1,8.24-8.24H62.09a8.33,8.33,0,0,1,8.22,8.83,1.26,1.26,0,0,0,1.22,1.28,6.62,6.62,0,0,1,4.4,1.65V34.55a9.16,9.16,0,0,0-3.11,9.89,12.17,12.17,0,0,1-5.08,1.43Z"/><path d="M93.83,29.2H90.58a1.19,1.19,0,0,0,0,2.38h3.25A1.19,1.19,0,0,0,93.83,29.2Z"/><path d="M90.58,24.68h1.56a1.2,1.2,0,0,0,0-2.39H90.58A1.2,1.2,0,0,0,90.58,24.68Z"/><path d="M90.58,17.77h3.25a1.19,1.19,0,0,0,0-2.38H90.58A1.19,1.19,0,0,0,90.58,17.77Z"/><path d="M81.7,29.2a1.19,1.19,0,0,0-1.2,1.19v7.23a4.38,4.38,0,1,0,2.39,0V30.39A1.19,1.19,0,0,0,81.7,29.2Zm2,12.62a2,2,0,1,1-2-2A2,2,0,0,1,83.68,41.82Z"/><text class="cls-8" transform="translate(31.36 117.46)">Slight<tspan x="-18.35" y="18">cold stress</tspan></text></g></g></g></svg>