<svg xmlns="http://www.w3.org/2000/svg" viewBox="0 0 121.4 138.51"><defs><style>.cls-1{fill:#ccc9ba;}.cls-2{fill:#bab6a4;}.cls-3{fill:#fff;}.cls-4{fill:#fdd8a8;}.cls-5{fill:#a59eaf;}.cls-6{fill:#ffc477;}.cls-7{fill:#827a8c;}.cls-8{fill:#92cdde;}.cls-9{fill:#418abd;}.cls-10{font-size:20px;font-family:TwCenMT-Regular, Tw Cen MT;}.cls-11{letter-spacing:-0.02em;}</style></defs><title>Asset 28</title><g id="Layer_2" data-name="Layer 2"><g id="_750_x_5766_px_Artboard_2" data-name="750 x 5766 px Artboard 2"><g id="Text"><path class="cls-1" d="M58,46l-1.87-2.16c-1.22-.84-3.3-.62-4.34-1.68a5.81,5.81,0,0,1-1-2.81,18.78,18.78,0,0,0-4.39,12v27H61.25V47.44A4.28,4.28,0,0,1,58,46Z"/><path class="cls-1" d="M85.56,39.29a5.86,5.86,0,0,1-1,2.82c-1,1.06-3.11.84-4.33,1.68L78.3,46a4.28,4.28,0,0,1-3.24,1.49V78.28H89.94v-27a18.77,18.77,0,0,0-4.38-12Z"/><path class="cls-2" d="M58,46l-1.87-2.16c-1.22-.84-3.3-.62-4.34-1.68a5.81,5.81,0,0,1-1-2.81,19.64,19.64,0,0,0-2.19,3.27,5.45,5.45,0,0,0,1.12,1.7,7.21,7.21,0,0,0,3.8,1.8c.25,0,.58.13.8.2L55.78,48a7.46,7.46,0,0,0,2.48,1.86V78.28h3V47.44A4.28,4.28,0,0,1,58,46Z"/><path class="cls-2" d="M85.56,39.29a5.86,5.86,0,0,1-1,2.82c-1,1.06-3.11.84-4.33,1.68L78.3,46a4.28,4.28,0,0,1-3.24,1.49V78.28h3V49.84A7.27,7.27,0,0,0,80.53,48L82,46.27c.23-.07.56-.15.8-.2a7.18,7.18,0,0,0,3.8-1.8,5.64,5.64,0,0,0,1.13-1.71,19.64,19.64,0,0,0-2.19-3.27Z"/><path class="cls-3" d="M89.38,29.7c.28-1.44,1.9-2.79,1.9-4.32s-1.62-2.87-1.9-4.32.71-3.37.15-4.74-2.57-2-3.38-3.24-.6-3.37-1.64-4.43S81.4,7.81,80.18,7,78.37,4.09,77,3.52s-3.18.44-4.63.15-2.73-1.95-4.22-1.95-2.81,1.66-4.23,2S60.64,3,59.3,3.52,57.35,6.14,56.14,7s-3.3.62-4.34,1.68-.82,3.18-1.64,4.43-2.81,1.85-3.38,3.24.44,3.25.15,4.74S45,23.85,45,25.38s1.62,2.88,1.9,4.32-.7,3.37-.15,4.74,2.57,2,3.38,3.24.61,3.37,1.64,4.43,3.12.84,4.34,1.68L58,46a4.28,4.28,0,0,0,3.24,1.49V78.28H75.06V47.44A4.28,4.28,0,0,0,78.3,46l1.88-2.16c1.22-.84,3.3-.62,4.33-1.68s.82-3.18,1.64-4.43,2.81-1.85,3.38-3.24S89.09,31.19,89.38,29.7Z"/><path class="cls-1" d="M68.16,43.7A18.08,18.08,0,0,1,50.25,25.48v-.2A18.09,18.09,0,0,1,68.16,7.06a17.63,17.63,0,0,1,12.65,5.33,18.24,18.24,0,0,1,5.25,12.89v.2A18.08,18.08,0,0,1,68.16,43.7Z"/><path class="cls-4" d="M54.73,25.28v.2A13.54,13.54,0,0,0,68.16,39.12h0A13.54,13.54,0,0,0,81.59,25.48v-.2A13.54,13.54,0,0,0,68.16,11.64h0A13.54,13.54,0,0,0,54.73,25.28Z"/><path class="cls-5" d="M68.16,11.64h0a13.48,13.48,0,0,0-13,10.15h9.11a4.83,4.83,0,0,0,4.77-4.88h9.71A13.32,13.32,0,0,0,68.16,11.64Z"/><path class="cls-6" d="M68.16,36.07h0A13.51,13.51,0,0,1,54.8,23.85a13.56,13.56,0,0,0-.07,1.43v.2A13.54,13.54,0,0,0,68.16,39.12h0A13.54,13.54,0,0,0,81.59,25.48v-.2a13.55,13.55,0,0,0-.08-1.43A13.5,13.5,0,0,1,68.16,36.07Z"/><path class="cls-2" d="M80.81,12.39A17.63,17.63,0,0,0,68.16,7.06,18.09,18.09,0,0,0,50.25,25.28v.2c0,.48,0,1,.06,1.43A18.05,18.05,0,0,1,68.16,10.12a17.66,17.66,0,0,1,12.65,5.32A18.25,18.25,0,0,1,86,26.91c0-.47,0-.95,0-1.43v-.2A18.24,18.24,0,0,0,80.81,12.39Z"/><path class="cls-7" d="M78.76,16.91h0a13.32,13.32,0,0,0-10.6-5.27h0a13.48,13.48,0,0,0-13,10.15h1.2A13.41,13.41,0,0,1,68.16,14.7h0a13.21,13.21,0,0,1,7.33,2.21Z"/><path d="M87.18,25.48v-.2a19.35,19.35,0,0,0-5.59-13.7A18.72,18.72,0,0,0,68.16,5.92a19.22,19.22,0,0,0-19,19.36v.2a19,19,0,1,0,38.05,0Zm-35.81,0v-.2A17,17,0,0,1,68.16,8.21,16.53,16.53,0,0,1,80,13.2a17.14,17.14,0,0,1,4.92,12.08v.2a16.79,16.79,0,1,1-33.57,0Z"/><path d="M82.7,25.48v-.2a14.78,14.78,0,0,0-4.26-10.45A14.3,14.3,0,0,0,68.16,10.5,14.68,14.68,0,0,0,53.61,25.28v.2a14.55,14.55,0,1,0,29.09,0ZM68.16,12.79a12.1,12.1,0,0,1,8,3h-8.2v1.14a3.7,3.7,0,0,1-3.65,3.74H56.73A12.32,12.32,0,0,1,68.16,12.79ZM55.85,25.48v-.2a12.06,12.06,0,0,1,.22-2.34h8.21a5.94,5.94,0,0,0,5.78-4.89H78.2a12.58,12.58,0,0,1,2.27,7.23v.2a12.31,12.31,0,1,1-24.62,0Z"/><rect x="54.35" y="55.99" width="2.24" height="22.29"/><rect x="80.62" y="55.99" width="2.24" height="22.29"/><path d="M62.37,73.7V46.3H61.25a3.19,3.19,0,0,1-2.4-1.11l-1.68,1.52a5.53,5.53,0,0,0,3,1.76V73.7Z"/><path d="M90.48,20.84a5.38,5.38,0,0,1,.14-1.76,5.78,5.78,0,0,0-.06-3.19,5.61,5.61,0,0,0-2.19-2.33,5.3,5.3,0,0,1-1.29-1.11,5.51,5.51,0,0,1-.52-1.66A5.79,5.79,0,0,0,85.3,7.84a5.44,5.44,0,0,0-2.88-1.28A4.87,4.87,0,0,1,80.8,6a5.2,5.2,0,0,1-1.09-1.31,5.59,5.59,0,0,0-2.27-2.25,5.36,5.36,0,0,0-3.12-.06,4.9,4.9,0,0,1-1.72.14,4.9,4.9,0,0,1-1.48-.77,5.49,5.49,0,0,0-3-1.19,5.49,5.49,0,0,0-3,1.19,5,5,0,0,1-1.47.77A4.87,4.87,0,0,1,62,2.4a5.39,5.39,0,0,0-3.13.06A5.59,5.59,0,0,0,56.6,4.71,5.2,5.2,0,0,1,55.51,6a4.87,4.87,0,0,1-1.62.54A5.48,5.48,0,0,0,51,7.84a5.69,5.69,0,0,0-1.25,2.95,5.23,5.23,0,0,1-.53,1.66A5.23,5.23,0,0,1,48,13.56a5.64,5.64,0,0,0-2.2,2.33,5.68,5.68,0,0,0,0,3.19,5.63,5.63,0,0,1,.13,1.76,5.19,5.19,0,0,1-.76,1.51,5.82,5.82,0,0,0-1.16,3,5.85,5.85,0,0,0,1.16,3,5,5,0,0,1,.76,1.5,5.59,5.59,0,0,1-.13,1.76,5.72,5.72,0,0,0,0,3.2A5.55,5.55,0,0,0,48,37.2a5,5,0,0,1,1.28,1.12,2.33,2.33,0,0,1,.3.71,20,20,0,0,0-4.28,12.23v27h2.24v-27a17.52,17.52,0,0,1,2.81-9.41A3.7,3.7,0,0,0,51,42.92a5.4,5.4,0,0,0,2.88,1.28,5.11,5.11,0,0,1,1.62.54l1.25-1.9A6.57,6.57,0,0,0,54.37,42a3.92,3.92,0,0,1-1.78-.67,4.27,4.27,0,0,1-.65-1.81A6.82,6.82,0,0,0,51.09,37a6.65,6.65,0,0,0-1.87-1.72A3.82,3.82,0,0,1,47.82,34a4.09,4.09,0,0,1,.08-1.91A7.32,7.32,0,0,0,48,29.48,7,7,0,0,0,47,27.18a4.09,4.09,0,0,1-.81-1.8,4.09,4.09,0,0,1,.81-1.8A6.93,6.93,0,0,0,48,21.28a7.32,7.32,0,0,0-.13-2.61,4.09,4.09,0,0,1-.08-1.91,4,4,0,0,1,1.4-1.32,6.65,6.65,0,0,0,1.87-1.72,6.77,6.77,0,0,0,.85-2.44,4.27,4.27,0,0,1,.65-1.82,3.93,3.93,0,0,1,1.78-.66,7,7,0,0,0,2.39-.87A6.84,6.84,0,0,0,58.44,6a4.14,4.14,0,0,1,1.29-1.44,4,4,0,0,1,1.87.09,6.77,6.77,0,0,0,2.55.13,6.47,6.47,0,0,0,2.25-1.1,4,4,0,0,1,1.76-.83,4,4,0,0,1,1.75.83,6.55,6.55,0,0,0,2.25,1.1,6.77,6.77,0,0,0,2.55-.13,4,4,0,0,1,1.87-.09A4,4,0,0,1,77.87,6a6.72,6.72,0,0,0,1.69,1.92,6.9,6.9,0,0,0,2.38.87,3.93,3.93,0,0,1,1.78.66,4.27,4.27,0,0,1,.65,1.82,7,7,0,0,0,.85,2.44,6.65,6.65,0,0,0,1.87,1.72,4.13,4.13,0,0,1,1.41,1.32,4.25,4.25,0,0,1-.09,1.91,7.32,7.32,0,0,0-.13,2.61,6.89,6.89,0,0,0,1.08,2.31,4.13,4.13,0,0,1,.81,1.79,4.16,4.16,0,0,1-.81,1.8,6.84,6.84,0,0,0-1.08,2.3,7.32,7.32,0,0,0,.13,2.61A4.25,4.25,0,0,1,88.5,34a4,4,0,0,1-1.41,1.32A6.65,6.65,0,0,0,85.22,37a7,7,0,0,0-.85,2.45,4.27,4.27,0,0,1-.65,1.81,3.92,3.92,0,0,1-1.78.67,6.63,6.63,0,0,0-2.39.87l1.25,1.9a5.2,5.2,0,0,1,1.62-.54,5.37,5.37,0,0,0,2.88-1.28A3.39,3.39,0,0,0,86,41.83a17.57,17.57,0,0,1,2.8,9.43v27h2.24v-27A20,20,0,0,0,86.79,39a2.6,2.6,0,0,1,.29-.69,5.11,5.11,0,0,1,1.29-1.12,5.59,5.59,0,0,0,2.19-2.32,5.81,5.81,0,0,0,.06-3.2,5.34,5.34,0,0,1-.14-1.76,5,5,0,0,1,.76-1.5,5.77,5.77,0,0,0,1.16-3,5.7,5.7,0,0,0-1.16-3A5.19,5.19,0,0,1,90.48,20.84Z"/><path d="M75.06,46.3H74V73.7h2.23V48.47a5.46,5.46,0,0,0,3-1.76l-1.68-1.52A3.17,3.17,0,0,1,75.06,46.3Z"/><rect x="60.17" y="75.99" width="2.24" height="2.29"/><rect x="73.9" y="75.99" width="2.24" height="2.29"/><rect x="66.89" y="74.77" width="2.24" height="2.29"/><rect x="66.89" y="47.29" width="2.24" height="2.29"/><rect x="66.89" y="70.19" width="2.24" height="2.29"/><rect x="66.89" y="51.87" width="2.24" height="2.29"/><rect x="66.89" y="56.45" width="2.24" height="2.29"/><rect x="66.89" y="65.61" width="2.24" height="2.29"/><rect x="66.89" y="61.03" width="2.24" height="2.29"/><path class="cls-3" d="M52,55.38H49.73V51.56a14.77,14.77,0,0,1,1-5.3l2.08.84A12.58,12.58,0,0,0,52,51.56v3.82Z"/><rect class="cls-3" x="49.73" y="57.67" width="2.24" height="2.29"/><path class="cls-3" d="M87.18,66.68H84.94V64.39h2.24Zm0-4.58H84.94V59.81h2.24Zm0-4.58H84.94V50.8h2.24Z"/><path d="M60.63,30.31l3.71-1.47a1.92,1.92,0,0,0,0-3.51l-3.71-1.46a.84.84,0,0,0-1.09.61,1,1,0,0,0,.53,1.24l3.47,1.37-3.47,1.38a1,1,0,0,0-.53,1.24.86.86,0,0,0,.81.66A.75.75,0,0,0,60.63,30.31Z"/><path d="M76.34,24.48a.85.85,0,0,0-1.1-.61l-3.71,1.46a1.84,1.84,0,0,0-1.13,1.75,1.86,1.86,0,0,0,1.13,1.76l3.71,1.47a.71.71,0,0,0,.28.06.88.88,0,0,0,.82-.66,1,1,0,0,0-.53-1.24l-3.48-1.38,3.48-1.37a1,1,0,0,0,.53-1.24Z"/><g id="flat"><path class="cls-8" d="M0,20.46s12.27-8.19,29.66-4.09,29.66-2.05,29.66-2.05-1.54,18.92-28.64,9.2C24.65,21.36,19.43,18.41,0,20.46Z"/><path class="cls-8" d="M6.14,25.57s11.25-4.09,24.54,3.07c9,4.85,22.51,1,22.51,1S39.89,43,25.57,32.73C21.57,29.87,15.34,25.57,6.14,25.57Z"/><path class="cls-9" d="M43.73,14.06a27.52,27.52,0,0,1-6.12-.79,66.84,66.84,0,0,0-24.13-1l-.37-2a67.64,67.64,0,0,1,25,1c6.34,1.46,9.28.48,10.64-.6a3.56,3.56,0,0,0,1.41-2.5.68.68,0,0,1,0-.2,3.62,3.62,0,0,0-.63-2.69A4.31,4.31,0,0,0,46,4.09c-4.89,0-5.11,2.76-5.12,3.08h-2S39,2.05,46,2.05c2.3,0,4,.66,5.08,2a5.64,5.64,0,0,1,1,4.28,5.62,5.62,0,0,1-2.16,4A9.81,9.81,0,0,1,43.73,14.06Z"/><path class="cls-9" d="M48.07,51.14c-7.08,0-7.16-5.06-7.16-5.11H43c0,.3.22,3.07,5.11,3.07a4.06,4.06,0,0,0,3.25-1.21,5.28,5.28,0,0,0,.86-3.74,1,1,0,0,1,0-.17,2.54,2.54,0,0,0-1.08-1.74c-1.31-1-4.27-1.87-11-.33-13.72,3.16-25.06-9-25.53-9.51L16.09,31c.11.11,11,11.8,23.57,8.9,6.06-1.4,10.35-1.15,12.75.76a4.52,4.52,0,0,1,1.8,3.21,7.21,7.21,0,0,1-1.32,5.32A6,6,0,0,1,48.07,51.14Z"/><path class="cls-9" d="M30.68,46c-7.45,0-15.67-7.11-16-7.42L16,37.07c.07.07,8,6.91,14.66,6.91Z"/><path class="cls-9" d="M6.66,11.11l-1-1.76c.22-.13,5.5-3.21,17.91-3.21v2C11.76,8.18,6.71,11.08,6.66,11.11Z"/><rect class="cls-9" x="25.57" y="6.14" width="2.05" height="2.05"/><rect class="cls-8" x="8.18" y="30.68" width="2.05" height="2.05"/><rect class="cls-8" x="8.18" y="34.78" width="2.05" height="2.05"/><rect class="cls-8" x="6.14" y="32.73" width="2.05" height="2.05"/><rect class="cls-8" x="10.23" y="32.73" width="2.05" height="2.05"/><rect class="cls-8" x="33.75" y="47.05" width="2.05" height="2.05"/><rect class="cls-8" x="33.75" y="51.14" width="2.05" height="2.05"/><rect class="cls-8" x="31.71" y="49.1" width="2.05" height="2.05"/><rect class="cls-8" x="35.8" y="49.1" width="2.05" height="2.05"/><rect class="cls-8" x="32.73" width="2.05" height="2.05"/><rect class="cls-8" x="32.73" y="4.09" width="2.05" height="2.05"/><rect class="cls-8" x="30.68" y="2.05" width="2.05" height="2.05"/><rect class="cls-8" x="34.78" y="2.05" width="2.05" height="2.05"/><rect class="cls-8" x="5.11" width="2.05" height="2.05"/><rect class="cls-8" x="5.11" y="4.09" width="2.05" height="2.05"/><rect class="cls-8" x="3.07" y="2.05" width="2.05" height="2.05"/><rect class="cls-8" x="7.16" y="2.05" width="2.05" height="2.05"/><path class="cls-9" d="M44.4,23.12a27.09,27.09,0,0,1-5.75-.64l.43-2c13.42,2.87,18.28-5.55,18.33-5.63l1.78,1C59.15,15.92,55,23.12,44.4,23.12Z"/></g><text class="cls-10" transform="translate(42.32 114.96)">St<tspan class="cls-11" x="15.42" y="0">r</tspan><tspan x="21.68" y="0">ong</tspan><tspan x="-14.61" y="18">cold stress</tspan></text></g></g></g></svg>