<svg xmlns="http://www.w3.org/2000/svg" viewBox="0 0 106.7 142.08"><defs><style>.cls-1{fill:#fab03c;}.cls-2{fill:#fd8f3e;}.cls-3{fill:#efa66f;}.cls-4{fill:#f0f5f7;}.cls-5{fill:#f4bc8e;}.cls-6{fill:#fbdbb7;}.cls-7{fill:#82807f;}.cls-8{fill:#6d6d6d;}.cls-9{fill:#a0ecff;}.cls-10{fill:#60daff;}.cls-11{font-size:20px;font-family:TwCenMT-Regular, Tw Cen MT;}.cls-12{letter-spacing:-0.02em;}</style></defs><title>Asset 33</title><g id="Layer_2" data-name="Layer 2"><g id="_750_x_5766_px_Artboard_2" data-name="750 x 5766 px Artboard 2"><g id="Text"><path class="cls-1" d="M53.43,23.53a14.28,14.28,0,1,1-.15-2.06A14.07,14.07,0,0,1,53.43,23.53Z"/><path class="cls-2" d="M53.43,23.53a14.28,14.28,0,0,1-25.16,9.25,13.84,13.84,0,0,1-.15-2.05,14.29,14.29,0,0,1,25.16-9.26A14.07,14.07,0,0,1,53.43,23.53Z"/><path class="cls-3" d="M67,37.55a3,3,0,1,1-3-3A3,3,0,0,1,67,37.55Z"/><path class="cls-3" d="M43.27,37.55a3,3,0,1,1-3-3A3,3,0,0,1,43.27,37.55Z"/><path class="cls-4" d="M70.81,68.52V79.9H33.51V68.52a18.65,18.65,0,0,1,28.25-16,18.62,18.62,0,0,1,9.05,16Z"/><path class="cls-5" d="M61.8,69.43h9V79.9h-9Z"/><path class="cls-5" d="M33.51,69.43h9V79.9h-9Z"/><path class="cls-5" d="M61.76,52.53a11.74,11.74,0,0,1-19.27,0,18.66,18.66,0,0,1,19.27,0Z"/><path class="cls-6" d="M41.25,27.18V40.47a10.92,10.92,0,1,0,21.83,0V27.18Z"/><path class="cls-5" d="M63.08,27.18V40.47A10.9,10.9,0,0,1,50.44,51.25a10.92,10.92,0,0,0,9.19-10.78V27.18Z"/><path class="cls-7" d="M52.16,18.6A12.65,12.65,0,0,0,39.51,31.25v4.5S50.09,35,54.15,30.59c1.23,2,4.1,4.67,10.67,4.67v-4A12.65,12.65,0,0,0,52.16,18.6Z"/><path class="cls-8" d="M64.82,31.25v4a19.55,19.55,0,0,1-3.72-.33V31.25A12.67,12.67,0,0,0,50.3,18.73,12.71,12.71,0,0,1,64.82,31.25Z"/><path class="cls-9" d="M66.08,27a3,3,0,1,1-6,0c0-1.08,1.29-3.22,2.18-4.56a1,1,0,0,1,1.64,0C64.79,23.76,66.08,25.9,66.08,27Z"/><path class="cls-10" d="M66.08,27a3,3,0,0,1-4.17,2.77A3,3,0,0,0,63.74,27c0-.95-1-2.7-1.83-4l.35-.54a1,1,0,0,1,1.64,0C64.79,23.76,66.08,25.89,66.08,27Z"/><path class="cls-9" d="M71.24,57.53a3,3,0,0,1-6,0c0-1.09,1.3-3.22,2.18-4.56a1,1,0,0,1,1.65,0C69.94,54.31,71.24,56.44,71.24,57.53Z"/><path class="cls-10" d="M71.24,57.53a3,3,0,0,1-3,3,2.88,2.88,0,0,1-1.17-.24,3,3,0,0,0,1.83-2.76c0-1-1-2.7-1.83-4l.35-.54a1,1,0,0,1,1.64,0C69.94,54.31,71.24,56.44,71.24,57.53Z"/><path class="cls-9" d="M44.35,43.9a3,3,0,0,1-6,0c0-1.09,1.29-3.22,2.18-4.56a1,1,0,0,1,1.64,0C43.06,40.68,44.35,42.81,44.35,43.9Z"/><path class="cls-10" d="M44.35,43.9a3,3,0,0,1-3,3,2.88,2.88,0,0,1-1.17-.24A3,3,0,0,0,42,43.9c0-.95-1-2.7-1.83-4l.35-.54a1,1,0,0,1,1.64,0C43.06,40.68,44.35,42.81,44.35,43.9Z"/><path d="M39.15,5.45a1.19,1.19,0,0,0,1.19-1.19V1.19a1.19,1.19,0,1,0-2.38,0V4.26A1.19,1.19,0,0,0,39.15,5.45Z"/><path d="M28.49,7.44a1.19,1.19,0,0,0,1,.59,1.16,1.16,0,0,0,.59-.16,1.18,1.18,0,0,0,.43-1.62L29,3.59A1.19,1.19,0,1,0,27,4.77Z"/><path d="M23.06,12.87l-2.67-1.54a1.19,1.19,0,1,0-1.18,2.06l2.66,1.53a1.16,1.16,0,0,0,.59.16,1.19,1.19,0,0,0,.6-2.21Z"/><path d="M21.07,23.53a1.19,1.19,0,0,0-1.19-1.19H16.81a1.19,1.19,0,0,0,0,2.38h3.07A1.19,1.19,0,0,0,21.07,23.53Z"/><path d="M55.83,15.08a1.14,1.14,0,0,0,.59-.16l2.67-1.53a1.19,1.19,0,0,0-1.19-2.06l-2.66,1.54a1.18,1.18,0,0,0,.59,2.21Z"/><path d="M21.87,32.13l-2.66,1.54a1.18,1.18,0,0,0-.44,1.62,1.2,1.2,0,0,0,1,.6,1.24,1.24,0,0,0,.59-.16l2.67-1.54a1.19,1.19,0,0,0-1.19-2.06Z"/><path d="M48.19,7.87a1.14,1.14,0,0,0,.59.16,1.19,1.19,0,0,0,1-.59l1.54-2.67a1.19,1.19,0,0,0-2.06-1.18L47.75,6.25A1.18,1.18,0,0,0,48.19,7.87Z"/><path d="M30.11,39.18a1.18,1.18,0,0,0-1.62.44L27,42.28a1.19,1.19,0,0,0,.43,1.62,1.2,1.2,0,0,0,.6.16,1.19,1.19,0,0,0,1-.59l1.53-2.66A1.19,1.19,0,0,0,30.11,39.18Z"/><path d="M70.81,76.47a1.19,1.19,0,0,0-1.18,1.19V79.9a1.19,1.19,0,1,0,2.37,0V77.66A1.19,1.19,0,0,0,70.81,76.47Z"/><path d="M42.52,63.7a1.18,1.18,0,0,0-1.18,1.18v3.36H34.7a17.41,17.41,0,0,1,1.58-7,1.17,1.17,0,0,0-.58-1.57,1.19,1.19,0,0,0-1.57.58,19.65,19.65,0,0,0-1.81,8.27V79.9a1.19,1.19,0,1,0,2.38,0V70.62h6.64V79.9a1.19,1.19,0,1,0,2.37,0v-15A1.18,1.18,0,0,0,42.52,63.7Z"/><path d="M72.42,57.53c0-.41,0-1.63-2.37-5.22a2.19,2.19,0,0,0-1.82-1,2.15,2.15,0,0,0-1.8,1c-.37.56-.69,1.06-1,1.51a19.59,19.59,0,0,0-6-3.73,12.08,12.08,0,0,0,4.7-8.39A4.16,4.16,0,0,0,66,33.89V31.25c0-.41,0-.82-.06-1.22A4.2,4.2,0,0,0,67.27,27c0-.4,0-1.63-2.38-5.22a2.19,2.19,0,0,0-1.81-1,2.14,2.14,0,0,0-1.34.47,13.84,13.84,0,0,0-8.36-3.8,15.47,15.47,0,1,0-27.49,14,1.18,1.18,0,0,0,1,.58,1.25,1.25,0,0,0,.61-.17,1.2,1.2,0,0,0,.4-1.64A13.09,13.09,0,1,1,50.76,17.48,13.86,13.86,0,0,0,38.32,31.25v2.64a4.17,4.17,0,0,0-2,2.43,13.15,13.15,0,0,1-5.26-2.48A1.19,1.19,0,1,0,29.6,35.7a15.34,15.34,0,0,0,6.72,3,4.17,4.17,0,0,0,1.78,2.34,5.78,5.78,0,0,0-.94,2.82,4.2,4.2,0,0,0,4.19,4.19,4.37,4.37,0,0,0,1.26-.19,12.06,12.06,0,0,0,2.21,2.19,19.88,19.88,0,0,0-7.67,5.46,1.18,1.18,0,0,0,.9,2,1.17,1.17,0,0,0,.9-.41,18.15,18.15,0,0,1,3.26-2.94,12.93,12.93,0,0,0,19.83,0A17.1,17.1,0,0,1,64.37,56a3.88,3.88,0,0,0-.32,1.49,4.2,4.2,0,0,0,4.19,4.19h0a17.07,17.07,0,0,1,1.37,6.52H63V64.88a1.19,1.19,0,0,0-2.37,0v15a1.19,1.19,0,1,0,2.37,0V70.62h6.64v1.87a1.19,1.19,0,1,0,2.37,0v-4A19.67,19.67,0,0,0,70.54,61,4.2,4.2,0,0,0,72.42,57.53ZM52.16,50.2a9.74,9.74,0,0,1-7.58-3.64,4.14,4.14,0,0,0,1-2.66c0-.36,0-1.39-1.71-4.17a4.18,4.18,0,0,0,.62-2.18,4.25,4.25,0,0,0-.2-1.29c3.1-.62,7.08-1.79,9.72-3.89,1.42,1.69,3.84,3.35,7.92,3.9v4.2A9.73,9.73,0,0,1,52.16,50.2ZM64.27,39.31V36.45h.55a1.1,1.1,0,0,0,.51-.12,1.81,1.81,0,0,1,.48,1.22A1.78,1.78,0,0,1,64.27,39.31ZM64.89,27a1.82,1.82,0,1,1-3.63,0c0-.33.39-1.45,1.82-3.64C64.5,25.53,64.89,26.65,64.89,27Zm-24.2,4.27a11.47,11.47,0,0,1,19.66-8c-1.46,2.48-1.46,3.42-1.46,3.76a4.2,4.2,0,0,0,4.19,4.19,3.31,3.31,0,0,0,.55,0v2.92c-5.08-.28-7.41-2.34-8.47-4.08a1.15,1.15,0,0,0-.9-.56,1.19,1.19,0,0,0-1,.37c-1.49,1.61-4.33,2.95-8.2,3.87a42.39,42.39,0,0,1-4.37.78V31.25Zm-2.17,6.3a1.75,1.75,0,0,1,.23-.88,1.22,1.22,0,0,0,.76.27h.08c.13,0,1-.08,2.26-.27a1.81,1.81,0,0,1,.23.88,1.33,1.33,0,0,1,0,.28,2.06,2.06,0,0,0-.7-.12,2.17,2.17,0,0,0-1.81,1c-.08.12-.15.24-.23.35A1.78,1.78,0,0,1,38.52,37.55Zm1,6.35c0-.33.39-1.46,1.81-3.65,1.43,2.19,1.82,3.32,1.82,3.65a1.82,1.82,0,0,1-3.63,0ZM52.11,56.39a10.56,10.56,0,0,1-7.82-3.46,17,17,0,0,1,3.29-1.26,12.13,12.13,0,0,0,9.17,0A17.26,17.26,0,0,1,60,52.89,10.57,10.57,0,0,1,52.11,56.39Zm14.31,1.14c0-.33.39-1.46,1.81-3.65,1.43,2.19,1.82,3.32,1.82,3.65a1.82,1.82,0,0,1-3.63,0Z"/><path d="M46.07,41.91,49,40.71a1.59,1.59,0,0,0,0-2.85l-2.91-1.18a.66.66,0,0,0-.86.49.84.84,0,0,0,.42,1l2.72,1.11-2.72,1.12a.84.84,0,0,0-.42,1,.69.69,0,0,0,.64.53A.57.57,0,0,0,46.07,41.91Z"/><path d="M58.39,37.17a.67.67,0,0,0-.86-.49l-2.91,1.18a1.59,1.59,0,0,0,0,2.85l2.9,1.2a.62.62,0,0,0,.23,0,.69.69,0,0,0,.64-.53.85.85,0,0,0-.42-1l-2.72-1.12L58,38.18a.84.84,0,0,0,.42-1Z"/><text class="cls-11" transform="translate(27.61 118.53)">St<tspan class="cls-12" x="15.42" y="0">r</tspan><tspan x="21.68" y="0">ong</tspan><tspan x="-15.66" y="18">heat stress</tspan></text></g></g></g></svg>