<svg xmlns="http://www.w3.org/2000/svg" viewBox="0 0 100.51 143.43"><defs><style>.cls-1{fill:#fab03c;}.cls-2{fill:#fd8f3e;}.cls-3{fill:#efa66f;}.cls-4{fill:#f0f5f7;}.cls-5{fill:#f4bc8e;}.cls-6{fill:#fbdbb7;}.cls-7{fill:#82807f;}.cls-8{fill:#6d6d6d;}.cls-9{fill:#a0ecff;}.cls-10{fill:#60daff;}.cls-11{fill:#e82f3e;}.cls-12{fill:#ea9d2d;}.cls-13{fill:#ff6268;}.cls-14{fill:#961b20;}.cls-15{font-size:20px;font-family:TwCenMT-Regular, Tw Cen MT;}.cls-16{letter-spacing:-0.06em;}.cls-17{letter-spacing:0.02em;}.cls-18{letter-spacing:-0.02em;}</style></defs><title>Asset 34</title><g id="Layer_2" data-name="Layer 2"><g id="_750_x_5766_px_Artboard_2" data-name="750 x 5766 px Artboard 2"><g id="Text"><path class="cls-1" d="M52.51,23.53a14.28,14.28,0,1,1-.15-2.06A14.07,14.07,0,0,1,52.51,23.53Z"/><path class="cls-2" d="M52.51,23.53a14.28,14.28,0,0,1-25.16,9.25,13.84,13.84,0,0,1-.15-2.05,14.29,14.29,0,0,1,25.16-9.26A14.07,14.07,0,0,1,52.51,23.53Z"/><path class="cls-3" d="M66.07,37.55a3,3,0,1,1-3-3A3,3,0,0,1,66.07,37.55Z"/><path class="cls-3" d="M42.34,37.55a3,3,0,1,1-3-3A3,3,0,0,1,42.34,37.55Z"/><path class="cls-4" d="M69.89,68.52V79.9H32.59V68.52a18.65,18.65,0,1,1,37.3,0Z"/><path class="cls-5" d="M60.88,69.43h9V79.9h-9Z"/><path class="cls-5" d="M32.59,69.43h9V79.9h-9Z"/><path class="cls-5" d="M60.84,52.53a11.75,11.75,0,0,1-19.28,0,18.68,18.68,0,0,1,19.28,0Z"/><path class="cls-6" d="M40.32,27.18V40.47a10.92,10.92,0,1,0,21.83,0V27.18Z"/><path class="cls-5" d="M62.15,27.18V40.47A10.91,10.91,0,0,1,51.24,51.39a11,11,0,0,1-1.73-.14A10.9,10.9,0,0,0,58.7,40.47V27.18Z"/><path class="cls-7" d="M51.24,18.6A12.65,12.65,0,0,0,38.58,31.25v4.5S49.17,35,53.22,30.59c1.24,2,4.11,4.67,10.67,4.67v-4A12.65,12.65,0,0,0,51.24,18.6Z"/><path class="cls-8" d="M63.89,31.25v4a19.63,19.63,0,0,1-3.72-.33V31.25A12.67,12.67,0,0,0,49.38,18.73,12.7,12.7,0,0,1,63.89,31.25Z"/><path class="cls-9" d="M65.15,27a3,3,0,0,1-6,0c0-1.08,1.29-3.22,2.18-4.56a1,1,0,0,1,1.64,0C63.86,23.76,65.15,25.9,65.15,27Z"/><path class="cls-10" d="M65.15,27a3,3,0,0,1-3,3A3.05,3.05,0,0,1,61,29.75,3,3,0,0,0,62.81,27c0-.95-1-2.7-1.83-4l.35-.54a1,1,0,0,1,1.64,0C63.86,23.76,65.15,25.89,65.15,27Z"/><path class="cls-9" d="M70.31,57.53a3,3,0,0,1-6,0c0-1.09,1.29-3.22,2.18-4.56a1,1,0,0,1,1.64,0C69,54.31,70.31,56.44,70.31,57.53Z"/><path class="cls-10" d="M70.31,57.53a3,3,0,0,1-3,3,2.85,2.85,0,0,1-1.17-.24A3,3,0,0,0,68,57.53c0-1-1-2.7-1.83-4l.35-.54a1,1,0,0,1,1.64,0C69,54.31,70.31,56.44,70.31,57.53Z"/><path class="cls-9" d="M43.43,43.9a3,3,0,0,1-6,0c0-1.09,1.29-3.22,2.18-4.56a1,1,0,0,1,1.64,0C42.14,40.68,43.43,42.81,43.43,43.9Z"/><path class="cls-10" d="M43.43,43.9a3,3,0,0,1-3,3,2.93,2.93,0,0,1-1.18-.24,3,3,0,0,0,1.84-2.76c0-.95-1-2.7-1.83-4,.12-.19.23-.37.35-.54a1,1,0,0,1,1.64,0C42.14,40.68,43.43,42.81,43.43,43.9Z"/><path d="M38.22,5.45a1.19,1.19,0,0,0,1.19-1.19V1.19a1.19,1.19,0,1,0-2.37,0V4.26A1.18,1.18,0,0,0,38.22,5.45Z"/><path d="M27.56,7.44a1.19,1.19,0,0,0,1,.59,1.14,1.14,0,0,0,.59-.16,1.18,1.18,0,0,0,.44-1.62L28.08,3.59A1.19,1.19,0,0,0,26,4.77Z"/><path d="M22.13,12.87l-2.66-1.54a1.19,1.19,0,0,0-1.19,2.06L21,14.92a1.14,1.14,0,0,0,.59.16,1.18,1.18,0,0,0,.59-2.21Z"/><path d="M20.15,23.53A1.19,1.19,0,0,0,19,22.34H15.88a1.19,1.19,0,0,0,0,2.38H19A1.2,1.2,0,0,0,20.15,23.53Z"/><path d="M54.91,15.08a1.16,1.16,0,0,0,.59-.16l2.66-1.53A1.19,1.19,0,1,0,57,11.33l-2.67,1.54a1.19,1.19,0,0,0,.6,2.21Z"/><path d="M21,32.13l-2.67,1.54a1.18,1.18,0,0,0-.43,1.62,1.2,1.2,0,0,0,1,.6,1.27,1.27,0,0,0,.59-.16l2.66-1.54A1.19,1.19,0,0,0,21,32.13Z"/><path d="M47.26,7.87a1.16,1.16,0,0,0,.59.16,1.19,1.19,0,0,0,1-.59l1.54-2.67a1.19,1.19,0,1,0-2.06-1.18L46.83,6.25A1.18,1.18,0,0,0,47.26,7.87Z"/><path d="M29.18,39.18a1.19,1.19,0,0,0-1.62.44L26,42.28a1.19,1.19,0,0,0,.44,1.62,1.16,1.16,0,0,0,.59.16,1.19,1.19,0,0,0,1-.59l1.54-2.66A1.19,1.19,0,0,0,29.18,39.18Z"/><path d="M69.89,76.47a1.19,1.19,0,0,0-1.19,1.19V79.9a1.19,1.19,0,0,0,2.38,0V77.66A1.19,1.19,0,0,0,69.89,76.47Z"/><path d="M41.6,63.7a1.18,1.18,0,0,0-1.19,1.18v3.36H33.78a17.41,17.41,0,0,1,1.58-7,1.19,1.19,0,0,0-2.16-1,19.8,19.8,0,0,0-1.8,8.27V79.9a1.19,1.19,0,1,0,2.38,0V70.62h6.63V79.9a1.19,1.19,0,1,0,2.38,0v-15A1.19,1.19,0,0,0,41.6,63.7Z"/><path d="M71.5,57.53c0-.41,0-1.63-2.38-5.22a2.17,2.17,0,0,0-3.62,0c-.37.56-.68,1.06-.94,1.51a19.71,19.71,0,0,0-6-3.73,12.08,12.08,0,0,0,4.7-8.39,4.16,4.16,0,0,0,1.8-7.81V31.25c0-.41,0-.82,0-1.22A4.19,4.19,0,0,0,66.34,27c0-.4,0-1.63-2.38-5.22a2.18,2.18,0,0,0-1.81-1,2.11,2.11,0,0,0-1.33.47,13.9,13.9,0,0,0-8.36-3.8A15.48,15.48,0,1,0,25,31.5a1.21,1.21,0,0,0,1,.58,1.22,1.22,0,0,0,.61-.17A1.2,1.2,0,0,0,27,30.27,13.1,13.1,0,0,1,38.22,10.43a13.18,13.18,0,0,1,11.62,7.05A13.85,13.85,0,0,0,37.4,31.25v2.64a4.19,4.19,0,0,0-2,2.43,13.11,13.11,0,0,1-5.25-2.48,1.19,1.19,0,1,0-1.47,1.86,15.3,15.3,0,0,0,6.71,3,4.19,4.19,0,0,0,1.79,2.34,5.78,5.78,0,0,0-.94,2.82,4.2,4.2,0,0,0,4.19,4.19,4.3,4.3,0,0,0,1.25-.19,12.38,12.38,0,0,0,2.21,2.19,19.77,19.77,0,0,0-7.66,5.46,1.18,1.18,0,0,0,.89,2,1.14,1.14,0,0,0,.9-.41,18.21,18.21,0,0,1,3.27-2.94,12.93,12.93,0,0,0,19.83,0A18.41,18.41,0,0,1,63.45,56a3.77,3.77,0,0,0-.33,1.49,4.2,4.2,0,0,0,4.19,4.19h0a17.46,17.46,0,0,1,1.37,6.52H62.07V64.88a1.19,1.19,0,0,0-2.38,0v15a1.19,1.19,0,1,0,2.38,0V70.62H68.7v1.87a1.19,1.19,0,0,0,2.38,0v-4A19.68,19.68,0,0,0,69.61,61,4.19,4.19,0,0,0,71.5,57.53ZM51.24,50.2a9.74,9.74,0,0,1-7.58-3.64,4.14,4.14,0,0,0,1-2.66c0-.36,0-1.39-1.71-4.17a4.18,4.18,0,0,0,.62-2.18,4.25,4.25,0,0,0-.2-1.29c3.1-.62,7.07-1.79,9.71-3.89,1.43,1.69,3.84,3.35,7.93,3.9v4.2A9.74,9.74,0,0,1,51.24,50.2Zm12.1-10.89V36.45h.55a1.14,1.14,0,0,0,.52-.12,1.81,1.81,0,0,1,.48,1.22A1.79,1.79,0,0,1,63.34,39.31ZM64,27a1.82,1.82,0,1,1-3.63,0c0-.33.39-1.45,1.81-3.64C63.58,25.53,64,26.65,64,27Zm-24.2,4.27a11.47,11.47,0,0,1,19.66-8C58,25.7,58,26.64,58,27a4.2,4.2,0,0,0,4.19,4.19,3.52,3.52,0,0,0,.56,0v2.92c-5.09-.28-7.41-2.34-8.47-4.08a1.2,1.2,0,0,0-1.89-.19c-1.49,1.61-4.33,2.95-8.21,3.87a41.47,41.47,0,0,1-4.37.78V31.25Zm-2.18,6.3a1.76,1.76,0,0,1,.24-.88,1.21,1.21,0,0,0,.75.27h.09c.12,0,1-.08,2.26-.27a1.91,1.91,0,0,1,.22.88,2.64,2.64,0,0,1,0,.28,2.06,2.06,0,0,0-.7-.12,2.16,2.16,0,0,0-1.81,1l-.23.35A1.76,1.76,0,0,1,37.59,37.55Zm1,6.35c0-.33.39-1.46,1.82-3.65,1.42,2.19,1.81,3.32,1.81,3.65a1.82,1.82,0,0,1-3.63,0ZM51.18,56.39a10.58,10.58,0,0,1-7.82-3.46,17.45,17.45,0,0,1,3.29-1.26,12.15,12.15,0,0,0,9.18,0A17.53,17.53,0,0,1,59,52.89,10.58,10.58,0,0,1,51.18,56.39ZM65.5,57.53c0-.33.38-1.46,1.81-3.65,1.43,2.19,1.81,3.32,1.81,3.65a1.81,1.81,0,0,1-3.62,0Z"/><path d="M45.15,41.91l2.91-1.2a1.59,1.59,0,0,0,0-2.85l-2.9-1.18a.66.66,0,0,0-.86.49.82.82,0,0,0,.41,1l2.73,1.11L44.7,40.41a.83.83,0,0,0-.41,1,.69.69,0,0,0,.64.53A.57.57,0,0,0,45.15,41.91Z"/><path d="M57.46,37.17a.66.66,0,0,0-.86-.49l-2.9,1.18a1.5,1.5,0,0,0-.89,1.42,1.48,1.48,0,0,0,.88,1.43l2.91,1.2a.57.57,0,0,0,.22,0,.69.69,0,0,0,.64-.53.84.84,0,0,0-.41-1l-2.73-1.12L57,38.18a.83.83,0,0,0,.42-1Z"/><g id="filled_outline" data-name="filled outline"><path class="cls-11" d="M19.89,51.1a8.7,8.7,0,0,1,1.63,5.07v1.75A2.5,2.5,0,0,0,23.94,56l.17-.71.48.58a5.11,5.11,0,0,1,0,6.6,1.79,1.79,0,0,0,2.63,2.44l.14-.15,1.34-1.68L30,66.36a11.34,11.34,0,0,1-2.85,11.28l-.16.17a11.9,11.9,0,0,1-8.41,3.48H17.21A11.89,11.89,0,0,1,8.05,61.82l5.25-6.36a4.37,4.37,0,0,0,.63-4.56,4.35,4.35,0,0,1,1.57-5.41l2.77-1.85V46a8.73,8.73,0,0,0,1.62,5.06Z"/><path class="cls-12" d="M23.07,76.86h0a8,8,0,0,0,2-7.89l-1.89,1.88a1.91,1.91,0,0,1-2.71,0h0a1.92,1.92,0,0,1-.12-2.58A5.08,5.08,0,0,0,21,62.74L18,56.62l-.47,5.18A4.58,4.58,0,0,1,15.77,65L13.1,67.13a6.09,6.09,0,0,0-2.28,4.74v.74a6.05,6.05,0,0,0,6.12,6.06l1.88,0a6.06,6.06,0,0,0,4.25-1.79Z"/><path class="cls-13" d="M7.24,57.27a.65.65,0,0,1-.65-.65v-1.3a.65.65,0,1,1,1.29,0v1.3A.65.65,0,0,1,7.24,57.27Z"/><path class="cls-11" d="M9.18,54a.65.65,0,0,1-.65-.64v-1.3a.65.65,0,0,1,1.3,0v1.3A.65.65,0,0,1,9.18,54Z"/><path class="cls-14" d="M6.59,51.43a.65.65,0,0,1-.65-.65v-1.3a.65.65,0,0,1,1.3,0v1.3A.66.66,0,0,1,6.59,51.43Z"/><path class="cls-11" d="M29.31,59.22a.65.65,0,0,1-.65-.65v-1.3a.65.65,0,1,1,1.3,0v1.3A.65.65,0,0,1,29.31,59.22Z"/><path class="cls-13" d="M27.36,54.67a.65.65,0,0,1-.65-.65V52.73a.65.65,0,0,1,1.3,0V54A.65.65,0,0,1,27.36,54.67Z"/><path class="cls-11" d="M30,52.73a.65.65,0,0,1-.65-.65V50.13a.65.65,0,0,1,1.3,0v1.95A.66.66,0,0,1,30,52.73Z"/><path d="M30.58,66.17l0,0-1.3-3.25a.65.65,0,0,0-.84-.36.6.6,0,0,0-.27.2l-1.34,1.67a1.14,1.14,0,0,1-1.61.18.39.39,0,0,1-.1-.08A1.15,1.15,0,0,1,25,62.92a5.74,5.74,0,0,0,.05-7.44l-.48-.57a.64.64,0,0,0-.91-.09.69.69,0,0,0-.22.34l-.17.71a1.86,1.86,0,0,1-1.14,1.28v-1a9.31,9.31,0,0,0-1.75-5.44A8.06,8.06,0,0,1,18.92,46v-2.4a.65.65,0,0,0-.65-.65.66.66,0,0,0-.36.11L15.14,45a5,5,0,0,0-1.81,6.22,3.68,3.68,0,0,1-.53,3.88L7.55,61.41a12.54,12.54,0,0,0,9.66,20.53h1.33a12.5,12.5,0,0,0,8.87-3.67l.16-.17a12,12,0,0,0,3-11.93Zm-3.93,11-.16.17a11.18,11.18,0,0,1-7.95,3.29H17.21a11.24,11.24,0,0,1-8.66-18.4l5.25-6.36a5,5,0,0,0,.72-5.24A3.7,3.7,0,0,1,15.86,46l1.76-1.18V46a9.33,9.33,0,0,0,1.75,5.44,8.06,8.06,0,0,1,1.5,4.69v1.75a.65.65,0,0,0,.65.65,3.15,3.15,0,0,0,2.87-1.86,4.46,4.46,0,0,1-.33,5.37,2.44,2.44,0,1,0,3.71,3.18l.05-.06.65-.81.87,2.18A10.68,10.68,0,0,1,26.65,77.18Z"/><path d="M25.26,68.33a.63.63,0,0,0-.62.17l-1.89,1.88a1.27,1.27,0,0,1-1.87-1.71,5.72,5.72,0,0,0,.72-6.22l-3.06-6.12a.65.65,0,0,0-.87-.29.66.66,0,0,0-.36.52l-.47,5.18a4,4,0,0,1-1.47,2.75l-2.68,2.14a6.68,6.68,0,0,0-2.52,5.24v.74a6.72,6.72,0,0,0,6.71,6.71H17l1.88,0a6.68,6.68,0,0,0,4.7-2h0a8.73,8.73,0,0,0,2.2-8.53A.65.65,0,0,0,25.26,68.33Zm-2.65,8.06h0A5.34,5.34,0,0,1,18.81,78l-1.87,0a5.42,5.42,0,0,1-5.47-5.36v-.79a5.4,5.4,0,0,1,2-4.23l2.68-2.14a5.32,5.32,0,0,0,2-3.64L18.4,59l2,4.08a4.41,4.41,0,0,1-.56,4.81,2.57,2.57,0,0,0,3.79,3.46l1-1a7.43,7.43,0,0,1-2.1,6.12Z"/><path d="M6.59,55.32v1.3a.65.65,0,1,0,1.29,0v-1.3a.65.65,0,1,0-1.29,0Z"/><path d="M9.18,54a.65.65,0,0,0,.65-.64v-1.3a.65.65,0,0,0-1.3,0v1.3A.65.65,0,0,0,9.18,54Z"/><path d="M6.59,51.43a.66.66,0,0,0,.65-.65v-1.3a.65.65,0,0,0-1.3,0v1.3A.65.65,0,0,0,6.59,51.43Z"/><path d="M29.31,59.22a.65.65,0,0,0,.65-.65v-1.3a.65.65,0,1,0-1.3,0v1.3A.65.65,0,0,0,29.31,59.22Z"/><path d="M27.36,54.67A.65.65,0,0,0,28,54V52.73a.65.65,0,0,0-1.3,0V54A.65.65,0,0,0,27.36,54.67Z"/><path d="M30,52.73a.66.66,0,0,0,.65-.65V50.13a.65.65,0,0,0-1.3,0v1.95A.65.65,0,0,0,30,52.73Z"/></g><text class="cls-15" transform="translate(1.75 119.87)"><tspan class="cls-16">V</tspan><tspan x="10.88" y="0">e</tspan><tspan class="cls-17" x="20.88" y="0">r</tspan><tspan x="27.94" y="0">ty st</tspan><tspan class="cls-18" x="60.96" y="0">r</tspan><tspan x="67.22" y="0">ong</tspan><tspan x="7.11" y="18">heat stress</tspan></text></g></g></g></svg>