<svg height="512" viewBox="0 0 64 64" width="512" xmlns="http://www.w3.org/2000/svg"><g id="Cloud-Cancle-Remove-Cloud_Computing-Data" data-name="Cloud-Cancle-Remove-Cloud Computing-Data"><path d="m61 31a12 12 0 0 1 -12 12h-34a11.994 11.994 0 0 1 -1.82-23.85 13.859 13.859 0 0 1 -.18-2.15 14 14 0 0 1 26.35-6.6 9.011 9.011 0 0 1 11.65 8.6c0 .06-.01.12-.01.18a11.988 11.988 0 0 1 10.01 11.82z" fill="#3d9ae2"/><path d="m61 31a12 12 0 0 1 -12 12h-34a11.951 11.951 0 0 1 -1.81-.14c2.06-.93 4.62-2.16 7.47-3.71a105.526 105.526 0 0 0 12.76-8.13 74.081 74.081 0 0 0 16.39-16.48 8.9 8.9 0 0 1 1.19 4.46c0 .06-.01.12-.01.18a11.988 11.988 0 0 1 10.01 11.82z" fill="#1e81ce"/><path d="m48.7 43h-29.4a15.025 15.025 0 0 1 14.12-11.98 5.62 5.62 0 0 1 .58-.02 15.008 15.008 0 0 1 14.7 12z" fill="#1a6fb0"/><circle cx="32" cy="46" fill="#ffa733" r="15"/><path d="m40.36 44.46-3.53 3.54 3.53 3.54-2.82 2.82-3.54-3.53-3.54 3.53-2.82-2.82 3.53-3.54-3.53-3.54 2.82-2.82 3.54 3.53 3.54-3.53z" fill="#ee8700"/><path d="m38.36 42.46-3.53 3.54 3.53 3.54-2.82 2.82-3.54-3.53-3.54 3.53-2.82-2.82 3.53-3.54-3.53-3.54 2.82-2.82 3.54 3.53 3.54-3.53z" fill="#ff5023"/><path d="m51.979 18.358a10.008 10.008 0 0 0 -12.143-9.123 15 15 0 0 0 -27.836 7.765c0 .435.022.88.068 1.345a12.994 12.994 0 0 0 2.932 25.655h1.139a16 16 0 1 0 31.722 0h1.139a12.993 12.993 0 0 0 2.979-25.642zm-19.979 41.642a14 14 0 1 1 14-14 14.015 14.015 0 0 1 -14 14zm17-18h-1.527a15.976 15.976 0 0 0 -30.946 0h-1.527a10.994 10.994 0 0 1 -1.669-21.861 1 1 0 0 0 .837-1.139 12.851 12.851 0 0 1 -.168-2 13 13 0 0 1 24.469-6.127 1 1 0 0 0 1.18.481 7.838 7.838 0 0 1 2.351-.354 8.008 8.008 0 0 1 8 8.009c0 .027-.008.143-.008.171a1 1 0 0 0 .835.986 10.993 10.993 0 0 1 -1.827 21.834z"/><path d="m17 17h2a8.009 8.009 0 0 1 8-8v-2a10.011 10.011 0 0 0 -10 10z"/><path d="m55 31a6.006 6.006 0 0 1 -6 6v2a8.009 8.009 0 0 0 8-8z"/><path d="m39.364 42.465a1 1 0 0 0 -.293-.707l-2.829-2.829a1.029 1.029 0 0 0 -1.414 0l-2.828 2.829-2.828-2.829a1 1 0 0 0 -1.414 0l-2.829 2.829a1 1 0 0 0 0 1.414l2.829 2.828-2.829 2.828a1 1 0 0 0 0 1.414l2.829 2.829a1.029 1.029 0 0 0 1.414 0l2.828-2.829 2.828 2.829a1 1 0 0 0 1.414 0l2.829-2.829a1 1 0 0 0 0-1.414l-2.829-2.828 2.829-2.828a1 1 0 0 0 .293-.707zm-5.243 2.828a1 1 0 0 0 0 1.414l2.829 2.828-1.415 1.415-2.828-2.829a1 1 0 0 0 -1.414 0l-2.828 2.829-1.415-1.415 2.829-2.828a1 1 0 0 0 0-1.414l-2.829-2.828 1.415-1.415 2.828 2.829a1.029 1.029 0 0 0 1.414 0l2.828-2.829 1.415 1.415z"/></g></svg>